<svg xmlns="http://www.w3.org/2000/svg" xmlns:xlink="http://www.w3.org/1999/xlink" width="228.903" height="278.943" viewBox="0 0 171.677 209.207"><path stroke-width=".399" stroke-miterlimit="10" fill="none" stroke="#000" d="m26.926 96.34 122.563 45.624"/><path d="m151.356 142.66-2.432-2.606.565 1.91-1.677 1.077"/><path stroke-width=".399" stroke-miterlimit="10" fill="none" stroke="#000" d="m5.87 115.988 143.57-11.624"/><path d="m151.425 104.203-3.306-1.331 1.32 1.492-1.063 1.685"/><path stroke-width=".399" stroke-miterlimit="10" fill="none" stroke="#000" d="M66.517 203.338V20.81"/><path d="m66.517 18.817-1.594 3.188 1.594-1.196 1.594 1.196"/><path stroke-width=".199" stroke-miterlimit="10" fill="none" stroke="#000" stroke-opacity=".4" d="M32.582 101.08V95.81M30.156 98.641l4.852-.393M43.894 105.292v-5.273M41.468 102.852l4.852-.393M77.83 117.924v-5.272M75.403 115.485l4.852-.393M89.141 122.135v-5.272M86.715 119.696l4.852-.393M100.453 126.346v-5.272M98.027 123.907l4.852-.393M111.765 130.557v-5.272M109.339 128.118l4.852-.393M123.076 134.768v-5.272M120.65 132.329l4.852-.393M134.388 138.98v-5.273M131.962 136.54l4.852-.393M145.7 143.19v-5.272M143.274 140.75l4.852-.392M17.999 117.642v-5.272M16.868 114.585l2.262.842M42.258 115.678v-5.273M41.127 112.62l2.262.843M90.777 111.75v-5.273M89.646 108.692l2.262.842M115.036 109.785v-5.272M113.905 106.728l2.262.842M139.295 107.821v-5.272M138.164 104.764l2.263.842M64.092 190.355l4.851-.393M65.386 189.737l2.263.842M64.092 163.994l4.851-.393M65.386 163.377l2.263.842M64.092 137.634l4.851-.393M65.386 137.017l2.263.842M64.092 58.553l4.851-.392M65.386 57.936l2.263.842M64.092 32.193l4.851-.393M65.386 31.576l2.263.842"/><path d="m144.941 94.782-18.36-27.695-47.993 93.973 18.36 27.696z" fill="#009b77" fill-opacity=".9"/><path stroke-width=".399" stroke-linejoin="round" fill="none" stroke="#007c5f" stroke-opacity=".9" d="m144.941 94.782-18.36-27.695-47.993 93.973 18.36 27.696z"/><symbol id="a"><path d="M.327.733A.403.403 0 0 1 .038.618C.003.578 0 .549 0 .547 0 .541.004.539.01.539c.016 0 .039.014.047.019.021.014.024.02.03.039.014.04.042.075.168.081A2.235 2.235 0 0 0 .093.025L.087.007C.087.004.09 0 .097 0c.016 0 .064.022.075.048C.224.17.306.4.336.678h.052C.51.678.627.631.627.531.627.456.555.316.361.31.34.309.329.309.301.291.283.279.275.268.275.262c0-.007.006-.007.019-.007.182 0 .418.154.418.319 0 .114-.135.159-.251.159H.327z"/></symbol><use xlink:href="#a" transform="matrix(11.9552 0 0 -11.9552 149.29 89.488)" fill="#009b77" fill-opacity=".9"/><symbol id="b"><path d="M.229.204c.016.015.058.048.074.062.062.057.121.112.121.203 0 .119-.1.196-.225.196C.079.665 0 .574 0 .485 0 .436.039.429.053.429c.021 0 .052.015.052.053 0 .052-.05.052-.062.052a.155.155 0 0 0 .145.098C.281.632.329.553.329.469.329.365.256.289.138.168L.012.038C0 .027 0 .025 0 0h.395l.029.179H.393A.316.316 0 0 0 .37.09C.364.082.288.082.272.082H.094l.135.122z"/></symbol><use xlink:href="#b" transform="matrix(7.9701 0 0 -7.9701 157.777 90.683)" fill="#009b77" fill-opacity=".9"/><path stroke-width="1.594" stroke-miterlimit="10" fill="none" stroke="#ffb81c" d="m111.765 127.921-5.166-7.792"/><path d="m104.508 116.973.822 6.722 1.27-3.566 3.779.22" fill="#ffb81c"/><symbol id="c"><path d="M.471.383c.007.015.011.023.074.023v.043C.509.447.507.447.466.447L.38.449V.406C.407.406.429.401.429.394L.424.382.307.125.178.406h.055v.043C.21.447.14.447.113.447c-.029 0-.087 0-.113.002V.406h.063L.239.024C.248.005.25 0 .273 0c.016 0 .024.002.033.022l.165.361z"/></symbol><use xlink:href="#c" transform="matrix(11.9552 0 0 -11.9552 98.877 110.543)" fill="#ffb81c"/><symbol id="d"><path d="M.218.637c0 .027-.002.028-.029.028C.148.625.095.601 0 .601V.568c.027 0 .081 0 .139.027V.082C.139.045.136.033.041.033H.006V0c.041.003.127.003.172.003C.223.003.31.003.351 0v.033H.316C.221.033.218.045.218.082v.555z"/></symbol><use xlink:href="#d" transform="matrix(7.9701 0 0 -7.9701 106.454 112.276)" fill="#ffb81c"/><path stroke-width="1.594" stroke-miterlimit="10" fill="none" stroke="#ed6842" d="m111.765 127.921 6.762-13.24"/><path d="m120.248 111.31-5.452 4.016 3.73-.645 1.665 3.4" fill="#ed6842"/><use xlink:href="#c" transform="matrix(11.9552 0 0 -11.9552 114.618 104.879)" fill="#ed6842"/><use xlink:href="#b" transform="matrix(7.9701 0 0 -7.9701 121.851 106.612)" fill="#ed6842"/><path stroke-width="1.594" stroke-miterlimit="10" fill="none" stroke="#a50034" d="m66.517 111.077 41.7 15.524"/><path d="m111.765 127.921-4.62-4.951 1.072 3.63-3.185 2.046" fill="#a50034"/><symbol id="e"><path d="M.173.225c0 .033.007.192.124.192A.057.057 0 0 1 .276.371C.276.33.309.313.334.313S.392.33.392.371C.392.422.34.45.292.45.213.45.179.381.165.339H.164V.45L0 .442V.399c.062 0 .069 0 .069-.039V.043H0V0c.023.002.098.002.126.002.029 0 .11 0 .134-.002v.043H.173v.182z"/></symbol><use xlink:href="#e" transform="matrix(11.9552 0 0 -11.9552 107.068 137.934)" fill="#a50034"/><symbol id="f"><path d="M.448.34a.478.478 0 0 1-.044.236.196.196 0 0 1-.18.11C.098.686.052.592.038.564A.54.54 0 0 1 0 .34C0 .274.003.173.051.093A.199.199 0 0 1 .224 0c.048 0 .134.015.184.114.037.072.04.161.04.226M.224.028C.19.028.121.044.1.149.089.206.089.3.089.352c0 .069 0 .139.011.194.021.102.099.112.124.112C.258.658.327.641.347.55.359.495.359.42.359.352c0-.059 0-.149-.012-.205C.326.042.257.028.224.028z"/></symbol><use xlink:href="#f" transform="matrix(7.9701 0 0 -7.9701 112.47 139.895)" fill="#a50034"/><path d="m99.694 77.939-18.36-27.696-47.993 93.973 18.36 27.696z" fill="#00a6d6" fill-opacity=".9"/><path stroke-width=".399" stroke-linejoin="round" fill="none" stroke="#0085ab" stroke-opacity=".9" d="m99.694 77.939-18.36-27.696-47.993 93.973 18.36 27.696z"/><use xlink:href="#a" transform="matrix(11.9552 0 0 -11.9552 16.442 148.003)" fill="#00a6d6" fill-opacity=".9"/><use xlink:href="#d" transform="matrix(7.9701 0 0 -7.9701 25.272 149.199)" fill="#00a6d6" fill-opacity=".9"/><path stroke-width="1.594" stroke-miterlimit="10" fill="none" stroke="#ffb81c" d="m66.517 111.077-5.165-7.792"/><path d="m59.26 100.13.823 6.722 1.27-3.567 3.778.22" fill="#ffb81c"/><use xlink:href="#c" transform="matrix(11.9552 0 0 -11.9552 53.63 93.699)" fill="#ffb81c"/><use xlink:href="#d" transform="matrix(7.9701 0 0 -7.9701 61.207 95.433)" fill="#ffb81c"/><path stroke-width="1.594" stroke-miterlimit="10" fill="none" stroke="#ed6842" d="m66.517 111.077 6.763-13.24"/><path d="m75.001 94.465-5.452 4.017 3.73-.645 1.665 3.4" fill="#ed6842"/><use xlink:href="#c" transform="matrix(11.9552 0 0 -11.9552 69.37 88.035)" fill="#ed6842"/><use xlink:href="#b" transform="matrix(7.9701 0 0 -7.9701 76.605 89.768)" fill="#ed6842"/><path stroke-width=".199" stroke-miterlimit="10" fill="none" stroke="#000" d="M66.517 111.077 26.927 96.34M66.517 111.077l-60.648 4.91M66.517 111.077v-52.72"/><path stroke-width=".199" stroke-miterlimit="10" fill="none" stroke="#000" stroke-opacity=".4" d="M55.206 109.502v-5.272M52.78 107.063l4.852-.393M64.092 84.914l4.851-.393M65.386 84.296l2.263.842"/><symbol id="g"><path d="M.446.418C.414.412.402.388.402.369c0-.024.019-.032.033-.032.03 0 .051.026.051.053 0 .042-.048.061-.09.061C.335.451.301.391.292.372a.104.104 0 0 1-.103.079C.087.451.033.32.033.298c0-.004.004-.009.011-.009.008 0 .01.006.012.01.034.111.101.132.13.132C.231.431.24.389.24.365.24.343.234.32.222.272L.188.135C.173.075.144.02.091.02.086.02.061.02.04.033a.052.052 0 0 1 .044.049c0 .02-.015.032-.034.032A.052.052 0 0 1 0 .061C0 .019.047 0 .09 0c.048 0 .082.038.103.079A.105.105 0 0 1 .296 0c.102 0 .156.131.156.153 0 .005-.004.009-.01.009C.433.162.432.157.429.149.402.061.344.02.299.02.264.02.245.046.245.087c0 .022.004.038.02.104L.3.327c.015.06.049.104.095.104.002 0 .03 0 .051-.013z"/></symbol><use xlink:href="#g" transform="matrix(11.9552 0 0 -11.9552 155.789 145.354)"/><symbol id="h"><path d="M.236.092C.209.054.17.02.121.02.109.02.061.022.046.068l.01-.001c.03 0 .05.026.05.049 0 .023-.019.031-.034.031C.056.147.021.135.021.086.021.035.064 0 .121 0c.1 0 .201.092.229.203l.098.39C.449.598.451.604.451.61c0 .015-.012.025-.027.025C.415.635.394.631.386.601L.312.307C.307.289.307.287.299.276.279.248.246.214.198.214.142.214.137.269.137.296c0 .057.027.134.054.206.011.029.017.043.017.063 0 .042-.03.08-.079.08C.037.645 0 .5 0 .492 0 .488.004.483.011.483c.009 0 .01.004.014.018.024.084.062.124.101.124.009 0 .026 0 .026-.033A.275.275 0 0 0 .126.499C.077.368.077.335.077.311c0-.095.068-.117.118-.117.029 0 .065.009.1.046L.296.239a.381.381 0 0 0-.06-.147z"/></symbol><use xlink:href="#h" transform="matrix(11.9552 0 0 -11.9552 155.846 108.055)"/><symbol id="i"><path d="M.084.091c.043.049.078.08.128.125.06.052.086.077.1.092.07.069.105.127.105.135 0 .008-.008.008-.01.008C.4.451.398.447.393.44.368.397.344.376.318.376.297.376.286.385.267.409.246.434.229.451.2.451.127.451.083.36.083.339.083.336.084.33.093.33c.008 0 .009.004.012.011.017.04.065.047.084.047A.158.158 0 0 0 .251.372C.289.356.305.356.315.356l.016.001C.298.318.244.27.199.229L.098.136A.5.5 0 0 1 0 .008C0 .002.005 0 .011 0c.006 0 .007.001.014.013.016.025.048.062.085.062.021 0 .031-.007.051-.032C.18.021.197 0 .229 0c.098 0 .154.127.154.15 0 .004-.001.01-.011.01C.364.16.363.156.36.146A.132.132 0 0 0 .24.063a.158.158 0 0 0-.062.016C.138.095.127.095.114.095c-.01 0-.021 0-.03-.004z"/></symbol><use xlink:href="#i" transform="matrix(11.9552 0 0 -11.9552 64.045 14.838)"/></svg>