<svg xmlns="http://www.w3.org/2000/svg" xmlns:xlink="http://www.w3.org/1999/xlink" width="240.368" height="203.159" viewBox="0 0 180.276 152.369"><path stroke-width=".199" stroke-miterlimit="10" fill="none" stroke="#929292" d="m34.008 99.043 4.247-.193m-.622 5.517 4.248-.194m-.622 5.518 4.248-.194m3.003 10.841 4.248-.194m-.622 5.518 4.248-.194m-.622 5.518 4.247-.194M25.242 114.098l2.394 3.515m38.745-5.39 2.394 3.514m18.176-4.453 2.394 3.515m18.176-4.453 2.394 3.515m18.176-4.453 2.394 3.515m18.176-4.453 2.393 3.515"/><path stroke-width=".399" stroke-miterlimit="10" fill="none" stroke="#000" d="m34.319 96.285 24.258 35.619"/><path d="m59.698 133.55-.477-3.531-.644 1.885-1.99-.091"/><path stroke-width=".399" stroke-miterlimit="10" fill="none" stroke="#000" d="m5.869 116.794 152.283-6.944"/><path d="m160.142 109.759-3.257-1.447 1.267 1.538-1.122 1.646"/><path stroke-width=".199" stroke-miterlimit="10" fill="none" stroke="#929292" d="M26.439 117.982v-4.252m41.14 2.376v-4.252m20.569 3.314v-4.252m20.57 3.314v-4.252m20.57 3.314v-4.252m20.57 3.314v-4.252M44.885 94.84l4.247-.194m-4.247-19.98 4.247-.194M44.885 54.49l4.247-.194m-4.247-19.98 4.247-.194"/><path stroke-width=".399" stroke-miterlimit="10" fill="none" stroke="#000" d="M47.008 135.092V26.125"/><path d="m47.008 24.132-1.594 3.188 1.594-1.195 1.594 1.195"/><path stroke-width=".199" stroke-miterlimit="10" fill="none" stroke="#929292" d="M36.131 101.072V96.82m3.626 9.576v-4.252m3.626 9.576v-4.252m7.251 14.9v-4.253m3.626 9.576v-4.252m3.625 9.576v-4.252M45.812 92.986l2.393 3.515m-2.393-23.69 2.393 3.515m-2.393-23.69 2.393 3.515m-2.393-23.689 2.393 3.515"/><path stroke-width="1.594" stroke-linecap="round" stroke-miterlimit="10" fill="none" stroke="#00a6d6" d="M19.234 140.972 130.331 36.755"/><symbol id="a"><path d="M.149.115a.602.602 0 0 1 .084.201c.035.138.073.258.135.327.012.013.02.022.052.022.069 0 .071-.069.071-.083C.491.564.486.55.486.545c0-.007.006-.007.007-.007.016 0 .043.011.068.029.018.014.027.024.027.065C.588.686.56.727.504.727.472.727.384.719.286.62.206.538.159.358.14.283.122.214.114.183.084.123A.445.445 0 0 0 .037.054C.01.029 0 .011 0 .006 0 .004.002 0 .009 0 .013 0 .034.004.06.021c.017.01.019.012.042.036A.529.529 0 0 0 .25.029C.301.015.352 0 .403 0c.081 0 .163.061.195.105.02.027.026.052.026.055 0 .007-.006.007-.007.007A.119.119 0 0 1 .56.144C.533.127.531.121.525.104.52.088.514.08.51.074.502.062.501.062.486.062.438.062.388.077.322.095.294.103.239.119.189.119a.181.181 0 0 1-.04-.004z"/></symbol><use xlink:href="#a" transform="matrix(11.9552 0 0 -11.9552 124.21 30.526)" fill="#00a6d6"/><symbol id="b"><path d="M.218.637c0 .027-.002.028-.029.028C.148.625.095.601 0 .601V.568c.027 0 .081 0 .139.027V.082C.139.045.136.033.041.033H.006V0c.041.003.127.003.172.003C.223.003.31.003.351 0v.033H.316C.221.033.218.045.218.082v.555z"/></symbol><use xlink:href="#b" transform="matrix(7.9701 0 0 -7.9701 132.85 32.057)" fill="#00a6d6"/><path stroke-width="1.594" stroke-linecap="round" stroke-miterlimit="10" fill="none" stroke="#009b77" d="M53.123 128.449 164.219 24.23"/><use xlink:href="#a" transform="matrix(11.9552 0 0 -11.9552 158.099 18.003)" fill="#009b77"/><symbol id="c"><path d="M.229.204c.016.015.058.048.074.062.062.057.121.112.121.203 0 .119-.1.196-.225.196C.079.665 0 .574 0 .485 0 .436.039.429.053.429c.021 0 .052.015.052.053 0 .052-.05.052-.062.052a.155.155 0 0 0 .145.098C.281.632.329.553.329.469.329.365.256.289.138.168L.012.038C0 .027 0 .025 0 0h.395l.029.179H.393A.316.316 0 0 0 .37.09C.364.082.288.082.272.082H.094l.135.122z"/></symbol><use xlink:href="#c" transform="matrix(7.9701 0 0 -7.9701 166.395 19.533)" fill="#009b77"/><path stroke-width="1.594" stroke-linecap="round" stroke-miterlimit="10" fill="none" stroke="#ffb81c" d="m47.008 114.918 44.446-41.694"/><path d="m94.215 70.634-6.49 1.935 3.73.655.415 3.763" fill="#ffb81c"/><symbol id="d"><path d="M.471.383c.007.015.011.023.074.023v.043C.509.447.507.447.466.447L.38.449V.406C.407.406.429.401.429.394L.424.382.307.125.178.406h.055v.043C.21.447.14.447.113.447c-.029 0-.087 0-.113.002V.406h.063L.239.024C.248.005.25 0 .273 0c.016 0 .024.002.033.022l.165.361z"/></symbol><use xlink:href="#d" transform="matrix(11.9552 0 0 -11.9552 90.858 65.996)" fill="#ffb81c"/><path stroke-width="1.594" stroke-linecap="round" stroke-miterlimit="10" fill="none" stroke="#ffb81c" d="m80.897 102.394 44.445-41.693"/><path d="m128.103 58.11-6.49 1.936 3.73.655.415 3.763" fill="#ffb81c"/><use xlink:href="#d" transform="matrix(11.9552 0 0 -11.9552 124.746 53.473)" fill="#ffb81c"/><path stroke-width="1.594" stroke-linecap="round" stroke-miterlimit="10" fill="none" stroke="#a50034" d="m47.008 114.918 30.338-11.212"/><path d="m80.897 102.394-6.732-.741 3.18 2.053-1.08 3.628" fill="#a50034"/><symbol id="e"><path d="M.173.225c0 .033.007.192.124.192A.057.057 0 0 1 .276.371C.276.33.309.313.334.313S.392.33.392.371C.392.422.34.45.292.45.213.45.179.381.165.339H.164V.45L0 .442V.399c.062 0 .069 0 .069-.039V.043H0V0c.023.002.098.002.126.002.029 0 .11 0 .134-.002v.043H.173v.182z"/></symbol><use xlink:href="#e" transform="matrix(11.9552 0 0 -11.9552 76.201 95.902)" fill="#a50034"/><symbol id="f"><path d="M.448.34a.478.478 0 0 1-.044.236.196.196 0 0 1-.18.11C.098.686.052.592.038.564A.54.54 0 0 1 0 .34C0 .274.003.173.051.093A.199.199 0 0 1 .224 0c.048 0 .134.015.184.114.037.072.04.161.04.226M.224.028C.19.028.121.044.1.149.089.206.089.3.089.352c0 .069 0 .139.011.194.021.102.099.112.124.112C.258.658.327.641.347.55.359.495.359.42.359.352c0-.059 0-.149-.012-.205C.326.042.257.028.224.028z"/></symbol><use xlink:href="#f" transform="matrix(7.9701 0 0 -7.9701 81.603 97.862)" fill="#a50034"/><symbol id="g"><path d="M.446.418C.414.412.402.388.402.369c0-.024.019-.032.033-.032.03 0 .051.026.051.053 0 .042-.048.061-.09.061C.335.451.301.391.292.372a.104.104 0 0 1-.103.079C.087.451.033.32.033.298c0-.004.004-.009.011-.009.008 0 .01.006.012.01.034.111.101.132.13.132C.231.431.24.389.24.365.24.343.234.32.222.272L.188.135C.173.075.144.02.091.02.086.02.061.02.04.033a.052.052 0 0 1 .044.049c0 .02-.015.032-.034.032A.052.052 0 0 1 0 .061C0 .019.047 0 .09 0c.048 0 .082.038.103.079A.105.105 0 0 1 .296 0c.102 0 .156.131.156.153 0 .005-.004.009-.01.009C.433.162.432.157.429.149.402.061.344.02.299.02.264.02.245.046.245.087c0 .022.004.038.02.104L.3.327c.015.06.049.104.095.104.002 0 .03 0 .051-.013z"/></symbol><use xlink:href="#g" transform="matrix(11.9552 0 0 -11.9552 56.706 142.918)"/><symbol id="h"><path d="M.236.092C.209.054.17.02.121.02.109.02.061.022.046.068l.01-.001c.03 0 .05.026.05.049 0 .023-.019.031-.034.031C.056.147.021.135.021.086.021.035.064 0 .121 0c.1 0 .201.092.229.203l.098.39C.449.598.451.604.451.61c0 .015-.012.025-.027.025C.415.635.394.631.386.601L.312.307C.307.289.307.287.299.276.279.248.246.214.198.214.142.214.137.269.137.296c0 .057.027.134.054.206.011.029.017.043.017.063 0 .042-.03.08-.079.08C.037.645 0 .5 0 .492 0 .488.004.483.011.483c.009 0 .01.004.014.018.024.084.062.124.101.124.009 0 .026 0 .026-.033A.275.275 0 0 0 .126.499C.077.368.077.335.077.311c0-.095.068-.117.118-.117.029 0 .065.009.1.046L.296.239a.381.381 0 0 0-.06-.147z"/></symbol><use xlink:href="#h" transform="matrix(11.9552 0 0 -11.9552 164.564 113.609)"/><symbol id="i"><path d="M.084.091c.043.049.078.08.128.125.06.052.086.077.1.092.07.069.105.127.105.135 0 .008-.008.008-.01.008C.4.451.398.447.393.44.368.397.344.376.318.376.297.376.286.385.267.409.246.434.229.451.2.451.127.451.083.36.083.339.083.336.084.33.093.33c.008 0 .009.004.012.011.017.04.065.047.084.047A.158.158 0 0 0 .251.372C.289.356.305.356.315.356l.016.001C.298.318.244.27.199.229L.098.136A.5.5 0 0 1 0 .008C0 .002.005 0 .011 0c.006 0 .007.001.014.013.016.025.048.062.085.062.021 0 .031-.007.051-.032C.18.021.197 0 .229 0c.098 0 .154.127.154.15 0 .004-.001.01-.011.01C.364.16.363.156.36.146A.132.132 0 0 0 .24.063a.158.158 0 0 0-.062.016C.138.095.127.095.114.095c-.01 0-.021 0-.03-.004z"/></symbol><use xlink:href="#i" transform="matrix(11.9552 0 0 -11.9552 44.536 20.152)"/></svg>