<?xml version="1.0" encoding="UTF-8"?>
<svg xmlns="http://www.w3.org/2000/svg" xmlns:xlink="http://www.w3.org/1999/xlink" width="193.97pt" height="175.532pt" viewBox="0 0 193.97 175.532" version="1.1">
<defs>
<g>
<symbol overflow="visible" id="glyph0-0">
<path style="stroke:none;" d=""/>
</symbol>
<symbol overflow="visible" id="glyph0-1">
<path style="stroke:none;" d="M 7.875 -2.75 C 8.078125 -2.75 8.296875 -2.75 8.296875 -2.984375 C 8.296875 -3.234375 8.078125 -3.234375 7.875 -3.234375 L 1.40625 -3.234375 C 1.203125 -3.234375 0.984375 -3.234375 0.984375 -2.984375 C 0.984375 -2.75 1.203125 -2.75 1.40625 -2.75 Z M 7.875 -2.75 "/>
</symbol>
<symbol overflow="visible" id="glyph0-2">
<path style="stroke:none;" d="M 2.15625 -1.109375 C 2.796875 -2.109375 3 -2.875 3.15625 -3.515625 C 3.578125 -5.15625 4.03125 -6.59375 4.765625 -7.421875 C 4.90625 -7.578125 5.015625 -7.6875 5.390625 -7.6875 C 6.21875 -7.6875 6.234375 -6.859375 6.234375 -6.6875 C 6.234375 -6.484375 6.1875 -6.3125 6.1875 -6.25 C 6.1875 -6.171875 6.25 -6.171875 6.265625 -6.171875 C 6.453125 -6.171875 6.78125 -6.296875 7.078125 -6.515625 C 7.296875 -6.6875 7.40625 -6.796875 7.40625 -7.296875 C 7.40625 -7.9375 7.0625 -8.421875 6.390625 -8.421875 C 6.015625 -8.421875 4.953125 -8.328125 3.796875 -7.140625 C 2.828125 -6.171875 2.265625 -4.015625 2.046875 -3.125 C 1.828125 -2.296875 1.734375 -1.921875 1.375 -1.203125 C 1.296875 -1.0625 0.984375 -0.53125 0.8125 -0.375 C 0.484375 -0.078125 0.375 0.125 0.375 0.1875 C 0.375 0.21875 0.390625 0.265625 0.484375 0.265625 C 0.53125 0.265625 0.78125 0.21875 1.09375 0.015625 C 1.296875 -0.109375 1.3125 -0.125 1.59375 -0.421875 C 2.1875 -0.40625 2.609375 -0.296875 3.359375 -0.078125 C 3.96875 0.078125 4.578125 0.265625 5.1875 0.265625 C 6.15625 0.265625 7.140625 -0.46875 7.515625 -0.984375 C 7.75 -1.3125 7.828125 -1.609375 7.828125 -1.65625 C 7.828125 -1.734375 7.75 -1.734375 7.75 -1.734375 C 7.546875 -1.734375 7.265625 -1.609375 7.0625 -1.453125 C 6.734375 -1.25 6.71875 -1.1875 6.640625 -0.984375 C 6.59375 -0.78125 6.515625 -0.6875 6.46875 -0.625 C 6.375 -0.484375 6.359375 -0.484375 6.1875 -0.484375 C 5.609375 -0.484375 5.015625 -0.65625 4.21875 -0.875 C 3.890625 -0.96875 3.234375 -1.15625 2.625 -1.15625 C 2.46875 -1.15625 2.3125 -1.140625 2.15625 -1.109375 Z M 2.15625 -1.109375 "/>
</symbol>
<symbol overflow="visible" id="glyph1-0">
<path style="stroke:none;" d=""/>
</symbol>
<symbol overflow="visible" id="glyph1-1">
<path style="stroke:none;" d="M 4.3125 -7.78125 C 4.3125 -8.015625 4.3125 -8.0625 4.140625 -8.0625 C 4.046875 -8.0625 4.015625 -8.0625 3.921875 -7.921875 L 0.328125 -2.34375 L 0.328125 -2 L 3.46875 -2 L 3.46875 -0.90625 C 3.46875 -0.46875 3.4375 -0.34375 2.5625 -0.34375 L 2.328125 -0.34375 L 2.328125 0 C 2.609375 -0.03125 3.546875 -0.03125 3.890625 -0.03125 C 4.21875 -0.03125 5.171875 -0.03125 5.453125 0 L 5.453125 -0.34375 L 5.21875 -0.34375 C 4.34375 -0.34375 4.3125 -0.46875 4.3125 -0.90625 L 4.3125 -2 L 5.515625 -2 L 5.515625 -2.34375 L 4.3125 -2.34375 Z M 3.53125 -6.84375 L 3.53125 -2.34375 L 0.625 -2.34375 Z M 3.53125 -6.84375 "/>
</symbol>
<symbol overflow="visible" id="glyph1-2">
<path style="stroke:none;" d="M 5.265625 -2.015625 L 5 -2.015625 C 4.953125 -1.8125 4.859375 -1.140625 4.75 -0.953125 C 4.65625 -0.84375 3.984375 -0.84375 3.625 -0.84375 L 1.40625 -0.84375 C 1.734375 -1.125 2.46875 -1.890625 2.765625 -2.171875 C 4.59375 -3.84375 5.265625 -4.46875 5.265625 -5.65625 C 5.265625 -7.03125 4.171875 -7.953125 2.78125 -7.953125 C 1.40625 -7.953125 0.578125 -6.765625 0.578125 -5.734375 C 0.578125 -5.125 1.109375 -5.125 1.140625 -5.125 C 1.40625 -5.125 1.703125 -5.3125 1.703125 -5.6875 C 1.703125 -6.03125 1.484375 -6.25 1.140625 -6.25 C 1.046875 -6.25 1.015625 -6.25 0.984375 -6.234375 C 1.203125 -7.046875 1.859375 -7.609375 2.625 -7.609375 C 3.640625 -7.609375 4.265625 -6.75 4.265625 -5.65625 C 4.265625 -4.640625 3.6875 -3.75 3 -2.984375 L 0.578125 -0.28125 L 0.578125 0 L 4.953125 0 Z M 5.265625 -2.015625 "/>
</symbol>
<symbol overflow="visible" id="glyph1-3">
<path style="stroke:none;" d="M 8.0625 -3.875 C 8.234375 -3.875 8.453125 -3.875 8.453125 -4.09375 C 8.453125 -4.3125 8.25 -4.3125 8.0625 -4.3125 L 1.03125 -4.3125 C 0.859375 -4.3125 0.640625 -4.3125 0.640625 -4.09375 C 0.640625 -3.875 0.84375 -3.875 1.03125 -3.875 Z M 8.0625 -1.65625 C 8.234375 -1.65625 8.453125 -1.65625 8.453125 -1.859375 C 8.453125 -2.09375 8.25 -2.09375 8.0625 -2.09375 L 1.03125 -2.09375 C 0.859375 -2.09375 0.640625 -2.09375 0.640625 -1.875 C 0.640625 -1.65625 0.84375 -1.65625 1.03125 -1.65625 Z M 8.0625 -1.65625 "/>
</symbol>
<symbol overflow="visible" id="glyph1-4">
<path style="stroke:none;" d="M 2.203125 -4.296875 C 2 -4.28125 1.953125 -4.265625 1.953125 -4.15625 C 1.953125 -4.046875 2.015625 -4.046875 2.21875 -4.046875 L 2.765625 -4.046875 C 3.796875 -4.046875 4.25 -3.203125 4.25 -2.0625 C 4.25 -0.484375 3.4375 -0.078125 2.84375 -0.078125 C 2.265625 -0.078125 1.296875 -0.34375 0.9375 -1.140625 C 1.328125 -1.078125 1.671875 -1.296875 1.671875 -1.71875 C 1.671875 -2.0625 1.421875 -2.3125 1.09375 -2.3125 C 0.796875 -2.3125 0.484375 -2.140625 0.484375 -1.6875 C 0.484375 -0.625 1.546875 0.25 2.875 0.25 C 4.296875 0.25 5.359375 -0.84375 5.359375 -2.046875 C 5.359375 -3.140625 4.46875 -4 3.328125 -4.203125 C 4.359375 -4.5 5.03125 -5.375 5.03125 -6.3125 C 5.03125 -7.25 4.046875 -7.953125 2.890625 -7.953125 C 1.703125 -7.953125 0.8125 -7.21875 0.8125 -6.34375 C 0.8125 -5.875 1.1875 -5.765625 1.359375 -5.765625 C 1.609375 -5.765625 1.90625 -5.953125 1.90625 -6.3125 C 1.90625 -6.6875 1.609375 -6.859375 1.34375 -6.859375 C 1.28125 -6.859375 1.25 -6.859375 1.21875 -6.84375 C 1.671875 -7.65625 2.796875 -7.65625 2.859375 -7.65625 C 3.25 -7.65625 4.03125 -7.484375 4.03125 -6.3125 C 4.03125 -6.078125 4 -5.421875 3.640625 -4.90625 C 3.28125 -4.375 2.875 -4.34375 2.5625 -4.328125 Z M 2.203125 -4.296875 "/>
</symbol>
<symbol overflow="visible" id="glyph1-5">
<path style="stroke:none;" d="M 3.890625 2.90625 C 3.890625 2.875 3.890625 2.84375 3.6875 2.640625 C 2.484375 1.4375 1.8125 -0.53125 1.8125 -2.96875 C 1.8125 -5.296875 2.375 -7.296875 3.765625 -8.703125 C 3.890625 -8.8125 3.890625 -8.828125 3.890625 -8.875 C 3.890625 -8.9375 3.828125 -8.96875 3.78125 -8.96875 C 3.625 -8.96875 2.640625 -8.109375 2.0625 -6.9375 C 1.453125 -5.71875 1.171875 -4.453125 1.171875 -2.96875 C 1.171875 -1.90625 1.34375 -0.484375 1.953125 0.78125 C 2.671875 2.21875 3.640625 3 3.78125 3 C 3.828125 3 3.890625 2.96875 3.890625 2.90625 Z M 3.890625 2.90625 "/>
</symbol>
<symbol overflow="visible" id="glyph1-6">
<path style="stroke:none;" d="M 3.375 -2.96875 C 3.375 -3.890625 3.25 -5.359375 2.578125 -6.75 C 1.875 -8.1875 0.890625 -8.96875 0.765625 -8.96875 C 0.71875 -8.96875 0.65625 -8.9375 0.65625 -8.875 C 0.65625 -8.828125 0.65625 -8.8125 0.859375 -8.609375 C 2.0625 -7.40625 2.71875 -5.421875 2.71875 -2.984375 C 2.71875 -0.671875 2.15625 1.328125 0.78125 2.734375 C 0.65625 2.84375 0.65625 2.875 0.65625 2.90625 C 0.65625 2.96875 0.71875 3 0.765625 3 C 0.921875 3 1.90625 2.140625 2.484375 0.96875 C 3.09375 -0.25 3.375 -1.546875 3.375 -2.96875 Z M 3.375 -2.96875 "/>
</symbol>
<symbol overflow="visible" id="glyph2-0">
<path style="stroke:none;" d=""/>
</symbol>
<symbol overflow="visible" id="glyph2-1">
<path style="stroke:none;" d="M 2.484375 -8.296875 L 0.421875 -8.203125 L 0.421875 -7.6875 C 1.15625 -7.6875 1.25 -7.6875 1.25 -7.21875 L 1.25 0 L 1.75 0 C 1.953125 -0.234375 2.15625 -0.453125 2.34375 -0.6875 C 2.953125 -0.0625 3.609375 0.078125 4.09375 0.078125 C 5.734375 0.078125 7 -0.9375 7 -2.671875 C 7 -4.296875 5.875 -5.375 4.25 -5.375 C 3.53125 -5.375 2.96875 -5.15625 2.484375 -4.765625 Z M 2.546875 -4.203125 C 2.96875 -4.765625 3.578125 -4.984375 4.09375 -4.984375 C 5.5625 -4.984375 5.5625 -3.46875 5.5625 -2.671875 C 5.5625 -2.140625 5.5625 -1.453125 5.28125 -1.015625 C 4.90625 -0.4375 4.34375 -0.328125 3.96875 -0.328125 C 3.15625 -0.328125 2.71875 -0.890625 2.546875 -1.15625 Z M 2.546875 -4.203125 "/>
</symbol>
<symbol overflow="visible" id="glyph3-0">
<path style="stroke:none;" d=""/>
</symbol>
<symbol overflow="visible" id="glyph3-1">
<path style="stroke:none;" d="M 2.5 -5.078125 C 2.5 -5.296875 2.484375 -5.296875 2.265625 -5.296875 C 1.9375 -4.984375 1.515625 -4.796875 0.765625 -4.796875 L 0.765625 -4.53125 C 0.984375 -4.53125 1.40625 -4.53125 1.875 -4.734375 L 1.875 -0.65625 C 1.875 -0.359375 1.84375 -0.265625 1.09375 -0.265625 L 0.8125 -0.265625 L 0.8125 0 C 1.140625 -0.03125 1.828125 -0.03125 2.1875 -0.03125 C 2.546875 -0.03125 3.234375 -0.03125 3.5625 0 L 3.5625 -0.265625 L 3.28125 -0.265625 C 2.53125 -0.265625 2.5 -0.359375 2.5 -0.65625 Z M 2.5 -5.078125 "/>
</symbol>
<symbol overflow="visible" id="glyph3-2">
<path style="stroke:none;" d="M 2.25 -1.625 C 2.375 -1.75 2.703125 -2.015625 2.84375 -2.125 C 3.328125 -2.578125 3.796875 -3.015625 3.796875 -3.734375 C 3.796875 -4.6875 3 -5.296875 2.015625 -5.296875 C 1.046875 -5.296875 0.421875 -4.578125 0.421875 -3.859375 C 0.421875 -3.46875 0.734375 -3.421875 0.84375 -3.421875 C 1.015625 -3.421875 1.265625 -3.53125 1.265625 -3.84375 C 1.265625 -4.25 0.859375 -4.25 0.765625 -4.25 C 1 -4.84375 1.53125 -5.03125 1.921875 -5.03125 C 2.65625 -5.03125 3.046875 -4.40625 3.046875 -3.734375 C 3.046875 -2.90625 2.46875 -2.296875 1.515625 -1.34375 L 0.515625 -0.296875 C 0.421875 -0.21875 0.421875 -0.203125 0.421875 0 L 3.5625 0 L 3.796875 -1.421875 L 3.546875 -1.421875 C 3.53125 -1.265625 3.46875 -0.875 3.375 -0.71875 C 3.328125 -0.65625 2.71875 -0.65625 2.59375 -0.65625 L 1.171875 -0.65625 Z M 2.25 -1.625 "/>
</symbol>
<symbol overflow="visible" id="glyph4-0">
<path style="stroke:none;" d=""/>
</symbol>
<symbol overflow="visible" id="glyph4-1">
<path style="stroke:none;" d="M 2.984375 28.203125 L 6.125 28.203125 L 6.125 27.546875 L 3.640625 27.546875 L 3.640625 0.171875 L 6.125 0.171875 L 6.125 -0.484375 L 2.984375 -0.484375 Z M 2.984375 28.203125 "/>
</symbol>
<symbol overflow="visible" id="glyph4-2">
<path style="stroke:none;" d="M 2.65625 27.546875 L 0.171875 27.546875 L 0.171875 28.203125 L 3.3125 28.203125 L 3.3125 -0.484375 L 0.171875 -0.484375 L 0.171875 0.171875 L 2.65625 0.171875 Z M 2.65625 27.546875 "/>
</symbol>
<symbol overflow="visible" id="glyph5-0">
<path style="stroke:none;" d=""/>
</symbol>
<symbol overflow="visible" id="glyph5-1">
<path style="stroke:none;" d="M 4.984375 -7.296875 C 5.0625 -7.578125 5.078125 -7.6875 5.265625 -7.734375 C 5.359375 -7.75 5.75 -7.75 6 -7.75 C 7.203125 -7.75 7.75 -7.703125 7.75 -6.78125 C 7.75 -6.59375 7.703125 -6.140625 7.640625 -5.703125 L 7.625 -5.5625 C 7.625 -5.515625 7.671875 -5.4375 7.75 -5.4375 C 7.859375 -5.4375 7.859375 -5.5 7.90625 -5.6875 L 8.25 -7.8125 C 8.265625 -7.90625 8.265625 -7.9375 8.265625 -7.96875 C 8.265625 -8.109375 8.203125 -8.109375 7.953125 -8.109375 L 1.421875 -8.109375 C 1.140625 -8.109375 1.140625 -8.09375 1.0625 -7.875 L 0.328125 -5.71875 C 0.328125 -5.703125 0.28125 -5.5625 0.28125 -5.5625 C 0.28125 -5.5 0.328125 -5.4375 0.40625 -5.4375 C 0.5 -5.4375 0.53125 -5.484375 0.578125 -5.640625 C 1.078125 -7.09375 1.328125 -7.75 2.921875 -7.75 L 3.71875 -7.75 C 4 -7.75 4.125 -7.75 4.125 -7.625 C 4.125 -7.59375 4.125 -7.5625 4.0625 -7.34375 L 2.46875 -0.9375 C 2.34375 -0.46875 2.3125 -0.34375 1.046875 -0.34375 C 0.75 -0.34375 0.671875 -0.34375 0.671875 -0.125 C 0.671875 0 0.796875 0 0.859375 0 C 1.15625 0 1.46875 -0.03125 1.765625 -0.03125 L 3.640625 -0.03125 C 3.9375 -0.03125 4.25 0 4.546875 0 C 4.6875 0 4.8125 0 4.8125 -0.234375 C 4.8125 -0.34375 4.71875 -0.34375 4.40625 -0.34375 C 3.328125 -0.34375 3.328125 -0.453125 3.328125 -0.640625 C 3.328125 -0.640625 3.328125 -0.734375 3.375 -0.921875 Z M 4.984375 -7.296875 "/>
</symbol>
</g>
<clipPath id="clip1">
  <path d="M 35 2 L 159 2 L 159 175.53125 L 35 175.53125 Z M 35 2 "/>
</clipPath>
</defs>
<g id="surface1">
<path style="fill:none;stroke-width:0.3985;stroke-linecap:butt;stroke-linejoin:miter;stroke:rgb(75%,75%,75%);stroke-opacity:1;stroke-miterlimit:10;" d="M 8.965156 -0.0010625 L 8.965156 161.389563 M 44.832344 -0.0010625 L 44.832344 161.389563 M 116.558906 -0.0010625 L 116.558906 161.389563 M 152.426094 -0.0010625 L 152.426094 161.389563 " transform="matrix(1,0,0,-1,16.195,169.663)"/>
<path style="fill:none;stroke-width:0.3985;stroke-linecap:butt;stroke-linejoin:miter;stroke:rgb(75%,75%,75%);stroke-opacity:1;stroke-miterlimit:10;" d="M 0.0003125 8.967688 L 161.390938 8.967688 M 0.0003125 44.830969 L 161.390938 44.830969 M 0.0003125 116.561438 L 161.390938 116.561438 M 0.0003125 152.424719 L 161.390938 152.424719 " transform="matrix(1,0,0,-1,16.195,169.663)"/>
<path style="fill:none;stroke-width:0.19925;stroke-linecap:butt;stroke-linejoin:miter;stroke:rgb(50%,50%,50%);stroke-opacity:1;stroke-miterlimit:10;" d="M 8.965156 78.56925 L 8.965156 82.81925 M 44.832344 78.56925 L 44.832344 82.81925 M 116.558906 78.56925 L 116.558906 82.81925 M 152.426094 78.56925 L 152.426094 82.81925 " transform="matrix(1,0,0,-1,16.195,169.663)"/>
<path style="fill:none;stroke-width:0.19925;stroke-linecap:butt;stroke-linejoin:miter;stroke:rgb(50%,50%,50%);stroke-opacity:1;stroke-miterlimit:10;" d="M 78.570625 8.967688 L 82.820625 8.967688 M 78.570625 44.830969 L 82.820625 44.830969 M 78.570625 116.561438 L 82.820625 116.561438 M 78.570625 152.424719 L 82.820625 152.424719 " transform="matrix(1,0,0,-1,16.195,169.663)"/>
<path style="fill:none;stroke-width:0.3985;stroke-linecap:butt;stroke-linejoin:miter;stroke:rgb(0%,0%,0%);stroke-opacity:1;stroke-miterlimit:10;" d="M 0.0003125 80.69425 L 159.39875 80.69425 " transform="matrix(1,0,0,-1,16.195,169.663)"/>
<path style=" stroke:none;fill-rule:nonzero;fill:rgb(0%,0%,0%);fill-opacity:1;" d="M 177.585938 88.96875 L 174.398438 87.375 L 175.59375 88.96875 L 174.398438 90.5625 "/>
<path style="fill:none;stroke-width:0.3985;stroke-linecap:butt;stroke-linejoin:miter;stroke:rgb(0%,0%,0%);stroke-opacity:1;stroke-miterlimit:10;" d="M 80.695625 -0.0010625 L 80.695625 159.397375 " transform="matrix(1,0,0,-1,16.195,169.663)"/>
<path style=" stroke:none;fill-rule:nonzero;fill:rgb(0%,0%,0%);fill-opacity:1;" d="M 96.890625 8.273438 L 95.296875 11.460938 L 96.890625 10.265625 L 98.484375 11.460938 "/>
<g style="fill:rgb(0%,0%,0%);fill-opacity:1;">
  <use xlink:href="#glyph0-1" x="17.585" y="102.9"/>
</g>
<g style="fill:rgb(0%,0%,0%);fill-opacity:1;">
  <use xlink:href="#glyph1-1" x="26.884" y="102.9"/>
</g>
<g style="fill:rgb(0%,0%,0%);fill-opacity:1;">
  <use xlink:href="#glyph0-1" x="53.45" y="102.9"/>
</g>
<g style="fill:rgb(0%,0%,0%);fill-opacity:1;">
  <use xlink:href="#glyph1-2" x="62.748" y="102.9"/>
</g>
<g style="fill:rgb(0%,0%,0%);fill-opacity:1;">
  <use xlink:href="#glyph1-2" x="129.827" y="102.9"/>
</g>
<g style="fill:rgb(0%,0%,0%);fill-opacity:1;">
  <use xlink:href="#glyph1-1" x="165.691" y="102.9"/>
</g>
<g style="fill:rgb(0%,0%,0%);fill-opacity:1;">
  <use xlink:href="#glyph0-1" x="75.511" y="164.051"/>
</g>
<g style="fill:rgb(0%,0%,0%);fill-opacity:1;">
  <use xlink:href="#glyph1-1" x="84.81" y="164.051"/>
</g>
<g style="fill:rgb(0%,0%,0%);fill-opacity:1;">
  <use xlink:href="#glyph0-1" x="75.511" y="128.187"/>
</g>
<g style="fill:rgb(0%,0%,0%);fill-opacity:1;">
  <use xlink:href="#glyph1-2" x="84.81" y="128.187"/>
</g>
<g style="fill:rgb(0%,0%,0%);fill-opacity:1;">
  <use xlink:href="#glyph1-2" x="84.81" y="56.957"/>
</g>
<g style="fill:rgb(0%,0%,0%);fill-opacity:1;">
  <use xlink:href="#glyph1-1" x="84.81" y="21.093"/>
</g>
<path style="fill:none;stroke-width:0.79701;stroke-linecap:round;stroke-linejoin:miter;stroke:rgb(0%,0%,0%);stroke-opacity:1;stroke-miterlimit:10;" d="M 91.887031 73.233313 L 99.344063 84.424719 " transform="matrix(1,0,0,-1,16.195,169.663)"/>
<path style="fill:none;stroke-width:0.79701;stroke-linecap:round;stroke-linejoin:miter;stroke:rgb(0%,0%,0%);stroke-opacity:1;stroke-miterlimit:10;" d="M 88.156563 91.885656 L 99.344063 84.424719 " transform="matrix(1,0,0,-1,16.195,169.663)"/>
<g clip-path="url(#clip1)" clip-rule="nonzero">
<path style="fill:none;stroke-width:0.79701;stroke-linecap:round;stroke-linejoin:miter;stroke:rgb(0%,39.99939%,63.526917%);stroke-opacity:1;stroke-miterlimit:10;" d="M 30.484687 5.377844 L 130.906563 156.010656 " transform="matrix(1,0,0,-1,16.195,169.663)"/>
</g>
<g style="fill:rgb(0%,39.99939%,63.526917%);fill-opacity:1;">
  <use xlink:href="#glyph0-2" x="151.399" y="17.74"/>
</g>
<path style="fill:none;stroke-width:1.59404;stroke-linecap:round;stroke-linejoin:miter;stroke:rgb(0%,65.098572%,83.921814%);stroke-opacity:1;stroke-miterlimit:10;" d="M 80.695625 80.69425 L 114.46125 131.342688 " transform="matrix(1,0,0,-1,16.195,169.663)"/>
<path style=" stroke:none;fill-rule:nonzero;fill:rgb(0%,65.098572%,83.921814%);fill-opacity:1;" d="M 132.753906 35.171875 L 126.875 38.53125 L 130.65625 38.320312 L 131.914062 41.890625 "/>
<g style="fill:rgb(0%,65.098572%,83.921814%);fill-opacity:1;">
  <use xlink:href="#glyph2-1" x="125.746" y="57.306"/>
</g>
<g style="fill:rgb(0%,65.098572%,83.921814%);fill-opacity:1;">
  <use xlink:href="#glyph3-1" x="133.218" y="59.1"/>
</g>
<g style="fill:rgb(0%,65.098572%,83.921814%);fill-opacity:1;">
  <use xlink:href="#glyph1-3" x="141.271" y="57.306"/>
</g>
<g style="fill:rgb(0%,65.098572%,83.921814%);fill-opacity:1;">
  <use xlink:href="#glyph4-1" x="153.697" y="40.449"/>
</g>
<g style="fill:rgb(0%,65.098572%,83.921814%);fill-opacity:1;">
  <use xlink:href="#glyph1-2" x="160.006" y="49.984"/>
</g>
<g style="fill:rgb(0%,65.098572%,83.921814%);fill-opacity:1;">
  <use xlink:href="#glyph1-4" x="160.006" y="64.43"/>
</g>
<g style="fill:rgb(0%,65.098572%,83.921814%);fill-opacity:1;">
  <use xlink:href="#glyph4-2" x="165.859" y="40.449"/>
</g>
<path style="fill:none;stroke-width:1.19553;stroke-linecap:round;stroke-linejoin:miter;stroke:rgb(92.156982%,44.706726%,27.450562%);stroke-opacity:1;stroke-miterlimit:10;" d="M 80.695625 80.69425 L 29.551094 114.791906 " transform="matrix(1,0,0,-1,16.195,169.663)"/>
<path style=" stroke:none;fill-rule:nonzero;fill:rgb(92.156982%,44.706726%,27.450562%);fill-opacity:1;" d="M 43.09375 53.101562 L 45.921875 58.054688 L 45.746094 54.871094 L 48.753906 53.8125 "/>
<g style="fill:rgb(92.156982%,44.706726%,27.450562%);fill-opacity:1;">
  <use xlink:href="#glyph5-1" x="9.571" y="45.617"/>
</g>
<g style="fill:rgb(92.156982%,44.706726%,27.450562%);fill-opacity:1;">
  <use xlink:href="#glyph1-5" x="18.058" y="45.617"/>
</g>
<g style="fill:rgb(76.470947%,19.216919%,18.429565%);fill-opacity:1;">
  <use xlink:href="#glyph2-1" x="22.61" y="45.617"/>
</g>
<g style="fill:rgb(76.470947%,19.216919%,18.429565%);fill-opacity:1;">
  <use xlink:href="#glyph3-2" x="30.082" y="47.41"/>
</g>
<g style="fill:rgb(92.156982%,44.706726%,27.450562%);fill-opacity:1;">
  <use xlink:href="#glyph1-6" x="34.814" y="45.617"/>
</g>
<g style="fill:rgb(92.156982%,44.706726%,27.450562%);fill-opacity:1;">
  <use xlink:href="#glyph1-3" x="42.690086" y="45.617"/>
</g>
<g style="fill:rgb(92.156982%,44.706726%,27.450562%);fill-opacity:1;">
  <use xlink:href="#glyph0-1" x="55.113" y="45.617"/>
</g>
<g style="fill:rgb(76.470947%,19.216919%,18.429565%);fill-opacity:1;">
  <use xlink:href="#glyph2-1" x="64.411" y="45.617"/>
</g>
<g style="fill:rgb(76.470947%,19.216919%,18.429565%);fill-opacity:1;">
  <use xlink:href="#glyph3-2" x="71.883" y="47.41"/>
</g>
<path style="fill:none;stroke-width:1.59404;stroke-linecap:round;stroke-linejoin:miter;stroke:rgb(76.470947%,19.216919%,18.429565%);stroke-opacity:1;stroke-miterlimit:10;" d="M 80.695625 80.69425 L 131.340156 46.928625 " transform="matrix(1,0,0,-1,16.195,169.663)"/>
<path style=" stroke:none;fill-rule:nonzero;fill:rgb(76.470947%,19.216919%,18.429565%);fill-opacity:1;" d="M 150.6875 124.832031 L 147.328125 118.953125 L 147.535156 122.734375 L 143.96875 123.992188 "/>
<g style="fill:rgb(76.470947%,19.216919%,18.429565%);fill-opacity:1;">
  <use xlink:href="#glyph2-1" x="128.678" y="135.26"/>
</g>
<g style="fill:rgb(76.470947%,19.216919%,18.429565%);fill-opacity:1;">
  <use xlink:href="#glyph3-2" x="136.15" y="137.054"/>
</g>
<g style="fill:rgb(76.470947%,19.216919%,18.429565%);fill-opacity:1;">
  <use xlink:href="#glyph1-3" x="144.203" y="135.26"/>
</g>
<g style="fill:rgb(76.470947%,19.216919%,18.429565%);fill-opacity:1;">
  <use xlink:href="#glyph4-1" x="156.628" y="118.404"/>
</g>
<g style="fill:rgb(76.470947%,19.216919%,18.429565%);fill-opacity:1;">
  <use xlink:href="#glyph1-4" x="167.587" y="127.938"/>
</g>
<g style="fill:rgb(76.470947%,19.216919%,18.429565%);fill-opacity:1;">
  <use xlink:href="#glyph0-1" x="162.938" y="142.384"/>
</g>
<g style="fill:rgb(76.470947%,19.216919%,18.429565%);fill-opacity:1;">
  <use xlink:href="#glyph1-2" x="172.236" y="142.384"/>
</g>
<g style="fill:rgb(76.470947%,19.216919%,18.429565%);fill-opacity:1;">
  <use xlink:href="#glyph4-2" x="178.089" y="118.404"/>
</g>
</g>
</svg>
