<svg xmlns="http://www.w3.org/2000/svg" xmlns:xlink="http://www.w3.org/1999/xlink" xmlns:inkscape="http://www.inkscape.org/namespaces/inkscape" version="1.1" width="478.466" height="176.055" viewBox="0 0 478.466 176.055">
<defs>
<path id="font_0_2" d="M.17999268 .09257507C.23399353 .176651 .25099183 .2407074 .2639923 .2937622 .29899598 .43188478 .33699037 .5519867 .39898683 .621048 .41099549 .6340637 .4189911 .6430664 .45098878 .6430664 .519989 .6430664 .5219879 .5740051 .5219879 .55999758 .5219879 .5419769 .5169983 .52796939 .5169983 .5229645 .5169983 .5159607 .522995 .5159607 .5239868 .5159607 .5399933 .5159607 .5669861 .5269623 .59199526 .5449829 .6100006 .5589905 .61898806 .56900027 .61898806 .6100464 .61898806 .66407778 .59098818 .7050781 .5349884 .7050781 .5029907 .7050781 .4149933 .69706729 .31698609 .5980377 .23699951 .5159607 .18998719 .33580018 .17098999 .26072694 .15299988 .19166565 .14498902 .16064453 .114990238 .10058594 .10798645 .08857727 .08198547 .044540407 .067993167 .03152466 .040985109 .0065307619 .0309906-.011474609 .0309906-.016464234 .0309906-.018463135 .032989503-.022460938 .039993287-.022460938 .04399109-.022460938 .06498718-.018463135 .09098816-.0014648438 .10798645 .008529663 .10998535 .010528564 .1329956 .03453064 .18299866 .03353882 .21798706 .024536133 .2809906 .0065307619 .33198548-.007461548 .3829956-.022460938 .43399049-.022460938 .5149994-.022460938 .5970001 .038528444 .6289978 .08256531 .6489868 .10958862 .6549988 .13461304 .6549988 .13761902 .6549988 .1446228 .6489868 .1446228 .647995 .1446228 .6319885 .1446228 .60798647 .13362122 .59098818 .12161255 .56399539 .10458374 .56199648 .098587039 .55599978 .08157349 .5509949 .06555176 .54499819 .057540895 .54100039 .05154419 .5329895 .039535524 .5319977 .039535524 .5169983 .039535524 .46899415 .039535524 .4189911 .05455017 .35299684 .07255554 .32499696 .080566409 .269989 .096588138 .21998596 .096588138 .20698548 .096588138 .19299317 .095581058 .17999268 .09257507Z"/>
<path id="font_0_1" d="M.6589966 .23046875C.6759949 .23046875 .69400027 .23046875 .69400027 .25045777 .69400027 .27046205 .6759949 .27046205 .6589966 .27046205H.117996219C.100997928 .27046205 .08299255 .27046205 .08299255 .25045777 .08299255 .23046875 .100997928 .23046875 .117996219 .23046875H.6589966Z"/>
<path id="font_1_2" d="M.25299073 .33370973C.33198548 .33370973 .38198854 .27557374 .38198854 .17037964 .38198854 .045440675 .31098939 .008514404 .2579956 .008514404 .20298767 .008514404 .12799073 .0284729 .09298706 .08137512 .1289978 .08137512 .1539917 .10437012 .1539917 .13737488 .1539917 .16937256 .1309967 .19238281 .09899902 .19238281 .07199097 .19238281 .04399109 .17536927 .04399109 .13537598 .04399109 .04045105 .1459961-.021484375 .2599945-.021484375 .3929901-.021484375 .48599244 .070388797 .48599244 .17037964 .48599244 .25352479 .41999818 .32969667 .31799317 .3517456 .39698792 .37982179 .45599366 .4479828 .45599366 .52804568 .45599366 .6080475 .3659973 .66503909 .2619934 .66503909 .15499878 .66503909 .07398987 .6070404 .07398987 .53105166 .07398987 .49404908 .09899902 .4780426 .125 .4780426 .1559906 .4780426 .17599488 .5000458 .17599488 .52905276 .17599488 .56604006 .14399719 .5800476 .12199402 .5810547 .1639862 .6360321 .24099732 .6390381 .25898744 .6390381 .2849884 .6390381 .36099244 .6310272 .36099244 .52804568 .36099244 .45799256 .33198548 .41589356 .31799317 .39985658 .28799439 .36878968 .2649994 .36679078 .20399475 .3627777 .18499756 .36177064 .1769867 .36076356 .1769867 .3477478 .1769867 .33370973 .18598938 .33370973 .20298767 .33370973H.25299073Z"/>
<path id="font_1_1" d="M.28199769 .20405579C.2979889 .21907044 .33999635 .2520752 .35598756 .26608277 .41799928 .32312013 .47698976 .3781433 .47698976 .46917726 .47698976 .588089 .3769989 .66503909 .2519989 .66503909 .13198853 .66503909 .052993776 .57411196 .052993776 .48516847 .052993776 .4361725 .09199524 .4291687 .10598755 .4291687 .1269989 .4291687 .1579895 .4441681 .1579895 .48217774 .1579895 .5341797 .10798645 .5341797 .09599304 .5341797 .125 .6070709 .19198609 .6320343 .24099732 .6320343 .33399964 .6320343 .38198854 .55314639 .38198854 .46917726 .38198854 .36514283 .30899049 .28910829 .19099427 .16804505L.06498718 .037994386C.052993776 .026992798 .052993776 .024993897 .052993776 0H.44799806L.47698976 .17904663H.44599916C.44299317 .1590271 .43499757 .10900879 .4229889 .08999634 .4169922 .08198547 .34098817 .08198547 .32499696 .08198547H.14698792L.28199769 .20405579Z"/>
<path id="font_2_1" d="M.35299684 .44218446V.39918519C.4149933 .39918519 .42199708 .39918519 .42199708 .36018373V.16415406C.42199708 .088134769 .3769989 .027130127 .29899598 .027130127 .22399903 .027130127 .21998596 .052139284 .21998596 .10714722V.4501953L.041992189 .44218446V.39918519C.10398865 .39918519 .11099243 .39918519 .11099243 .36018373V.12315369C.11099243 .023132325 .17799378-.005859375 .2849884-.005859375 .30899049-.005859375 .3829956-.005859375 .42599488 .07513428H.4269867V-.005859375L.59999087 .0001373291V.043136598C.5379944 .043136598 .5309906 .043136598 .5309906 .08213806V.4501953L.35299684 .44218446Z"/>
<path id="font_2_2" d="M.49499513 .37831117C.5019989 .3933258 .5059967 .4013214 .56900027 .4013214V.44433595C.5329895 .44232179 .5309906 .44232179 .48999024 .44232179 .46299745 .44232179 .46099855 .44232179 .4039917 .44433595V.4013214C.43099977 .4013214 .45298768 .3963318 .45298768 .389328 .45298768 .38832093 .45298768 .38731385 .44799806 .37731935L.33099366 .120162967 .20199585 .4013214H.25698854V.44433595C.23399353 .44232179 .1639862 .44232179 .13699341 .44232179 .10798645 .44232179 .049987794 .44232179 .023986817 .44433595V.4013214H.08699036L.2630005 .019104004C.27198792 .00010681152 .27398683-.0048828127 .29699708-.0048828127 .31298829-.0048828127 .32099916-.0028839112 .32998658 .017105103L.49499513 .37831117Z"/>
<path id="font_3_1" d="M.39898683 .23057556H.6749878C.68899539 .23057556 .70700076 .23057556 .70700076 .24856568 .70700076 .26757813 .6899872 .26757813 .6749878 .26757813H.39898683V.5441437C.39898683 .5581665 .39898683 .5761719 .3809967 .5761719 .3619995 .5761719 .3619995 .5591583 .3619995 .5441437V.26757813H.085998538C.07199097 .26757813 .053985597 .26757813 .053985597 .24957276 .053985597 .23057556 .070999149 .23057556 .085998538 .23057556H.3619995V-.045166017C.3619995-.059158327 .3619995-.07714844 .37998963-.07714844 .39898683-.07714844 .39898683-.060150148 .39898683-.045166017V.23057556Z"/>
</defs>
<path transform="matrix(1,0,0,-1,29.595,170.18599)" stroke-width=".19925" stroke-linecap="butt" stroke-miterlimit="10" stroke-linejoin="miter" fill="none" stroke="#7f807f" d=""/>
<path transform="matrix(1,0,0,-1,29.595,170.18599)" stroke-width=".19925" stroke-linecap="butt" stroke-miterlimit="10" stroke-linejoin="miter" fill="none" stroke="#7f807f" d=""/>
<path transform="matrix(1,0,0,-1,29.595,170.18599)" stroke-width=".3985" stroke-linecap="butt" stroke-miterlimit="10" stroke-linejoin="miter" fill="none" stroke="#000000" d="M0 80.69969H191.68675"/>
<path transform="matrix(1,0,0,-1,221.28176,89.4863)" d="M1.99252 0-1.19551 1.59401 0 0-1.19551-1.59401"/>
<path transform="matrix(1,0,0,-1,29.595,170.18599)" stroke-width=".3985" stroke-linecap="butt" stroke-miterlimit="10" stroke-linejoin="miter" fill="none" stroke="#000000" d="M80.69969 0V159.40688"/>
<path transform="matrix(0,-1,-1,-0,110.29469,10.779114)" d="M1.99252 0-1.19551 1.59401 0 0-1.19551-1.59401"/>
<path transform="matrix(1,0,0,-1,29.595,170.18599)" stroke-width="2.98883" stroke-linecap="butt" stroke-miterlimit="10" stroke-linejoin="miter" fill="none" stroke="#00a6d6" d="M80.69969 80.69969 81.57393 81.42822 82.44818 82.15675 83.32242 82.8853 84.19667 83.61378 85.07092 84.34235 85.94518 85.0709 86.8194 85.79947 87.69365 86.52798 88.5679 87.25645 89.44214 87.98502 90.31639 88.71356 91.19064 89.44212 92.06488 90.17065 92.93913 90.8992 93.81337 91.62776 94.6876 92.35631 95.56186 93.0848 96.43611 93.81332 97.31035 94.54187 98.1846 95.27042 99.05885 95.99898 99.93309 96.72751 100.80734 97.45604 101.68158 98.18452"/>
<path transform="matrix(1,0,0,-1,29.595,170.18599)" stroke-width="2.98883" stroke-linecap="butt" stroke-miterlimit="10" stroke-linejoin="miter" fill="none" stroke="#a50034" d="M59.71777 63.21475 60.59201 63.94333 61.46626 64.67188 62.3405 65.40039 63.21474 66.12897 64.08899 66.8575 64.96324 67.58598 65.83748 68.31453 66.71173 69.04306 67.58598 69.77162 68.46022 70.50017 69.33447 71.22873 70.20872 71.95724 71.08295 72.68576 71.9572 73.41428 72.83145 74.14284 73.70569 74.8714 74.57994 75.5999 75.4542 76.32848 76.32843 77.05702 77.20268 77.78558 78.07693 78.51405 78.95116 79.24258 79.82541 79.97113 80.69966 80.69966"/>
<path transform="matrix(1,0,0,-1,29.595,170.18599)" stroke-width="1.19553" stroke-linecap="round" stroke-miterlimit="10" stroke-linejoin="miter" fill="none" stroke="#009b77" d="M0 13.45004 6.72495 19.05447 13.4499 24.65858 20.17487 30.26237 26.89983 35.86647 33.6248 41.47092 40.34976 47.07503 47.07472 52.67882 53.79968 58.28325 60.52466 63.88716 67.24962 69.49133 73.97458 75.09549 80.69954 80.69957 87.42451 86.30371 94.14948 91.9078 100.87444 97.51196 107.59941 103.1158 114.32437 108.71992 121.04933 114.32434 127.77429 119.92847 134.49927 125.53224 141.22423 131.13637 147.94919 136.74079 154.67415 142.34491 161.39913 147.94869"/>
<use data-text="L" xlink:href="#font_0_2" transform="matrix(11.9552,0,0,-11.9552,195.492,17.73999)" fill="#009b77"/>
<path transform="matrix(1,0,0,-1,29.595,170.18599)" stroke-width="1.59404" stroke-linecap="round" stroke-miterlimit="10" stroke-linejoin="miter" fill="none" stroke="#a50034" d="M80.69969 80.69969 10.97818 22.59842"/>
<path transform="matrix(-.76819,.64015,.64015,.76819,40.5732,147.58757)" d="M3.78581 0-2.27148 3.02866 0 0-2.27148-3.02866" fill="#a50034"/>
<use data-text="&#x2212;" xlink:href="#font_0_1" transform="matrix(11.9552,0,0,-11.9552,9.570999,141.191)" fill="#a50034"/>
<use data-text="3" xlink:href="#font_1_2" transform="matrix(7.9701,0,0,-7.9701,20.064999,136.483)" fill="#a50034"/>
<path transform="matrix(1,0,0,-1,20.064999,138.202)" stroke-width=".478" stroke-linecap="butt" stroke-miterlimit="10" stroke-linejoin="miter" fill="none" stroke="#a50034" d="M0 0H4.234"/>
<use data-text="2" xlink:href="#font_1_1" transform="matrix(7.9701,0,0,-7.9701,20.064999,145.31299)" fill="#a50034"/>
<use data-text="u" xlink:href="#font_2_1" transform="matrix(11.9552,0,0,-11.9552,25.494999,141.191)" fill="#a50034"/>
<path transform="matrix(1,0,0,-1,29.595,170.18599)" stroke-width="1.59404" stroke-linecap="round" stroke-miterlimit="10" stroke-linejoin="miter" fill="none" stroke="#00a6d6" d="M80.69969 80.69969 126.2113 118.62605"/>
<path transform="matrix(.76819,-.64015,-.64015,-.76819,155.80629,51.559938)" d="M3.78581 0-2.27148 3.02866 0 0-2.27148-3.02866" fill="#00a6d6"/>
<use data-text="u" xlink:href="#font_2_1" transform="matrix(11.9552,0,0,-11.9552,154.977,44.439989)" fill="#00a6d6"/>
<path transform="matrix(1,0,0,-1,29.595,170.18599)" stroke-width="1.59404" stroke-linecap="round" stroke-miterlimit="10" stroke-linejoin="miter" fill="none" stroke="#0076c2" d="M80.69969 80.69969 59.398 62.94827"/>
<path transform="matrix(-.76819,.64015,.64015,.76819,88.99301,107.23772)" d="M3.78581 0-2.27148 3.02866 0 0-2.27148-3.02866" fill="#0076c2"/>
<use data-text="v" xlink:href="#font_2_2" transform="matrix(11.9552,0,0,-11.9552,82.442,104.96399)" fill="#0076c2"/>
<path transform="matrix(1,0,0,-1,29.595,170.18599)" stroke-width="1.59404" stroke-linecap="round" stroke-miterlimit="10" stroke-linejoin="miter" fill="none" stroke="#ed6842" d="M80.69969 80.69969 102.00139 98.45113"/>
<path transform="matrix(.76819,-.64015,-.64015,-.76819,131.59638,71.734859)" d="M3.78581 0-2.27148 3.02866 0 0-2.27148-3.02866" fill="#ed6842"/>
<use data-text="u" xlink:href="#font_2_1" transform="matrix(11.9552,0,0,-11.9552,139.202,80.90199)" fill="#ed6842"/>
<use data-text="+" xlink:href="#font_3_1" transform="matrix(11.9552,0,0,-11.9552,149.331,80.90199)" fill="#ed6842"/>
<use data-text="v" xlink:href="#font_2_2" transform="matrix(11.9552,0,0,-11.9552,161.092,80.90199)" fill="#ed6842"/>
<path transform="matrix(1,0,0,-1,278.613,170.18599)" stroke-width=".19925" stroke-linecap="butt" stroke-miterlimit="10" stroke-linejoin="miter" fill="none" stroke="#7f807f" d=""/>
<path transform="matrix(1,0,0,-1,278.613,170.18599)" stroke-width=".19925" stroke-linecap="butt" stroke-miterlimit="10" stroke-linejoin="miter" fill="none" stroke="#7f807f" d=""/>
<path transform="matrix(1,0,0,-1,278.613,170.18599)" stroke-width=".3985" stroke-linecap="butt" stroke-miterlimit="10" stroke-linejoin="miter" fill="none" stroke="#000000" d="M0 80.69969H191.68675"/>
<path transform="matrix(1,0,0,-1,470.29975,89.4863)" d="M1.99252 0-1.19551 1.59401 0 0-1.19551-1.59401"/>
<path transform="matrix(1,0,0,-1,278.613,170.18599)" stroke-width=".3985" stroke-linecap="butt" stroke-miterlimit="10" stroke-linejoin="miter" fill="none" stroke="#000000" d="M80.69969 0V159.40688"/>
<path transform="matrix(0,-1,-1,-0,359.31269,10.779114)" d="M1.99252 0-1.19551 1.59401 0 0-1.19551-1.59401"/>
<path transform="matrix(1,0,0,-1,278.613,170.18599)" stroke-width=".79701" stroke-linecap="round" stroke-dasharray="2.98883,2.98883" stroke-miterlimit="10" stroke-linejoin="miter" fill="none" stroke="#000000" d="M129.11952 121.04955 112.97957 129.11952"/>
<path transform="matrix(1,0,0,-1,278.613,170.18599)" stroke-width=".79701" stroke-linecap="round" stroke-dasharray="2.98883,2.98883" stroke-miterlimit="10" stroke-linejoin="miter" fill="none" stroke="#000000" d="M64.55975 88.76967 112.97957 129.11952"/>
<path transform="matrix(1,0,0,-1,278.613,170.18599)" stroke-width="1.19553" stroke-linecap="round" stroke-miterlimit="10" stroke-linejoin="miter" fill="none" stroke="#009b77" d="M16.13994 64.55975 22.8649 67.92235 29.58986 71.28494 36.31482 74.64722 43.03978 78.00981 49.76476 81.37216 56.4897 84.73468 63.21466 88.09712 69.93962 91.45964 76.6646 94.82207 83.38956 98.18457 90.11453 101.54703 96.8395 104.9095 103.56445 108.27199 110.28941 111.63446 117.01437 114.99643 123.73935 118.35933 130.46431 121.72192 137.18927 125.08388 143.91423 128.4468 150.6392 131.80939 157.36417 135.17134 164.08913 138.53426 170.81409 141.89685 177.53907 145.2588"/>
<use data-text="L" xlink:href="#font_0_2" transform="matrix(11.9552,0,0,-11.9552,460.649,20.429993)" fill="#009b77"/>
<path transform="matrix(1,0,0,-1,278.613,170.18599)" stroke-width="1.59404" stroke-linecap="round" stroke-miterlimit="10" stroke-linejoin="miter" fill="none" stroke="#a50034" d="M80.69969 80.69969 10.97818 22.59842"/>
<path transform="matrix(-.76819,.64015,.64015,.76819,289.59123,147.58757)" d="M3.78581 0-2.27148 3.02866 0 0-2.27148-3.02866" fill="#a50034"/>
<use data-text="&#x2212;" xlink:href="#font_0_1" transform="matrix(11.9552,0,0,-11.9552,258.58903,141.191)" fill="#a50034"/>
<use data-text="3" xlink:href="#font_1_2" transform="matrix(7.9701,0,0,-7.9701,269.083,136.483)" fill="#a50034"/>
<path transform="matrix(1,0,0,-1,269.08305,138.202)" stroke-width=".478" stroke-linecap="butt" stroke-miterlimit="10" stroke-linejoin="miter" fill="none" stroke="#a50034" d="M0 0H4.234"/>
<use data-text="2" xlink:href="#font_1_1" transform="matrix(7.9701,0,0,-7.9701,269.08305,145.31299)" fill="#a50034"/>
<use data-text="u" xlink:href="#font_2_1" transform="matrix(11.9552,0,0,-11.9552,274.51203,141.191)" fill="#a50034"/>
<path transform="matrix(1,0,0,-1,278.613,170.18599)" stroke-width="1.59404" stroke-linecap="round" stroke-miterlimit="10" stroke-linejoin="miter" fill="none" stroke="#00a6d6" d="M80.69969 80.69969 126.2113 118.62605"/>
<path transform="matrix(.76819,-.64015,-.64015,-.76819,404.82429,51.559938)" d="M3.78581 0-2.27148 3.02866 0 0-2.27148-3.02866" fill="#00a6d6"/>
<use data-text="u" xlink:href="#font_2_1" transform="matrix(11.9552,0,0,-11.9552,403.995,44.439989)" fill="#00a6d6"/>
<path transform="matrix(1,0,0,-1,278.613,170.18599)" stroke-width="1.59404" stroke-linecap="round" stroke-miterlimit="10" stroke-linejoin="miter" fill="none" stroke="#0076c2" d="M80.69969 80.69969 67.94565 87.07675"/>
<path transform="matrix(-.89436,-.44717,-.44717,.89436,346.55867,83.10925)" d="M3.78581 0-2.27148 3.02866 0 0-2.27148-3.02866" fill="#0076c2"/>
<use data-text="v" xlink:href="#font_2_2" transform="matrix(11.9552,0,0,-11.9552,339.529,76.718997)" fill="#0076c2"/>
<path transform="matrix(1,0,0,-1,278.613,170.18599)" stroke-width="1.59404" stroke-linecap="round" stroke-miterlimit="10" stroke-linejoin="miter" fill="none" stroke="#ed6842" d="M80.69969 80.69969 110.8797 125.96965"/>
<path transform="matrix(.55467,-.83202,-.83202,-.55467,389.49269,44.21634)" d="M3.78581 0-2.27148 3.02866 0 0-2.27148-3.02866" fill="#ed6842"/>
<use data-text="u" xlink:href="#font_2_1" transform="matrix(11.9552,0,0,-11.9552,377.004,35.456987)" fill="#ed6842"/>
<use data-text="+" xlink:href="#font_3_1" transform="matrix(11.9552,0,0,-11.9552,387.132,35.456987)" fill="#ed6842"/>
<use data-text="v" xlink:href="#font_2_2" transform="matrix(11.9552,0,0,-11.9552,398.89399,35.456987)" fill="#ed6842"/>
</svg>
