<!DOCTYPE svg PUBLIC "-//W3C//DTD SVG 1.0//EN"
    "http://www.w3.org/TR/2001/REC-SVG-20010904/DTD/svg10.dtd" >

<svg contentScriptType="text/ecmascript"
     xmlns:xlink="http://www.w3.org/1999/xlink" zoomAndPan="magnify"
     style="stroke-dasharray:none; shape-rendering:auto; font-family:&apos;Dialog&apos;; text-rendering:auto; fill-opacity:1; color-interpolation:auto; color-rendering:auto; font-size:12px; fill:black; stroke:black; image-rendering:auto; stroke-miterlimit:10; stroke-linecap:square; stroke-linejoin:miter; font-style:normal; stroke-width:1; stroke-dashoffset:0; font-weight:normal; stroke-opacity:1;"
     contentStyleType="text/css" preserveAspectRatio="xMidYMid meet"
     xmlns="http://www.w3.org/2000/svg" version="1.0">
    <!--Generated by the Batik Graphics2D SVG Generator-->
    <defs id="genericDefs"/>
    <g>
        <defs id="defs1">
            <clipPath clipPathUnits="userSpaceOnUse" id="clipPath1">
                <path d="M722 529 L744 529 L744 548 L722 548 L722 529 Z"/>
            </clipPath>
            <clipPath clipPathUnits="userSpaceOnUse" id="clipPath2">
                <path d="M883 445 L898 445 L898 461 L883 461 L883 445 Z"/>
            </clipPath>
            <clipPath clipPathUnits="userSpaceOnUse" id="clipPath3">
                <path d="M835 466 L850 466 L850 482 L835 482 L835 466 Z"/>
            </clipPath>
            <clipPath clipPathUnits="userSpaceOnUse" id="clipPath4">
                <path d="M776 487 L791 487 L791 503 L776 503 L776 487 Z"/>
            </clipPath>
            <clipPath clipPathUnits="userSpaceOnUse" id="clipPath5">
                <path d="M343 543 L365 543 L365 562 L343 562 L343 543 Z"/>
            </clipPath>
            <clipPath clipPathUnits="userSpaceOnUse" id="clipPath6">
                <path d="M125 473 L140 473 L140 489 L125 489 L125 473 Z"/>
            </clipPath>
            <clipPath clipPathUnits="userSpaceOnUse" id="clipPath7">
                <path d="M204 489 L219 489 L219 505 L204 505 L204 489 Z"/>
            </clipPath>
            <clipPath clipPathUnits="userSpaceOnUse" id="clipPath8">
                <path d="M271 505 L286 505 L286 521 L271 521 L271 505 Z"/>
            </clipPath>
        </defs>
        <g style="stroke-linecap:butt; text-rendering:optimizeLegibility; color-rendering:optimizeQuality; image-rendering:optimizeQuality; font-family:&apos;Times New Roman&apos;; stroke-linejoin:round; color-interpolation:linearRGB;"
           transform="translate(6,5)">
            <path style="stroke:none; clip-path:url(#clipPath1);"
                  d="M730.25 535.25 Q730.5625 535.5781 730.7188 535.9219 Q730.8438 536.1406 731.0938 537.1094 L731.6562 536.2812 Q731.875 535.9688 732.1875 535.7031 Q732.5156 535.4219 732.75 535.3125 Q732.9062 535.25 733.0938 535.25 Q733.3594 535.25 733.5156 535.4062 Q733.6875 535.5469 733.6875 535.75 Q733.6875 536 733.5938 536.0938 Q733.4219 536.25 733.1875 536.25 Q733.0469 536.25 732.9062 536.1875 Q732.6094 536.0938 732.5 536.0938 Q732.3438 536.0938 732.1406 536.2656 Q731.75 536.5938 731.2031 537.5469 L731.7188 539.7188 Q731.8438 540.2188 731.9219 540.3281 Q732 540.4219 732.0938 540.4219 Q732.2188 540.4219 732.4062 540.2812 Q732.75 539.9844 733 539.5156 L733.2188 539.625 Q732.8125 540.375 732.2031 540.875 Q731.8594 541.1562 731.6094 541.1562 Q731.25 541.1562 731.0469 540.75 Q730.9062 540.5 730.5 538.625 Q729.5 540.3438 728.9062 540.8281 Q728.5156 541.1562 728.1562 541.1562 Q727.9062 541.1562 727.6875 540.9688 Q727.5469 540.8281 727.5469 540.5938 Q727.5469 540.3906 727.6875 540.25 Q727.8281 540.1094 728.0312 540.1094 Q728.2344 540.1094 728.4531 540.3125 Q728.625 540.4531 728.7188 540.4531 Q728.7812 540.4531 728.9062 540.3594 Q729.2031 540.1094 729.7188 539.3125 Q730.2344 538.5156 730.3906 538.1562 Q730 536.6094 729.9688 536.5312 Q729.8281 536.1094 729.5938 535.9375 Q729.3594 535.7656 728.8906 535.7656 Q728.75 535.7656 728.5625 535.7812 L728.5625 535.5469 L730.25 535.25 Z"/>
            <path style="clip-path:url(#clipPath1); stroke:none;"
                  d="M734.1719 540.0312 L735.7812 539.2344 L735.9375 539.2344 L735.9375 544.8281 Q735.9375 545.3906 735.9844 545.5312 Q736.0312 545.6562 736.1719 545.7344 Q736.3281 545.8125 736.7812 545.8125 L736.7812 546 L734.2969 546 L734.2969 545.8125 Q734.7656 545.8125 734.8906 545.75 Q735.0312 545.6719 735.0781 545.5469 Q735.1406 545.4219 735.1406 544.8281 L735.1406 541.2656 Q735.1406 540.5312 735.0938 540.3281 Q735.0625 540.1719 734.9688 540.1094 Q734.875 540.0312 734.75 540.0312 Q734.5625 540.0312 734.25 540.1719 L734.1719 540.0312 Z"/>
        </g>
        <g style="stroke-linecap:butt; font-size:15px; text-rendering:optimizeSpeed; image-rendering:optimizeQuality; color-rendering:optimizeQuality; font-family:&apos;ESSTIXFive&apos;; stroke-linejoin:round; color-interpolation:linearRGB;">
            <text x="883" xml:space="preserve" y="458"
                  style="clip-path:url(#clipPath2); stroke:none;">K</text>
        </g>
        <g style="stroke-linecap:butt; text-rendering:optimizeLegibility; color-rendering:optimizeQuality; image-rendering:optimizeQuality; font-family:&apos;Times New Roman&apos;; stroke-linejoin:round; color-interpolation:linearRGB;">
            <path style="stroke:none;"
                  d="M899.7656 449.0469 L902.1719 447.8594 L902.4219 447.8594 L902.4219 456.25 Q902.4219 457.0781 902.4844 457.2969 Q902.5625 457.5 902.7812 457.6094 Q903 457.7188 903.6719 457.7344 L903.6719 458 L899.9375 458 L899.9375 457.7344 Q900.6406 457.7188 900.8438 457.6094 Q901.0469 457.5 901.125 457.3281 Q901.2031 457.1406 901.2031 456.25 L901.2031 450.8906 Q901.2031 449.7969 901.1406 449.5 Q901.0781 449.2656 900.9375 449.1562 Q900.8125 449.0469 900.625 449.0469 Q900.3438 449.0469 899.875 449.2656 L899.7656 449.0469 ZM907.375 456.5781 Q907.7188 456.5781 907.9531 456.8281 Q908.1875 457.0625 908.1875 457.3906 Q908.1875 457.7344 907.9531 457.9688 Q907.7188 458.2031 907.375 458.2031 Q907.0312 458.2031 906.7969 457.9688 Q906.5625 457.7344 906.5625 457.3906 Q906.5625 457.0469 906.7969 456.8125 Q907.0312 456.5781 907.375 456.5781 ZM915.7656 448.0625 L915.1875 449.3125 L912.2031 449.3125 L911.5469 450.6406 Q913.4844 450.9375 914.625 452.0938 Q915.5938 453.0781 915.5938 454.4375 Q915.5938 455.2188 915.2812 455.8906 Q914.9688 456.5469 914.4844 457.0156 Q914 457.4844 913.4062 457.7656 Q912.5625 458.1719 911.6719 458.1719 Q910.7812 458.1719 910.375 457.875 Q909.9688 457.5625 909.9688 457.2031 Q909.9688 457 910.1406 456.8438 Q910.3125 456.6875 910.5625 456.6875 Q910.75 456.6875 910.8906 456.75 Q911.0312 456.7969 911.375 457.0469 Q911.9375 457.4219 912.5 457.4219 Q913.3594 457.4219 914 456.7812 Q914.6406 456.125 914.6406 455.1875 Q914.6406 454.2969 914.0625 453.5156 Q913.4844 452.7344 912.4688 452.3125 Q911.6719 451.9844 910.2969 451.9219 L912.2031 448.0625 L915.7656 448.0625 Z"/>
        </g>
        <g style="stroke-linecap:butt; font-size:15px; text-rendering:optimizeSpeed; image-rendering:optimizeQuality; color-rendering:optimizeQuality; font-family:&apos;ESSTIXFive&apos;; stroke-linejoin:round; color-interpolation:linearRGB;">
            <text x="835" xml:space="preserve" y="479"
                  style="clip-path:url(#clipPath3); stroke:none;">K</text>
        </g>
        <g style="stroke-linecap:butt; text-rendering:optimizeLegibility; color-rendering:optimizeQuality; image-rendering:optimizeQuality; font-family:&apos;Times New Roman&apos;; stroke-linejoin:round; color-interpolation:linearRGB;">
            <path style="stroke:none;"
                  d="M851.7656 470.0469 L854.1719 468.8594 L854.4219 468.8594 L854.4219 477.25 Q854.4219 478.0781 854.4844 478.2969 Q854.5625 478.5 854.7812 478.6094 Q855 478.7188 855.6719 478.7344 L855.6719 479 L851.9375 479 L851.9375 478.7344 Q852.6406 478.7188 852.8438 478.6094 Q853.0469 478.5 853.125 478.3281 Q853.2031 478.1406 853.2031 477.25 L853.2031 471.8906 Q853.2031 470.7969 853.1406 470.5 Q853.0781 470.2656 852.9375 470.1562 Q852.8125 470.0469 852.625 470.0469 Q852.3438 470.0469 851.875 470.2656 L851.7656 470.0469 Z"/>
        </g>
        <g style="stroke-linecap:butt; font-size:15px; text-rendering:optimizeSpeed; image-rendering:optimizeQuality; color-rendering:optimizeQuality; font-family:&apos;ESSTIXFive&apos;; stroke-linejoin:round; color-interpolation:linearRGB;">
            <text x="776" xml:space="preserve" y="500"
                  style="clip-path:url(#clipPath4); stroke:none;">K</text>
        </g>
        <g style="stroke-linecap:butt; text-rendering:optimizeLegibility; color-rendering:optimizeQuality; image-rendering:optimizeQuality; font-family:&apos;Times New Roman&apos;; stroke-linejoin:round; color-interpolation:linearRGB;">
            <path style="stroke:none;"
                  d="M791.5469 495.0938 Q791.5469 493.3906 792.0469 492.1719 Q792.5625 490.9375 793.4219 490.3438 Q794.0781 489.8594 794.7812 489.8594 Q795.9219 489.8594 796.8281 491.0312 Q797.9688 492.4688 797.9688 494.9375 Q797.9688 496.6719 797.4688 497.875 Q796.9688 499.0781 796.1875 499.625 Q795.4219 500.1719 794.7031 500.1719 Q793.2812 500.1719 792.3438 498.5 Q791.5469 497.0781 791.5469 495.0938 ZM792.9844 495.2812 Q792.9844 497.3281 793.4844 498.625 Q793.9062 499.7188 794.7344 499.7188 Q795.125 499.7188 795.5469 499.3594 Q795.9688 499 796.1875 498.1719 Q796.5312 496.9062 796.5312 494.6094 Q796.5312 492.9219 796.1719 491.7812 Q795.9219 490.9375 795.5 490.5938 Q795.2031 490.3438 794.7656 490.3438 Q794.2812 490.3438 793.8906 490.7969 Q793.3594 491.4062 793.1719 492.7188 Q792.9844 494.0156 792.9844 495.2812 ZM800.375 498.5781 Q800.7188 498.5781 800.9531 498.8281 Q801.1875 499.0625 801.1875 499.3906 Q801.1875 499.7344 800.9531 499.9688 Q800.7188 500.2031 800.375 500.2031 Q800.0312 500.2031 799.7969 499.9688 Q799.5625 499.7344 799.5625 499.3906 Q799.5625 499.0469 799.7969 498.8125 Q800.0312 498.5781 800.375 498.5781 ZM808.7656 490.0625 L808.1875 491.3125 L805.2031 491.3125 L804.5469 492.6406 Q806.4844 492.9375 807.625 494.0938 Q808.5938 495.0781 808.5938 496.4375 Q808.5938 497.2188 808.2812 497.8906 Q807.9688 498.5469 807.4844 499.0156 Q807 499.4844 806.4062 499.7656 Q805.5625 500.1719 804.6719 500.1719 Q803.7812 500.1719 803.375 499.875 Q802.9688 499.5625 802.9688 499.2031 Q802.9688 499 803.1406 498.8438 Q803.3125 498.6875 803.5625 498.6875 Q803.75 498.6875 803.8906 498.75 Q804.0312 498.7969 804.375 499.0469 Q804.9375 499.4219 805.5 499.4219 Q806.3594 499.4219 807 498.7812 Q807.6406 498.125 807.6406 497.1875 Q807.6406 496.2969 807.0625 495.5156 Q806.4844 494.7344 805.4688 494.3125 Q804.6719 493.9844 803.2969 493.9219 L805.2031 490.0625 L808.7656 490.0625 Z"/>
        </g>
        <g style="stroke-linecap:butt; text-rendering:optimizeLegibility; color-rendering:optimizeQuality; image-rendering:optimizeQuality; font-family:&apos;Times New Roman&apos;; stroke-linejoin:round; color-interpolation:linearRGB;">
            <path style="stroke:none;"
                  d="M736.5469 515.0938 Q736.5469 513.3906 737.0469 512.1719 Q737.5625 510.9375 738.4219 510.3438 Q739.0781 509.8594 739.7812 509.8594 Q740.9219 509.8594 741.8281 511.0312 Q742.9688 512.4688 742.9688 514.9375 Q742.9688 516.6719 742.4688 517.875 Q741.9688 519.0781 741.1875 519.625 Q740.4219 520.1719 739.7031 520.1719 Q738.2812 520.1719 737.3438 518.5 Q736.5469 517.0781 736.5469 515.0938 ZM737.9844 515.2812 Q737.9844 517.3281 738.4844 518.625 Q738.9062 519.7188 739.7344 519.7188 Q740.125 519.7188 740.5469 519.3594 Q740.9688 519 741.1875 518.1719 Q741.5312 516.9062 741.5312 514.6094 Q741.5312 512.9219 741.1719 511.7812 Q740.9219 510.9375 740.5 510.5938 Q740.2031 510.3438 739.7656 510.3438 Q739.2812 510.3438 738.8906 510.7969 Q738.3594 511.4062 738.1719 512.7188 Q737.9844 514.0156 737.9844 515.2812 Z"/>
        </g>
        <g style="stroke-linecap:butt; text-rendering:optimizeLegibility; color-rendering:optimizeQuality; image-rendering:optimizeQuality; font-family:&apos;Times New Roman&apos;; stroke-linejoin:round; color-interpolation:linearRGB;">
            <path style="stroke:none;"
                  d="M677.5469 536.0938 Q677.5469 534.3906 678.0469 533.1719 Q678.5625 531.9375 679.4219 531.3438 Q680.0781 530.8594 680.7812 530.8594 Q681.9219 530.8594 682.8281 532.0312 Q683.9688 533.4688 683.9688 535.9375 Q683.9688 537.6719 683.4688 538.875 Q682.9688 540.0781 682.1875 540.625 Q681.4219 541.1719 680.7031 541.1719 Q679.2812 541.1719 678.3438 539.5 Q677.5469 538.0781 677.5469 536.0938 ZM678.9844 536.2812 Q678.9844 538.3281 679.4844 539.625 Q679.9062 540.7188 680.7344 540.7188 Q681.125 540.7188 681.5469 540.3594 Q681.9688 540 682.1875 539.1719 Q682.5312 537.9062 682.5312 535.6094 Q682.5312 533.9219 682.1719 532.7812 Q681.9219 531.9375 681.5 531.5938 Q681.2031 531.3438 680.7656 531.3438 Q680.2812 531.3438 679.8906 531.7969 Q679.3594 532.4062 679.1719 533.7188 Q678.9844 535.0156 678.9844 536.2812 ZM686.375 539.5781 Q686.7188 539.5781 686.9531 539.8281 Q687.1875 540.0625 687.1875 540.3906 Q687.1875 540.7344 686.9531 540.9688 Q686.7188 541.2031 686.375 541.2031 Q686.0312 541.2031 685.7969 540.9688 Q685.5625 540.7344 685.5625 540.3906 Q685.5625 540.0469 685.7969 539.8125 Q686.0312 539.5781 686.375 539.5781 ZM694.7656 531.0625 L694.1875 532.3125 L691.2031 532.3125 L690.5469 533.6406 Q692.4844 533.9375 693.625 535.0938 Q694.5938 536.0781 694.5938 537.4375 Q694.5938 538.2188 694.2812 538.8906 Q693.9688 539.5469 693.4844 540.0156 Q693 540.4844 692.4062 540.7656 Q691.5625 541.1719 690.6719 541.1719 Q689.7812 541.1719 689.375 540.875 Q688.9688 540.5625 688.9688 540.2031 Q688.9688 540 689.1406 539.8438 Q689.3125 539.6875 689.5625 539.6875 Q689.75 539.6875 689.8906 539.75 Q690.0312 539.7969 690.375 540.0469 Q690.9375 540.4219 691.5 540.4219 Q692.3594 540.4219 693 539.7812 Q693.6406 539.125 693.6406 538.1875 Q693.6406 537.2969 693.0625 536.5156 Q692.4844 535.7344 691.4688 535.3125 Q690.6719 534.9844 689.2969 534.9219 L691.2031 531.0625 L694.7656 531.0625 Z"/>
        </g>
        <g style="stroke-linecap:butt; text-rendering:optimizeLegibility; color-rendering:optimizeQuality; image-rendering:optimizeQuality; font-family:&apos;Times New Roman&apos;; stroke-linejoin:round; color-interpolation:linearRGB;">
            <path style="stroke:none;"
                  d="M630.7656 552.0469 L633.1719 550.8594 L633.4219 550.8594 L633.4219 559.25 Q633.4219 560.0781 633.4844 560.2969 Q633.5625 560.5 633.7812 560.6094 Q634 560.7188 634.6719 560.7344 L634.6719 561 L630.9375 561 L630.9375 560.7344 Q631.6406 560.7188 631.8438 560.6094 Q632.0469 560.5 632.125 560.3281 Q632.2031 560.1406 632.2031 559.25 L632.2031 553.8906 Q632.2031 552.7969 632.1406 552.5 Q632.0781 552.2656 631.9375 552.1562 Q631.8125 552.0469 631.625 552.0469 Q631.3438 552.0469 630.875 552.2656 L630.7656 552.0469 Z"/>
        </g>
        <g style="stroke-linecap:butt; text-rendering:optimizeLegibility; color-rendering:optimizeQuality; image-rendering:optimizeQuality; font-family:&apos;Times New Roman&apos;; stroke-linejoin:round; color-interpolation:linearRGB;">
            <path style="stroke:none;"
                  d="M570.7656 573.0469 L573.1719 571.8594 L573.4219 571.8594 L573.4219 580.25 Q573.4219 581.0781 573.4844 581.2969 Q573.5625 581.5 573.7812 581.6094 Q574 581.7188 574.6719 581.7344 L574.6719 582 L570.9375 582 L570.9375 581.7344 Q571.6406 581.7188 571.8438 581.6094 Q572.0469 581.5 572.125 581.3281 Q572.2031 581.1406 572.2031 580.25 L572.2031 574.8906 Q572.2031 573.7969 572.1406 573.5 Q572.0781 573.2656 571.9375 573.1562 Q571.8125 573.0469 571.625 573.0469 Q571.3438 573.0469 570.875 573.2656 L570.7656 573.0469 ZM578.375 580.5781 Q578.7188 580.5781 578.9531 580.8281 Q579.1875 581.0625 579.1875 581.3906 Q579.1875 581.7344 578.9531 581.9688 Q578.7188 582.2031 578.375 582.2031 Q578.0312 582.2031 577.7969 581.9688 Q577.5625 581.7344 577.5625 581.3906 Q577.5625 581.0469 577.7969 580.8125 Q578.0312 580.5781 578.375 580.5781 ZM586.7656 572.0625 L586.1875 573.3125 L583.2031 573.3125 L582.5469 574.6406 Q584.4844 574.9375 585.625 576.0938 Q586.5938 577.0781 586.5938 578.4375 Q586.5938 579.2188 586.2812 579.8906 Q585.9688 580.5469 585.4844 581.0156 Q585 581.4844 584.4062 581.7656 Q583.5625 582.1719 582.6719 582.1719 Q581.7812 582.1719 581.375 581.875 Q580.9688 581.5625 580.9688 581.2031 Q580.9688 581 581.1406 580.8438 Q581.3125 580.6875 581.5625 580.6875 Q581.75 580.6875 581.8906 580.75 Q582.0312 580.7969 582.375 581.0469 Q582.9375 581.4219 583.5 581.4219 Q584.3594 581.4219 585 580.7812 Q585.6406 580.125 585.6406 579.1875 Q585.6406 578.2969 585.0625 577.5156 Q584.4844 576.7344 583.4688 576.3125 Q582.6719 575.9844 581.2969 575.9219 L583.2031 572.0625 L586.7656 572.0625 Z"/>
        </g>
        <g style="stroke-linecap:butt; text-rendering:optimizeLegibility; color-rendering:optimizeQuality; image-rendering:optimizeQuality; font-family:&apos;Times New Roman&apos;; stroke-linejoin:round; color-interpolation:linearRGB;"
           transform="translate(6,5)">
            <path style="stroke:none; clip-path:url(#clipPath5);"
                  d="M351.25 549.25 Q351.5625 549.5781 351.7188 549.9219 Q351.8438 550.1406 352.0938 551.1094 L352.6562 550.2812 Q352.875 549.9688 353.1875 549.7031 Q353.5156 549.4219 353.75 549.3125 Q353.9062 549.25 354.0938 549.25 Q354.3594 549.25 354.5156 549.4062 Q354.6875 549.5469 354.6875 549.75 Q354.6875 550 354.5938 550.0938 Q354.4219 550.25 354.1875 550.25 Q354.0469 550.25 353.9062 550.1875 Q353.6094 550.0938 353.5 550.0938 Q353.3438 550.0938 353.1406 550.2656 Q352.75 550.5938 352.2031 551.5469 L352.7188 553.7188 Q352.8438 554.2188 352.9219 554.3281 Q353 554.4219 353.0938 554.4219 Q353.2188 554.4219 353.4062 554.2812 Q353.75 553.9844 354 553.5156 L354.2188 553.625 Q353.8125 554.375 353.2031 554.875 Q352.8594 555.1562 352.6094 555.1562 Q352.25 555.1562 352.0469 554.75 Q351.9062 554.5 351.5 552.625 Q350.5 554.3438 349.9062 554.8281 Q349.5156 555.1562 349.1562 555.1562 Q348.9062 555.1562 348.6875 554.9688 Q348.5469 554.8281 348.5469 554.5938 Q348.5469 554.3906 348.6875 554.25 Q348.8281 554.1094 349.0312 554.1094 Q349.2344 554.1094 349.4531 554.3125 Q349.625 554.4531 349.7188 554.4531 Q349.7812 554.4531 349.9062 554.3594 Q350.2031 554.1094 350.7188 553.3125 Q351.2344 552.5156 351.3906 552.1562 Q351 550.6094 350.9688 550.5312 Q350.8281 550.1094 350.5938 549.9375 Q350.3594 549.7656 349.8906 549.7656 Q349.75 549.7656 349.5625 549.7812 L349.5625 549.5469 L351.25 549.25 Z"/>
            <path style="clip-path:url(#clipPath5); stroke:none;"
                  d="M358.5781 558.7188 L358.125 560 L354.2188 560 L354.2188 559.8125 Q355.9375 558.25 356.6406 557.25 Q357.3438 556.25 357.3438 555.4219 Q357.3438 554.7969 356.9531 554.3906 Q356.5781 553.9844 356.0312 553.9844 Q355.5469 553.9844 355.1562 554.2812 Q354.7656 554.5625 354.5938 555.1094 L354.4062 555.1094 Q354.5312 554.2031 355.0312 553.7188 Q355.5312 553.2344 356.2969 553.2344 Q357.0938 553.2344 357.6406 553.7656 Q358.1875 554.2812 358.1875 554.9844 Q358.1875 555.4844 357.9531 555.9844 Q357.5781 556.7812 356.7812 557.6562 Q355.5625 558.9844 355.25 559.2656 L356.9844 559.2656 Q357.5156 559.2656 357.7188 559.2344 Q357.9375 559.1875 358.1094 559.0625 Q358.2812 558.9375 358.4062 558.7188 L358.5781 558.7188 Z"/>
        </g>
        <g style="stroke-linecap:butt; font-size:15px; text-rendering:optimizeSpeed; image-rendering:optimizeQuality; color-rendering:optimizeQuality; font-family:&apos;ESSTIXFive&apos;; stroke-linejoin:round; color-interpolation:linearRGB;">
            <text x="125" xml:space="preserve" y="486"
                  style="clip-path:url(#clipPath6); stroke:none;">K</text>
        </g>
        <g style="stroke-linecap:butt; text-rendering:optimizeLegibility; color-rendering:optimizeQuality; image-rendering:optimizeQuality; font-family:&apos;Times New Roman&apos;; stroke-linejoin:round; color-interpolation:linearRGB;">
            <path style="stroke:none;"
                  d="M141.7656 477.0469 L144.1719 475.8594 L144.4219 475.8594 L144.4219 484.25 Q144.4219 485.0781 144.4844 485.2969 Q144.5625 485.5 144.7812 485.6094 Q145 485.7188 145.6719 485.7344 L145.6719 486 L141.9375 486 L141.9375 485.7344 Q142.6406 485.7188 142.8438 485.6094 Q143.0469 485.5 143.125 485.3281 Q143.2031 485.1406 143.2031 484.25 L143.2031 478.8906 Q143.2031 477.7969 143.1406 477.5 Q143.0781 477.2656 142.9375 477.1562 Q142.8125 477.0469 142.625 477.0469 Q142.3438 477.0469 141.875 477.2656 L141.7656 477.0469 ZM149.375 484.5781 Q149.7188 484.5781 149.9531 484.8281 Q150.1875 485.0625 150.1875 485.3906 Q150.1875 485.7344 149.9531 485.9688 Q149.7188 486.2031 149.375 486.2031 Q149.0312 486.2031 148.7969 485.9688 Q148.5625 485.7344 148.5625 485.3906 Q148.5625 485.0469 148.7969 484.8125 Q149.0312 484.5781 149.375 484.5781 ZM157.7656 476.0625 L157.1875 477.3125 L154.2031 477.3125 L153.5469 478.6406 Q155.4844 478.9375 156.625 480.0938 Q157.5938 481.0781 157.5938 482.4375 Q157.5938 483.2188 157.2812 483.8906 Q156.9688 484.5469 156.4844 485.0156 Q156 485.4844 155.4062 485.7656 Q154.5625 486.1719 153.6719 486.1719 Q152.7812 486.1719 152.375 485.875 Q151.9688 485.5625 151.9688 485.2031 Q151.9688 485 152.1406 484.8438 Q152.3125 484.6875 152.5625 484.6875 Q152.75 484.6875 152.8906 484.75 Q153.0312 484.7969 153.375 485.0469 Q153.9375 485.4219 154.5 485.4219 Q155.3594 485.4219 156 484.7812 Q156.6406 484.125 156.6406 483.1875 Q156.6406 482.2969 156.0625 481.5156 Q155.4844 480.7344 154.4688 480.3125 Q153.6719 479.9844 152.2969 479.9219 L154.2031 476.0625 L157.7656 476.0625 Z"/>
        </g>
        <g style="stroke-linecap:butt; font-size:15px; text-rendering:optimizeSpeed; image-rendering:optimizeQuality; color-rendering:optimizeQuality; font-family:&apos;ESSTIXFive&apos;; stroke-linejoin:round; color-interpolation:linearRGB;">
            <text x="204" xml:space="preserve" y="502"
                  style="clip-path:url(#clipPath7); stroke:none;">K</text>
        </g>
        <g style="stroke-linecap:butt; text-rendering:optimizeLegibility; color-rendering:optimizeQuality; image-rendering:optimizeQuality; font-family:&apos;Times New Roman&apos;; stroke-linejoin:round; color-interpolation:linearRGB;">
            <path style="stroke:none;"
                  d="M220.7656 493.0469 L223.1719 491.8594 L223.4219 491.8594 L223.4219 500.25 Q223.4219 501.0781 223.4844 501.2969 Q223.5625 501.5 223.7812 501.6094 Q224 501.7188 224.6719 501.7344 L224.6719 502 L220.9375 502 L220.9375 501.7344 Q221.6406 501.7188 221.8438 501.6094 Q222.0469 501.5 222.125 501.3281 Q222.2031 501.1406 222.2031 500.25 L222.2031 494.8906 Q222.2031 493.7969 222.1406 493.5 Q222.0781 493.2656 221.9375 493.1562 Q221.8125 493.0469 221.625 493.0469 Q221.3438 493.0469 220.875 493.2656 L220.7656 493.0469 Z"/>
        </g>
        <g style="stroke-linecap:butt; font-size:15px; text-rendering:optimizeSpeed; image-rendering:optimizeQuality; color-rendering:optimizeQuality; font-family:&apos;ESSTIXFive&apos;; stroke-linejoin:round; color-interpolation:linearRGB;">
            <text x="271" xml:space="preserve" y="518"
                  style="clip-path:url(#clipPath8); stroke:none;">K</text>
        </g>
        <g style="stroke-linecap:butt; text-rendering:optimizeLegibility; color-rendering:optimizeQuality; image-rendering:optimizeQuality; font-family:&apos;Times New Roman&apos;; stroke-linejoin:round; color-interpolation:linearRGB;">
            <path style="stroke:none;"
                  d="M286.5469 513.0938 Q286.5469 511.3906 287.0469 510.1719 Q287.5625 508.9375 288.4219 508.3438 Q289.0781 507.8594 289.7812 507.8594 Q290.9219 507.8594 291.8281 509.0312 Q292.9688 510.4688 292.9688 512.9375 Q292.9688 514.6719 292.4688 515.875 Q291.9688 517.0781 291.1875 517.625 Q290.4219 518.1719 289.7031 518.1719 Q288.2812 518.1719 287.3438 516.5 Q286.5469 515.0781 286.5469 513.0938 ZM287.9844 513.2812 Q287.9844 515.3281 288.4844 516.625 Q288.9062 517.7188 289.7344 517.7188 Q290.125 517.7188 290.5469 517.3594 Q290.9688 517 291.1875 516.1719 Q291.5312 514.9062 291.5312 512.6094 Q291.5312 510.9219 291.1719 509.7812 Q290.9219 508.9375 290.5 508.5938 Q290.2031 508.3438 289.7656 508.3438 Q289.2812 508.3438 288.8906 508.7969 Q288.3594 509.4062 288.1719 510.7188 Q287.9844 512.0156 287.9844 513.2812 ZM295.375 516.5781 Q295.7188 516.5781 295.9531 516.8281 Q296.1875 517.0625 296.1875 517.3906 Q296.1875 517.7344 295.9531 517.9688 Q295.7188 518.2031 295.375 518.2031 Q295.0312 518.2031 294.7969 517.9688 Q294.5625 517.7344 294.5625 517.3906 Q294.5625 517.0469 294.7969 516.8125 Q295.0312 516.5781 295.375 516.5781 ZM303.7656 508.0625 L303.1875 509.3125 L300.2031 509.3125 L299.5469 510.6406 Q301.4844 510.9375 302.625 512.0938 Q303.5938 513.0781 303.5938 514.4375 Q303.5938 515.2188 303.2812 515.8906 Q302.9688 516.5469 302.4844 517.0156 Q302 517.4844 301.4062 517.7656 Q300.5625 518.1719 299.6719 518.1719 Q298.7812 518.1719 298.375 517.875 Q297.9688 517.5625 297.9688 517.2031 Q297.9688 517 298.1406 516.8438 Q298.3125 516.6875 298.5625 516.6875 Q298.75 516.6875 298.8906 516.75 Q299.0312 516.7969 299.375 517.0469 Q299.9375 517.4219 300.5 517.4219 Q301.3594 517.4219 302 516.7812 Q302.6406 516.125 302.6406 515.1875 Q302.6406 514.2969 302.0625 513.5156 Q301.4844 512.7344 300.4688 512.3125 Q299.6719 511.9844 298.2969 511.9219 L300.2031 508.0625 L303.7656 508.0625 Z"/>
        </g>
        <g style="stroke-linecap:butt; text-rendering:optimizeLegibility; color-rendering:optimizeQuality; image-rendering:optimizeQuality; font-family:&apos;Times New Roman&apos;; stroke-linejoin:round; color-interpolation:linearRGB;">
            <path style="stroke:none;"
                  d="M356.5469 529.0938 Q356.5469 527.3906 357.0469 526.1719 Q357.5625 524.9375 358.4219 524.3438 Q359.0781 523.8594 359.7812 523.8594 Q360.9219 523.8594 361.8281 525.0312 Q362.9688 526.4688 362.9688 528.9375 Q362.9688 530.6719 362.4688 531.875 Q361.9688 533.0781 361.1875 533.625 Q360.4219 534.1719 359.7031 534.1719 Q358.2812 534.1719 357.3438 532.5 Q356.5469 531.0781 356.5469 529.0938 ZM357.9844 529.2812 Q357.9844 531.3281 358.4844 532.625 Q358.9062 533.7188 359.7344 533.7188 Q360.125 533.7188 360.5469 533.3594 Q360.9688 533 361.1875 532.1719 Q361.5312 530.9062 361.5312 528.6094 Q361.5312 526.9219 361.1719 525.7812 Q360.9219 524.9375 360.5 524.5938 Q360.2031 524.3438 359.7656 524.3438 Q359.2812 524.3438 358.8906 524.7969 Q358.3594 525.4062 358.1719 526.7188 Q357.9844 528.0156 357.9844 529.2812 Z"/>
        </g>
        <g style="stroke-linecap:butt; text-rendering:optimizeLegibility; color-rendering:optimizeQuality; image-rendering:optimizeQuality; font-family:&apos;Times New Roman&apos;; stroke-linejoin:round; color-interpolation:linearRGB;">
            <path style="stroke:none;"
                  d="M424.5469 545.0938 Q424.5469 543.3906 425.0469 542.1719 Q425.5625 540.9375 426.4219 540.3438 Q427.0781 539.8594 427.7812 539.8594 Q428.9219 539.8594 429.8281 541.0312 Q430.9688 542.4688 430.9688 544.9375 Q430.9688 546.6719 430.4688 547.875 Q429.9688 549.0781 429.1875 549.625 Q428.4219 550.1719 427.7031 550.1719 Q426.2812 550.1719 425.3438 548.5 Q424.5469 547.0781 424.5469 545.0938 ZM425.9844 545.2812 Q425.9844 547.3281 426.4844 548.625 Q426.9062 549.7188 427.7344 549.7188 Q428.125 549.7188 428.5469 549.3594 Q428.9688 549 429.1875 548.1719 Q429.5312 546.9062 429.5312 544.6094 Q429.5312 542.9219 429.1719 541.7812 Q428.9219 540.9375 428.5 540.5938 Q428.2031 540.3438 427.7656 540.3438 Q427.2812 540.3438 426.8906 540.7969 Q426.3594 541.4062 426.1719 542.7188 Q425.9844 544.0156 425.9844 545.2812 ZM433.375 548.5781 Q433.7188 548.5781 433.9531 548.8281 Q434.1875 549.0625 434.1875 549.3906 Q434.1875 549.7344 433.9531 549.9688 Q433.7188 550.2031 433.375 550.2031 Q433.0312 550.2031 432.7969 549.9688 Q432.5625 549.7344 432.5625 549.3906 Q432.5625 549.0469 432.7969 548.8125 Q433.0312 548.5781 433.375 548.5781 ZM441.7656 540.0625 L441.1875 541.3125 L438.2031 541.3125 L437.5469 542.6406 Q439.4844 542.9375 440.625 544.0938 Q441.5938 545.0781 441.5938 546.4375 Q441.5938 547.2188 441.2812 547.8906 Q440.9688 548.5469 440.4844 549.0156 Q440 549.4844 439.4062 549.7656 Q438.5625 550.1719 437.6719 550.1719 Q436.7812 550.1719 436.375 549.875 Q435.9688 549.5625 435.9688 549.2031 Q435.9688 549 436.1406 548.8438 Q436.3125 548.6875 436.5625 548.6875 Q436.75 548.6875 436.8906 548.75 Q437.0312 548.7969 437.375 549.0469 Q437.9375 549.4219 438.5 549.4219 Q439.3594 549.4219 440 548.7812 Q440.6406 548.125 440.6406 547.1875 Q440.6406 546.2969 440.0625 545.5156 Q439.4844 544.7344 438.4688 544.3125 Q437.6719 543.9844 436.2969 543.9219 L438.2031 540.0625 L441.7656 540.0625 Z"/>
        </g>
        <g style="stroke-linecap:butt; text-rendering:optimizeLegibility; color-rendering:optimizeQuality; image-rendering:optimizeQuality; font-family:&apos;Times New Roman&apos;; stroke-linejoin:round; color-interpolation:linearRGB;">
            <path style="stroke:none;"
                  d="M503.7656 557.0469 L506.1719 555.8594 L506.4219 555.8594 L506.4219 564.25 Q506.4219 565.0781 506.4844 565.2969 Q506.5625 565.5 506.7812 565.6094 Q507 565.7188 507.6719 565.7344 L507.6719 566 L503.9375 566 L503.9375 565.7344 Q504.6406 565.7188 504.8438 565.6094 Q505.0469 565.5 505.125 565.3281 Q505.2031 565.1406 505.2031 564.25 L505.2031 558.8906 Q505.2031 557.7969 505.1406 557.5 Q505.0781 557.2656 504.9375 557.1562 Q504.8125 557.0469 504.625 557.0469 Q504.3438 557.0469 503.875 557.2656 L503.7656 557.0469 Z"/>
        </g>
        <g style="stroke-linecap:butt; text-rendering:optimizeLegibility; color-rendering:optimizeQuality; image-rendering:optimizeQuality; font-family:&apos;Times New Roman&apos;; stroke-linejoin:round; color-interpolation:linearRGB;">
            <path style="stroke:none;"
                  d="M570.7656 573.0469 L573.1719 571.8594 L573.4219 571.8594 L573.4219 580.25 Q573.4219 581.0781 573.4844 581.2969 Q573.5625 581.5 573.7812 581.6094 Q574 581.7188 574.6719 581.7344 L574.6719 582 L570.9375 582 L570.9375 581.7344 Q571.6406 581.7188 571.8438 581.6094 Q572.0469 581.5 572.125 581.3281 Q572.2031 581.1406 572.2031 580.25 L572.2031 574.8906 Q572.2031 573.7969 572.1406 573.5 Q572.0781 573.2656 571.9375 573.1562 Q571.8125 573.0469 571.625 573.0469 Q571.3438 573.0469 570.875 573.2656 L570.7656 573.0469 ZM578.375 580.5781 Q578.7188 580.5781 578.9531 580.8281 Q579.1875 581.0625 579.1875 581.3906 Q579.1875 581.7344 578.9531 581.9688 Q578.7188 582.2031 578.375 582.2031 Q578.0312 582.2031 577.7969 581.9688 Q577.5625 581.7344 577.5625 581.3906 Q577.5625 581.0469 577.7969 580.8125 Q578.0312 580.5781 578.375 580.5781 ZM586.7656 572.0625 L586.1875 573.3125 L583.2031 573.3125 L582.5469 574.6406 Q584.4844 574.9375 585.625 576.0938 Q586.5938 577.0781 586.5938 578.4375 Q586.5938 579.2188 586.2812 579.8906 Q585.9688 580.5469 585.4844 581.0156 Q585 581.4844 584.4062 581.7656 Q583.5625 582.1719 582.6719 582.1719 Q581.7812 582.1719 581.375 581.875 Q580.9688 581.5625 580.9688 581.2031 Q580.9688 581 581.1406 580.8438 Q581.3125 580.6875 581.5625 580.6875 Q581.75 580.6875 581.8906 580.75 Q582.0312 580.7969 582.375 581.0469 Q582.9375 581.4219 583.5 581.4219 Q584.3594 581.4219 585 580.7812 Q585.6406 580.125 585.6406 579.1875 Q585.6406 578.2969 585.0625 577.5156 Q584.4844 576.7344 583.4688 576.3125 Q582.6719 575.9844 581.2969 575.9219 L583.2031 572.0625 L586.7656 572.0625 Z"/>
        </g>
        <g style="stroke-linecap:butt; text-rendering:optimizeLegibility; color-rendering:optimizeQuality; image-rendering:optimizeQuality; font-family:&apos;Times New Roman&apos;; stroke-linejoin:round; color-interpolation:linearRGB;">
            <path style="stroke:none;"
                  d="M114.5469 453.0938 Q114.5469 451.3906 115.0469 450.1719 Q115.5625 448.9375 116.4219 448.3438 Q117.0781 447.8594 117.7812 447.8594 Q118.9219 447.8594 119.8281 449.0312 Q120.9688 450.4688 120.9688 452.9375 Q120.9688 454.6719 120.4688 455.875 Q119.9688 457.0781 119.1875 457.625 Q118.4219 458.1719 117.7031 458.1719 Q116.2812 458.1719 115.3438 456.5 Q114.5469 455.0781 114.5469 453.0938 ZM115.9844 453.2812 Q115.9844 455.3281 116.4844 456.625 Q116.9062 457.7188 117.7344 457.7188 Q118.125 457.7188 118.5469 457.3594 Q118.9688 457 119.1875 456.1719 Q119.5312 454.9062 119.5312 452.6094 Q119.5312 450.9219 119.1719 449.7812 Q118.9219 448.9375 118.5 448.5938 Q118.2031 448.3438 117.7656 448.3438 Q117.2812 448.3438 116.8906 448.7969 Q116.3594 449.4062 116.1719 450.7188 Q115.9844 452.0156 115.9844 453.2812 Z"/>
        </g>
        <g style="stroke-linecap:butt; text-rendering:optimizeLegibility; color-rendering:optimizeQuality; image-rendering:optimizeQuality; font-family:&apos;Times New Roman&apos;; stroke-linejoin:round; color-interpolation:linearRGB;">
            <path style="stroke:none;"
                  d="M116.7656 276.0469 L119.1719 274.8594 L119.4219 274.8594 L119.4219 283.25 Q119.4219 284.0781 119.4844 284.2969 Q119.5625 284.5 119.7812 284.6094 Q120 284.7188 120.6719 284.7344 L120.6719 285 L116.9375 285 L116.9375 284.7344 Q117.6406 284.7188 117.8438 284.6094 Q118.0469 284.5 118.125 284.3281 Q118.2031 284.1406 118.2031 283.25 L118.2031 277.8906 Q118.2031 276.7969 118.1406 276.5 Q118.0781 276.2656 117.9375 276.1562 Q117.8125 276.0469 117.625 276.0469 Q117.3438 276.0469 116.875 276.2656 L116.7656 276.0469 Z"/>
        </g>
        <g style="stroke-linecap:butt; text-rendering:optimizeLegibility; color-rendering:optimizeQuality; image-rendering:optimizeQuality; font-family:&apos;Times New Roman&apos;; stroke-linejoin:round; color-interpolation:linearRGB;">
            <path style="stroke:none;"
                  d="M122.875 110.0938 L122.1875 112 L116.3281 112 L116.3281 111.7344 Q118.9062 109.375 119.9531 107.875 Q121.0156 106.375 121.0156 105.1406 Q121.0156 104.2031 120.4375 103.5938 Q119.8594 102.9844 119.0469 102.9844 Q118.3281 102.9844 117.7344 103.4219 Q117.1562 103.8438 116.875 104.6719 L116.6094 104.6719 Q116.7969 103.3125 117.5469 102.5938 Q118.3125 101.8594 119.4375 101.8594 Q120.6562 101.8594 121.4531 102.6406 Q122.2656 103.4219 122.2656 104.4688 Q122.2656 105.2188 121.9219 105.9844 Q121.375 107.1719 120.1562 108.4844 Q118.3438 110.4844 117.875 110.8906 L120.4688 110.8906 Q121.2656 110.8906 121.5781 110.8438 Q121.9062 110.7812 122.1562 110.6094 Q122.4219 110.4219 122.6094 110.0938 L122.875 110.0938 Z"/>
        </g>
        <g style="stroke-linecap:butt; text-rendering:optimizeLegibility; color-rendering:optimizeQuality; image-rendering:optimizeQuality; font-family:&apos;Times New Roman&apos;; stroke-linejoin:round; color-interpolation:linearRGB;">
            <path style="stroke:none;"
                  d="M117.7656 -70.0469 Q118.1875 -71.0469 118.8281 -71.5938 Q119.4844 -72.1406 120.4531 -72.1406 Q121.6406 -72.1406 122.2812 -71.3594 Q122.7656 -70.7812 122.7656 -70.125 Q122.7656 -69.0312 121.4062 -67.875 Q122.3125 -67.5156 122.7812 -66.8438 Q123.25 -66.1875 123.25 -65.2812 Q123.25 -64 122.4375 -63.0625 Q121.3594 -61.8281 119.3438 -61.8281 Q118.3281 -61.8281 117.9688 -62.0781 Q117.6094 -62.3281 117.6094 -62.6094 Q117.6094 -62.8281 117.7812 -62.9844 Q117.9531 -63.1406 118.1875 -63.1406 Q118.375 -63.1406 118.5625 -63.0781 Q118.6875 -63.0469 119.125 -62.8125 Q119.5781 -62.5938 119.7344 -62.5469 Q120.0156 -62.4688 120.3125 -62.4688 Q121.0625 -62.4688 121.6094 -63.0469 Q122.1719 -63.625 122.1719 -64.4062 Q122.1719 -64.9844 121.9219 -65.5312 Q121.7188 -65.9531 121.5 -66.1562 Q121.1875 -66.4531 120.625 -66.6875 Q120.0781 -66.9219 119.5156 -66.9219 L119.2812 -66.9219 L119.2812 -67.1562 Q119.8594 -67.2188 120.4375 -67.5625 Q121.0156 -67.9062 121.2812 -68.3906 Q121.5469 -68.875 121.5469 -69.4531 Q121.5469 -70.2031 121.0781 -70.6719 Q120.6094 -71.1406 119.9062 -71.1406 Q118.7656 -71.1406 118 -69.9219 L117.7656 -70.0469 Z"/>
        </g>
    </g>
    <g stroke="none">
        <title>
            Plot3D
        </title>
        <desc>
            Creator: GL2PS 1.3.7, (C) 1999-2012 C. Geuzaine For: Maplesoft
            CreationDate: Sat Jan 06 10:19:13 2024
        </desc>
        <defs>
        </defs>
        <g shape-rendering="crispEdges">
            <polyline fill="none" stroke-width="1.5"
                      points="91.1177,527.263 76.8245,527.785" stroke="#000000"/>
            <polyline fill="none" stroke-width="1.5"
                      points="91.1177,527.263 76.8245,527.785" stroke="#000000"/>
            <polyline fill="none" stroke-width="1.5"
                      points="91.1177,527.263 91.0239,541.102" stroke="#000000"/>
            <polyline fill="none" stroke-width="1.5"
                      points="91.1177,527.263 91.0239,541.102" stroke="#000000"/>
            <polyline fill="none" stroke-width="1.5"
                      points="139.511,537.874 139.415,551.719" stroke="#000000"/>
            <polyline fill="none" stroke-width="1.5"
                      points="139.511,537.874 139.415,551.719" stroke="#000000"/>
            <polyline fill="none" stroke-width="1.5"
                      points="187.947,548.495 187.848,562.345" stroke="#000000"/>
            <polyline fill="none" stroke-width="1.5"
                      points="187.947,548.495 187.848,562.345" stroke="#000000"/>
            <polyline fill="none" stroke-width="1.5"
                      points="236.425,559.124 236.323,572.98" stroke="#000000"/>
            <polyline fill="none" stroke-width="1.5"
                      points="236.425,559.124 236.323,572.98" stroke="#000000"/>
            <polyline fill="none" stroke-width="1.5"
                      points="284.945,569.763 284.841,583.625" stroke="#000000"/>
            <polyline fill="none" stroke-width="1.5"
                      points="284.945,569.763 284.841,583.625" stroke="#000000"/>
            <polyline fill="none" stroke-width="1.5"
                      points="333.507,580.412 333.401,594.278" stroke="#000000"/>
            <polyline fill="none" stroke-width="1.5"
                      points="333.507,580.412 333.401,594.278" stroke="#000000"/>
            <polyline fill="none" stroke-width="1.5"
                      points="91.1177,527.263 382.112,591.069" stroke="#000000"/>
            <polyline fill="none" stroke-width="1.5"
                      points="91.1177,527.263 382.112,591.069" stroke="#000000"/>
            <polyline fill="none" stroke-width="1.5"
                      points="91.9002,411.88 77.6008,412.399" stroke="#000000"/>
            <polyline fill="none" stroke-width="1.5"
                      points="91.9002,411.88 77.6008,412.399" stroke="#000000"/>
            <polyline fill="none" stroke-width="1.5"
                      points="92.6834,296.395 78.3777,296.912" stroke="#000000"/>
            <polyline fill="none" stroke-width="1.5"
                      points="92.6834,296.395 78.3777,296.912" stroke="#000000"/>
            <polyline fill="none" stroke-width="1.5"
                      points="91.1177,527.263 93.4673,180.809" stroke="#000000"/>
            <polyline fill="none" stroke-width="1.5"
                      points="91.1177,527.263 93.4673,180.809" stroke="#000000"/>
            <polyline fill="none" stroke-width="1.5"
                      points="383.128,462.397 382.112,591.069" stroke="#000000"/>
            <polyline fill="none" stroke-width="1.5"
                      points="383.128,462.397 382.112,591.069" stroke="#000000"/>
            <polyline fill="none" stroke-width="1.5"
                      points="305.445,445.453 595.963,508.818" stroke="#000000"/>
            <polyline fill="none" stroke-width="1"
                      points="305.445,445.453 595.963,508.818" stroke="#000000"/>
            <polyline fill="none" stroke-width="1.5"
                      points="305.445,445.453 595.963,508.818" stroke="#000000"/>
            <polyline fill="none" stroke-width="1.5"
                      points="383.128,462.397 383.496,415.661" stroke="#000000"/>
            <polyline fill="none" stroke-width="1.5"
                      points="383.128,462.397 383.496,415.661" stroke="#000000"/>
            <polyline fill="none" stroke-width="1.5"
                      points="305.445,445.453 91.1177,527.263" stroke="#000000"/>
            <polyline fill="none" stroke-width="1.5"
                      points="305.445,445.453 91.1177,527.263" stroke="#000000"/>
            <polyline fill="none" stroke-width="1"
                      points="305.445,445.453 91.1177,527.263" stroke="#000000"/>
            <polyline fill="none" stroke-width="1.5"
                      points="307.104,226.986 93.4673,180.809" stroke="#000000"/>
            <polyline fill="none" stroke-width="1.5"
                      points="307.104,226.986 93.4673,180.809" stroke="#000000"/>
            <polyline fill="none" stroke-width="1.5"
                      points="305.445,445.453 308.068,100.125" stroke="#000000"/>
            <polyline fill="none" stroke-width="1"
                      points="305.445,445.453 308.068,100.125" stroke="#000000"/>
            <polyline fill="none" stroke-width="1.5"
                      points="305.445,445.453 308.068,100.125" stroke="#000000"/>
            <polyline fill="none" stroke-width="1.5"
                      points="307.104,226.986 384.853,243.79" stroke="#000000"/>
            <polyline fill="none" stroke-width="1.5"
                      points="307.104,226.986 384.853,243.79" stroke="#000000"/>
            <polyline fill="none" stroke-width="1.5"
                      points="383.496,415.661 384.853,243.79" stroke="#000000"/>
            <polyline fill="none" stroke-width="1.5"
                      points="383.496,415.661 384.853,243.79" stroke="#000000"/>
            <polyline fill="none" stroke-width="1.5"
                      points="598.975,162.671 384.853,243.79" stroke="#000000"/>
            <polyline fill="none" stroke-width="1.5"
                      points="598.975,162.671 384.853,243.79" stroke="#000000"/>
            <polyline fill="none" stroke-width="1.5"
                      points="595.963,508.818 598.975,162.671" stroke="#000000"/>
            <polyline fill="none" stroke-width="1.5"
                      points="595.963,508.818 598.975,162.671" stroke="#000000"/>
            <polyline fill="none" stroke-width="1.5"
                      points="308.068,100.125 598.975,162.671" stroke="#000000"/>
            <polyline fill="none" stroke-width="1.5"
                      points="308.068,100.125 598.975,162.671" stroke="#000000"/>
            <polyline fill="none" stroke-width="1.5"
                      points="308.068,100.125 93.4673,180.809" stroke="#000000"/>
            <polyline fill="none" stroke-width="1.5"
                      points="308.068,100.125 93.4673,180.809 79.1553,181.323"
                      stroke="#000000"/>
            <polyline fill="none" stroke-width="1.5"
                      points="93.4673,180.809 79.1553,181.323" stroke="#000000"/>
            <polyline fill="none" stroke-width="1.5"
                      points="595.963,508.818 382.112,591.069" stroke="#000000"/>
            <polyline fill="none" stroke-width="1.5"
                      points="595.963,508.818 382.112,591.069 382.003,604.941"
                      stroke="#000000"/>
            <polyline fill="none" stroke-width="1.5"
                      points="382.112,591.069 382.003,604.941" stroke="#000000"/>
            <polyline fill="none" stroke-width="1.5"
                      points="382.112,591.069 382.003,604.941" stroke="#000000"/>
            <polyline fill="none" stroke-width="1.5"
                      points="382.112,591.069 382.003,604.941" stroke="#000000"/>
            <polyline fill="none" stroke-width="1.5"
                      points="417.86,577.32 417.749,591.184" stroke="#000000"/>
            <polyline fill="none" stroke-width="1.5"
                      points="417.86,577.32 417.749,591.184" stroke="#000000"/>
            <polyline fill="none" stroke-width="1.5"
                      points="453.566,563.587 453.452,577.444" stroke="#000000"/>
            <polyline fill="none" stroke-width="1.5"
                      points="453.566,563.587 453.452,577.444" stroke="#000000"/>
            <polyline fill="none" stroke-width="1.5"
                      points="489.228,549.87 489.113,563.72" stroke="#000000"/>
            <polyline fill="none" stroke-width="1.5"
                      points="489.228,549.87 489.113,563.72" stroke="#000000"/>
            <polyline fill="none" stroke-width="1.5"
                      points="524.849,536.17 524.732,550.012" stroke="#000000"/>
            <polyline fill="none" stroke-width="1.5"
                      points="524.849,536.17 524.732,550.012" stroke="#000000"/>
            <polyline fill="none" stroke-width="1.5"
                      points="560.427,522.486 560.308,536.321" stroke="#000000"/>
            <polyline fill="none" stroke-width="1.5"
                      points="560.427,522.486 560.308,536.321" stroke="#000000"/>
            <polyline fill="none" stroke-width="1.5"
                      points="595.963,508.818 595.842,522.645" stroke="#000000"/>
            <polyline fill="none" stroke-width="1.5"
                      points="595.963,508.818 595.842,522.645" stroke="#000000"/>
        </g>
    </g>
</svg>