<svg xmlns="http://www.w3.org/2000/svg" xmlns:xlink="http://www.w3.org/1999/xlink" version="1.1" width="612pt" height="792.518pt" viewBox="0 0 612 792.518">
<defs>
<clipPath id="clip_0">
<path transform="matrix(1,0,0,-1,0,792.518)" d="M64.89517 366H433.87519V734.98H64.89517Z"/>
</clipPath>
<clipPath id="clip_1">
<path transform="matrix(1,0,0,-1,0,792.518)" d="M62.89517 364H434.89518V736.98H62.89517Z"/>
</clipPath>
<clipPath id="clip_2">
<path transform="matrix(1,0,0,-1,0,792.518)" d="M62.89517 364H434.89518V736.98H62.89517Z"/>
</clipPath>
<clipPath id="clip_3">
<path transform="matrix(1,0,0,-1,0,792.518)" d="M58.89517 362H434.89518V738H58.89517Z"/>
</clipPath>
<clipPath id="clip_4">
<path transform="matrix(1,0,0,-1,0,792.518)" d="M58.89517 362H434.89518V738H58.89517Z"/>
</clipPath>
<clipPath id="clip_5">
<path transform="matrix(1,0,0,-1,0,792.518)" d="M59.89517 532H71.89517V543H59.89517Z"/>
</clipPath>
<clipPath id="clip_6">
<path transform="matrix(1,0,0,-1,0,792.518)" d="M58.89517 362H434.89518V738H58.89517Z"/>
</clipPath>
<clipPath id="clip_7">
<path transform="matrix(1,0,0,-1,0,792.518)" d="M103.8952 532H115.8952V543H103.8952Z"/>
</clipPath>
<clipPath id="clip_8">
<path transform="matrix(1,0,0,-1,0,792.518)" d="M58.89517 362H434.89518V738H58.89517Z"/>
</clipPath>
<clipPath id="clip_9">
<path transform="matrix(1,0,0,-1,0,792.518)" d="M148.8952 532H160.8952V543H148.8952Z"/>
</clipPath>
<clipPath id="clip_10">
<path transform="matrix(1,0,0,-1,0,792.518)" d="M58.89517 362H434.89518V738H58.89517Z"/>
</clipPath>
<clipPath id="clip_11">
<path transform="matrix(1,0,0,-1,0,792.518)" d="M193.8952 532H205.8952V543H193.8952Z"/>
</clipPath>
<clipPath id="clip_12">
<path transform="matrix(1,0,0,-1,0,792.518)" d="M58.89517 362H434.89518V738H58.89517Z"/>
</clipPath>
<clipPath id="clip_13">
<path transform="matrix(1,0,0,-1,0,792.518)" d="M58.89517 362H434.89518V738H58.89517Z"/>
</clipPath>
<clipPath id="clip_14">
<path transform="matrix(1,0,0,-1,0,792.518)" d="M223.8952 364H235.8952V375H223.8952Z"/>
</clipPath>
<clipPath id="clip_15">
<path transform="matrix(1,0,0,-1,0,792.518)" d="M58.89517 362H434.89518V738H58.89517Z"/>
</clipPath>
<clipPath id="clip_16">
<path transform="matrix(1,0,0,-1,0,792.518)" d="M223.8952 409H235.8952V420H223.8952Z"/>
</clipPath>
<clipPath id="clip_17">
<path transform="matrix(1,0,0,-1,0,792.518)" d="M58.89517 362H434.89518V738H58.89517Z"/>
</clipPath>
<clipPath id="clip_18">
<path transform="matrix(1,0,0,-1,0,792.518)" d="M223.8952 454H235.8952V465H223.8952Z"/>
</clipPath>
<clipPath id="clip_19">
<path transform="matrix(1,0,0,-1,0,792.518)" d="M58.89517 362H434.89518V738H58.89517Z"/>
</clipPath>
<clipPath id="clip_20">
<path transform="matrix(1,0,0,-1,0,792.518)" d="M223.8952 499H235.8952V510H223.8952Z"/>
</clipPath>
<clipPath id="clip_21">
<path transform="matrix(1,0,0,-1,0,792.518)" d="M58.89517 362H434.89518V738H58.89517Z"/>
</clipPath>
<clipPath id="clip_22">
<path transform="matrix(1,0,0,-1,0,792.518)" d="M0 0H612V792.518H0Z"/>
</clipPath>
<clipPath id="clip_23">
<path transform="matrix(1,0,0,-1,0,792.518)" d="M0 0H612V792.518H0Z"/>
</clipPath>
</defs>
<g clip-path="url(#clip_0)">
<path transform="matrix(1,0,0,-1,-.1048304,792.518)" stroke-width="2" stroke-linecap="butt" stroke-linejoin="round" fill="none" stroke="#ff0000" d="M159 370 338.99 729.98 248.99 549.99 69 639.99 428.98 460"/>
</g>
<g clip-path="url(#clip_1)">
<path transform="matrix(1,0,0,-1,-.1048304,792.518)" stroke-width="3" stroke-linecap="butt" stroke-linejoin="round" fill="none" stroke="#ff0000" d="M309.36 670.73 306.32 672.18 303.61 673.32 300.52 674.49 297.35 675.53 294.15 676.44 291.13 677.16 287.98 677.79 284.67 678.3 281.33 678.69 277.87 678.95 274.79 679.06 271.31 679.05 267.78 678.91 264.36 678.64 261.24 678.28 257.52 677.72 254.36 677.12 250.68 676.3 247.42 675.45 243.84 674.39 240.44 673.26 236.91 671.95 233.67 670.64 230.19 669.1 226.6 667.37 223.5 665.76 220.17 663.91 216.76 661.88 213.45 659.78 210.29 657.64 206.82 655.15 203.75 652.81 200.51 650.2 197.62 647.74 194.52 644.96 191.65 642.25 188.71 639.32 185.89 636.38 183.01 633.2 180.3 630.06 177.59 626.76 174.99 623.42 172.66 620.28 170.07 616.6 167.83 613.25 165.52 609.62 163.39 606.08 161.12 602.1 159.24 598.6 157.19 594.57 155.42 590.86 153.58 586.75 152.08 583.18 150.47 579.08 149.01 575.08 147.65 571.07 146.4 567.05 145.3 563.17 144.21 558.96 143.28 554.94 142.4 550.7 141.72 546.87 141.06 542.63 140.55 538.59 140.14 534.56 139.83 530.37 139.65 526.53 139.56 522.61 139.59 518.33 139.73 514.47 139.98 510.57 140.34 506.64 140.77 503.07 141.34 499.31 142 495.62 142.83 491.74 143.66 488.37 144.73 484.54 145.8 481.16 146.96 477.87 148.31 474.41 149.77 471.02 151.19 468.01 152.79 464.89 154.45 461.93 156.36 458.81 158.09 456.2 160.17 453.29 162.21 450.66 164.32 448.15 166.52 445.74 168.84 443.38 171.38 441 173.79 438.92 176.24 436.97 178.94 435.01 181.7 433.17 184.24 431.62 187.32 429.92 189.95 428.6 193.09 427.19 196.15 425.97 198.92 425 202.09 424.02 205.33 423.17 208.61 422.46 211.68 421.92 214.89 421.48 218.25 421.16 221.63 420.97 225.14 420.91 228.25 420.98 231.78 421.19 235.33 421.53 238.77 421.99 241.9 422.52 245.64 423.29 248.8 424.06 252.49 425.09 255.74 426.11 259.31 427.36 262.69 428.67 266.21 430.17 269.43 431.65 272.87 433.37 276.43 435.29 279.5 437.06 282.78 439.08 286.14 441.28 289.39 443.54 292.5 445.83 295.9 448.49 298.9 450.99 302.06 453.75 304.88 456.34 307.9 459.27 310.68 462.11 313.53 465.17 316.26 468.24 319.04 471.55 321.64 474.81 324.24 478.22 326.73 481.67 328.95 484.91 331.42 488.69 333.54 492.13 335.72 495.85 337.72 499.47 339.85 503.54 341.61 507.1 343.51 511.2 345.14 514.97 346.83 519.13 348.2 522.75 349.66 526.89 350.97 530.92 352.17 534.97 353.27 539.01 354.23 542.91 355.15 547.13 355.93 551.16 356.63 555.39 357.17 559.22 357.65 563.44 358.01 567.47 358.25 571.48 358.39 575.63 358.42 579.44 358.34 583.31 358.14 587.55 357.84 591.34 357.43 595.19 356.9 599.05 356.32 602.56 355.59 606.24 354.77 609.84 353.77 613.63 352.8 616.92 351.56 620.64 350.34 623.92 349.04 627.1 347.53 630.44 345.92 633.71 344.36 636.61 342.61 639.6 340.81 642.43 338.77 645.4 336.91 647.88 334.69 650.63 332.52 653.11 330.28 655.47 327.97 657.73 325.53 659.93 322.86 662.14 320.34 664.05 317.79 665.83 314.99 667.62 312.12 669.28 309.36 670.73"/>
</g>
<g clip-path="url(#clip_2)">
<path transform="matrix(1,0,0,-1,-.1048304,792.518)" stroke-width="3" stroke-linecap="butt" stroke-linejoin="round" fill="none" stroke="#0000ff" d="M383.99 549.99 383.91 553.36 383.73 556.29 383.39 559.58 382.9 562.88 382.28 566.15 381.58 569.17 380.73 572.28 379.71 575.46 378.57 578.62 377.25 581.83 375.97 584.63 374.4 587.75 372.7 590.84 370.93 593.78 369.21 596.41 367.05 599.48 365.1 602.04 362.72 604.97 360.5 607.51 357.96 610.23 355.42 612.76 352.67 615.34 350.05 617.65 347.12 620.07 343.96 622.51 341.13 624.57 337.99 626.72 334.65 628.86 331.29 630.88 327.97 632.75 324.19 634.74 320.72 636.44 316.94 638.17 313.45 639.65 309.57 641.19 305.86 642.54 301.93 643.86 298.04 645.06 293.91 646.22 289.88 647.24 285.73 648.19 281.57 649.02 277.72 649.7 273.28 650.37 269.28 650.88 264.99 651.32 260.88 651.64 256.3 651.89 252.33 652.01 247.81 652.03 243.7 651.96 239.21 651.77 235.34 651.51 230.95 651.12 226.72 650.64 222.52 650.06 218.37 649.38 214.4 648.63 210.15 647.72 206.14 646.76 201.96 645.64 198.22 644.55 194.14 643.24 190.29 641.89 186.51 640.45 182.62 638.85 179.1 637.3 175.57 635.62 171.74 633.68 168.36 631.83 164.98 629.87 161.63 627.79 158.63 625.8 155.51 623.61 152.52 621.37 149.41 618.89 146.77 616.64 143.83 613.97 141.28 611.5 138.85 609 136.36 606.25 133.98 603.42 131.92 600.8 129.85 597.97 127.94 595.16 126.01 592.07 124.45 589.35 122.78 586.19 121.34 583.19 120.04 580.18 118.86 577.14 117.79 574.01 116.8 570.66 116.02 567.58 115.37 564.52 114.82 561.23 114.41 557.94 114.16 554.97 114.01 551.46V548.51L114.15 545.07 114.43 541.8 114.8 538.88 115.35 535.6 116.04 532.33 116.86 529.08 117.75 526.09 118.8 523.02 120.01 519.87 121.36 516.76 122.87 513.6 124.33 510.85 126.08 507.79 127.98 504.76 129.94 501.89 131.81 499.33 134.17 496.33 136.27 493.84 138.83 491.01 141.21 488.55 143.92 485.92 146.61 483.48 149.52 481 152.29 478.79 155.37 476.48 158.67 474.15 161.62 472.2 164.9 470.16 168.37 468.14 171.85 466.25 175.29 464.5 179.19 462.65 182.76 461.07 186.64 459.48 190.22 458.12 194.19 456.73 197.98 455.51 201.99 454.33 205.96 453.27 210.15 452.26 214.24 451.39 218.45 450.59 222.65 449.91 226.54 449.37 231.02 448.85 235.05 448.49 239.35 448.21 243.48 448.03 248.07 447.95 252.05 447.97 256.56 448.11 260.67 448.33 265.14 448.68 268.99 449.07 273.35 449.62 277.54 450.25 281.7 450.99 285.81 451.81 289.72 452.7 293.91 453.76 297.86 454.87 301.96 456.13 305.63 457.36 309.62 458.82 313.38 460.3 317.07 461.87 320.85 463.61 324.27 465.29 327.7 467.08 331.39 469.16 334.66 471.13 337.91 473.21 341.13 475.41 344 477.5 346.98 479.8 349.83 482.15 352.77 484.73 355.28 487.08 358.05 489.85 360.44 492.41 362.7 494.99 365.02 497.83 367.22 500.74 369.11 503.43 371 506.33 372.73 509.2 374.47 512.36 375.86 515.13 377.33 518.35 378.58 521.4 379.69 524.45 380.68 527.53 381.55 530.7 382.33 534.07 382.92 537.18 383.37 540.27 383.72 543.57 383.92 546.87 383.99 549.99"/>
</g>
<g clip-path="url(#clip_3)">
<path transform="matrix(1,0,0,-1,-.1048304,792.518)" stroke-width="1" stroke-linecap="butt" stroke-linejoin="round" fill="none" stroke="#000000" d="M69 549.99H428.98"/>
</g>
<g clip-path="url(#clip_4)">
<path transform="matrix(1,0,0,-1,-.1048304,792.518)" stroke-width="1" stroke-linecap="square" stroke-miterlimit="10" stroke-linejoin="miter" fill="none" stroke="#000000" d="M69 549.99V546.23"/>
</g>
<g clip-path="url(#clip_5)">
<text xml:space="preserve" transform="matrix(1 0 -0 1 -.1048304 792.518)" font-size="12" font-family="font0000000029f124ef"><tspan y="-534" x="60">K</tspan></text>
</g>
<g clip-path="url(#clip_6)">
<path transform="matrix(1,0,0,-1,0,792.518)" d="M77.47517 536.94V536.09H76.41517V534H75.44517V536.09H72.08517V536.84L75.77517 542.11H76.41517V536.94H77.47517ZM75.44517 536.94V540.88L72.66517 536.94H75.44517Z"/>
<path transform="matrix(1,0,0,-1,-.1048304,792.518)" stroke-width="1" stroke-linecap="square" stroke-miterlimit="10" stroke-linejoin="miter" fill="none" stroke="#000000" d="M114 549.99V546.23"/>
</g>
<g clip-path="url(#clip_7)">
<text xml:space="preserve" transform="matrix(1 0 -0 1 -.1048304 792.518)" font-size="12" font-family="font0000000029f124ef"><tspan y="-534" x="104">K</tspan></text>
</g>
<g clip-path="url(#clip_8)">
<path transform="matrix(1,0,0,-1,0,792.518)" d="M116.5052 540.44C116.5052 540.44 116.8452 541.23 117.3652 541.67 117.3652 541.67 117.8752 542.11 118.6652 542.11 118.6652 542.11 119.6152 542.11 120.1152 541.48 120.1152 541.48 120.5052 541.03 120.5052 540.5 120.5052 540.5 120.5052 539.63 119.4152 538.7 119.4152 538.7 120.1452 538.42 120.5252 537.89 120.5252 537.89 120.8952 537.36 120.8952 536.63 120.8952 536.63 120.8952 535.59 120.2352 534.84 120.2352 534.84 119.3952 533.86 117.7752 533.86 117.7752 533.86 116.9552 533.86 116.6652 534.06 116.6652 534.06 116.3752 534.27 116.3752 534.48 116.3752 534.48 116.3752 534.66 116.5252 534.78 116.5252 534.78 116.6652 534.92 116.8452 534.92 116.8452 534.92 117.0052 534.92 117.1452 534.88 117.1452 534.88 117.2552 534.84 117.5952 534.66 117.5952 534.66 117.9552 534.47 118.0852 534.44 118.0852 534.44 118.3052 534.38 118.5552 534.38 118.5552 534.38 119.1452 534.38 119.5852 534.83 119.5852 534.83 120.0352 535.3 120.0352 535.92 120.0352 535.92 120.0352 536.39 119.8352 536.83 119.8352 536.83 119.6752 537.16 119.4852 537.33 119.4852 537.33 119.2352 537.56 118.8052 537.75 118.8052 537.75 118.3652 537.94 117.9152 537.94H117.7252V538.13C117.7252 538.13 118.1752 538.17 118.6452 538.45 118.6452 538.45 119.1152 538.73 119.3152 539.11 119.3152 539.11 119.5352 539.5 119.5352 539.97 119.5352 539.97 119.5352 540.56 119.1652 540.94 119.1652 540.94 118.7852 541.31 118.2252 541.31 118.2252 541.31 117.3052 541.31 116.6952 540.34L116.5052 540.44Z"/>
<path transform="matrix(1,0,0,-1,-.1048304,792.518)" stroke-width="1" stroke-linecap="square" stroke-miterlimit="10" stroke-linejoin="miter" fill="none" stroke="#000000" d="M159 549.99V546.23"/>
</g>
<g clip-path="url(#clip_9)">
<text xml:space="preserve" transform="matrix(1 0 -0 1 -.1048304 792.518)" font-size="12" font-family="font0000000029f124ef"><tspan y="-534" x="149">K</tspan></text>
</g>
<g clip-path="url(#clip_10)">
<path transform="matrix(1,0,0,-1,0,792.518)" d="M166.3952 535.53 165.8452 534H161.1652V534.22C161.1652 534.22 163.2252 536.11 164.0652 537.3 164.0652 537.3 164.9152 538.5 164.9152 539.48 164.9152 539.48 164.9152 540.23 164.4452 540.72 164.4452 540.72 163.9852 541.22 163.3352 541.22 163.3352 541.22 162.7552 541.22 162.2852 540.88 162.2852 540.88 161.8152 540.53 161.5952 539.86H161.3752C161.3752 539.86 161.5352 540.95 162.1252 541.53 162.1252 541.53 162.7352 542.11 163.6452 542.11 163.6452 542.11 164.6152 542.11 165.2552 541.48 165.2552 541.48 165.9152 540.88 165.9152 540.03 165.9152 540.03 165.9152 539.42 165.6252 538.81 165.6252 538.81 165.1952 537.88 164.2252 536.81 164.2252 536.81 162.7752 535.22 162.3952 534.89H164.4752C164.4752 534.89 165.1152 534.89 165.3652 534.94 165.3652 534.94 165.6152 534.98 165.8152 535.13 165.8152 535.13 166.0352 535.27 166.1752 535.53H166.3952Z"/>
<path transform="matrix(1,0,0,-1,-.1048304,792.518)" stroke-width="1" stroke-linecap="square" stroke-miterlimit="10" stroke-linejoin="miter" fill="none" stroke="#000000" d="M203.99 549.99V546.23"/>
</g>
<g clip-path="url(#clip_11)">
<text xml:space="preserve" transform="matrix(1 0 -0 1 -.1048304 792.518)" font-size="12" font-family="font0000000029f124ef"><tspan y="-534" x="194">K</tspan></text>
</g>
<g clip-path="url(#clip_12)">
<path transform="matrix(1,0,0,-1,0,792.518)" d="M207.3052 541.17 209.2352 542.11H209.4252V535.41C209.4252 535.41 209.4252 534.73 209.4752 534.56 209.4752 534.56 209.5352 534.41 209.7052 534.31 209.7052 534.31 209.8952 534.23 210.4252 534.22V534H207.4452V534.22C207.4452 534.22 208.0052 534.23 208.1652 534.31 208.1652 534.31 208.3352 534.41 208.3952 534.55 208.3952 534.55 208.4552 534.69 208.4552 535.41V539.69C208.4552 539.69 208.4552 540.56 208.4152 540.8 208.4152 540.8 208.3652 540.98 208.2552 541.08 208.2552 541.08 208.1452 541.17 207.9852 541.17 207.9852 541.17 207.7752 541.17 207.3952 540.98L207.3052 541.17Z"/>
<path transform="matrix(1,0,0,-1,-.1048304,792.518)" stroke-width="1" stroke-linecap="square" stroke-miterlimit="10" stroke-linejoin="miter" fill="none" stroke="#000000" d="M248.99 549.99V546.23"/>
<path transform="matrix(1,0,0,-1,0,792.518)" d="M239.3352 538.92C239.3352 538.92 239.3352 540.28 239.7352 541.27 239.7352 541.27 240.1452 542.25 240.8352 542.73 240.8352 542.73 241.3652 543.11 241.9252 543.11 241.9252 543.11 242.8352 543.11 243.5652 542.17 243.5652 542.17 244.4752 541.03 244.4752 539.05 244.4752 539.05 244.4752 537.67 244.0652 536.7 244.0652 536.7 243.6752 535.73 243.0552 535.3 243.0552 535.3 242.4452 534.86 241.8652 534.86 241.8652 534.86 240.7252 534.86 239.9752 536.2 239.9752 536.2 239.3352 537.33 239.3352 538.92ZM240.4752 538.78C240.4752 538.78 240.4752 537.14 240.8752 536.11 240.8752 536.11 241.2252 535.23 241.8752 535.23 241.8752 535.23 242.1952 535.23 242.5352 535.52 242.5352 535.52 242.8752 535.8 243.0552 536.47 243.0552 536.47 243.3152 537.47 243.3152 539.31 243.3152 539.31 243.3152 540.67 243.0352 541.58 243.0352 541.58 242.8352 542.25 242.4852 542.53 242.4852 542.53 242.2552 542.72 241.9152 542.72 241.9152 542.72 241.5252 542.72 241.2052 542.36 241.2052 542.36 240.7852 541.88 240.6252 540.83 240.6252 540.83 240.4752 539.8 240.4752 538.78Z"/>
<path transform="matrix(1,0,0,-1,-.1048304,792.518)" stroke-width="1" stroke-linecap="square" stroke-miterlimit="10" stroke-linejoin="miter" fill="none" stroke="#000000" d="M293.99 549.99V546.23"/>
<path transform="matrix(1,0,0,-1,0,792.518)" d="M291.3052 541.17 293.2352 542.11H293.4252V535.41C293.4252 535.41 293.4252 534.73 293.4752 534.56 293.4752 534.56 293.5352 534.41 293.7052 534.31 293.7052 534.31 293.8952 534.23 294.4252 534.22V534H291.4452V534.22C291.4452 534.22 292.0052 534.23 292.1652 534.31 292.1652 534.31 292.3352 534.41 292.3952 534.55 292.3952 534.55 292.4552 534.69 292.4552 535.41V539.69C292.4552 539.69 292.4552 540.56 292.4152 540.8 292.4152 540.8 292.3652 540.98 292.2552 541.08 292.2552 541.08 292.1452 541.17 291.9852 541.17 291.9852 541.17 291.7752 541.17 291.3952 540.98L291.3052 541.17Z"/>
<path transform="matrix(1,0,0,-1,-.1048304,792.518)" stroke-width="1" stroke-linecap="square" stroke-miterlimit="10" stroke-linejoin="miter" fill="none" stroke="#000000" d="M338.99 549.99V546.23"/>
<path transform="matrix(1,0,0,-1,0,792.518)" d="M340.3952 535.53 339.8452 534H335.1652V534.22C335.1652 534.22 337.2252 536.11 338.0652 537.3 338.0652 537.3 338.9152 538.5 338.9152 539.48 338.9152 539.48 338.9152 540.23 338.4452 540.72 338.4452 540.72 337.9852 541.22 337.3352 541.22 337.3352 541.22 336.7552 541.22 336.2852 540.88 336.2852 540.88 335.8152 540.53 335.5952 539.86H335.3752C335.3752 539.86 335.5352 540.95 336.1252 541.53 336.1252 541.53 336.7352 542.11 337.6452 542.11 337.6452 542.11 338.6152 542.11 339.2552 541.48 339.2552 541.48 339.9152 540.88 339.9152 540.03 339.9152 540.03 339.9152 539.42 339.6252 538.81 339.6252 538.81 339.1952 537.88 338.2252 536.81 338.2252 536.81 336.7752 535.22 336.3952 534.89H338.4752C338.4752 534.89 339.1152 534.89 339.3652 534.94 339.3652 534.94 339.6152 534.98 339.8152 535.13 339.8152 535.13 340.0352 535.27 340.1752 535.53H340.3952Z"/>
<path transform="matrix(1,0,0,-1,-.1048304,792.518)" stroke-width="1" stroke-linecap="square" stroke-miterlimit="10" stroke-linejoin="miter" fill="none" stroke="#000000" d="M383.99 549.99V546.23"/>
<path transform="matrix(1,0,0,-1,0,792.518)" d="M380.5052 540.44C380.5052 540.44 380.8452 541.23 381.3652 541.67 381.3652 541.67 381.8752 542.11 382.6652 542.11 382.6652 542.11 383.6152 542.11 384.1152 541.48 384.1152 541.48 384.5052 541.03 384.5052 540.5 384.5052 540.5 384.5052 539.63 383.4152 538.7 383.4152 538.7 384.1452 538.42 384.5252 537.89 384.5252 537.89 384.8952 537.36 384.8952 536.63 384.8952 536.63 384.8952 535.59 384.2352 534.84 384.2352 534.84 383.3952 533.86 381.7752 533.86 381.7752 533.86 380.9552 533.86 380.6652 534.06 380.6652 534.06 380.3752 534.27 380.3752 534.48 380.3752 534.48 380.3752 534.66 380.5252 534.78 380.5252 534.78 380.6652 534.92 380.8452 534.92 380.8452 534.92 381.0052 534.92 381.1452 534.88 381.1452 534.88 381.2552 534.84 381.5952 534.66 381.5952 534.66 381.9552 534.47 382.0852 534.44 382.0852 534.44 382.3052 534.38 382.5552 534.38 382.5552 534.38 383.1452 534.38 383.5852 534.83 383.5852 534.83 384.0352 535.3 384.0352 535.92 384.0352 535.92 384.0352 536.39 383.8352 536.83 383.8352 536.83 383.6752 537.16 383.4852 537.33 383.4852 537.33 383.2352 537.56 382.8052 537.75 382.8052 537.75 382.3652 537.94 381.9152 537.94H381.7252V538.13C381.7252 538.13 382.1752 538.17 382.6452 538.45 382.6452 538.45 383.1152 538.73 383.3152 539.11 383.3152 539.11 383.5352 539.5 383.5352 539.97 383.5352 539.97 383.5352 540.56 383.1652 540.94 383.1652 540.94 382.7852 541.31 382.2252 541.31 382.2252 541.31 381.3052 541.31 380.6952 540.34L380.5052 540.44Z"/>
<path transform="matrix(1,0,0,-1,-.1048304,792.518)" stroke-width="1" stroke-linecap="square" stroke-miterlimit="10" stroke-linejoin="miter" fill="none" stroke="#000000" d="M428.98 549.99V546.23"/>
<path transform="matrix(1,0,0,-1,0,792.518)" d="M430.4752 536.94V536.09H429.4152V534H428.4452V536.09H425.0852V536.84L428.7752 542.11H429.4152V536.94H430.4752ZM428.4452 536.94V540.88L425.6652 536.94H428.4452Z"/>
<path transform="matrix(1,0,0,-1,-.1048304,792.518)" stroke-width="1" stroke-linecap="square" stroke-miterlimit="10" stroke-linejoin="miter" fill="none" stroke="#000000" d="M91.5 549.99V548.11"/>
<path transform="matrix(1,0,0,-1,-.1048304,792.518)" stroke-width="1" stroke-linecap="square" stroke-miterlimit="10" stroke-linejoin="miter" fill="none" stroke="#000000" d="M136.5 549.99V548.11"/>
<path transform="matrix(1,0,0,-1,-.1048304,792.518)" stroke-width="1" stroke-linecap="square" stroke-miterlimit="10" stroke-linejoin="miter" fill="none" stroke="#000000" d="M181.49 549.99V548.11"/>
<path transform="matrix(1,0,0,-1,-.1048304,792.518)" stroke-width="1" stroke-linecap="square" stroke-miterlimit="10" stroke-linejoin="miter" fill="none" stroke="#000000" d="M226.49 549.99V548.11"/>
<path transform="matrix(1,0,0,-1,-.1048304,792.518)" stroke-width="1" stroke-linecap="square" stroke-miterlimit="10" stroke-linejoin="miter" fill="none" stroke="#000000" d="M271.49 549.99V548.11"/>
<path transform="matrix(1,0,0,-1,-.1048304,792.518)" stroke-width="1" stroke-linecap="square" stroke-miterlimit="10" stroke-linejoin="miter" fill="none" stroke="#000000" d="M316.49 549.99V548.11"/>
<path transform="matrix(1,0,0,-1,-.1048304,792.518)" stroke-width="1" stroke-linecap="square" stroke-miterlimit="10" stroke-linejoin="miter" fill="none" stroke="#000000" d="M361.49 549.99V548.11"/>
<path transform="matrix(1,0,0,-1,-.1048304,792.518)" stroke-width="1" stroke-linecap="square" stroke-miterlimit="10" stroke-linejoin="miter" fill="none" stroke="#000000" d="M406.48 549.99V548.11"/>
<path transform="matrix(1,0,0,-1,-.1048304,792.518)" stroke-width="1" stroke-linecap="butt" stroke-linejoin="round" fill="none" stroke="#000000" d="M248.99 370V729.98"/>
</g>
<g clip-path="url(#clip_13)">
<path transform="matrix(1,0,0,-1,-.1048304,792.518)" stroke-width="1" stroke-linecap="square" stroke-miterlimit="10" stroke-linejoin="miter" fill="none" stroke="#000000" d="M248.99 370H245.23"/>
</g>
<g clip-path="url(#clip_14)">
<text xml:space="preserve" transform="matrix(1 0 -0 1 -.1048304 792.518)" font-size="12" font-family="font0000000029f124ef"><tspan y="-366" x="224">K</tspan></text>
</g>
<g clip-path="url(#clip_15)">
<path transform="matrix(1,0,0,-1,0,792.518)" d="M241.4752 368.94V368.09H240.4152V366H239.4452V368.09H236.0852V368.84L239.7752 374.11H240.4152V368.94H241.4752ZM239.4452 368.94V372.88L236.6652 368.94H239.4452Z"/>
<path transform="matrix(1,0,0,-1,-.1048304,792.518)" stroke-width="1" stroke-linecap="square" stroke-miterlimit="10" stroke-linejoin="miter" fill="none" stroke="#000000" d="M248.99 415H245.23"/>
</g>
<g clip-path="url(#clip_16)">
<text xml:space="preserve" transform="matrix(1 0 -0 1 -.1048304 792.518)" font-size="12" font-family="font0000000029f124ef"><tspan y="-411" x="224">K</tspan></text>
</g>
<g clip-path="url(#clip_17)">
<path transform="matrix(1,0,0,-1,0,792.518)" d="M236.5052 417.44C236.5052 417.44 236.8452 418.23 237.3652 418.67 237.3652 418.67 237.8752 419.11 238.6652 419.11 238.6652 419.11 239.6152 419.11 240.1152 418.48 240.1152 418.48 240.5052 418.03 240.5052 417.5 240.5052 417.5 240.5052 416.63 239.4152 415.7 239.4152 415.7 240.1452 415.42 240.5252 414.89 240.5252 414.89 240.8952 414.36 240.8952 413.63 240.8952 413.63 240.8952 412.59 240.2352 411.84 240.2352 411.84 239.3952 410.86 237.7752 410.86 237.7752 410.86 236.9552 410.86 236.6652 411.06 236.6652 411.06 236.3752 411.27 236.3752 411.48 236.3752 411.48 236.3752 411.66 236.5252 411.78 236.5252 411.78 236.6652 411.92 236.8452 411.92 236.8452 411.92 237.0052 411.92 237.1452 411.88 237.1452 411.88 237.2552 411.84 237.5952 411.66 237.5952 411.66 237.9552 411.47 238.0852 411.44 238.0852 411.44 238.3052 411.38 238.5552 411.38 238.5552 411.38 239.1452 411.38 239.5852 411.83 239.5852 411.83 240.0352 412.3 240.0352 412.92 240.0352 412.92 240.0352 413.39 239.8352 413.83 239.8352 413.83 239.6752 414.16 239.4852 414.33 239.4852 414.33 239.2352 414.56 238.8052 414.75 238.8052 414.75 238.3652 414.94 237.9152 414.94H237.7252V415.13C237.7252 415.13 238.1752 415.17 238.6452 415.45 238.6452 415.45 239.1152 415.73 239.3152 416.11 239.3152 416.11 239.5352 416.5 239.5352 416.97 239.5352 416.97 239.5352 417.56 239.1652 417.94 239.1652 417.94 238.7852 418.31 238.2252 418.31 238.2252 418.31 237.3052 418.31 236.6952 417.34L236.5052 417.44Z"/>
<path transform="matrix(1,0,0,-1,-.1048304,792.518)" stroke-width="1" stroke-linecap="square" stroke-miterlimit="10" stroke-linejoin="miter" fill="none" stroke="#000000" d="M248.99 460H245.23"/>
</g>
<g clip-path="url(#clip_18)">
<text xml:space="preserve" transform="matrix(1 0 -0 1 -.1048304 792.518)" font-size="12" font-family="font0000000029f124ef"><tspan y="-456" x="224">K</tspan></text>
</g>
<g clip-path="url(#clip_19)">
<path transform="matrix(1,0,0,-1,0,792.518)" d="M241.3952 457.53 240.8452 456H236.1652V456.22C236.1652 456.22 238.2252 458.11 239.0652 459.3 239.0652 459.3 239.9152 460.5 239.9152 461.48 239.9152 461.48 239.9152 462.23 239.4452 462.72 239.4452 462.72 238.9852 463.22 238.3352 463.22 238.3352 463.22 237.7552 463.22 237.2852 462.88 237.2852 462.88 236.8152 462.53 236.5952 461.86H236.3752C236.3752 461.86 236.5352 462.95 237.1252 463.53 237.1252 463.53 237.7352 464.11 238.6452 464.11 238.6452 464.11 239.6152 464.11 240.2552 463.48 240.2552 463.48 240.9152 462.88 240.9152 462.03 240.9152 462.03 240.9152 461.42 240.6252 460.81 240.6252 460.81 240.1952 459.88 239.2252 458.81 239.2252 458.81 237.7752 457.22 237.3952 456.89H239.4752C239.4752 456.89 240.1152 456.89 240.3652 456.94 240.3652 456.94 240.6152 456.98 240.8152 457.13 240.8152 457.13 241.0352 457.27 241.1752 457.53H241.3952Z"/>
<path transform="matrix(1,0,0,-1,-.1048304,792.518)" stroke-width="1" stroke-linecap="square" stroke-miterlimit="10" stroke-linejoin="miter" fill="none" stroke="#000000" d="M248.99 504.99H245.23"/>
</g>
<g clip-path="url(#clip_20)">
<text xml:space="preserve" transform="matrix(1 0 -0 1 -.1048304 792.518)" font-size="12" font-family="font0000000029f124ef"><tspan y="-501" x="224">K</tspan></text>
</g>
<g clip-path="url(#clip_21)">
<path transform="matrix(1,0,0,-1,0,792.518)" d="M237.3052 508.17 239.2352 509.11H239.4252V502.41C239.4252 502.41 239.4252 501.73 239.4752 501.56 239.4752 501.56 239.5352 501.41 239.7052 501.31 239.7052 501.31 239.8952 501.23 240.4252 501.22V501H237.4452V501.22C237.4452 501.22 238.0052 501.23 238.1652 501.31 238.1652 501.31 238.3352 501.41 238.3952 501.55 238.3952 501.55 238.4552 501.69 238.4552 502.41V506.69C238.4552 506.69 238.4552 507.56 238.4152 507.8 238.4152 507.8 238.3652 507.98 238.2552 508.08 238.2552 508.08 238.1452 508.17 237.9852 508.17 237.9852 508.17 237.7752 508.17 237.3952 507.98L237.3052 508.17Z"/>
<path transform="matrix(1,0,0,-1,-.1048304,792.518)" stroke-width="1" stroke-linecap="square" stroke-miterlimit="10" stroke-linejoin="miter" fill="none" stroke="#000000" d="M248.99 549.99H245.23"/>
<path transform="matrix(1,0,0,-1,-.1048304,792.518)" stroke-width="1" stroke-linecap="square" stroke-miterlimit="10" stroke-linejoin="miter" fill="none" stroke="#000000" d="M248.99 594.99H245.23"/>
<path transform="matrix(1,0,0,-1,0,792.518)" d="M237.3052 598.17 239.2352 599.11H239.4252V592.41C239.4252 592.41 239.4252 591.73 239.4752 591.56 239.4752 591.56 239.5352 591.41 239.7052 591.31 239.7052 591.31 239.8952 591.23 240.4252 591.22V591H237.4452V591.22C237.4452 591.22 238.0052 591.23 238.1652 591.31 238.1652 591.31 238.3352 591.41 238.3952 591.55 238.3952 591.55 238.4552 591.69 238.4552 592.41V596.69C238.4552 596.69 238.4552 597.56 238.4152 597.8 238.4152 597.8 238.3652 597.98 238.2552 598.08 238.2552 598.08 238.1452 598.17 237.9852 598.17 237.9852 598.17 237.7752 598.17 237.3952 597.98L237.3052 598.17Z"/>
<path transform="matrix(1,0,0,-1,-.1048304,792.518)" stroke-width="1" stroke-linecap="square" stroke-miterlimit="10" stroke-linejoin="miter" fill="none" stroke="#000000" d="M248.99 639.99H245.23"/>
<path transform="matrix(1,0,0,-1,0,792.518)" d="M241.3952 637.53 240.8452 636H236.1652V636.22C236.1652 636.22 238.2252 638.11 239.0652 639.3 239.0652 639.3 239.9152 640.5 239.9152 641.48 239.9152 641.48 239.9152 642.23 239.4452 642.72 239.4452 642.72 238.9852 643.22 238.3352 643.22 238.3352 643.22 237.7552 643.22 237.2852 642.88 237.2852 642.88 236.8152 642.53 236.5952 641.86H236.3752C236.3752 641.86 236.5352 642.95 237.1252 643.53 237.1252 643.53 237.7352 644.11 238.6452 644.11 238.6452 644.11 239.6152 644.11 240.2552 643.48 240.2552 643.48 240.9152 642.88 240.9152 642.03 240.9152 642.03 240.9152 641.42 240.6252 640.81 240.6252 640.81 240.1952 639.88 239.2252 638.81 239.2252 638.81 237.7752 637.22 237.3952 636.89H239.4752C239.4752 636.89 240.1152 636.89 240.3652 636.94 240.3652 636.94 240.6152 636.98 240.8152 637.13 240.8152 637.13 241.0352 637.27 241.1752 637.53H241.3952Z"/>
<path transform="matrix(1,0,0,-1,-.1048304,792.518)" stroke-width="1" stroke-linecap="square" stroke-miterlimit="10" stroke-linejoin="miter" fill="none" stroke="#000000" d="M248.99 684.99H245.23"/>
<path transform="matrix(1,0,0,-1,0,792.518)" d="M236.5052 687.44C236.5052 687.44 236.8452 688.23 237.3652 688.67 237.3652 688.67 237.8752 689.11 238.6652 689.11 238.6652 689.11 239.6152 689.11 240.1152 688.48 240.1152 688.48 240.5052 688.03 240.5052 687.5 240.5052 687.5 240.5052 686.63 239.4152 685.7 239.4152 685.7 240.1452 685.42 240.5252 684.89 240.5252 684.89 240.8952 684.36 240.8952 683.63 240.8952 683.63 240.8952 682.59 240.2352 681.84 240.2352 681.84 239.3952 680.86 237.7752 680.86 237.7752 680.86 236.9552 680.86 236.6652 681.06 236.6652 681.06 236.3752 681.27 236.3752 681.48 236.3752 681.48 236.3752 681.66 236.5252 681.78 236.5252 681.78 236.6652 681.92 236.8452 681.92 236.8452 681.92 237.0052 681.92 237.1452 681.88 237.1452 681.88 237.2552 681.84 237.5952 681.66 237.5952 681.66 237.9552 681.47 238.0852 681.44 238.0852 681.44 238.3052 681.38 238.5552 681.38 238.5552 681.38 239.1452 681.38 239.5852 681.83 239.5852 681.83 240.0352 682.3 240.0352 682.92 240.0352 682.92 240.0352 683.39 239.8352 683.83 239.8352 683.83 239.6752 684.16 239.4852 684.33 239.4852 684.33 239.2352 684.56 238.8052 684.75 238.8052 684.75 238.3652 684.94 237.9152 684.94H237.7252V685.13C237.7252 685.13 238.1752 685.17 238.6452 685.45 238.6452 685.45 239.1152 685.73 239.3152 686.11 239.3152 686.11 239.5352 686.5 239.5352 686.97 239.5352 686.97 239.5352 687.56 239.1652 687.94 239.1652 687.94 238.7852 688.31 238.2252 688.31 238.2252 688.31 237.3052 688.31 236.6952 687.34L236.5052 687.44Z"/>
<path transform="matrix(1,0,0,-1,-.1048304,792.518)" stroke-width="1" stroke-linecap="square" stroke-miterlimit="10" stroke-linejoin="miter" fill="none" stroke="#000000" d="M248.99 729.98H245.23"/>
<path transform="matrix(1,0,0,-1,0,792.518)" d="M241.4752 728.94V728.09H240.4152V726H239.4452V728.09H236.0852V728.84L239.7752 734.11H240.4152V728.94H241.4752ZM239.4452 728.94V732.88L236.6652 728.94H239.4452Z"/>
<path transform="matrix(1,0,0,-1,-.1048304,792.518)" stroke-width="1" stroke-linecap="square" stroke-miterlimit="10" stroke-linejoin="miter" fill="none" stroke="#000000" d="M248.99 392.5H247.11"/>
<path transform="matrix(1,0,0,-1,-.1048304,792.518)" stroke-width="1" stroke-linecap="square" stroke-miterlimit="10" stroke-linejoin="miter" fill="none" stroke="#000000" d="M248.99 437.5H247.11"/>
<path transform="matrix(1,0,0,-1,-.1048304,792.518)" stroke-width="1" stroke-linecap="square" stroke-miterlimit="10" stroke-linejoin="miter" fill="none" stroke="#000000" d="M248.99 482.49H247.11"/>
<path transform="matrix(1,0,0,-1,-.1048304,792.518)" stroke-width="1" stroke-linecap="square" stroke-miterlimit="10" stroke-linejoin="miter" fill="none" stroke="#000000" d="M248.99 527.49H247.11"/>
<path transform="matrix(1,0,0,-1,-.1048304,792.518)" stroke-width="1" stroke-linecap="square" stroke-miterlimit="10" stroke-linejoin="miter" fill="none" stroke="#000000" d="M248.99 572.49H247.11"/>
<path transform="matrix(1,0,0,-1,-.1048304,792.518)" stroke-width="1" stroke-linecap="square" stroke-miterlimit="10" stroke-linejoin="miter" fill="none" stroke="#000000" d="M248.99 617.49H247.11"/>
<path transform="matrix(1,0,0,-1,-.1048304,792.518)" stroke-width="1" stroke-linecap="square" stroke-miterlimit="10" stroke-linejoin="miter" fill="none" stroke="#000000" d="M248.99 662.49H247.11"/>
<path transform="matrix(1,0,0,-1,-.1048304,792.518)" stroke-width="1" stroke-linecap="square" stroke-miterlimit="10" stroke-linejoin="miter" fill="none" stroke="#000000" d="M248.99 707.48H247.11"/>
</g>
<text xml:space="preserve" transform="matrix(1.048304 0 -0 1.048304 15.9375 0)" font-size="12" font-family="HelveticaNeue"><tspan y="11.424" x="0"> </tspan></text>
<g clip-path="url(#clip_22)">
<path transform="matrix(1,0,0,-1,0,792.518)" d="M318.7369 713.0486C318.5383 713.6782 318.8876 714.3496 319.5172 714.5482 320.1468 714.7468 320.8182 714.3975 321.0168 713.7679 321.3113 712.8345 321.0453 711.9013 320.6565 711.2802 320.4486 710.9482 320.2769 710.5175 319.6773 710.1288 319.059 709.7281 318.2343 709.7889 317.7043 710.3204 317.2879 710.738 317.1433 711.3699 317.1913 711.8349 317.3242 713.1203 318.1237 713.9195 318.544 714.7331 319.0034 715.6223 319.9578 717.5729 321.1734 719.7831 323.5636 724.1286 325.5197 727.8265 327.5282 730.9489 329.9699 734.7447 332.4545 738.4002 333.1879 739.9413 333.4716 740.5374 334.1849 740.7907 334.7809 740.507 335.377 740.2233 335.6303 739.5101 335.3466 738.914 334.9014 737.9787 334.0793 736.6788 333.052 735.0773L329.5388 729.6556C327.6069 726.6523 325.6652 722.989 323.2681 718.6309 322.0827 716.4758 321.1525 714.5737 320.668 713.6359L319.697 711.9125 319.5693 711.5891C319.5676 711.5726 319.523 711.838 319.5485 711.7517 319.5757 711.66 319.3344 712.0714 319.3972 712.0085 319.556 711.8492 318.7048 712.2731 318.8807 712.2563 319.0559 712.2395 318.2326 712.0413 318.3769 712.1349 318.4743 712.198 318.3196 712.0869 318.3785 712.1663L318.6303 712.5489C318.772 712.7752 318.7947 712.8655 318.7369 713.0486M329.8365 740.5202C330.0437 739.8934 329.7035 739.2174 329.0767 739.0102 328.4498 738.8031 327.7738 739.1433 327.5666 739.7701 327.2437 740.7475 327.7824 742.0271 328.6359 742.5737 329.5792 743.1778 330.9646 743.5991 332.3498 744.0845 333.1995 744.3823 334.0355 744.6769 334.8546 744.8138 335.1996 744.8715 335.5576 744.949 336.0261 744.8945 336.5223 744.8368 337.1152 744.5015 337.4293 744.0428 338.5639 742.3861 338.5963 740.1187 338.534 738.1356L338.3216 735.6425 338.1676 734.8401 337.9993 734.4059C337.9269 734.2781 337.8549 733.969 337.2278 733.812 336.8807 733.725 336.4307 733.8448 336.1909 734.0326 335.9707 734.205 335.8897 734.3662 335.8373 734.4778 335.5568 735.0755 335.814 735.7873 336.4116 736.0677 337.0092 736.3482 337.721 736.0911 338.0015 735.4934 338.0487 735.3927 337.4506 736.0825 337.6647 735.9148 337.8948 735.7347 336.3233 736.0547 336.6625 736.1347 336.9762 736.2088 335.9867 735.7032 336.0845 735.8053 336.1719 735.8965 335.898 735.5481 335.9269 735.5975 335.9774 735.6836 335.8505 735.4331 335.8577 735.4531 336.0554 735.9995 336.476 741.2039 335.4569 742.692L335.7497 742.5199 335.2488 742.4559C334.7233 742.368 333.9661 742.1178 333.1404 741.8284 331.7602 741.3447 330.3479 740.8313 329.9252 740.5605 329.628 740.3702 329.7756 740.7047 329.8365 740.5202M339.6718 761.3935C339.7134 760.7347 339.2131 760.1668 338.5543 760.1252 337.8954 760.0836 337.3276 760.5839 337.2859 761.2427L337.1454 761.5911 337.1056 761.6481C337.094 761.6605 337.2376 761.5383 337.1892 761.5746 337.1357 761.6147 337.588 761.3928 337.4569 761.4364 337.3951 761.457 337.7929 761.3838 337.6955 761.3902 337.4968 761.4034 338.5522 761.7071 338.3559 761.5726 338.1779 761.4506 338.739 762.052 338.6864 761.947 338.6415 761.8571 338.759 762.166 338.7521 762.1315 338.749 762.1156 339.1963 759.9597 340.1227 758.345 340.8083 757.1498 341.5087 756.6036 341.782 756.529L342.0349 756.4665C342.0551 756.4646 341.6424 756.3391 341.7605 756.4012 341.8517 756.4491 341.8708 756.5374 342.0125 756.992 342.165 757.4811 342.2687 758.1221 342.3442 758.7479L342.4111 760.3885 342.4121 760.943 342.3267 761.2108 342.3087 761.2542 342.3297 761.2162C342.3138 761.2428 342.5044 760.9937 342.4365 761.071 342.001 761.5671 342.0502 762.3224 342.5463 762.7579 343.0424 763.1933 343.7975 763.1442 344.233 762.6482 344.705 762.1106 344.5059 762.1131 344.5159 762.0623 344.5633 761.8236 344.5853 761.584 344.8336 761.0097 345.4439 759.5977 346.4102 757.489 347.0337 755.0231 347.3667 753.7063 347.521 752.3801 347.6084 751.2263 347.7624 749.1931 347.1842 747.5768 346.1085 746.695 345.0648 745.8394 343.7671 745.7243 342.7479 745.9687 342.106 746.1227 341.7104 746.7679 341.8643 747.4098 342.0183 748.0518 342.6635 748.4474 343.3054 748.2934 344.1452 748.092 345.44 748.2019 345.2246 751.0458 345.1435 752.1165 344.9991 753.3176 344.716 754.4371 344.1555 756.654 343.2587 758.6277 342.6392 760.0611L342.246 761.2243 342.179 761.5514 342.171 761.5971 342.189 761.5235C342.1812 761.5509 342.2577 761.3377 342.2327 761.3981 342.2049 761.4651 342.5772 760.9107 342.4366 761.0709L344.2332 762.648C344.7088 762.1062 344.6233 761.9356 344.7245 761.5497 344.8809 760.9535 344.7996 760.4903 344.8002 760.4735 344.8217 759.8693 344.8045 759.1809 344.7176 758.4614 344.6342 757.7698 344.5221 757.0097 344.2948 756.2804 344.0667 755.549 343.7409 754.7416 342.8733 754.2853 342.1453 753.9024 341.4943 754.1294 341.1523 754.2228 339.8838 754.5691 338.9095 755.6554 338.0491 757.1554 337.3468 758.3796 336.8432 759.6813 336.5665 760.7906 336.433 761.3257 336.3434 761.7964 336.3699 762.2899 336.3835 762.5448 336.3984 762.8545 336.6832 763.2354 336.9971 763.6553 337.7816 763.848 338.2122 763.7046 338.8804 763.4821 338.9776 763.1478 339.1213 762.9368 339.3978 762.5308 339.6317 762.0279 339.6718 761.3935M351.8049 752.2831C351.1631 752.4377 350.7682 753.0833 350.9229 753.7251 351.0775 754.3669 351.7231 754.7618 352.3649 754.6072L352.3754 754.6022C352.4043 754.6015 352.1478 754.5618 352.22 754.5811 352.3561 754.6174 351.7255 754.2079 351.8205 754.3228 351.8871 754.4035 351.7003 754.1073 351.7126 754.1411L351.741 754.5567C351.775 755.2184 351.9701 755.8048 352.1474 756.2929 352.4764 757.1981 353.6415 758.0181 354.7186 757.3958 356.2521 756.5099 356.3399 754.8291 356.7476 753.3119L357.3015 751.3175 357.5148 750.7554 357.5407 750.7054C357.5598 750.6802 357.1689 750.9717 357.3189 750.8878 357.8951 750.5655 358.1009 749.8372 357.7786 749.2611 357.4564 748.6849 356.7281 748.4791 356.1519 748.8013 355.2234 749.3206 355.2292 749.9546 355.0263 750.5838 354.3888 752.5604 353.6834 755.233 353.5227 755.3258 353.4023 755.3954 354.0614 755.2304 353.929 755.2253 353.7391 755.2179 354.3727 755.4179 354.3072 755.3616 354.2483 755.3112 354.4029 755.5002 354.3943 755.4764L354.1284 754.434C354.1109 754.0939 354.1637 753.6647 353.8504 753.0796 353.5018 752.4285 352.4692 752.123 351.8049 752.2831M420.5888 527.9865C420.7842 528.6171 421.4537 528.9699 422.0843 528.7745 422.7149 528.5791 423.0677 527.9096 422.8723 527.279 422.5517 526.2444 421.9274 526.277 421.6358 526.1706L421.3346 526.0681C421.3114 526.0597 421.6506 526.2578 421.5294 526.1754 421.4949 526.1519 421.7105 526.3243 421.6582 526.2769 421.6168 526.2393 421.855 526.5023 421.8015 526.4326 421.7595 526.3779 421.9732 526.732 421.931 526.6438 421.8648 526.5051 422.0393 527.421 422.0469 527.1985 422.0546 526.9721 421.7384 527.9833 421.8479 527.8187 421.931 527.6939 421.4607 528.1607 421.5577 528.1008 421.6437 528.0477 421.3029 528.2056 421.3516 528.1923 421.4917 528.1539 421.3283 528.1999 421.5408 528.228 422.3078 528.3291 423.7324 528.7195 425.4056 528.8567 431.6363 529.3675 442.4247 528.1695 445.8256 528.8688 446.4722 529.0018 447.1042 528.5854 447.2372 527.9387 447.3701 527.2921 446.9537 526.6601 446.3071 526.5272 444.2192 526.0978 440.6475 526.285 436.6039 526.4119 432.5097 526.5405 428.3377 526.6984 425.6009 526.4741 424.5206 526.3855 423.5042 526.1603 422.6319 525.9908L421.4243 525.8188C421.0169 525.8022 420.3385 525.7718 419.8576 526.4944 419.5899 526.8967 419.6801 527.5461 419.8477 527.8066 420.3063 528.5194 420.3929 528.2683 420.4589 528.2937L420.8167 528.4165 420.9255 528.4605C420.9387 528.4684 420.7582 528.3139 420.8177 528.3731 420.8848 528.44 420.5269 527.7869 420.5888 527.9865M441.8472 532.9066C442.285 533.4007 443.0404 533.4464 443.5346 533.0086 444.0287 532.5708 444.0743 531.8154 443.6366 531.3212 443.5829 531.2607 443.8709 531.7734 443.8163 531.6257 443.7625 531.4802 443.8442 532.3278 443.8705 532.1451 443.8949 531.9759 443.6483 532.6673 443.7151 532.5637 443.7744 532.4716 443.5066 532.7965 443.552 532.756 443.6282 532.688 443.4334 532.8412 443.4366 532.8396L445.6987 532.2522C446.6146 532.0107 447.6766 531.801 448.482 530.9158 449.3104 530.0053 449.113 528.7402 448.7057 527.829 448.0912 526.4546 446.9605 525.2058 445.8266 524.1832 445.2712 523.6824 444.7264 523.2566 444.206 522.9396 443.6978 522.63 443.2405 522.0838 442.1758 522.575 441.5763 522.8516 441.3146 523.5617 441.5912 524.1611 441.8677 524.7606 442.5778 525.0223 443.1773 524.7458 443.3153 524.6821 442.747 524.8374 442.833 524.8329 442.9806 524.8251 442.6427 524.8167 442.6486 524.8186 442.9781 524.9277 444.449 526.0264 445.4906 527.2622 446.0016 527.8685 446.4043 528.4846 446.5805 528.942 446.735 529.3433 446.7649 529.2507 446.7137 529.307 446.6136 529.417 445.9245 529.7203 445.0892 529.9405L443.0049 530.4617C442.7018 530.5517 442.4182 530.6209 442.0654 530.8862 441.8711 531.0323 441.5946 531.2956 441.5115 531.7596 441.4261 532.2363 441.6474 532.6811 441.8472 532.9066M455.2824 533.4779C455.942 533.4527 456.4563 532.8974 456.4311 532.2378 456.4058 531.5781 455.8506 531.0638 455.1909 531.0891 454.9697 531.0975 454.787 531.0911 454.4687 531.2178 454.3336 531.2716 454.1394 531.351 453.9317 531.6126 453.7337 531.8621 453.6135 532.3239 453.7024 532.6758 453.9676 533.7256 454.4232 533.5411 454.6268 533.6147L455.2272 533.7676C456.5729 534.0025 458.0891 533.6956 459.2124 532.7031 460.1588 531.867 460.3388 530.4021 459.8399 529.4491 459.1113 528.0575 457.6704 527.2049 456.2695 526.6067 455.5788 526.3118 454.8978 526.0995 454.2392 526.0209 453.5843 525.9429 452.6946 525.8816 452.1038 526.7672 451.7374 527.3164 451.8856 528.0585 452.4348 528.4249 452.984 528.7913 453.7261 528.6431 454.0925 528.0939 454.1956 527.9393 453.6993 528.3975 453.7759 528.3654 453.8854 528.3196 453.7439 528.3731 453.918 528.3906 454.6735 528.4665 456.1255 529.066 457.0449 529.8131 457.4772 530.1644 457.7258 530.522 457.771 530.6739 457.8009 530.7742 457.8645 530.704 457.6296 530.9116 457.2534 531.244 456.1795 531.507 455.6383 531.4126L455.4451 531.3683C455.4324 531.3642 455.6584 531.494 455.554 531.427 455.5077 531.3974 455.8347 531.6826 455.7498 531.5916 455.6689 531.5049 456.0726 532.2561 456.0046 532.0345 455.9419 531.8297 455.9161 532.9818 455.9949 532.7474 456.0623 532.5469 455.6132 533.2998 455.7143 533.1994 455.7981 533.1161 455.4287 533.4078 455.4914 533.3711 455.5932 533.3117 455.2311 533.479 455.2765 533.4655 455.3851 533.4333 455.1977 533.4812 455.2824 533.4779M466.0992 534.5679C466.7052 534.8298 467.4088 534.5508 467.6707 533.9448 467.9326 533.3389 467.6536 532.6353 467.0476 532.3734 466.1529 531.9868 465.4614 531.8166 464.888 531.5818 464.0717 531.2474 462.6866 530.2712 461.856 529.4157 461.5112 529.0606 461.3413 528.7837 461.3278 528.7402L461.2842 528.5628C461.2832 528.5532 461.2259 528.812 461.2594 528.707 461.312 528.542 460.9694 529.1527 461.044 529.0746 461.1087 529.0067 460.8633 529.2154 460.8953 529.1962 460.9422 529.168 463.0196 528.9903 464.8763 529.03 465.5363 529.0441 466.0828 528.5205 466.0969 527.8605 466.111 527.2005 465.5874 526.654 464.9274 526.6399 463.8438 526.6168 462.6964 526.607 461.6933 526.6799L460.3379 526.8764C459.9159 526.9872 459.2686 527.0816 458.9818 527.9805 458.7832 528.6031 458.9299 529.0787 459.0442 529.4475 459.2581 530.1381 459.689 530.6157 460.1408 531.081 461.2242 532.1968 462.6702 533.2568 463.9819 533.794ZM470.0503 527.5291C470.3101 528.136 471.0126 528.4174 471.6195 528.1576 472.2265 527.8979 472.5079 527.1953 472.2481 526.5884 472.0426 526.1081 471.8009 524.0781 471.9974 523.6604 472.2784 523.063 472.0219 522.351 471.4245 522.07 470.8272 521.789 470.1151 522.0455 469.8341 522.6428 468.9952 524.4265 469.5602 526.3839 470.0503 527.5291M228.8845 746.9338C228.9629 746.2784 228.4951 745.6834 227.8396 745.605 227.1842 745.5266 226.5892 745.9944 226.5108 746.6499 226.4212 747.3994 226.2109 748.122 226.0304 748.7883L225.774 749.8068 225.7419 750.457C225.7796 750.7682 226.0256 751.3563 226.585 751.5726 227.3984 751.8871 228.1817 751.4403 228.7664 750.8692 229.9938 749.6704 230.1482 747.8072 230.7478 745.5757 231.4007 743.1456 232.0182 740.1456 232.6106 736.75L233.6633 729.8509 234.3849 723.9668 234.6168 722.1792 235.0785 718.6746 235.1701 717.8876 235.1737 717.6716 235.0933 717.2985C235.0443 717.1723 234.9679 716.952 234.6388 716.7338 233.939 716.2696 233.1548 716.8333 233.0191 717.0145 232.5109 717.693 232.7918 717.5186 232.768 717.6275 232.627 718.2724 233.0354 718.9096 233.6804 719.0506 234.3253 719.1916 234.9624 718.7832 235.1034 718.1383L235.1169 718.0797 235.11 718.1034C235.116 718.0841 235.0278 718.3046 235.0624 718.2283 235.0816 718.1859 234.8704 718.5339 234.9443 718.4316 235.0278 718.3161 233.6017 718.9977 234.1608 718.9109 234.7661 718.817 232.8037 718.0696 232.9264 718.2974 233.0296 718.4891 232.7903 717.8708 232.8022 717.939 232.8223 718.0548 232.7851 717.7248 232.7853 717.7538L232.2462 721.8706 232.0111 723.6836 231.2946 729.5273 230.2555 736.3392C229.6712 739.6885 229.0635 742.6311 228.439 744.9554 227.8303 747.2208 227.2466 749.0118 227.096 749.159L226.9027 749.3274C226.8705 749.3408 227.1986 749.2809 227.1007 749.2862 226.9974 749.2918 227.5623 749.3874 227.447 749.3428 227.2206 749.2553 228.0902 749.9752 227.9856 749.7982 227.8999 749.653 228.1235 750.2186 228.1111 750.1402 228.0923 750.0214 228.1184 750.286 228.1202 750.2717L228.3378 749.4136C228.5116 748.7723 228.7664 747.9215 228.8845 746.9338M230.2832 748.8874C230.0139 748.2846 229.307 748.0143 228.7043 748.2836 228.1015 748.5528 227.8312 749.2597 228.1005 749.8625L228.3989 750.5268 228.6224 750.8582C228.6968 750.9409 228.8026 751.0586 229.0447 751.1655 229.304 751.2799 229.7843 751.3094 230.1339 751.1094 230.7543 750.7544 230.7097 750.3853 230.7352 750.2315 230.8652 749.4468 230.668 749.0909 230.5101 748.2668L229.8437 745.1373 228.6779 740.7263C228.1694 738.968 227.6738 737.486 227.3091 736.5989 227.2133 736.3659 227.345 736.1507 226.6564 735.7327 226.3189 735.5279 225.4652 735.5855 225.134 735.9335 224.6593 736.4323 224.7867 736.6414 224.7743 736.7981 224.7402 737.2296 224.7918 737.6385 224.8466 738.1628 225.111 740.6875 225.6692 743.2363 226.6286 745.1545 227.1932 746.2832 228.1367 747.1938 229.3588 747.3685 231.1064 747.6184 232.3315 746.2893 233.1259 745.1677 233.907 744.0648 234.5566 742.9672 235.0536 742.6027 235.5859 742.2123 235.7009 741.4642 235.3104 740.9319 234.92 740.3996 234.1719 740.2846 233.6396 740.6751 232.4714 741.532 231.8593 742.8199 231.175 743.786 230.5298 744.6969 230.0672 745.0549 229.6972 745.002 229.5024 744.9741 229.0725 744.6965 228.7667 744.0851 228.0198 742.5918 227.4668 740.2306 227.2243 737.9139L227.1573 736.9887 227.1454 737.0636C227.1546 737.0202 227.0282 737.3758 227.075 737.2735 227.1202 737.175 226.5919 737.8217 226.7734 737.6685 226.8572 737.5979 226.331 737.9098 226.4569 737.859 226.5766 737.8108 225.9432 737.9489 226.0733 737.9428 226.3135 737.9316 225.3536 737.7484 225.4918 737.8186 225.6055 737.8762 225.1934 737.6025 225.2482 737.6519 225.3364 737.7313 225.0717 737.4456 225.0966 737.4815 225.1548 737.5654 225.0653 737.4283 225.098 737.5079 225.3998 738.2418 225.8907 739.694 226.3813 741.3904L227.5127 745.6678 228.25 749.191 228.3646 749.9734C228.365 749.9813 228.3762 749.828 228.3689 749.8989 228.3657 749.9297 228.4078 749.701 228.3925 749.7635 228.3781 749.8225 228.5389 749.411 228.484 749.5185 228.4322 749.6199 228.9349 749.0206 228.7767 749.1526 228.631 749.274 229.59 748.8575 229.3629 748.8907 229.1663 748.9195 230.0318 748.9777 229.8887 748.9327 229.7688 748.8949 230.2406 749.1099 230.1701 749.0645 230.0544 748.99 230.4405 749.3042 230.3951 749.2544 230.3333 749.1863 230.5195 749.4219 230.5017 749.3937L230.5264 749.4363ZM197.6088 742.9876C196.9487 742.9776 196.4055 743.5047 196.3956 744.1648 196.3856 744.8248 196.9127 745.368 197.5727 745.3779 198.2486 745.3881 199.0505 745.1725 199.6327 744.6999 200.4153 744.0648 201.4604 742.9843 202.0322 741.484 202.886 739.2434 201.7497 736.9381 200.4288 735.337 199.7806 734.5513 199.0701 733.9089 198.3355 733.4773 197.9728 733.2642 197.5989 733.0916 197.1543 733.0252 196.6942 732.9565 196.0336 733.0514 195.5926 733.5283 195.1444 734.013 195.1739 734.7693 195.6586 735.2175 196.1433 735.6657 196.8995 735.6361 197.3477 735.1514 197.4531 735.0375 196.8648 735.4023 196.9786 735.3736 197.0763 735.349 196.7852 735.3875 196.8035 735.3899 196.9024 735.4027 198.1287 736.1744 198.9344 737.316 199.7427 738.4613 200.1299 739.7625 199.7983 740.6327 199.452 741.5414 198.642 742.4251 198.1262 742.8437 197.913 743.0167 197.9803 742.9932 197.6088 742.9876M207.7865 747.1845C208.432 747.0462 208.8432 746.4108 208.7049 745.7653 208.5667 745.1198 207.9313 744.7086 207.2858 744.8469 207.0209 744.9036 206.5833 744.7581 206.3078 744.3999L205.7881 743.3372C205.4794 742.6102 205.0246 741.7263 204.7984 740.7287 204.6617 740.1261 204.6091 739.4715 204.6556 738.922 204.7799 737.4559 206.6326 737.27 207.0594 737.3695 207.7023 737.5194 208.345 737.1196 208.4948 736.4767 208.6446 735.8338 208.2449 735.1911 207.602 735.0413 206.7974 734.8538 205.7766 734.9083 204.6827 735.3803 203.55 735.8691 202.4153 737.048 202.2736 738.7201 202.2025 739.5582 202.2789 740.4282 202.467 741.2575 202.7718 742.6016 203.3347 743.676 203.5877 744.2717 203.826 744.8327 204.0258 745.3541 204.4128 745.8573 205.2015 746.8828 206.5044 747.4591 207.7865 747.1845M214.183 741.2572C214.7612 740.9386 214.9716 740.2116 214.6529 739.6334 214.3343 739.0553 213.6073 738.8449 213.0291 739.1635 212.7346 739.3259 212.3817 739.3195 212.1213 740.1132 212.0046 740.469 212.1184 741.0713 212.4058 741.3714 212.8501 741.835 213.1569 741.773 213.3614 741.786 213.9248 741.8218 214.4205 741.6994 214.9869 741.5189 216.0207 741.1894 216.9563 740.5611 217.3908 739.5673 217.66 738.9515 217.632 738.3259 217.5398 737.7756 217.3724 736.7765 216.9806 735.8955 216.7807 735.2684L216.7281 735.0088C216.7469 734.8936 216.3655 735.4227 216.4635 735.3729 216.5033 735.3527 217.3345 735.4244 218.2126 735.7232L219.4199 736.162 219.9617 736.3224C220.0761 736.345 220.212 736.3864 220.5059 736.3336 220.851 736.2717 221.5346 735.6681 221.5248 735.102 221.5134 734.4419 220.9691 733.9161 220.3091 733.9275 219.649 733.9389 219.1232 734.4832 219.1346 735.1433 219.1367 735.2678 219.2687 734.5569 219.2098 734.7121 219.151 734.8675 219.5967 734.1811 219.482 734.2942 219.3715 734.4031 219.9172 734.018 219.8139 734.0652 219.6234 734.1523 220.316 733.9608 220.227 733.9646 220.0775 733.9711 220.4445 733.9813 220.4315 733.9785L218.563 733.3236C217.6211 733.0335 216.5347 732.6551 215.3805 733.2416 214.8717 733.5002 214.4611 734.0578 214.3688 734.6234 214.2924 735.0912 214.3594 735.5439 214.503 735.9944 214.7502 736.77 215.0796 737.5593 215.182 738.1706L215.2003 738.6097C215.1257 738.7804 214.8458 739.0547 214.261 739.2411L213.5184 739.4005C213.5008 739.3992 213.6779 739.4311 213.6228 739.4179 213.5696 739.4052 213.9591 739.5625 213.8551 739.5071 213.757 739.4548 214.3213 739.9479 214.2007 739.7962 214.0906 739.6576 214.4664 740.5293 214.4347 740.3289 214.4073 740.1556 214.3777 740.9237 214.4116 740.7948 214.4675 740.5827 214.153 741.2654 214.2112 741.1941 214.2873 741.1009 214.092 741.312 214.0954 741.3096ZM45.20603 639.5181C44.61523 639.8127 44.37509 640.5304 44.66966 641.1212 44.96422 641.712 45.68194 641.9522 46.27273 641.6576L49.15671 640.2364 53.64855 637.9552 58.8773 635.3026 63.65334 632.7857C66.83473 631.0496 69.66377 629.2672 72.05499 627.6773L77.42452 624.01C77.9738 623.6438 78.12222 622.9017 77.75603 622.3524 77.38984 621.8031 76.6477 621.6547 76.09843 622.0209L70.73135 625.6865C68.37988 627.25 65.60972 628.9947 62.50817 630.6872L57.77772 633.1798 52.56618 635.8237 48.09318 638.0954ZM46.02246 643.2339C45.44122 643.5468 45.22376 644.2718 45.53674 644.853 45.84973 645.4342 46.57464 645.6517 47.15588 645.3387 47.3869 645.2143 47.70591 645.1113 47.93213 644.5283 48.15683 643.9492 47.7404 643.19 47.43778 642.9819 46.60866 642.4117 46.05687 642.5691 45.24819 642.5112L42.56396 642.3503C41.51146 642.2764 40.70964 642.1459 40.533 642.0591 40.48772 642.0368 40.63837 642.1696 40.57122 642.1015 40.49131 642.0205 40.80279 642.7134 40.77984 642.5389 40.7719 642.4785 40.76279 642.6768 40.76538 642.6721 40.82437 642.5632 41.49192 642.0372 42.45964 641.4925 44.19209 640.5173 45.81719 639.6409 47.11579 638.69 48.37696 637.7666 49.51214 636.665 49.51209 635.1283 49.51206 634.4681 48.97689 633.933 48.31673 633.933 47.65658 633.933 47.12144 634.4682 47.12146 635.1283 47.12147 635.3879 46.72793 636.0111 45.70348 636.7612 44.59834 637.5704 43.02811 638.4291 41.28695 639.4093 40.59933 639.7963 39.94908 640.1671 39.39844 640.649 38.84416 641.134 38.28605 641.911 38.40962 642.8506 38.50562 643.5806 39.09333 644.0152 39.47823 644.2044 40.34901 644.6326 41.29212 644.6576 42.3966 644.7351L45.705 644.95 46.15226 645.0137 46.22034 645.0276 46.13321 644.9837C46.17344 645.0075 45.91347 644.8084 45.97683 644.8667 46.03552 644.9207 45.72551 644.5311 45.78801 644.6347 45.84465 644.7286 45.6258 644.1629 45.65348 644.2933 45.70243 644.524 45.77938 643.4765 45.70994 643.647 45.66062 643.7682 45.91666 643.3212 45.86736 643.3811 45.79938 643.4638 46.03716 643.2237 46.01074 643.2429ZM38.07118 631.0113C38.103 630.3519 37.59426 629.7916 36.93487 629.7598 36.27549 629.728 35.71516 630.2367 35.68334 630.8961L35.67869 630.9796C35.67224 631.0011 35.75442 630.8133 35.72603 630.867 35.69729 630.9214 35.94579 630.5893 35.87258 630.6658 35.80076 630.7408 36.28902 630.3943 36.16643 630.4533 36.04993 630.5094 36.66636 630.343 36.54095 630.3526 36.31232 630.3701 37.15555 630.499 37.05034 630.447 36.96685 630.4058 37.22357 630.5648 37.20028 630.5444 37.13553 630.4878 36.92686 630.1216 36.72649 629.4985 36.52975 628.8866 36.39716 628.1053 36.38212 627.2982 36.35914 626.0651 36.912 624.869 37.86759 624.2568 39.32337 623.3241 41.20161 623.8567 42.0056 624.6665 42.22799 624.8905 42.37373 625.2382 42.4166 625.5517L42.45203 625.836C42.42175 625.9414 42.6579 625.4963 42.59805 625.5653 42.51298 625.6634 42.87385 625.384 42.81871 625.4048 42.76822 625.4238 42.9951 625.3832 42.94991 625.382 42.85796 625.3796 43.13465 625.4386 43.13062 625.4352 43.01834 625.3381 42.57628 624.4323 42.25127 623.0761 41.90397 621.6269 41.5641 619.4507 41.21201 617.3815 40.79168 614.9113 40.64782 613.2605 39.58096 612.1444 38.74397 611.2688 37.51035 611.4246 36.6152 611.7547 33.88261 612.7626 30.90623 615.6426 30.20277 615.9392 29.59449 616.1957 29.30934 616.8968 29.56585 617.5051 29.82237 618.1133 30.52342 618.3985 31.1317 618.142 32.37973 617.6157 33.72273 616.2988 35.3251 615.199 36.11149 614.6592 36.87303 614.2077 37.44245 613.9976L37.96848 613.8744C38.01162 613.8757 37.79767 613.7386 37.85288 613.7963 37.99539 613.9454 38.44386 615.3648 38.85526 617.7825 39.20481 619.8368 39.54082 622.0241 39.92647 623.6332 40.1681 624.6415 40.42415 625.5166 40.81185 626.2499 41.19589 626.9763 41.8807 627.746 42.88851 627.7718 43.58269 627.7897 44.47305 627.4594 44.74976 626.496 44.90161 625.9672 44.83064 625.5603 44.78519 625.2279 44.68251 624.4769 44.36557 623.6504 43.70205 622.9821 42.11748 621.3862 39.09185 620.6333 36.57796 622.2438 34.83079 623.3632 33.95539 625.3831 33.99191 627.3428 34.01122 628.3791 34.17326 629.3677 34.45063 630.2303 34.71789 631.0614 34.99432 631.7426 35.56045 632.2836 35.71152 632.4279 35.90481 632.5895 36.23436 632.685 36.7729 632.8409 37.57308 632.45 37.81278 632.0328 38.03108 631.6528 38.05543 631.3377 38.07118 631.0113M45.62316 613.8382C45.01449 613.5826 44.31387 613.8688 44.0583 614.4775 43.80272 615.0862 44.08897 615.7868 44.69764 616.0424 45.55775 616.4035 46.30707 616.1388 46.94008 615.8441 47.57179 615.5499 48.14605 615.1355 48.61385 614.6316 49.05368 614.1577 49.45027 613.4585 49.40764 612.6649 49.36237 611.8222 48.90298 611.0724 48.24842 610.5069 47.41204 609.7843 46.46699 609.5887 45.87953 609.3511L44.93335 608.9784 44.57097 608.786C44.53263 608.7615 44.62064 608.8458 44.57753 608.8004 44.53824 608.759 44.78701 609.1793 44.73424 609.0499 44.69276 608.9482 44.80442 609.5294 44.80394 609.4043 44.80323 609.2194 44.66006 609.9078 44.70476 609.8235 44.74394 609.7497 44.64137 609.9195 44.64454 609.9161 44.70848 609.8473 44.54414 610.0019 44.5451 610.0014L45.24367 609.7588C46.81572 609.2284 48.41569 608.5476 49.39447 607.8897 49.94236 607.5214 50.08797 606.7787 49.7197 606.2309 49.35143 605.683 48.60874 605.5374 48.06085 605.9056 47.46973 606.303 45.88951 607.0179 44.47946 607.4936 44.09625 607.6229 43.51951 607.615 42.89342 608.2886 42.73211 608.4622 42.54159 608.6935 42.45186 609.0763 42.30882 609.6866 42.68702 610.3269 42.99444 610.5887 43.28266 610.8342 43.56584 610.9727 43.89331 611.131L44.9829 611.5672C45.74312 611.8747 46.4395 612.1034 46.68552 612.3159 46.95635 612.5499 47.01837 612.7543 47.02046 612.7932L46.86174 613.0051C46.63061 613.2541 46.26203 613.5227 45.93088 613.6769L45.55598 613.8042C45.49299 613.8141 45.73154 613.8837 45.62316 613.8382"/>
</g>
<g clip-path="url(#clip_23)">
<path transform="matrix(1,0,0,-1,0,792.518)" d="M252.5288 550.9716C252.039 549.9864 250.8433 549.5847 249.8581 550.0744 248.8728 550.5642 248.4711 551.7599 248.9609 552.7451L293.3182 641.9834C293.8079 642.9686 295.0036 643.3703 295.9889 642.8806 296.9741 642.3909 297.3758 641.1951 296.8861 640.2099ZM297.5959 640.2834C297.5394 639.1846 296.6029 638.3396 295.5041 638.3961 294.4053 638.4526 293.5603 639.3891 293.6168 640.4879 293.6231 640.6095 293.5561 640.7537 293.8284 641.2972 293.9841 641.608 294.4165 642.2476 295.3274 642.3792 296.2057 642.5061 296.7751 642.0607 297.0153 641.8235 298.1673 640.6858 297.5724 640.8375 297.6061 640.6808 297.7073 640.2096 297.7883 639.5436 297.8388 638.5567L297.9423 633.8573 298.1418 631.4026C298.1563 631.2392 298.3737 630.9708 298.2181 629.9944 298.1929 629.8365 298.6112 629.2885 297.3008 628.37 296.6646 627.9241 295.9359 627.9833 295.5717 628.0929 294.5154 628.4109 294.6515 628.6599 294.5417 628.7892 294.2481 629.1352 294.0715 629.4158 293.8742 629.8408L293.6706 630.5055C293.6525 630.6102 293.7669 630.1918 293.7034 630.3968 293.3778 631.4477 293.9659 632.5637 295.0168 632.8893 296.0678 633.2149 297.1837 632.6268 297.5093 631.5759L297.5968 631.1839C297.6009 631.1602 297.403 631.7017 297.4879 631.5189L297.5826 631.3657C297.5983 631.3433 297.4957 631.4601 297.5523 631.3983 297.588 631.3592 297.1056 631.7602 297.2862 631.6313 297.3898 631.5575 296.4044 632.0032 296.7201 631.9082 296.8924 631.8563 295.7222 631.9676 296.0198 631.9875 296.3318 632.0083 294.6988 631.4119 295.0139 631.6328 295.3373 631.8594 294.3232 630.767 294.4186 630.9528 294.5456 631.1999 294.2643 630.5116 294.2726 630.5519L294.2834 630.6216C294.3085 630.7788 294.2696 630.3254 294.2676 630.3547L294.1729 631.0528 293.9616 633.6859 293.8596 638.3531 293.7351 639.7049 293.7187 639.8133C293.7117 639.8381 293.7937 639.5993 293.7648 639.6749 293.7404 639.7388 294.0442 639.1628 293.9314 639.3425 293.8842 639.4176 294.2654 638.9318 294.1537 639.0525 294.0486 639.166 294.924 638.5153 294.6658 638.655 294.4244 638.7857 296.0841 638.4285 295.6718 638.4162 295.3052 638.4053 296.949 638.8965 296.6783 638.7248 296.4501 638.58 297.2893 639.3185 297.177 639.1756 296.9932 638.9416 297.531 639.8604 297.4823 639.7256 297.4155 639.541 297.5909 640.1927 297.5786 640.108 297.5671 640.0296 297.5981 640.3261 297.5959 640.2834M292.3439 638.5038C291.773 639.4443 292.0725 640.6696 293.013 641.2406 293.9535 641.8116 295.1788 641.5121 295.7498 640.5716 296.3616 639.5637 295.9153 638.5738 295.6573 638.1846 295.0093 637.2072 294.3487 636.9044 293.5993 636.3279 292.6223 635.5764 291.2329 634.3639 289.8837 633.3895 289.2208 632.9108 288.617 632.4811 287.8206 632.2023 287.3999 632.0551 286.8132 631.8537 285.9684 632.1773 285.0606 632.5249 284.5352 633.5984 284.4944 634.2548 284.4263 635.3529 285.2612 636.2984 286.3594 636.3665 287.4575 636.4347 288.403 635.5997 288.4711 634.5016 288.4797 634.363 288.0807 635.465 288.254 635.174 288.4254 634.8863 287.1399 636.008 287.4543 635.8734 287.7362 635.7527 286.6193 635.9995 286.7763 636.005 286.9098 636.0097 286.4904 635.9599 286.5288 635.9704 286.6961 636.0165 289.4085 638.1312 291.17 639.4861L292.3233 640.4003C292.4111 640.4796 292.2444 640.2474 292.3364 640.3862 292.3947 640.4741 292.0475 639.5244 292.1121 639.8338 292.1469 640.0001 292.1223 638.9849 292.0906 639.221 292.0582 639.4628 292.4762 638.286 292.3439 638.5038M163.1191 590.8876C162.1483 591.4054 161.7811 592.6121 162.2989 593.5829 162.8167 594.5537 164.0234 594.921 164.9942 594.4032L250.0482 549.0372C251.019 548.5194 251.3862 547.3126 250.8684 546.3418 250.3506 545.371 249.1438 545.0038 248.173 545.5216ZM164.9099 596.0046C165.7926 595.3477 165.9755 594.0997 165.3186 593.2171 164.6616 592.3344 163.4136 592.1515 162.531 592.8084 162.2912 592.9869 161.8735 593.2714 161.6982 594.0726 161.5321 594.8318 161.9618 595.7153 162.3567 596.0617 163.4428 597.0144 163.7968 596.6591 164.2632 596.6771L165.828 596.6347C167.0721 596.543 168.6074 596.3254 170.0786 596.1103 172.8319 595.7078 173.8966 595.3673 174.944 594.8052 175.9135 594.2849 176.2777 593.0773 175.7574 592.1078 175.2372 591.1383 174.0295 590.7741 173.06 591.2944 172.1386 591.7888 172.1789 591.7766 169.5022 592.1679L165.5351 592.6611 164.2636 592.6857C164.2387 592.683 164.3698 592.7124 164.3067 592.6965 164.2493 592.682 164.8072 592.9162 164.6347 592.8253 164.4908 592.7495 165.4309 593.576 165.2081 593.2999 165.0296 593.0788 165.6702 594.611 165.6147 594.2315 165.5729 593.9463 165.4942 595.2759 165.5614 595.04 165.6579 594.7011 165.0629 595.8891 165.1864 595.7441 165.3007 595.6098 164.8411 596.0559 164.9099 596.0046M162.6543 594.3642C163.3982 595.1748 164.6585 595.2289 165.4691 594.4849 166.2797 593.741 166.3337 592.4807 165.5897 591.6701 165.2962 591.3503 166.1334 593.0479 166.088 592.7246 166.0478 592.4387 166.0343 593.5438 166.0672 593.3848 166.1234 593.1135 165.8489 593.9525 165.8942 593.868 166.0164 593.6397 165.7991 594.015 165.8874 593.9164L166.3458 593.4382 167.5347 592.2902C168.6875 591.1435 170.0195 589.6612 171.1125 588.2062 172.5958 586.2315 173.4512 584.7418 173.1369 583.1371 172.9254 582.0573 171.8786 581.3535 170.7989 581.565 169.7192 581.7764 169.0153 582.8232 169.2268 583.9029 169.244 583.9908 169.2691 583.692 169.15 583.9518 168.9971 584.2853 168.6064 584.9084 167.9267 585.8132 166.99 587.0603 165.7407 588.4548 164.7248 589.4653L163.5231 590.6262 162.7654 591.4356 162.4151 591.9267 162.1726 592.5444C162.0901 592.9131 162.0528 593.7089 162.6543 594.3642M174.9537 575.3701C174.7252 575.9895 175.042 576.6768 175.6613 576.9054 176.2806 577.1339 176.968 576.8171 177.1965 576.1978L179.3007 570.4493 179.4899 569.6741C179.5044 569.5743 179.4735 569.8567 179.6347 569.2861L179.9496 568.3363 180.4722 567.1678 180.8396 566.5274 180.9386 566.4349C180.979 566.4209 180.5344 566.3513 180.6465 566.4051 180.7983 566.4782 180.3718 566.1814 180.398 566.215L180.6536 566.8035 182.4712 570.9163C182.8586 571.8421 183.2162 572.7235 183.6025 573.3667L183.973 573.8592C184.1216 574.0068 184.3724 574.2846 184.9593 574.2669 185.4285 574.2527 185.8448 573.9119 186.0017 573.6559 186.3921 573.0189 186.2476 572.7354 186.2241 572.3183 186.1869 571.6592 185.6225 571.155 184.9634 571.1922 184.3043 571.2293 183.8001 571.7938 183.8372 572.4529L183.841 572.7221C183.8398 572.7316 183.8971 572.5253 183.8711 572.6016 183.8433 572.6831 184.2608 572.0611 184.1049 572.2237 184.0272 572.3047 184.5481 571.9301 184.418 571.9944 184.2901 572.0577 184.9746 571.8693 184.8339 571.8802 184.6998 571.8906 185.2946 571.9355 185.1929 571.9101 185.0062 571.8635 185.6328 572.1337 185.5616 572.0814 185.4456 571.9961 185.7002 572.2104 185.6983 572.2078L184.6765 569.9934 182.8335 565.8223C182.69 565.5035 182.7482 564.7633 181.6827 564.2508 180.6933 563.7749 179.6313 564.28 179.0429 564.9504 178.6978 565.3435 178.5509 565.7039 178.383 566.0059 178.1874 566.3577 177.9346 566.8526 177.6917 567.5509L177.3342 568.6358C177.3114 568.7167 177.3907 568.483 177.3826 568.501 177.371 568.5269 177.1909 568.8704 177.1241 569.3308L177.0518 569.6385ZM178.4229 562.9205C179.0782 562.841 179.5451 562.2453 179.4656 561.59 179.3861 560.9346 178.7905 560.4678 178.1351 560.5473 177.6806 560.6024 177.6181 560.3733 176.8982 560.8931 176.7584 560.994 176.4748 561.1937 176.4048 561.7131 176.34 562.1933 176.6284 562.6338 176.8309 562.8015 177.3777 563.2545 177.4683 563.0821 177.5854 563.0917L177.8976 563.0984C179.6231 563.0558 181.5771 562.5049 183.8168 562.5571 184.4768 562.5725 185.0243 562.0499 185.0397 561.3899 185.055 560.73 184.5325 560.1825 183.8725 560.1671 181.2626 560.1063 179.0996 560.6774 177.8386 560.7085 177.782 560.7099 177.8922 560.7244 177.8184 560.7135 177.7811 560.708 178.2125 560.8457 178.0638 560.7835 177.9896 560.7524 178.5115 561.095 178.376 560.9775 178.3079 560.9185 178.6636 561.3351 178.592 561.2253 178.5201 561.115 178.7935 561.7991 178.761 561.6383 178.7292 561.481 178.7304 562.2595 178.7606 562.1115 178.7893 561.9711 178.5729 562.5591 178.6271 562.4649 178.7263 562.2921 178.2695 562.8562 178.3472 562.7934 178.4783 562.6874 178.037 562.9723 178.0881 562.9505 178.2272 562.8909 177.9784 562.987 178.044 562.975ZM189.505 563.2638C189.9933 562.8196 190.029 562.0636 189.5848 561.5753 189.1405 561.087 188.3846 561.0512 187.8962 561.4955L187.3173 561.9716C187.0327 562.2305 186.4452 562.5348 186.6871 563.5658 186.9115 564.5221 187.5733 564.5484 187.8649 564.6094 188.6722 564.7781 189.459 564.677 190.0771 564.5772 190.6091 564.4913 191.107 564.3198 191.556 564.0509 192.7302 563.3475 192.6821 561.9574 192.2963 560.9147 192.019 560.165 191.5642 559.7358 191.3429 559.4189L191.2809 559.2902C191.2801 559.2839 191.2629 559.4516 191.2747 559.3884 191.2879 559.3168 191.0296 559.8183 191.1275 559.6962 191.2067 559.5973 190.8453 559.9129 190.9029 559.8836 190.9918 559.8384 190.832 559.9062 190.9269 559.9007 191.3699 559.875 192.3925 560.0758 193.4107 560.3004 194.4294 560.5252 195.2769 560.8919 196.356 560.6153 196.9955 560.4515 197.381 559.8002 197.2172 559.1607 197.0533 558.5212 196.402 558.1357 195.7626 558.2995 195.6272 558.3342 194.5232 558.0886 193.2413 557.8169 192.5951 557.6799 191.9475 557.5527 191.3197 557.5165 190.6939 557.4804 189.9004 557.4046 189.262 558.2011 188.5161 559.1318 188.8901 560.0819 189.3828 560.7875L190.0543 561.7442 190.1346 562.2028 190.1513 562.1748C190.1246 562.2224 190.4161 561.947 190.3276 562L189.6961 562.2172 188.6734 562.2904 188.3542 562.2694C188.3539 562.2693 188.6144 562.3913 188.5035 562.3309 188.4403 562.2965 188.8485 562.6289 188.751 562.5245 188.6472 562.4133 189.064 563.2305 189.0145 563.0198 188.9643 562.8057 188.9678 563.6577 189.003 563.5379 189.0502 563.3771 188.8745 563.794 188.8901 563.774L188.926 563.7399ZM294.1896 618.3534C294.2591 617.6969 293.7831 617.1085 293.1267 617.0391 292.4702 616.9696 291.8817 617.4456 291.8123 618.1021 291.7967 618.2495 291.8752 617.8523 291.8655 617.8759L291.697 618.1864C291.4852 618.595 291.4591 618.9986 291.5306 619.3668 291.603 619.7394 291.7332 620.2808 292.5025 620.5226 293.4225 620.8118 294.0238 620.1942 294.3209 619.8194 295.1888 618.7249 295.7228 617.0468 296.3686 615.5422 296.8529 614.4138 297.3736 613.2947 297.8536 612.4978L298.3586 611.7427C298.3708 611.7315 298.2599 611.7983 298.3099 611.7717 298.3601 611.745 297.949 611.8633 298.0622 611.8482 298.2712 611.8203 297.3368 611.6223 297.4685 611.7116 297.557 611.7716 297.3249 611.5777 297.335 611.5913L297.5736 612.1578C298.152 613.7542 299.1895 615.6077 300.2527 617.2595L301.7598 619.3854C302.2148 619.9491 302.4018 620.4562 303.35 620.7073 303.9882 620.8764 304.6425 620.4961 304.8115 619.8579 304.9805 619.2198 304.6002 618.5654 303.9621 618.3964 303.8766 618.3738 304.1644 618.4782 304.1318 618.4611 303.8893 618.3336 300.7763 613.9793 299.8212 611.3434 299.657 610.8903 299.5408 610.4294 299.0732 609.9534 298.8186 609.6941 298.3433 609.4324 297.8382 609.4691 297.3454 609.5048 296.9957 609.7478 296.7389 609.9844 296.3028 610.3861 296.072 610.8223 295.8058 611.2643 295.2216 612.2342 294.6767 613.4228 294.1718 614.5993L292.9052 617.5346 292.4477 618.3341C292.4103 618.3813 292.5858 618.2584 292.4924 618.315 292.437 618.3485 292.8935 618.19 292.7654 618.2138 292.6309 618.2387 293.3694 618.2891 293.2193 618.242 293.0566 618.1908 293.6851 618.5305 293.5962 618.4526 293.4508 618.3253 293.8692 618.8545 293.8343 618.7731 293.7866 618.6622 293.8863 619.0994 293.8877 619.0274 293.8891 618.9544 293.767 619.3877 293.8194 619.2867 293.8906 619.1492 294.1134 619.0744 294.1896 618.3534M293.9441 607.4472C294.6043 607.4472 295.1395 606.9121 295.1395 606.2519 295.1395 605.5918 294.6043 605.0566 293.9441 605.0566H292.5247C292.493 605.0566 292.7653 604.9414 292.1812 605.0981 291.5436 605.2691 291.1653 605.9246 291.3363 606.5622 291.5073 607.1998 292.1628 607.5781 292.8004 607.4071 292.938 607.3702 292.5777 607.445 292.6057 607.4423 292.7341 607.43 292.5165 607.4472 292.5247 607.4472ZM292.8299 605.1066C292.1969 604.9193 291.5319 605.2807 291.3446 605.9137 291.1573 606.5467 291.5187 607.2117 292.1517 607.399 292.738 607.5724 292.4636 607.4485 292.4945 607.4492L292.9289 607.4468C294.4748 607.4072 296.6536 607.8158 298.7394 607.9218 299.3987 607.9554 299.9603 607.4481 299.9939 606.7888 300.0274 606.1295 299.5201 605.5678 298.8608 605.5343 296.9871 605.439 294.8026 605.0073 292.8676 605.057L292.6126 605.06 292.5524 605.0593 292.5862 605.0614 292.6343 605.0662C292.6066 605.0628 292.9696 605.1479 292.8299 605.1066M304.2421 606.6255C304.8987 606.6938 305.4864 606.2168 305.5547 605.5602 305.623 604.9036 305.1461 604.316 304.4895 604.2477 304.1554 604.2129 303.8458 604.2023 303.4986 604.2875 302.9454 604.4232 302.2854 605.2264 302.3299 605.8395 302.3697 606.3872 302.5842 606.6749 302.7612 606.9431L304.2124 608.926 304.68 609.5719C304.822 609.7382 304.9339 610.0265 305.4902 610.3068 305.8731 610.4998 306.6348 610.5247 307.0813 610.143 307.6861 609.6258 307.6397 609.1484 307.6684 608.7786L307.66 607.7054C307.5844 606.4661 307.5624 605.1836 307.6561 604.1586L307.8568 603.0049 307.9415 602.8008C307.9444 602.7962 307.6777 602.9847 307.7931 602.9208 308.3706 602.6009 308.5795 601.8735 308.2596 601.296 307.9398 600.7185 307.2124 600.5096 306.6349 600.8295 305.3769 601.5262 305.3843 602.751 305.2754 603.9408 305.1637 605.1627 305.1936 606.5362 305.2738 607.8511L305.2732 608.6918C305.2717 608.6992 305.3222 608.5705 305.2976 608.6258 305.2765 608.6733 305.5098 608.3321 305.433 608.4191 305.3719 608.4882 305.8018 608.1512 305.691 608.2127 305.5211 608.307 306.4101 608.099 306.2422 608.0879 306.0838 608.0774 306.6256 608.202 306.5659 608.1719 306.4872 608.1322 306.721 608.2762 306.7026 608.2604L306.4983 608.0198 306.1441 607.5176 304.7563 605.626 304.6833 605.5061C304.6778 605.4909 304.7153 605.6553 304.7071 605.6034 304.6993 605.5541 304.7047 605.8915 304.7126 605.8059 304.7274 605.6464 304.3497 606.495 304.485 606.3375 304.584 606.2224 304.1058 606.6048 304.1901 606.5651 304.3034 606.5117 304.0264 606.6166 304.0356 606.6159ZM304.8105 602.4553C305.4696 602.4933 306.0347 601.9899 306.0727 601.3308 306.1108 600.6718 305.6073 600.1067 304.9483 600.0686L303.6552 600.0685 303.3082 600.1174C303.1905 600.1464 303.0204 600.1516 302.7274 600.4302 302.4696 600.6751 302.2579 601.3915 302.4696 601.8314 302.7429 602.3995 303.0138 602.3986 303.1484 602.4517L303.447 602.5379C305.5333 602.9602 307.8071 602.6242 309.7417 602.6593 310.4017 602.6713 310.9465 602.1459 310.9585 601.4859 310.9705 600.8258 310.4451 600.281 309.785 600.2691 307.6293 600.23 305.4332 600.5008 303.9212 600.1948 303.915 600.1935 304.2002 600.3072 304.0799 600.2512 304.0276 600.2269 304.4039 600.4715 304.3038 600.3911 304.2569 600.3534 304.519 600.6126 304.4616 600.5449 304.4056 600.4788 304.6811 600.9172 304.6294 600.8066 304.5793 600.6995 304.7492 601.3332 304.7347 601.1889 304.7209 601.052 304.6695 601.7339 304.7034 601.6021 304.7657 601.3597 304.2945 602.2456 304.4044 602.1333 304.4948 602.0409 304.1012 602.3588 304.1672 602.3197 304.2741 602.2564 303.883 602.4395 303.9355 602.4232 304.0689 602.3818 303.7812 602.4558 303.7878 602.4554Z" fill="#00733b"/>
</g>
</svg>
