<svg xmlns="http://www.w3.org/2000/svg" xmlns:xlink="http://www.w3.org/1999/xlink" width="269.469" height="230.844" viewBox="0 0 202.102 173.133"><path stroke-width=".399" stroke-miterlimit="10" fill="none" stroke="#000" d="M7.41 121.15h173.24"/><path d="m182.642 121.15-3.188-1.594 1.195 1.594-1.195 1.594"/><path stroke-width=".399" stroke-miterlimit="10" fill="none" stroke="#000" d="M53.524 167.264V7.859"/><path d="M53.524 5.866 51.93 9.054l1.594-1.195 1.594 1.195"/><path d="m53.524 121.15 90.827-16.015 34.585-59.904L88.11 61.247 53.524 121.15" fill="#a50034" fill-opacity=".5"/><path stroke-width="1.196" stroke-linecap="round" stroke-linejoin="round" fill="none" stroke="#a50034" d="m53.524 121.15 90.827-16.015 34.585-59.904L88.11 61.247 53.524 121.15"/><path d="m88.109 61.247 90.827-16.016L139 22.174 48.173 38.19 88.11 61.247" fill="#00a6d6" fill-opacity=".5"/><path stroke-width="1.196" stroke-linecap="round" stroke-linejoin="round" fill="none" stroke="#00a6d6" d="m88.109 61.247 90.827-16.016L139 22.174 48.173 38.19 88.11 61.247"/><path d="m53.524 121.15 90.827-16.015-39.936-23.057-90.827 16.015 39.936 23.057" fill="#00a6d6" fill-opacity=".5"/><path stroke-width="1.196" stroke-linecap="round" stroke-linejoin="round" fill="none" stroke="#00a6d6" d="m53.524 121.15 90.827-16.015-39.936-23.057-90.827 16.015 39.936 23.057"/><path stroke-width="1.594" stroke-linecap="round" stroke-miterlimit="10" fill="none" stroke="#a50034" d="m53.524 121.15 87.099-15.358"/><path d="m144.351 105.135-6.491-1.93 2.763 2.587-1.711 3.377" fill="#a50034"/><symbol id="a"><path d="M.311.448V.405C.373.405.38.405.38.366V.17C.38.094.335.033.257.033c-.075 0-.079.025-.079.08v.343L0 .448V.405c.062 0 .069 0 .069-.039V.129C.069.029.136 0 .243 0c.024 0 .098 0 .141.081h.001V0l.173.006v.043c-.062 0-.069 0-.069.039v.368L.311.448z"/></symbol><use xlink:href="#a" transform="matrix(11.9552 0 0 -11.9552 118.41 118.626)" fill="#a50034"/><path stroke-width="1.594" stroke-linecap="round" stroke-miterlimit="10" fill="none" stroke="#a50034" d="m53.524 121.15 32.692-56.625"/><path d="m88.109 61.247-5.651 3.731 3.758-.453 1.487 3.482" fill="#a50034"/><symbol id="b"><path d="M.471.383c.007.015.011.023.074.023v.043C.509.447.507.447.466.447L.38.449V.406C.407.406.429.401.429.394L.424.382.307.125.178.406h.055v.043C.21.447.14.447.113.447c-.029 0-.087 0-.113.002V.406h.063L.239.024C.248.005.25 0 .273 0c.016 0 .024.002.033.022l.165.361z"/></symbol><use xlink:href="#b" transform="matrix(11.9552 0 0 -11.9552 68.363 78.94)" fill="#a50034"/><path stroke-width="1.594" stroke-linecap="round" stroke-miterlimit="10" fill="none" stroke="#00a6d6" d="M53.524 121.15 16.866 99.986"/><path d="m13.588 98.094 3.731 5.65-.453-3.758 3.482-1.487" fill="#00a6d6"/><symbol id="c"><path d="M.697.382c.007.017.01.024.068.024v.043C.736.447.723.447.687.447c-.041 0-.054 0-.09.002V.406c.009 0 .058 0 .058-.013L.651.381.546.121.431.406h.057v.043C.464.447.405.447.378.447c-.051 0-.053 0-.103.002V.406h.059a.624.624 0 0 1 .012-.03.189.189 0 0 0 .013-.035L.355.329.279.14.171.406h.057v.043C.205.447.137.447.11.447c-.032 0-.08 0-.11.002V.406h.059L.212.025C.219.007.223 0 .245 0c.011 0 .023 0 .031.02l.106.265.106-.263C.497 0 .508 0 .52 0c.022 0 .025.006.032.024l.145.358z"/></symbol><use xlink:href="#c" transform="matrix(11.9552 0 0 -11.9552 9.846 113.333)" fill="#00a6d6"/><path stroke-width="1.594" stroke-linecap="round" stroke-miterlimit="10" fill="none" stroke="#009b77" d="m53.524 121.15-5.107-79.182"/><path d="m48.173 38.19-2.632 6.24 2.876-2.462 3.168 2.071" fill="#009b77"/><use xlink:href="#b" transform="matrix(11.9552 0 0 -11.9552 14.093 61.98)" fill="#009b77"/><symbol id="d"><path d="M.345.308h.276c.014 0 .032 0 .032.018 0 .019-.017.019-.032.019H.345v.276c0 .014 0 .032-.018.032C.308.653.308.636.308.621V.345H.032C.018.345 0 .345 0 .327 0 .308.017.308.032.308h.276V.032C.308.018.308 0 .326 0c.019 0 .019.017.019.032v.276z"/></symbol><use xlink:href="#d" transform="matrix(11.9552 0 0 -11.9552 24.394 62.842)" fill="#009b77"/><use xlink:href="#c" transform="matrix(11.9552 0 0 -11.9552 35.784 61.98)" fill="#009b77"/><path stroke-width="1.594" stroke-linecap="round" stroke-miterlimit="10" fill="none" stroke="#00a6d6" d="M88.109 61.247 51.452 40.083"/><path d="m48.173 38.19 3.732 5.651-.453-3.758 3.481-1.488" fill="#00a6d6"/><path stroke-width="1.594" stroke-linecap="round" stroke-miterlimit="10" fill="none" stroke="#00a6d6" d="M178.936 45.231 142.28 24.067"/><path d="m139 22.174 3.732 5.652-.453-3.759 3.481-1.487" fill="#00a6d6"/><symbol id="e"><path d="M.678.459C.678.624.57.725.43.725.216.725 0 .495 0 .264 0 .107.104 0 .249 0c.21 0 .429.219.429.459M.255.023c-.082 0-.169.06-.169.216 0 .091.033.24.115.34.073.088.157.124.224.124.088 0 .173-.064.173-.208A.631.631 0 0 0 .493.172C.42.07.329.023.255.023z"/></symbol><use xlink:href="#e" transform="matrix(11.9552 0 0 -11.9552 40.725 133.673)"/><symbol id="f"><path d="M.136.111C.101.052.067.032.019.029.008.028 0 .028 0 .01 0 .004.005 0 .012 0l.081.002L.182 0C.188 0 .2 0 .2.019c0 .009-.008.01-.014.01C.163.031.144.039.144.063c0 .014.006.025.019.047l.076.126h.255L.496.21A3.27 3.27 0 0 0 .511.061C.511.031.46.029.444.029c-.011 0-.022 0-.022-.018C.422 0 .431 0 .437 0l.054.002h.057C.609.002.653 0 .654 0c.007 0 .018 0 .018.019 0 .01-.009.01-.024.01-.055 0-.056.009-.059.039L.528.692C.526.712.522.714.511.714.501.714.495.712.486.697L.136.111m.12.154.201.336.034-.336H.256z"/></symbol><use xlink:href="#f" transform="matrix(11.9552 0 0 -11.9552 148.856 109.221)"/><symbol id="g"><path d="M.318.615C.327.652.331.654.37.654H.5C.613.654.613.558.613.549.613.468.532.365.4.365H.256l.062.25M.487.357c.109.02.208.096.208.188 0 .078-.069.138-.182.138H.192c-.019 0-.028 0-.028-.019 0-.01.009-.01.024-.01.061 0 .061-.008.061-.019 0-.002 0-.008-.004-.023L.11.074C.101.039.099.029.029.029.01.029 0 .029 0 .011 0 0 .006 0 .026 0h.343C.522 0 .64.116.64.217c0 .082-.072.132-.153.14M.345.029H.21L.188.03C.177.031.176.033.176.041c0 .007.002.013.004.022l.07.282h.188c.118 0 .118-.11.118-.118A.209.209 0 0 0 .345.029z"/></symbol><use xlink:href="#g" transform="matrix(11.9552 0 0 -11.9552 183.609 49.318)"/><symbol id="h"><path d="M.697.716C.697.725.69.725.688.725c-.002 0-.006 0-.014-.01L.605.631A.18.18 0 0 1 .44.725C.224.725 0 .506 0 .271 0 .104.117 0 .263 0c.08 0 .15.034.208.083.087.073.113.17.113.178C.584.27.576.27.573.27.564.27.563.264.561.26A.31.31 0 0 0 .28.029c-.106 0-.198.068-.198.21 0 .032.01.206.123.337.055.064.149.12.244.12.11 0 .159-.091.159-.193C.608.477.605.455.605.451c0-.009.01-.009.013-.009.011 0 .012.001.016.019l.063.255z"/></symbol><use xlink:href="#h" transform="matrix(11.9552 0 0 -11.9552 84.089 57.4)"/><symbol id="i"><path d="M.11.074C.101.039.099.029.029.029.01.029 0 .029 0 .011 0 0 .006 0 .026 0h.317c.202 0 .399.209.399.432 0 .144-.086.251-.229.251H.192c-.019 0-.028 0-.028-.019 0-.01.009-.01.024-.01.061 0 .061-.008.061-.019 0-.002 0-.008-.004-.023L.11.074m.211.541C.33.652.334.654.373.654h.11c.094 0 .18-.051.18-.189 0-.05-.02-.224-.117-.334A.294.294 0 0 0 .327.029H.213L.191.03C.18.031.179.033.179.041c0 .007.002.013.004.022l.138.552z"/></symbol><use xlink:href="#i" transform="matrix(11.9552 0 0 -11.9552 134.539 18.076)"/><symbol id="j"><path d="M.649.232c.001.003.004.01.004.014a.01.01 0 0 1-.01.01C.639.256.637.255.634.252.632.251.632.249.623.229.564.089.521.029.361.029H.215L.193.03C.182.031.181.033.181.041c0 .007.002.013.004.022l.069.276h.099C.431.339.437.322.437.292c0-.01 0-.019-.007-.049A.026.026 0 0 1 .427.232c0-.007.005-.01.011-.01.009 0 .01.007.014.021l.057.232a.01.01 0 0 1-.01.01C.49.485.489.481.485.467.465.39.445.368.356.368H.261l.062.246c.009.035.011.038.052.038h.143C.641.652.666.619.666.543c0-.001 0-.029-.004-.062A.074.074 0 0 1 .66.469C.66.461.665.458.671.458c.007 0 .011.004.013.022l.021.175.002.015C.707.681.698.681.68.681H.192c-.019 0-.029 0-.029-.018C.163.652.17.652.187.652.249.652.249.645.249.634a.074.074 0 0 0-.004-.02L.11.074C.101.039.099.029.029.029.01.029 0 .029 0 .011 0 0 .006 0 .026 0h.502c.022 0 .023.001.03.017l.091.215z"/></symbol><use xlink:href="#j" transform="matrix(11.9552 0 0 -11.9552 44.04 34.091)"/></svg>