<?xml version="1.0" encoding="UTF-8"?>
<svg xmlns="http://www.w3.org/2000/svg" xmlns:xlink="http://www.w3.org/1999/xlink" width="180.809pt" height="193.902pt" viewBox="0 0 180.809 193.902" version="1.2">
<defs>
<g>
<symbol overflow="visible" id="glyph0-0">
<path style="stroke:none;" d=""/>
</symbol>
<symbol overflow="visible" id="glyph0-1">
<path style="stroke:none;" d="M 8.671875 -5.234375 C 8.671875 -7.203125 7.375 -8.40625 5.703125 -8.40625 C 3.15625 -8.40625 0.578125 -5.65625 0.578125 -2.90625 C 0.578125 -1.03125 1.8125 0.25 3.546875 0.25 C 6.046875 0.25 8.671875 -2.359375 8.671875 -5.234375 Z M 3.609375 -0.03125 C 2.640625 -0.03125 1.59375 -0.734375 1.59375 -2.609375 C 1.59375 -3.6875 2 -5.46875 2.96875 -6.65625 C 3.84375 -7.71875 4.84375 -8.140625 5.640625 -8.140625 C 6.703125 -8.140625 7.71875 -7.375 7.71875 -5.65625 C 7.71875 -4.59375 7.265625 -2.9375 6.453125 -1.796875 C 5.59375 -0.578125 4.5 -0.03125 3.609375 -0.03125 Z M 3.609375 -0.03125 "/>
</symbol>
<symbol overflow="visible" id="glyph0-2">
<path style="stroke:none;" d="M 4.640625 -4.875 C 4.28125 -4.8125 4.078125 -4.546875 4.078125 -4.28125 C 4.078125 -4 4.3125 -3.90625 4.484375 -3.90625 C 4.8125 -3.90625 5.078125 -4.1875 5.078125 -4.546875 C 5.078125 -4.9375 4.71875 -5.265625 4.125 -5.265625 C 3.640625 -5.265625 3.09375 -5.046875 2.59375 -4.328125 C 2.5 -4.953125 2.03125 -5.265625 1.546875 -5.265625 C 1.09375 -5.265625 0.84375 -4.90625 0.703125 -4.640625 C 0.5 -4.21875 0.328125 -3.5 0.328125 -3.4375 C 0.328125 -3.390625 0.375 -3.328125 0.453125 -3.328125 C 0.546875 -3.328125 0.5625 -3.34375 0.625 -3.609375 C 0.8125 -4.328125 1.03125 -5.03125 1.515625 -5.03125 C 1.796875 -5.03125 1.890625 -4.828125 1.890625 -4.484375 C 1.890625 -4.21875 1.765625 -3.75 1.6875 -3.375 L 1.34375 -2.09375 C 1.296875 -1.859375 1.171875 -1.328125 1.109375 -1.109375 C 1.03125 -0.796875 0.890625 -0.234375 0.890625 -0.171875 C 0.890625 -0.015625 1.03125 0.125 1.203125 0.125 C 1.34375 0.125 1.5625 0.03125 1.640625 -0.203125 C 1.671875 -0.296875 2.109375 -2.09375 2.1875 -2.375 C 2.25 -2.640625 2.3125 -2.890625 2.375 -3.15625 C 2.421875 -3.3125 2.46875 -3.515625 2.5 -3.671875 C 2.546875 -3.765625 2.859375 -4.359375 3.15625 -4.625 C 3.3125 -4.75 3.609375 -5.03125 4.109375 -5.03125 C 4.296875 -5.03125 4.484375 -4.984375 4.640625 -4.875 Z M 4.640625 -4.875 "/>
</symbol>
<symbol overflow="visible" id="glyph0-3">
<path style="stroke:none;" d="M 6.390625 -7.125 C 6.25 -7 5.796875 -6.578125 5.796875 -6.40625 C 5.796875 -6.296875 5.90625 -6.1875 6.03125 -6.1875 C 6.140625 -6.1875 6.1875 -6.25 6.265625 -6.375 C 6.546875 -6.734375 6.875 -6.953125 7.15625 -7.109375 C 7.265625 -7.1875 7.359375 -7.21875 7.359375 -7.359375 C 7.359375 -7.46875 7.265625 -7.515625 7.1875 -7.578125 C 6.859375 -7.8125 6.765625 -8.125 6.734375 -8.265625 C 6.703125 -8.375 6.65625 -8.515625 6.5 -8.515625 C 6.421875 -8.515625 6.28125 -8.46875 6.28125 -8.28125 C 6.28125 -8.171875 6.34375 -7.890625 6.578125 -7.5625 L 2.5625 -7.5625 C 2.359375 -7.5625 2.15625 -7.5625 2.15625 -7.34375 C 2.15625 -7.125 2.375 -7.125 2.5625 -7.125 Z M 6.390625 -7.125 "/>
</symbol>
<symbol overflow="visible" id="glyph0-4">
<path style="stroke:none;" d="M 4.078125 -0.6875 C 4.21875 -0.03125 4.796875 0.125 5.078125 0.125 C 5.46875 0.125 5.75 -0.125 5.9375 -0.53125 C 6.140625 -0.96875 6.296875 -1.671875 6.296875 -1.703125 C 6.296875 -1.765625 6.25 -1.8125 6.1875 -1.8125 C 6.078125 -1.8125 6.0625 -1.75 6.015625 -1.578125 C 5.796875 -0.75 5.59375 -0.125 5.109375 -0.125 C 4.75 -0.125 4.75 -0.515625 4.75 -0.671875 C 4.75 -0.9375 4.78125 -1.0625 4.90625 -1.5625 C 4.984375 -1.890625 5.078125 -2.203125 5.140625 -2.546875 L 5.640625 -4.484375 C 5.71875 -4.78125 5.71875 -4.8125 5.71875 -4.84375 C 5.71875 -5.03125 5.578125 -5.140625 5.390625 -5.140625 C 5.046875 -5.140625 4.96875 -4.84375 4.890625 -4.546875 C 4.78125 -4.078125 4.125 -1.515625 4.046875 -1.09375 C 4.03125 -1.09375 3.5625 -0.125 2.703125 -0.125 C 2.078125 -0.125 1.953125 -0.65625 1.953125 -1.09375 C 1.953125 -1.78125 2.296875 -2.734375 2.609375 -3.53125 C 2.75 -3.921875 2.8125 -4.078125 2.8125 -4.3125 C 2.8125 -4.828125 2.4375 -5.265625 1.859375 -5.265625 C 0.765625 -5.265625 0.328125 -3.53125 0.328125 -3.4375 C 0.328125 -3.390625 0.375 -3.328125 0.453125 -3.328125 C 0.5625 -3.328125 0.578125 -3.375 0.625 -3.546875 C 0.90625 -4.578125 1.375 -5.03125 1.828125 -5.03125 C 1.953125 -5.03125 2.140625 -5.015625 2.140625 -4.625 C 2.140625 -4.328125 2 -3.96875 1.828125 -3.515625 C 1.296875 -2.09375 1.234375 -1.640625 1.234375 -1.296875 C 1.234375 -0.078125 2.15625 0.125 2.65625 0.125 C 3.421875 0.125 3.828125 -0.40625 4.078125 -0.6875 Z M 4.078125 -0.6875 "/>
</symbol>
<symbol overflow="visible" id="glyph0-5">
<path style="stroke:none;" d="M 5.453125 -4.46875 C 5.453125 -5.21875 5.078125 -5.265625 4.984375 -5.265625 C 4.6875 -5.265625 4.421875 -4.984375 4.421875 -4.734375 C 4.421875 -4.59375 4.515625 -4.515625 4.5625 -4.46875 C 4.671875 -4.359375 4.984375 -4.03125 4.984375 -3.421875 C 4.984375 -2.90625 4.28125 -0.125 2.84375 -0.125 C 2.109375 -0.125 1.96875 -0.734375 1.96875 -1.171875 C 1.96875 -1.765625 2.25 -2.609375 2.5625 -3.46875 C 2.75 -3.953125 2.8125 -4.078125 2.8125 -4.3125 C 2.8125 -4.8125 2.453125 -5.265625 1.859375 -5.265625 C 0.765625 -5.265625 0.328125 -3.53125 0.328125 -3.4375 C 0.328125 -3.390625 0.375 -3.328125 0.453125 -3.328125 C 0.5625 -3.328125 0.578125 -3.375 0.625 -3.546875 C 0.90625 -4.578125 1.375 -5.03125 1.828125 -5.03125 C 1.9375 -5.03125 2.140625 -5.03125 2.140625 -4.625 C 2.140625 -4.328125 2 -3.96875 1.828125 -3.515625 C 1.25 -2 1.25 -1.625 1.25 -1.34375 C 1.25 -1.078125 1.296875 -0.578125 1.65625 -0.25 C 2.09375 0.125 2.6875 0.125 2.796875 0.125 C 4.78125 0.125 5.453125 -3.78125 5.453125 -4.46875 Z M 5.453125 -4.46875 "/>
</symbol>
<symbol overflow="visible" id="glyph0-6">
<path style="stroke:none;" d="M 5.65625 -4.875 C 5.28125 -4.796875 5.140625 -4.515625 5.140625 -4.28125 C 5.140625 -4 5.359375 -3.90625 5.53125 -3.90625 C 5.890625 -3.90625 6.140625 -4.21875 6.140625 -4.53125 C 6.140625 -5.03125 5.5625 -5.265625 5.0625 -5.265625 C 4.328125 -5.265625 3.921875 -4.546875 3.8125 -4.328125 C 3.546875 -5.21875 2.8125 -5.265625 2.59375 -5.265625 C 1.375 -5.265625 0.734375 -3.703125 0.734375 -3.4375 C 0.734375 -3.390625 0.78125 -3.328125 0.859375 -3.328125 C 0.953125 -3.328125 0.984375 -3.40625 1 -3.453125 C 1.40625 -4.78125 2.203125 -5.03125 2.546875 -5.03125 C 3.09375 -5.03125 3.203125 -4.53125 3.203125 -4.234375 C 3.203125 -3.96875 3.125 -3.703125 2.984375 -3.125 L 2.578125 -1.5 C 2.40625 -0.78125 2.046875 -0.125 1.421875 -0.125 C 1.359375 -0.125 1.0625 -0.125 0.8125 -0.28125 C 1.234375 -0.359375 1.34375 -0.71875 1.34375 -0.859375 C 1.34375 -1.09375 1.15625 -1.234375 0.9375 -1.234375 C 0.640625 -1.234375 0.328125 -0.984375 0.328125 -0.609375 C 0.328125 -0.109375 0.890625 0.125 1.40625 0.125 C 1.984375 0.125 2.390625 -0.328125 2.640625 -0.828125 C 2.828125 -0.125 3.421875 0.125 3.875 0.125 C 5.078125 0.125 5.734375 -1.4375 5.734375 -1.703125 C 5.734375 -1.765625 5.6875 -1.8125 5.609375 -1.8125 C 5.5 -1.8125 5.484375 -1.75 5.453125 -1.65625 C 5.140625 -0.609375 4.4375 -0.125 3.90625 -0.125 C 3.484375 -0.125 3.265625 -0.4375 3.265625 -0.921875 C 3.265625 -1.1875 3.3125 -1.375 3.5 -2.15625 L 3.921875 -3.78125 C 4.09375 -4.5 4.5 -5.03125 5.046875 -5.03125 C 5.078125 -5.03125 5.40625 -5.03125 5.65625 -4.875 Z M 5.65625 -4.875 "/>
</symbol>
<symbol overflow="visible" id="glyph0-7">
<path style="stroke:none;" d="M 3.140625 1.34375 C 2.8125 1.796875 2.359375 2.203125 1.765625 2.203125 C 1.625 2.203125 1.046875 2.171875 0.875 1.625 C 0.90625 1.640625 0.96875 1.640625 0.984375 1.640625 C 1.34375 1.640625 1.59375 1.328125 1.59375 1.046875 C 1.59375 0.78125 1.359375 0.6875 1.1875 0.6875 C 0.984375 0.6875 0.578125 0.828125 0.578125 1.40625 C 0.578125 2.015625 1.09375 2.4375 1.765625 2.4375 C 2.953125 2.4375 4.171875 1.34375 4.5 0.015625 L 5.671875 -4.640625 C 5.6875 -4.703125 5.703125 -4.78125 5.703125 -4.84375 C 5.703125 -5.03125 5.5625 -5.140625 5.390625 -5.140625 C 5.28125 -5.140625 5.03125 -5.09375 4.9375 -4.734375 L 4.046875 -1.234375 C 3.984375 -1.015625 3.984375 -0.984375 3.890625 -0.859375 C 3.65625 -0.53125 3.265625 -0.125 2.6875 -0.125 C 2.015625 -0.125 1.953125 -0.78125 1.953125 -1.09375 C 1.953125 -1.78125 2.28125 -2.703125 2.609375 -3.5625 C 2.734375 -3.90625 2.8125 -4.078125 2.8125 -4.3125 C 2.8125 -4.8125 2.453125 -5.265625 1.859375 -5.265625 C 0.765625 -5.265625 0.328125 -3.53125 0.328125 -3.4375 C 0.328125 -3.390625 0.375 -3.328125 0.453125 -3.328125 C 0.5625 -3.328125 0.578125 -3.375 0.625 -3.546875 C 0.90625 -4.546875 1.359375 -5.03125 1.828125 -5.03125 C 1.9375 -5.03125 2.140625 -5.03125 2.140625 -4.625 C 2.140625 -4.328125 2 -3.96875 1.828125 -3.515625 C 1.234375 -1.953125 1.234375 -1.5625 1.234375 -1.28125 C 1.234375 -0.140625 2.046875 0.125 2.65625 0.125 C 3 0.125 3.421875 0.015625 3.84375 -0.4375 L 3.859375 -0.421875 C 3.671875 0.28125 3.5625 0.75 3.140625 1.34375 Z M 3.140625 1.34375 "/>
</symbol>
<symbol overflow="visible" id="glyph0-8">
<path style="stroke:none;" d="M 1.515625 -0.96875 C 2.03125 -1.546875 2.453125 -1.921875 3.046875 -2.453125 C 3.765625 -3.078125 4.078125 -3.375 4.234375 -3.5625 C 5.078125 -4.375 5.484375 -5.078125 5.484375 -5.171875 C 5.484375 -5.265625 5.390625 -5.265625 5.375 -5.265625 C 5.28125 -5.265625 5.265625 -5.21875 5.203125 -5.140625 C 4.90625 -4.625 4.625 -4.375 4.3125 -4.375 C 4.0625 -4.375 3.921875 -4.484375 3.703125 -4.765625 C 3.453125 -5.0625 3.25 -5.265625 2.90625 -5.265625 C 2.03125 -5.265625 1.5 -4.171875 1.5 -3.921875 C 1.5 -3.890625 1.515625 -3.8125 1.625 -3.8125 C 1.71875 -3.8125 1.734375 -3.875 1.765625 -3.953125 C 1.96875 -4.421875 2.546875 -4.515625 2.765625 -4.515625 C 3.015625 -4.515625 3.265625 -4.421875 3.515625 -4.328125 C 3.96875 -4.125 4.15625 -4.125 4.28125 -4.125 C 4.359375 -4.125 4.40625 -4.125 4.46875 -4.140625 C 4.078125 -3.671875 3.421875 -3.109375 2.890625 -2.609375 L 1.6875 -1.5 C 0.953125 -0.765625 0.515625 -0.0625 0.515625 0.03125 C 0.515625 0.09375 0.578125 0.125 0.640625 0.125 C 0.71875 0.125 0.734375 0.109375 0.8125 -0.03125 C 1 -0.328125 1.390625 -0.78125 1.828125 -0.78125 C 2.078125 -0.78125 2.203125 -0.6875 2.4375 -0.390625 C 2.65625 -0.125 2.859375 0.125 3.25 0.125 C 4.421875 0.125 5.078125 -1.390625 5.078125 -1.671875 C 5.078125 -1.71875 5.078125 -1.796875 4.953125 -1.796875 C 4.859375 -1.796875 4.84375 -1.75 4.8125 -1.625 C 4.546875 -0.921875 3.84375 -0.625 3.375 -0.625 C 3.125 -0.625 2.890625 -0.71875 2.640625 -0.828125 C 2.15625 -1.015625 2.03125 -1.015625 1.875 -1.015625 C 1.75 -1.015625 1.625 -1.015625 1.515625 -0.96875 Z M 1.515625 -0.96875 "/>
</symbol>
<symbol overflow="visible" id="glyph1-0">
<path style="stroke:none;" d=""/>
</symbol>
<symbol overflow="visible" id="glyph1-1">
<path style="stroke:none;" d="M 2.15625 -1.109375 C 2.796875 -2.109375 3 -2.875 3.15625 -3.515625 C 3.5625 -5.15625 4.015625 -6.59375 4.765625 -7.40625 C 4.90625 -7.5625 5 -7.671875 5.390625 -7.671875 C 6.203125 -7.671875 6.234375 -6.859375 6.234375 -6.6875 C 6.234375 -6.46875 6.171875 -6.296875 6.171875 -6.25 C 6.171875 -6.15625 6.25 -6.15625 6.25 -6.15625 C 6.453125 -6.15625 6.765625 -6.296875 7.0625 -6.5 C 7.28125 -6.671875 7.390625 -6.796875 7.390625 -7.28125 C 7.390625 -7.921875 7.0625 -8.421875 6.390625 -8.421875 C 6 -8.421875 4.953125 -8.328125 3.78125 -7.140625 C 2.828125 -6.15625 2.265625 -4.015625 2.046875 -3.109375 C 1.828125 -2.296875 1.734375 -1.921875 1.375 -1.203125 C 1.296875 -1.0625 0.984375 -0.53125 0.8125 -0.375 C 0.484375 -0.078125 0.375 0.125 0.375 0.1875 C 0.375 0.21875 0.390625 0.265625 0.484375 0.265625 C 0.53125 0.265625 0.78125 0.21875 1.09375 0.015625 C 1.296875 -0.109375 1.3125 -0.125 1.59375 -0.421875 C 2.1875 -0.40625 2.609375 -0.296875 3.359375 -0.078125 C 3.96875 0.078125 4.578125 0.265625 5.1875 0.265625 C 6.140625 0.265625 7.125 -0.46875 7.515625 -0.984375 C 7.75 -1.3125 7.8125 -1.609375 7.8125 -1.640625 C 7.8125 -1.734375 7.75 -1.734375 7.734375 -1.734375 C 7.546875 -1.734375 7.265625 -1.59375 7.0625 -1.453125 C 6.734375 -1.25 6.703125 -1.1875 6.640625 -0.984375 C 6.578125 -0.78125 6.5 -0.6875 6.453125 -0.625 C 6.359375 -0.484375 6.34375 -0.484375 6.171875 -0.484375 C 5.59375 -0.484375 5 -0.65625 4.21875 -0.875 C 3.875 -0.96875 3.21875 -1.15625 2.625 -1.15625 C 2.46875 -1.15625 2.296875 -1.140625 2.15625 -1.109375 Z M 2.15625 -1.109375 "/>
</symbol>
<symbol overflow="visible" id="glyph2-0">
<path style="stroke:none;" d=""/>
</symbol>
<symbol overflow="visible" id="glyph2-1">
<path style="stroke:none;" d="M 3.890625 -2.546875 C 3.890625 -3.390625 3.8125 -3.90625 3.546875 -4.421875 C 3.203125 -5.125 2.546875 -5.296875 2.109375 -5.296875 C 1.109375 -5.296875 0.734375 -4.546875 0.625 -4.328125 C 0.34375 -3.75 0.328125 -2.953125 0.328125 -2.546875 C 0.328125 -2.015625 0.34375 -1.21875 0.734375 -0.578125 C 1.09375 0.015625 1.6875 0.171875 2.109375 0.171875 C 2.5 0.171875 3.171875 0.046875 3.578125 -0.734375 C 3.875 -1.3125 3.890625 -2.03125 3.890625 -2.546875 Z M 2.109375 -0.0625 C 1.84375 -0.0625 1.296875 -0.1875 1.125 -1.015625 C 1.03125 -1.46875 1.03125 -2.21875 1.03125 -2.640625 C 1.03125 -3.1875 1.03125 -3.75 1.125 -4.1875 C 1.296875 -5 1.90625 -5.078125 2.109375 -5.078125 C 2.375 -5.078125 2.9375 -4.9375 3.09375 -4.21875 C 3.1875 -3.78125 3.1875 -3.171875 3.1875 -2.640625 C 3.1875 -2.171875 3.1875 -1.453125 3.09375 -1 C 2.921875 -0.171875 2.375 -0.0625 2.109375 -0.0625 Z M 2.109375 -0.0625 "/>
</symbol>
</g>
</defs>
<g id="surface1">
<path style="fill:none;stroke-width:0.3985;stroke-linecap:butt;stroke-linejoin:miter;stroke:rgb(0%,0%,0%);stroke-opacity:1;stroke-miterlimit:10;" d="M 51.071324 49.693902 L -49.871133 -15.718874 " transform="matrix(0.998945,0,0,-0.998945,71.791162,152.305526)"/>
<path style=" stroke:none;fill-rule:nonzero;fill:rgb(0%,0%,0%);fill-opacity:1;" d="M 20.300781 169.089844 L 23.839844 168.695312 L 21.972656 168.007812 L 22.109375 166.019531 "/>
<path style="fill:none;stroke-width:0.3985;stroke-linecap:butt;stroke-linejoin:miter;stroke:rgb(0%,0%,0%);stroke-opacity:1;stroke-miterlimit:10;" d="M -51.306241 18.821481 L 87.144547 12.381091 " transform="matrix(0.998945,0,0,-0.998945,71.791162,152.305526)"/>
<path style=" stroke:none;fill-rule:nonzero;fill:rgb(0%,0%,0%);fill-opacity:1;" d="M 160.832031 140.027344 L 157.722656 138.289062 L 158.84375 139.9375 L 157.578125 141.472656 "/>
<path style="fill:none;stroke-width:0.3985;stroke-linecap:butt;stroke-linejoin:miter;stroke:rgb(0%,0%,0%);stroke-opacity:1;stroke-miterlimit:10;" d="M -0.236725 -35.62269 L -0.236725 131.604557 " transform="matrix(0.998945,0,0,-0.998945,71.791162,152.305526)"/>
<path style=" stroke:none;fill-rule:nonzero;fill:rgb(0%,0%,0%);fill-opacity:1;" d="M 71.554688 18.851562 L 69.960938 22.035156 L 71.554688 20.839844 L 73.148438 22.035156 "/>
<g style="fill:rgb(0%,0%,0%);fill-opacity:1;">
  <use xlink:href="#glyph0-1" x="58.196523" y="148.134931"/>
</g>
<path style="fill:none;stroke-width:0.79701;stroke-linecap:round;stroke-linejoin:miter;stroke:rgb(0%,65.098572%,83.921814%);stroke-opacity:1;stroke-miterlimit:10;" d="M -39.45389 34.799279 L 57.67204 96.602778 " transform="matrix(0.998945,0,0,-0.998945,71.791162,152.305526)"/>
<g style="fill:rgb(0%,65.098572%,83.921814%);fill-opacity:1;">
  <use xlink:href="#glyph1-1" x="133.698766" y="51.509003"/>
</g>
<path style="fill:none;stroke-width:1.19553;stroke-linecap:round;stroke-linejoin:miter;stroke:rgb(0%,63.920593%,56.469727%);stroke-opacity:1;stroke-miterlimit:10;" d="M -15.170452 50.253086 L 30.702173 79.440136 " transform="matrix(0.998945,0,0,-0.998945,71.791162,152.305526)"/>
<path style=" stroke:none;fill-rule:nonzero;fill:rgb(0%,63.920593%,56.469727%);fill-opacity:1;" d="M 105.148438 71.238281 L 99.480469 71.824219 L 102.460938 72.949219 L 102.214844 76.121094 "/>
<g style="fill:rgb(0%,63.920593%,56.469727%);fill-opacity:1;">
  <use xlink:href="#glyph0-2" x="99.022396" y="66.74391"/>
</g>
<g style="fill:rgb(0%,63.920593%,56.469727%);fill-opacity:1;">
  <use xlink:href="#glyph0-3" x="104.424027" y="66.74391"/>
</g>
<g style="fill:rgb(0%,63.920593%,56.469727%);fill-opacity:1;">
  <use xlink:href="#glyph0-4" x="104.622274" y="66.74391"/>
</g>
<path style="fill:none;stroke-width:1.19553;stroke-linecap:round;stroke-linejoin:miter;stroke:rgb(0%,39.99939%,63.526917%);stroke-opacity:1;stroke-dasharray:2.98883,2.98883;stroke-miterlimit:10;" d="M -15.170452 50.253086 L 6.418736 63.990239 " transform="matrix(0.998945,0,0,-0.998945,71.791162,152.305526)"/>
<path style=" stroke:none;fill-rule:nonzero;fill:rgb(0%,39.99939%,63.526917%);fill-opacity:1;" d="M 80.890625 86.671875 L 75.226562 87.257812 L 78.203125 88.382812 L 77.960938 91.558594 "/>
<g style="fill:rgb(0%,39.99939%,63.526917%);fill-opacity:1;">
  <use xlink:href="#glyph0-3" x="77.374265" y="82.178605"/>
</g>
<g style="fill:rgb(0%,39.99939%,63.526917%);fill-opacity:1;">
  <use xlink:href="#glyph0-4" x="77.560569" y="82.178605"/>
</g>
<path style="fill:none;stroke-width:1.19553;stroke-linecap:round;stroke-linejoin:miter;stroke:rgb(76.470947%,19.216919%,18.429565%);stroke-opacity:1;stroke-miterlimit:10;" d="M -0.236725 16.443972 L -13.883938 47.335945 " transform="matrix(0.998945,0,0,-0.998945,71.791162,152.305526)"/>
<path style=" stroke:none;fill-rule:nonzero;fill:rgb(76.470947%,19.216919%,18.429565%);fill-opacity:1;" d="M 56.636719 102.105469 L 56.363281 107.796875 L 57.921875 105.019531 L 61.023438 105.738281 "/>
<g style="fill:rgb(76.470947%,19.216919%,18.429565%);fill-opacity:1;">
  <use xlink:href="#glyph0-3" x="50.969158" y="95.821193"/>
</g>
<g style="fill:rgb(76.470947%,19.216919%,18.429565%);fill-opacity:1;">
  <use xlink:href="#glyph0-5" x="51.442084" y="95.821193"/>
</g>
<g style="fill:rgb(76.470947%,19.216919%,18.429565%);fill-opacity:1;">
  <use xlink:href="#glyph2-1" x="57.098683" y="97.6133"/>
</g>
<path style="fill:none;stroke-width:1.19553;stroke-linecap:round;stroke-linejoin:miter;stroke:rgb(94.509888%,74.508667%,24.31488%);stroke-opacity:1;stroke-miterlimit:10;" d="M -0.236725 16.443972 L 31.922211 78.325679 " transform="matrix(0.998945,0,0,-0.998945,71.791162,152.305526)"/>
<path style=" stroke:none;fill-rule:nonzero;fill:rgb(94.509888%,74.508667%,24.31488%);fill-opacity:1;" d="M 105.148438 71.238281 L 100.539062 74.585938 L 103.679688 74.0625 L 105.058594 76.933594 "/>
<g style="fill:rgb(94.509888%,74.508667%,24.31488%);fill-opacity:1;">
  <use xlink:href="#glyph0-3" x="109.165681" y="84.245422"/>
</g>
<g style="fill:rgb(94.509888%,74.508667%,24.31488%);fill-opacity:1;">
  <use xlink:href="#glyph0-5" x="109.638608" y="84.245422"/>
</g>
<g style="fill:rgb(0%,0%,0%);fill-opacity:1;">
  <use xlink:href="#glyph0-6" x="9.5609" y="171.659081"/>
</g>
<g style="fill:rgb(0%,0%,0%);fill-opacity:1;">
  <use xlink:href="#glyph0-7" x="164.926777" y="141.438006"/>
</g>
<g style="fill:rgb(0%,0%,0%);fill-opacity:1;">
  <use xlink:href="#glyph0-8" x="68.571564" y="14.755828"/>
</g>
</g>
</svg>
