<svg xmlns="http://www.w3.org/2000/svg" xmlns:xlink="http://www.w3.org/1999/xlink" width="283.647" height="189.08" viewBox="0 0 212.735 141.81"><path stroke-width=".797" stroke-linecap="round" stroke-linejoin="round" fill="none" stroke="#000" d="m96.208 102.873-2.331-6.994 6.993-2.33"/><path stroke-width=".797" stroke-linecap="round" stroke-miterlimit="10" fill="none" stroke="#00a6d6" d="m6.068 132.92 7.69-2.564 7.69-2.563 7.69-2.563 7.69-2.563 7.689-2.564 7.69-2.563 7.69-2.563 7.689-2.563 7.69-2.563 7.69-2.564 7.689-2.563 7.69-2.563 7.69-2.563 7.689-2.563 7.69-2.564 7.69-2.563 7.69-2.563 7.689-2.564 7.69-2.563 7.69-2.563 7.689-2.563 7.69-2.563 7.69-2.563 7.689-2.564"/><symbol id="a"><path d="M.149.115a.602.602 0 0 1 .084.201c.035.138.073.258.135.327.012.013.02.022.052.022.069 0 .071-.069.071-.083C.491.564.486.55.486.545c0-.007.006-.007.007-.007.016 0 .043.011.068.029.018.014.027.024.027.065C.588.686.56.727.504.727.472.727.384.719.286.62.206.538.159.358.14.283.122.214.114.183.084.123A.445.445 0 0 0 .037.054C.01.029 0 .011 0 .006 0 .004.002 0 .009 0 .013 0 .034.004.06.021c.017.01.019.012.042.036A.529.529 0 0 0 .25.029C.301.015.352 0 .403 0c.081 0 .163.061.195.105.02.027.026.052.026.055 0 .007-.006.007-.007.007A.119.119 0 0 1 .56.144C.533.127.531.121.525.104.52.088.514.08.51.074.502.062.501.062.486.062.438.062.388.077.322.095.294.103.239.119.189.119a.181.181 0 0 1-.04-.004z"/></symbol><use xlink:href="#a" transform="matrix(11.9552 0 0 -11.9552 195.289 75.751)" fill="#00a6d6"/><path stroke-width="1.196" stroke-linecap="round" stroke-dasharray="2.98883,2.98883" stroke-miterlimit="10" fill="none" stroke="#ed6842" d="m103.201 100.542-9.713-29.14"/><path stroke-width="1.594" stroke-linecap="round" stroke-miterlimit="10" fill="none" stroke="#ed6842" d="m93.488 71.402-18.23-54.688"/><path d="m74.061 13.122-.957 6.704 2.155-3.112 3.59 1.197" fill="#ed6842"/><symbol id="b"><path d="M.697.382c.007.017.01.024.068.024v.043C.736.447.723.447.687.447c-.041 0-.054 0-.09.002V.406c.009 0 .058 0 .058-.013L.651.381.546.121.431.406h.057v.043C.464.447.405.447.378.447c-.051 0-.053 0-.103.002V.406h.059a.624.624 0 0 1 .012-.03.189.189 0 0 0 .013-.035L.355.329.279.14.171.406h.057v.043C.205.447.137.447.11.447c-.032 0-.08 0-.11.002V.406h.059L.212.025C.219.007.223 0 .245 0c.011 0 .023 0 .031.02l.106.265.106-.263C.497 0 .508 0 .52 0c.022 0 .025.006.032.024l.145.358z"/></symbol><use xlink:href="#b" transform="matrix(11.9552 0 0 -11.9552 88.747 44.914)" fill="#ed6842"/><symbol id="c"><path d="M.229.204c.016.015.058.048.074.062.062.057.121.112.121.203 0 .119-.1.196-.225.196C.079.665 0 .574 0 .485 0 .436.039.429.053.429c.021 0 .052.015.052.053 0 .052-.05.052-.062.052a.155.155 0 0 0 .145.098C.281.632.329.553.329.469.329.365.256.289.138.168L.012.038C0 .027 0 .025 0 0h.395l.029.179H.393A.316.316 0 0 0 .37.09C.364.082.288.082.272.082H.094l.135.122z"/></symbol><use xlink:href="#c" transform="matrix(7.9701 0 0 -7.9701 98.607 46.647)" fill="#ed6842"/><symbol id="d"><path d="M.576 0c.017 0 .035 0 .035.02S.593.04.576.04H.035C.018.04 0 .04 0 .02S.018 0 .035 0h.541z"/></symbol><use xlink:href="#d" transform="matrix(11.9552 0 0 -11.9552 106.566 42.104)" fill="#ed6842"/><use xlink:href="#b" transform="matrix(11.9552 0 0 -11.9552 117.804 44.914)" fill="#ed6842"/><symbol id="e"><path d="M.218.637c0 .027-.002.028-.029.028C.148.625.095.601 0 .601V.568c.027 0 .081 0 .139.027V.082C.139.045.136.033.041.033H.006V0c.041.003.127.003.172.003C.223.003.31.003.351 0v.033H.316C.221.033.218.045.218.082v.555z"/></symbol><use xlink:href="#e" transform="matrix(7.9701 0 0 -7.9701 128.008 46.647)" fill="#ed6842"/><path stroke-width="1.594" stroke-linecap="round" stroke-miterlimit="10" fill="none" stroke="#009b77" d="m44.922 119.968 45.89-45.89"/><path d="m93.488 71.402-6.425 2.142 3.748.535.535 3.748" fill="#009b77"/><use xlink:href="#b" transform="matrix(11.9552 0 0 -11.9552 98.46 73.223)" fill="#009b77"/><use xlink:href="#e" transform="matrix(7.9701 0 0 -7.9701 108.664 74.956)" fill="#009b77"/><path stroke-width="1.594" stroke-linecap="round" stroke-miterlimit="10" fill="none" stroke="#009b77" d="M44.922 119.968 73.065 16.774"/><path d="m74.061 13.122-4.515 5.047 3.52-1.395 2.324 2.989" fill="#009b77"/><use xlink:href="#b" transform="matrix(11.9552 0 0 -11.9552 79.034 14.944)" fill="#009b77"/><use xlink:href="#c" transform="matrix(7.9701 0 0 -7.9701 88.894 16.677)" fill="#009b77"/><path stroke-width="1.594" stroke-linecap="round" stroke-miterlimit="10" fill="none" stroke="#a50034" d="m44.922 119.968 2.428-.809 2.428-.81 2.428-.809 2.429-.81 2.428-.809 2.428-.81 2.429-.809 2.428-.809 2.428-.81 2.429-.809 2.428-.81 2.428-.809 2.429-.81 2.428-.809 2.428-.809 2.429-.81 2.428-.809 2.428-.81 2.429-.809 2.428-.81 2.428-.809 2.429-.809 2.428-.81-1.163.388"/><path d="m103.201 100.542-6.704-.958 3.113 2.155-1.197 3.591" fill="#a50034"/><symbol id="f"><path d="M.217.029c-.064 0-.076 0-.076.045v.174A.152.152 0 0 1 .264.184C.379.184.48.281.48.41.48.537.386.635.277.635.189.635.142.572.139.568v.067L0 .624V.595C.07.595.076.588.076.544v-.47C.076.029.065.029 0 .029V0c.026.002.08.002.108.002.029 0 .083 0 .109-.002v.029M.141.513c0 .019 0 .02.011.036.03.045.079.064.117.064C.344.613.404.522.404.41.404.291.336.204.259.204a.118.118 0 0 0-.08.032C.156.259.141.279.141.307v.206z"/></symbol><symbol id="g"><path d="M.139.233c0 .097.04.188.117.188L.27.42C.262.416.246.41.246.383c0-.029.023-.04.039-.04.02 0 .04.013.04.04 0 .03-.027.058-.07.058C.17.441.141.349.135.33H.134v.111L0 .43V.401C.068.401.076.394.076.345V.074C.076.029.065.029 0 .029V0c.028.002.083.002.113.002C.14.002.211.002.234 0v.029h-.02C.141.029.139.04.139.076v.157z"/></symbol><symbol id="h"><path d="M.429.224c0 .129-.098.232-.214.232C.095.456 0 .35 0 .224 0 .096.1 0 .214 0c.118 0 .215.098.215.224M.215.022a.127.127 0 0 0-.111.065.288.288 0 0 0-.028.146c0 .038 0 .099.031.144a.128.128 0 0 0 .215.002C.353.333.353.27.353.233c0-.035 0-.097-.026-.144A.13.13 0 0 0 .215.022z"/></symbol><symbol id="i"><path d="M.237.82A.048.048 0 1 1 .188.772c.03 0 .049.024.049.048M.09.634V.605C.165.605.174.598.174.549v-.4C.174.094.163.02.105.02.103.02.072.02.049.034c.026.005.034.024.034.041a.04.04 0 0 1-.041.041A.04.04 0 0 1 0 .074C0 .026.054 0 .106 0c.072 0 .131.062.131.153v.492L.09.634z"/></symbol><use xlink:href="#f" transform="matrix(11.9552 0 0 -11.9552 103.252 111.545)" fill="#a50034"/><use xlink:href="#g" transform="matrix(11.9552 0 0 -11.9552 109.755 109.226)" fill="#a50034"/><use xlink:href="#h" transform="matrix(11.9552 0 0 -11.9552 114.334 109.346)" fill="#a50034"/><use xlink:href="#i" transform="matrix(11.9552 0 0 -11.9552 120.073 111.665)" fill="#a50034"/><symbol id="j"><path d="M.513.376c.008.016.011.021.073.021v.052C.548.446.546.446.503.446c-.007 0-.06 0-.09.003V.397C.439.397.446.394.456.389L.45.376.327.129.192.397H.24v.052C.179.446.168.446.117.446c-.032 0-.074 0-.117.003V.397h.063L.248.028C.257.011.262 0 .293 0c.016 0 .032 0 .046.028l.174.348z"/></symbol><use xlink:href="#j" transform="matrix(7.9701 0 0 -7.9701 124.292 112.089)" fill="#a50034"/><symbol id="k"><path d="M.227.008c0 .003 0 .005-.017.022C.11.131.054.296.054.5c0 .194.047.361.163.479.01.009.01.011.01.014 0 .006-.005.008-.009.008a.42.42 0 0 1-.144-.17A.713.713 0 0 1 0 .5C0 .411.014.292.066.185A.426.426 0 0 1 .218 0c.004 0 .009.002.009.008z"/></symbol><use xlink:href="#k" transform="matrix(11.9552 0 0 -11.9552 131.01 112.227)" fill="#a50034"/><use xlink:href="#b" transform="matrix(11.9552 0 0 -11.9552 134.667 109.286)" fill="#a50034"/><symbol id="l"><path d="M.268.634c0 .022-.016.038-.039.038C.203.672.174.648.174.618.174.596.19.58.213.58c.026 0 .055.024.055.054M.122.267.068.129C.063.114.058.102.058.085.058.036.096 0 .149 0c.097 0 .138.14.138.153 0 .01-.008.013-.015.013C.26.166.258.159.255.149.232.069.191.028.151.028.139.028.127.033.127.06c0 .024.007.042.02.073l.031.081.031.081A.263.263 0 0 1 .23.366c0 .05-.04.085-.091.085C.042.451 0 .311 0 .298 0 .289.007.285.015.285c.013 0 .014.006.017.016.028.095.074.122.104.122C.15.423.16.418.16.39A.16.16 0 0 0 .149.336L.122.267z"/></symbol><use xlink:href="#l" transform="matrix(7.9701 0 0 -7.9701 144.344 111.1)" fill="#a50034"/><symbol id="m"><path d="M.227.5c0 .076-.01.2-.066.316a.426.426 0 0 1-.152.185C.005 1.001 0 .999 0 .993 0 .99 0 .988.017.971.117.87.173.705.173.501.173.307.126.14.01.022 0 .013 0 .011 0 .008 0 .002.005 0 .009 0a.42.42 0 0 1 .144.17.72.72 0 0 1 .074.33z"/></symbol><use xlink:href="#m" transform="matrix(11.9552 0 0 -11.9552 148.145 112.227)" fill="#a50034"/><path stroke-width="1.594" stroke-linecap="round" stroke-miterlimit="10" fill="none" stroke="#0076c2" d="m44.922 119.968.809-.27.81-.27.809-.269.81-.27.809-.27.81-.27.808-.27.81-.269.81-.27.809-.27.81-.27.809-.27.81-.269.809-.27.809-.27.81-.27.809-.27.81-.269.809-.27.81-.27.809-.27.809-.27.81-.27-2.783.928"/><path d="m64.348 113.493-6.704-.958 3.112 2.155-1.197 3.592" fill="#0076c2"/><symbol id="n"><path d="M.471.383c.007.015.011.023.074.023v.043C.509.447.507.447.466.447L.38.449V.406C.407.406.429.401.429.394L.424.382.307.125.178.406h.055v.043C.21.447.14.447.113.447c-.029 0-.087 0-.113.002V.406h.063L.239.024C.248.005.25 0 .273 0c.016 0 .024.002.033.022l.165.361z"/></symbol><use xlink:href="#n" transform="matrix(11.9552 0 0 -11.9552 60.99 123.566)" fill="#0076c2"/><symbol id="o"><path d="M.678.459C.678.624.57.725.43.725.216.725 0 .495 0 .264 0 .107.104 0 .249 0c.21 0 .429.219.429.459M.255.023c-.082 0-.169.06-.169.216 0 .091.033.24.115.34.073.088.157.124.224.124.088 0 .173-.064.173-.208A.631.631 0 0 0 .493.172C.42.07.329.023.255.023z"/></symbol><use xlink:href="#o" transform="matrix(11.9552 0 0 -11.9552 32.123 132.49)"/></svg>