<?xml version="1.0" encoding="UTF-8"?>
<svg xmlns="http://www.w3.org/2000/svg" xmlns:xlink="http://www.w3.org/1999/xlink" width="201.75pt" height="194.359pt" viewBox="0 0 201.75 194.359" version="1.2">
<defs>
<g>
<symbol overflow="visible" id="glyph0-0">
<path style="stroke:none;" d=""/>
</symbol>
<symbol overflow="visible" id="glyph0-1">
<path style="stroke:none;" d="M 3.4375 -7.640625 C 3.4375 -7.921875 3.4375 -7.921875 3.1875 -7.921875 C 2.90625 -7.609375 2.3125 -7.171875 1.078125 -7.171875 L 1.078125 -6.8125 C 1.359375 -6.8125 1.953125 -6.8125 2.609375 -7.125 L 2.609375 -0.921875 C 2.609375 -0.484375 2.578125 -0.34375 1.53125 -0.34375 L 1.15625 -0.34375 L 1.15625 0 C 1.484375 -0.03125 2.640625 -0.03125 3.03125 -0.03125 C 3.421875 -0.03125 4.5625 -0.03125 4.890625 0 L 4.890625 -0.34375 L 4.515625 -0.34375 C 3.46875 -0.34375 3.4375 -0.484375 3.4375 -0.921875 Z M 3.4375 -7.640625 "/>
</symbol>
<symbol overflow="visible" id="glyph0-2">
<path style="stroke:none;" d="M 4.3125 -4.40625 C 4.171875 -4.40625 3.734375 -4.40625 3.734375 -3.921875 C 3.734375 -3.640625 3.9375 -3.4375 4.21875 -3.4375 C 4.5 -3.4375 4.71875 -3.59375 4.71875 -3.953125 C 4.71875 -4.75 3.890625 -5.3125 2.921875 -5.3125 C 1.53125 -5.3125 0.421875 -4.078125 0.421875 -2.578125 C 0.421875 -1.046875 1.5625 0.125 2.90625 0.125 C 4.484375 0.125 4.84375 -1.3125 4.84375 -1.421875 C 4.84375 -1.53125 4.75 -1.53125 4.71875 -1.53125 C 4.609375 -1.53125 4.609375 -1.484375 4.5625 -1.34375 C 4.296875 -0.5 3.65625 -0.140625 3.015625 -0.140625 C 2.28125 -0.140625 1.328125 -0.78125 1.328125 -2.59375 C 1.328125 -4.5625 2.34375 -5.0625 2.9375 -5.0625 C 3.390625 -5.0625 4.046875 -4.875 4.3125 -4.40625 Z M 4.3125 -4.40625 "/>
</symbol>
<symbol overflow="visible" id="glyph0-3">
<path style="stroke:none;" d="M 5.46875 -2.546875 C 5.46875 -4.09375 4.296875 -5.3125 2.921875 -5.3125 C 1.484375 -5.3125 0.359375 -4.046875 0.359375 -2.546875 C 0.359375 -1.03125 1.546875 0.125 2.90625 0.125 C 4.3125 0.125 5.46875 -1.046875 5.46875 -2.546875 Z M 2.921875 -0.140625 C 2.484375 -0.140625 1.9375 -0.328125 1.59375 -0.921875 C 1.28125 -1.453125 1.265625 -2.15625 1.265625 -2.65625 C 1.265625 -3.109375 1.265625 -3.84375 1.640625 -4.375 C 1.96875 -4.890625 2.484375 -5.078125 2.90625 -5.078125 C 3.375 -5.078125 3.875 -4.859375 4.203125 -4.40625 C 4.5625 -3.84375 4.5625 -3.09375 4.5625 -2.65625 C 4.5625 -2.234375 4.5625 -1.5 4.25 -0.9375 C 3.921875 -0.375 3.375 -0.140625 2.921875 -0.140625 Z M 2.921875 -0.140625 "/>
</symbol>
<symbol overflow="visible" id="glyph0-4">
<path style="stroke:none;" d="M 3.90625 -5.046875 C 3.90625 -5.25 3.90625 -5.3125 3.796875 -5.3125 C 3.703125 -5.3125 3.46875 -5.0625 3.390625 -4.953125 C 3.015625 -5.25 2.640625 -5.3125 2.265625 -5.3125 C 0.828125 -5.3125 0.390625 -4.53125 0.390625 -3.875 C 0.390625 -3.75 0.390625 -3.328125 0.84375 -2.90625 C 1.234375 -2.578125 1.640625 -2.484375 2.1875 -2.390625 C 2.84375 -2.25 3 -2.21875 3.296875 -1.984375 C 3.5 -1.796875 3.65625 -1.53125 3.65625 -1.203125 C 3.65625 -0.6875 3.359375 -0.125 2.3125 -0.125 C 1.53125 -0.125 0.953125 -0.578125 0.6875 -1.765625 C 0.640625 -1.984375 0.640625 -1.984375 0.625 -2 C 0.609375 -2.046875 0.5625 -2.046875 0.53125 -2.046875 C 0.390625 -2.046875 0.390625 -1.984375 0.390625 -1.78125 L 0.390625 -0.15625 C 0.390625 0.0625 0.390625 0.125 0.515625 0.125 C 0.578125 0.125 0.578125 0.109375 0.78125 -0.140625 C 0.84375 -0.21875 0.84375 -0.25 1.03125 -0.4375 C 1.484375 0.125 2.125 0.125 2.328125 0.125 C 3.578125 0.125 4.203125 -0.578125 4.203125 -1.515625 C 4.203125 -2.15625 3.796875 -2.546875 3.703125 -2.640625 C 3.265625 -3.015625 2.9375 -3.09375 2.15625 -3.234375 C 1.796875 -3.296875 0.9375 -3.46875 0.9375 -4.1875 C 0.9375 -4.546875 1.1875 -5.109375 2.25 -5.109375 C 3.546875 -5.109375 3.625 -4 3.640625 -3.625 C 3.65625 -3.53125 3.75 -3.53125 3.78125 -3.53125 C 3.90625 -3.53125 3.90625 -3.59375 3.90625 -3.796875 Z M 3.90625 -5.046875 "/>
</symbol>
<symbol overflow="visible" id="glyph0-5">
<path style="stroke:none;" d="M 2.078125 -7.34375 C 2.078125 -7.65625 1.828125 -7.921875 1.484375 -7.921875 C 1.1875 -7.921875 0.921875 -7.671875 0.921875 -7.359375 C 0.921875 -7 1.203125 -6.765625 1.484375 -6.765625 C 1.859375 -6.765625 2.078125 -7.078125 2.078125 -7.34375 Z M 0.421875 -5.125 L 0.421875 -4.78125 C 1.1875 -4.78125 1.296875 -4.703125 1.296875 -4.125 L 1.296875 -0.875 C 1.296875 -0.34375 1.171875 -0.34375 0.390625 -0.34375 L 0.390625 0 C 0.734375 -0.03125 1.296875 -0.03125 1.640625 -0.03125 C 1.78125 -0.03125 2.46875 -0.03125 2.875 0 L 2.875 -0.34375 C 2.09375 -0.34375 2.046875 -0.40625 2.046875 -0.875 L 2.046875 -5.25 Z M 0.421875 -5.125 "/>
</symbol>
<symbol overflow="visible" id="glyph0-6">
<path style="stroke:none;" d="M 5.3125 -2.890625 C 5.3125 -4 5.3125 -4.34375 5.03125 -4.71875 C 4.6875 -5.1875 4.125 -5.25 3.71875 -5.25 C 2.5625 -5.25 2.109375 -4.265625 2.015625 -4.03125 L 2 -4.03125 L 2 -5.25 L 0.375 -5.125 L 0.375 -4.78125 C 1.1875 -4.78125 1.28125 -4.703125 1.28125 -4.109375 L 1.28125 -0.875 C 1.28125 -0.34375 1.15625 -0.34375 0.375 -0.34375 L 0.375 0 C 0.6875 -0.03125 1.328125 -0.03125 1.671875 -0.03125 C 2.015625 -0.03125 2.65625 -0.03125 2.96875 0 L 2.96875 -0.34375 C 2.203125 -0.34375 2.0625 -0.34375 2.0625 -0.875 L 2.0625 -3.09375 C 2.0625 -4.34375 2.890625 -5.015625 3.625 -5.015625 C 4.359375 -5.015625 4.53125 -4.40625 4.53125 -3.6875 L 4.53125 -0.875 C 4.53125 -0.34375 4.40625 -0.34375 3.625 -0.34375 L 3.625 0 C 3.9375 -0.03125 4.578125 -0.03125 4.90625 -0.03125 C 5.25 -0.03125 5.90625 -0.03125 6.21875 0 L 6.21875 -0.34375 C 5.609375 -0.34375 5.3125 -0.34375 5.3125 -0.703125 Z M 5.3125 -2.890625 "/>
</symbol>
<symbol overflow="visible" id="glyph1-0">
<path style="stroke:none;" d=""/>
</symbol>
<symbol overflow="visible" id="glyph1-1">
<path style="stroke:none;" d="M 7.859375 -2.734375 C 8.0625 -2.734375 8.28125 -2.734375 8.28125 -2.984375 C 8.28125 -3.21875 8.0625 -3.21875 7.859375 -3.21875 L 1.40625 -3.21875 C 1.203125 -3.21875 0.984375 -3.21875 0.984375 -2.984375 C 0.984375 -2.734375 1.203125 -2.734375 1.40625 -2.734375 Z M 7.859375 -2.734375 "/>
</symbol>
<symbol overflow="visible" id="glyph2-0">
<path style="stroke:none;" d=""/>
</symbol>
<symbol overflow="visible" id="glyph2-1">
<path style="stroke:none;" d="M 5.125 -8.171875 C 5.125 -8.28125 5.046875 -8.28125 5 -8.28125 C 4.90625 -8.28125 4.890625 -8.25 4.84375 -8.046875 L 4.203125 -5.484375 C 4.15625 -5.328125 4.15625 -5.3125 4.140625 -5.3125 C 4.125 -5.28125 4.046875 -5.265625 4.015625 -5.265625 C 2.0625 -5.109375 0.5625 -3.5 0.5625 -2 C 0.5625 -0.71875 1.546875 0.078125 2.796875 0.140625 C 2.6875 0.515625 2.609375 0.890625 2.515625 1.265625 C 2.34375 1.890625 2.25 2.28125 2.25 2.34375 C 2.25 2.359375 2.25 2.4375 2.375 2.4375 C 2.40625 2.4375 2.453125 2.4375 2.484375 2.390625 C 2.5 2.359375 2.578125 2.078125 2.625 1.921875 L 3.0625 0.140625 C 5.109375 0.03125 6.65625 -1.640625 6.65625 -3.140625 C 6.65625 -4.34375 5.75 -5.203125 4.421875 -5.28125 Z M 4.34375 -5.046875 C 5.140625 -5 5.921875 -4.546875 5.921875 -3.390625 C 5.921875 -2.03125 4.984375 -0.25 3.125 -0.109375 Z M 2.84375 -0.09375 C 2.265625 -0.125 1.28125 -0.4375 1.28125 -1.75 C 1.28125 -3.25 2.375 -4.921875 4.09375 -5.03125 Z M 2.84375 -0.09375 "/>
</symbol>
<symbol overflow="visible" id="glyph2-2">
<path style="stroke:none;" d="M 5.28125 -6 C 5.28125 -7.21875 4.90625 -8.390625 3.921875 -8.390625 C 2.25 -8.390625 0.484375 -4.90625 0.484375 -2.28125 C 0.484375 -1.734375 0.59375 0.125 1.84375 0.125 C 3.46875 0.125 5.28125 -3.296875 5.28125 -6 Z M 1.671875 -4.3125 C 1.84375 -5.015625 2.09375 -6.015625 2.578125 -6.859375 C 2.96875 -7.578125 3.390625 -8.15625 3.90625 -8.15625 C 4.296875 -8.15625 4.5625 -7.828125 4.5625 -6.671875 C 4.5625 -6.25 4.53125 -5.65625 4.1875 -4.3125 Z M 4.09375 -3.953125 C 3.796875 -2.796875 3.546875 -2.03125 3.125 -1.28125 C 2.78125 -0.671875 2.359375 -0.125 1.859375 -0.125 C 1.484375 -0.125 1.1875 -0.40625 1.1875 -1.578125 C 1.1875 -2.359375 1.390625 -3.171875 1.578125 -3.953125 Z M 4.09375 -3.953125 "/>
</symbol>
<symbol overflow="visible" id="glyph3-0">
<path style="stroke:none;" d=""/>
</symbol>
<symbol overflow="visible" id="glyph3-1">
<path style="stroke:none;" d="M 8.34375 28 C 8.34375 27.953125 8.328125 27.9375 8.296875 27.890625 C 7.859375 27.453125 7.0625 26.65625 6.265625 25.375 C 4.34375 22.296875 3.46875 18.421875 3.46875 13.828125 C 3.46875 10.625 3.90625 6.484375 5.859375 2.9375 C 6.8125 1.234375 7.78125 0.265625 8.3125 -0.265625 C 8.34375 -0.296875 8.34375 -0.328125 8.34375 -0.359375 C 8.34375 -0.484375 8.265625 -0.484375 8.09375 -0.484375 C 7.921875 -0.484375 7.90625 -0.484375 7.71875 -0.296875 C 3.734375 3.34375 2.484375 8.796875 2.484375 13.8125 C 2.484375 18.5 3.546875 23.21875 6.578125 26.78125 C 6.8125 27.0625 7.265625 27.546875 7.765625 27.984375 C 7.90625 28.125 7.921875 28.125 8.09375 28.125 C 8.265625 28.125 8.34375 28.125 8.34375 28 Z M 8.34375 28 "/>
</symbol>
<symbol overflow="visible" id="glyph3-2">
<path style="stroke:none;" d="M 6.28125 13.828125 C 6.28125 9.140625 5.203125 4.421875 2.1875 0.859375 C 1.9375 0.578125 1.484375 0.09375 1 -0.328125 C 0.859375 -0.484375 0.828125 -0.484375 0.671875 -0.484375 C 0.53125 -0.484375 0.421875 -0.484375 0.421875 -0.359375 C 0.421875 -0.3125 0.46875 -0.265625 0.484375 -0.234375 C 0.90625 0.1875 1.703125 0.984375 2.5 2.28125 C 4.421875 5.359375 5.296875 9.234375 5.296875 13.8125 C 5.296875 17.03125 4.859375 21.15625 2.890625 24.71875 C 1.953125 26.40625 0.96875 27.390625 0.46875 27.890625 C 0.4375 27.9375 0.421875 27.96875 0.421875 28 C 0.421875 28.125 0.53125 28.125 0.671875 28.125 C 0.828125 28.125 0.859375 28.125 1.03125 27.9375 C 5.03125 24.3125 6.28125 18.84375 6.28125 13.828125 Z M 6.28125 13.828125 "/>
</symbol>
</g>
</defs>
<g id="surface1">
<path style="fill:none;stroke-width:0.3985;stroke-linecap:butt;stroke-linejoin:miter;stroke:rgb(0%,0%,0%);stroke-opacity:1;stroke-miterlimit:10;" d="M 0.00188728 88.767664 L 175.543769 88.767664 " transform="matrix(0.996713,0,0,-0.996713,6.056713,187.8704)"/>
<path style=" stroke:none;fill-rule:nonzero;fill:rgb(0%,0%,0%);fill-opacity:1;" d="M 183.007813 99.394531 L 179.832031 97.804688 L 181.023438 99.394531 L 179.832031 100.984375 "/>
<path style="fill:none;stroke-width:0.3985;stroke-linecap:butt;stroke-linejoin:miter;stroke:rgb(0%,0%,0%);stroke-opacity:1;stroke-miterlimit:10;" d="M 88.766328 -0.000696501 L 88.766328 175.541185 " transform="matrix(0.996713,0,0,-0.996713,6.056713,187.8704)"/>
<path style=" stroke:none;fill-rule:nonzero;fill:rgb(0%,0%,0%);fill-opacity:1;" d="M 94.53125 10.917969 L 92.945313 14.097656 L 94.53125 12.90625 L 96.121094 14.097656 "/>
<path style="fill:none;stroke-width:0.3985;stroke-linecap:round;stroke-linejoin:miter;stroke:rgb(50%,50%,50%);stroke-opacity:1;stroke-miterlimit:10;" d="M 147.945235 88.767664 C 147.945235 88.767664 147.941316 89.512299 147.937397 89.802315 C 147.933477 90.088411 147.917801 90.54695 147.909963 90.833047 C 147.898205 91.119143 147.87861 91.577682 147.862933 91.863779 C 147.851176 92.149875 147.819823 92.608414 147.800227 92.89451 C 147.780631 93.180607 147.745359 93.639146 147.721844 93.925242 C 147.69441 94.211339 147.6513 94.665959 147.619947 94.952055 C 147.592513 95.238152 147.541564 95.69669 147.506292 95.978868 C 147.47102 96.264965 147.408314 96.719584 147.369122 97.005681 C 147.329931 97.287858 147.263306 97.742478 147.216276 98.024655 C 147.173166 98.306833 147.098702 98.761452 147.047753 99.04363 C 146.996805 99.325808 146.914503 99.776508 146.859635 100.058685 C 146.804767 100.340863 146.710708 100.791563 146.651921 101.069822 C 146.593134 101.351999 146.495156 101.79878 146.42853 102.080958 C 146.365824 102.359216 146.256089 102.805998 146.189463 103.084256 C 146.118919 103.362514 146.005264 103.805376 145.930801 104.083635 C 145.856337 104.361893 145.730925 104.804755 145.652542 105.079095 C 145.574159 105.353434 145.444828 105.796296 145.358607 106.070635 C 145.276305 106.344975 145.139136 106.779998 145.048996 107.054338 C 144.962775 107.328677 144.813848 107.763701 144.723708 108.034121 C 144.629648 108.304541 144.476802 108.739565 144.378824 109.009985 C 144.280846 109.276486 144.116242 109.707591 144.014345 109.974092 C 143.912447 110.240593 143.743924 110.671697 143.638108 110.934279 C 143.528372 111.20078 143.352011 111.627966 143.242275 111.890548 C 143.128621 112.15313 142.944421 112.576396 142.830766 112.838978 C 142.713192 113.097641 142.521155 113.516988 142.399662 113.775651 C 142.278169 114.038232 142.082212 114.449741 141.9568 114.708404 C 141.831388 114.967067 141.623674 115.378576 141.494342 115.63332 C 141.365011 115.888063 141.153378 116.295653 141.020127 116.550397 C 140.882957 116.801221 140.663486 117.208811 140.526316 117.459635 C 140.385228 117.71046 140.161837 118.110212 140.016829 118.357117 C 139.87574 118.604022 139.640592 118.999855 139.491665 119.24676 C 139.346657 119.493665 139.103671 119.885579 138.954744 120.128565 C 138.801898 120.371551 138.554992 120.759545 138.398227 120.998612 C 138.241462 121.23768 137.990637 121.621755 137.829953 121.860822 C 137.669268 122.09597 137.406687 122.476126 137.242083 122.711274 C 137.077479 122.946421 136.810978 123.318739 136.642456 123.549968 C 136.473933 123.781197 136.203513 124.153514 136.031071 124.380824 C 135.858629 124.612053 135.576451 124.976532 135.40009 125.199923 C 135.223729 125.427233 134.937633 125.787793 134.757353 126.011183 C 134.577073 126.230655 134.283138 126.587296 134.098938 126.806767 C 133.914739 127.026239 133.616885 127.375042 133.428767 127.590594 C 133.240648 127.810065 132.934956 128.15103 132.742918 128.366582 C 132.550881 128.578215 132.241269 128.91918 132.049232 129.126894 C 131.853275 129.334608 131.535825 129.671654 131.33595 129.875448 C 131.139993 130.083162 130.814705 130.408451 130.61091 130.612245 C 130.411034 130.81604 130.081827 131.137409 129.878032 131.337285 C 129.670318 131.537161 129.337192 131.850691 129.125559 132.046648 C 128.917845 132.242605 128.57688 132.552216 128.365247 132.744254 C 128.153614 132.936291 127.80873 133.241984 127.593178 133.430102 C 127.377625 133.61822 127.024903 133.916074 126.805432 134.100274 C 126.585961 134.284473 126.233239 134.578408 126.009848 134.758688 C 125.786457 134.938968 125.425897 135.225065 125.202507 135.401426 C 124.975197 135.577787 124.610718 135.856045 124.383408 136.028487 C 124.152179 136.200929 123.783781 136.475268 123.552552 136.643791 C 123.317404 136.812314 122.945086 137.078815 122.709938 137.243418 C 122.47479 137.408022 122.098553 137.666685 121.859486 137.827369 C 121.620419 137.988054 121.240263 138.242797 120.997277 138.399562 C 120.75821 138.556328 120.370216 138.803233 120.12723 138.95216 C 119.884243 139.105006 119.49233 139.344074 119.245425 139.493001 C 119.002438 139.641928 118.606606 139.873156 118.355782 140.018164 C 118.108876 140.159253 117.709125 140.386563 117.4583 140.527652 C 117.207476 140.664821 116.803805 140.884293 116.549061 141.017543 C 116.298237 141.154713 115.890647 141.366346 115.635903 141.495677 C 115.377241 141.625009 114.965732 141.828804 114.710988 141.958135 C 114.452325 142.083547 114.036897 142.279504 113.778234 142.400997 C 113.515652 142.52249 113.100224 142.714528 112.837642 142.828183 C 112.575061 142.945757 112.155713 143.129956 111.889212 143.239692 C 111.62663 143.353346 111.199445 143.529707 110.936863 143.635524 C 110.670362 143.74526 110.243176 143.913782 109.976675 144.01568 C 109.706255 144.117577 109.27907 144.278262 109.00865 144.37624 C 108.738229 144.474218 108.307125 144.627065 108.032785 144.721124 C 107.762365 144.815183 107.327342 144.960191 107.053002 145.050331 C 106.782582 145.136552 106.343639 145.277641 106.0693 145.359943 C 105.794961 145.442244 105.356018 145.575495 105.077759 145.653877 C 104.80342 145.73226 104.360558 145.853753 104.0823 145.928217 C 103.80796 146.00268 103.361179 146.120254 103.082921 146.18688 C 102.804662 146.257424 102.357881 146.363241 102.079623 146.429866 C 101.801364 146.492572 101.350664 146.594469 101.072405 146.653256 C 100.790228 146.712043 100.339528 146.802183 100.05735 146.857051 C 99.779092 146.911919 99.324472 146.99814 99.042295 147.049089 C 98.760117 147.096118 98.309417 147.170582 98.02332 147.217612 C 97.741143 147.260722 97.286523 147.331266 97.004346 147.370458 C 96.718249 147.409649 96.263629 147.468436 95.977533 147.503708 C 95.695355 147.53898 95.236817 147.589929 94.95072 147.621282 C 94.668542 147.652635 94.210004 147.695746 93.923907 147.719261 C 93.64173 147.746694 93.183191 147.781967 92.897094 147.801562 C 92.610998 147.821158 92.152459 147.848592 91.866362 147.864268 C 91.580266 147.879945 91.117808 147.899541 90.831711 147.911298 C 90.545615 147.919136 90.087076 147.930894 89.800979 147.934813 C 89.514883 147.942651 89.052425 147.94657 88.766328 147.94657 C 88.480231 147.94657 88.021693 147.942651 87.735596 147.934813 C 87.4495 147.930894 86.987042 147.919136 86.700945 147.911298 C 86.414848 147.899541 85.95631 147.879945 85.670213 147.864268 C 85.384116 147.848592 84.925578 147.821158 84.639481 147.801562 C 84.353385 147.781967 83.894846 147.746694 83.608749 147.719261 C 83.322653 147.695746 82.868033 147.652635 82.581936 147.621282 C 82.29584 147.589929 81.84122 147.53898 81.555124 147.503708 C 81.269027 147.468436 80.814408 147.409649 80.53223 147.370458 C 80.246133 147.331266 79.791514 147.260722 79.509336 147.217612 C 79.227159 147.170582 78.772539 147.096118 78.490362 147.049089 C 78.208184 146.99814 77.757484 146.911919 77.475306 146.857051 C 77.193129 146.802183 76.746348 146.712043 76.46417 146.653256 C 76.185912 146.59055 75.735211 146.492572 75.456953 146.425947 C 75.178694 146.363241 74.731913 146.257424 74.453655 146.18688 C 74.175396 146.120254 73.728615 146.00268 73.450357 145.928217 C 73.172098 145.853753 72.733156 145.73226 72.454897 145.649958 C 72.180558 145.571576 71.741615 145.442244 71.467276 145.359943 C 71.192936 145.273722 70.753993 145.136552 70.479654 145.050331 C 70.209234 144.960191 69.77421 144.815183 69.499871 144.721124 C 69.229451 144.627065 68.794427 144.474218 68.527926 144.37624 C 68.257506 144.278262 67.826401 144.117577 67.5599 144.01568 C 67.293399 143.909863 66.866214 143.741341 66.599713 143.635524 C 66.333212 143.529707 65.909945 143.353346 65.643444 143.239692 C 65.380862 143.129956 64.961515 142.945757 64.698933 142.828183 C 64.436351 142.710609 64.017004 142.52249 63.758341 142.400997 C 63.499678 142.279504 63.08425 142.079628 62.825588 141.954216 C 62.570844 141.828804 62.155416 141.625009 61.900672 141.495677 C 61.645929 141.366346 61.238339 141.150794 60.987514 141.017543 C 60.732771 140.884293 60.3291 140.664821 60.078275 140.523733 C 59.827451 140.386563 59.427699 140.159253 59.176875 140.018164 C 58.929969 139.873156 58.534137 139.638008 58.287232 139.493001 C 58.044245 139.344074 57.652332 139.105006 57.409346 138.95216 C 57.16636 138.799314 56.778366 138.552409 56.535379 138.395643 C 56.296312 138.242797 55.916156 137.988054 55.677089 137.827369 C 55.438022 137.666685 55.057866 137.408022 54.822718 137.243418 C 54.58757 137.078815 54.215253 136.812314 53.984024 136.643791 C 53.752795 136.475268 53.384396 136.200929 53.153168 136.028487 C 52.925858 135.856045 52.561379 135.577787 52.334069 135.401426 C 52.106759 135.225065 51.750118 134.935049 51.526727 134.754769 C 51.303337 134.574489 50.946696 134.284473 50.727224 134.100274 C 50.507753 133.916074 50.15895 133.614301 49.943398 133.426183 C 49.727845 133.238064 49.382962 132.936291 49.171329 132.744254 C 48.955776 132.552216 48.618731 132.242605 48.407098 132.046648 C 48.199384 131.850691 47.866257 131.533242 47.658543 131.337285 C 47.454748 131.137409 47.125541 130.81604 46.921746 130.612245 C 46.717951 130.408451 46.396582 130.079243 46.200626 129.875448 C 46.00075 129.667734 45.6833 129.334608 45.487344 129.126894 C 45.291387 128.915261 44.981775 128.578215 44.789738 128.362663 C 44.5977 128.15103 44.295927 127.806146 44.107809 127.590594 C 43.91969 127.375042 43.617917 127.026239 43.433718 126.806767 C 43.249519 126.587296 42.959503 126.230655 42.779223 126.007264 C 42.598943 125.783874 42.312846 125.427233 42.136485 125.199923 C 41.960124 124.976532 41.677946 124.608134 41.505505 124.380824 C 41.333063 124.153514 41.058723 123.781197 40.89412 123.549968 C 40.725597 123.318739 40.455177 122.946421 40.290573 122.711274 C 40.12597 122.476126 39.867307 122.09597 39.706623 121.856903 C 39.545938 121.621755 39.295114 121.23768 39.138348 120.998612 C 38.981583 120.755626 38.734678 120.367632 38.581831 120.124646 C 38.428985 119.88166 38.189918 119.489746 38.040991 119.24676 C 37.895983 118.999855 37.660835 118.604022 37.515827 118.357117 C 37.374739 118.110212 37.147429 117.706541 37.010259 117.455716 C 36.87309 117.204892 36.653618 116.801221 36.516448 116.550397 C 36.383198 116.295653 36.171565 115.888063 36.038314 115.63332 C 35.908983 115.378576 35.705188 114.967067 35.579776 114.708404 C 35.454363 114.449741 35.254488 114.038232 35.132995 113.775651 C 35.011501 113.516988 34.823383 113.097641 34.705809 112.835059 C 34.588235 112.576396 34.407955 112.15313 34.2943 111.890548 C 34.180645 111.624047 34.008203 111.20078 33.898468 110.934279 C 33.792651 110.667778 33.624128 110.240593 33.522231 109.974092 C 33.416414 109.707591 33.25573 109.276486 33.157752 109.009985 C 33.059773 108.739565 32.906927 108.304541 32.812868 108.034121 C 32.718809 107.763701 32.573801 107.324758 32.48758 107.054338 C 32.39744 106.779998 32.26027 106.341055 32.177968 106.070635 C 32.091747 105.796296 31.962416 105.353434 31.884033 105.079095 C 31.801732 104.800836 31.680238 104.361893 31.605775 104.083635 C 31.531311 103.805376 31.417657 103.362514 31.347112 103.084256 C 31.276568 102.805998 31.170751 102.359216 31.108045 102.077039 C 31.04142 101.79878 30.943441 101.351999 30.884654 101.069822 C 30.821948 100.791563 30.731808 100.340863 30.67694 100.058685 C 30.622073 99.776508 30.535852 99.325808 30.488822 99.04363 C 30.437873 98.761452 30.36341 98.306833 30.320299 98.024655 C 30.27327 97.742478 30.206644 97.287858 30.167453 97.001762 C 30.124343 96.719584 30.065556 96.264965 30.030284 95.978868 C 29.995011 95.692771 29.944063 95.238152 29.91271 94.952055 C 29.885276 94.665959 29.838246 94.211339 29.814731 93.925242 C 29.791216 93.639146 29.755944 93.180607 29.736349 92.89451 C 29.716753 92.608414 29.6854 92.149875 29.669723 91.863779 C 29.657966 91.577682 29.634451 91.119143 29.626613 90.833047 C 29.614855 90.54695 29.603098 90.084492 29.599179 89.798395 C 29.59526 89.512299 29.587421 89.05376 29.587421 88.767664 C 29.587421 88.481567 29.59526 88.023028 29.599179 87.736932 C 29.603098 87.450835 29.614855 86.988377 29.626613 86.70228 C 29.634451 86.416184 29.657966 85.957645 29.669723 85.671549 C 29.6854 85.385452 29.716753 84.926913 29.736349 84.640817 C 29.755944 84.35472 29.791216 83.896181 29.814731 83.610085 C 29.838246 83.323988 29.885276 82.869369 29.91271 82.583272 C 29.944063 82.297175 29.995011 81.838637 30.030284 81.556459 C 30.065556 81.270362 30.124343 80.815743 30.167453 80.533565 C 30.206644 80.247469 30.27327 79.792849 30.320299 79.510672 C 30.36341 79.228494 30.437873 78.773875 30.488822 78.491697 C 30.535852 78.20952 30.622073 77.758819 30.67694 77.476642 C 30.731808 77.194464 30.821948 76.743764 30.884654 76.465505 C 30.943441 76.183328 31.04142 75.736547 31.108045 75.458288 C 31.170751 75.176111 31.276568 74.72933 31.347112 74.451071 C 31.417657 74.172813 31.531311 73.726031 31.605775 73.451692 C 31.680238 73.173434 31.801732 72.730572 31.884033 72.456232 C 31.962416 72.181893 32.091747 71.739031 32.177968 71.464692 C 32.26027 71.190353 32.39744 70.755329 32.48758 70.480989 C 32.573801 70.210569 32.718809 69.771626 32.812868 69.501206 C 32.906927 69.230786 33.059773 68.795762 33.157752 68.525342 C 33.25573 68.258841 33.416414 67.827736 33.522231 67.561235 C 33.624128 67.294734 33.792651 66.86363 33.898468 66.601048 C 34.008203 66.334547 34.180645 65.907361 34.2943 65.644779 C 34.407955 65.382198 34.588235 64.958931 34.705809 64.700268 C 34.823383 64.437687 35.011501 64.018339 35.132995 63.755757 C 35.254488 63.497095 35.454363 63.085586 35.579776 62.826923 C 35.705188 62.56826 35.908983 62.156751 36.038314 61.902008 C 36.171565 61.647264 36.383198 61.239674 36.516448 60.98493 C 36.653618 60.734106 36.87309 60.330435 37.010259 60.079611 C 37.147429 59.828786 37.374739 59.425116 37.515827 59.17821 C 37.660835 58.931305 37.895983 58.535472 38.040991 58.288567 C 38.189918 58.041662 38.428985 57.653667 38.581831 57.410681 C 38.734678 57.167695 38.981583 56.775782 39.138348 56.536715 C 39.295114 56.297648 39.545938 55.913572 39.706623 55.678425 C 39.867307 55.439357 40.12597 55.059202 40.290573 54.824054 C 40.455177 54.588906 40.725597 54.216588 40.89412 53.985359 C 41.058723 53.75413 41.333063 53.381813 41.505505 53.154503 C 41.677946 52.923274 41.960124 52.558795 42.136485 52.335404 C 42.312846 52.108094 42.598943 51.747534 42.779223 51.528063 C 42.959503 51.304672 43.249519 50.948031 43.433718 50.72856 C 43.617917 50.509088 43.91969 50.160285 44.107809 49.944733 C 44.295927 49.729181 44.5977 49.384297 44.789738 49.168745 C 44.981775 48.957112 45.291387 48.616147 45.487344 48.408433 C 45.6833 48.200719 46.00075 47.867593 46.200626 47.659879 C 46.396582 47.452165 46.717951 47.126877 46.921746 46.923082 C 47.125541 46.719287 47.454748 46.397918 47.658543 46.198042 C 47.866257 45.998166 48.199384 45.684636 48.407098 45.488679 C 48.618731 45.292722 48.955776 44.983111 49.171329 44.791073 C 49.382962 44.599036 49.727845 44.293343 49.943398 44.105225 C 50.15895 43.917107 50.507753 43.619253 50.727224 43.435053 C 50.946696 43.250854 51.303337 42.956919 51.526727 42.776639 C 51.750118 42.596359 52.106759 42.310262 52.334069 42.133901 C 52.561379 41.95754 52.925858 41.679282 53.153168 41.50684 C 53.384396 41.334398 53.752795 41.060059 53.984024 40.891536 C 54.215253 40.723013 54.58757 40.456512 54.822718 40.291909 C 55.057866 40.127305 55.438022 39.868642 55.677089 39.707958 C 55.916156 39.547274 56.296312 39.29253 56.535379 39.135765 C 56.778366 38.982918 57.16636 38.732094 57.409346 38.583167 C 57.652332 38.430321 58.044245 38.191254 58.287232 38.042326 C 58.534137 37.893399 58.929969 37.662171 59.176875 37.517163 C 59.427699 37.372155 59.827451 37.148764 60.078275 37.011595 C 60.3291 36.870506 60.732771 36.651034 60.987514 36.517784 C 61.238339 36.380614 61.645929 36.168981 61.900672 36.03965 C 62.155416 35.910318 62.570844 35.706523 62.825588 35.581111 C 63.08425 35.455699 63.499678 35.255823 63.758341 35.13433 C 64.017004 35.012837 64.436351 34.820799 64.698933 34.707144 C 64.961515 34.58957 65.380862 34.405371 65.643444 34.295635 C 65.909945 34.181981 66.333212 34.00562 66.599713 33.899803 C 66.866214 33.790067 67.293399 33.625464 67.5599 33.519647 C 67.826401 33.41775 68.257506 33.257065 68.527926 33.159087 C 68.794427 33.061109 69.229451 32.908262 69.499871 32.814203 C 69.77421 32.720144 70.209234 32.575136 70.479654 32.484996 C 70.753993 32.398775 71.192936 32.261605 71.467276 32.175385 C 71.741615 32.093083 72.180558 31.963751 72.454897 31.88145 C 72.733156 31.803067 73.172098 31.681574 73.450357 31.60711 C 73.728615 31.532647 74.175396 31.415073 74.453655 31.348448 C 74.731913 31.277903 75.178694 31.172087 75.456953 31.105461 C 75.735211 31.042755 76.185912 30.944777 76.46417 30.882071 C 76.746348 30.823284 77.193129 30.733144 77.475306 30.678276 C 77.757484 30.623408 78.208184 30.537187 78.490362 30.486238 C 78.772539 30.439209 79.227159 30.364745 79.509336 30.317716 C 79.795433 30.274605 80.250052 30.20798 80.53223 30.164869 C 80.814408 30.125678 81.272946 30.066891 81.555124 30.031619 C 81.84122 29.996347 82.299759 29.945398 82.581936 29.914045 C 82.868033 29.882692 83.322653 29.839581 83.608749 29.816067 C 83.894846 29.788633 84.353385 29.75336 84.639481 29.733765 C 84.925578 29.714169 85.384116 29.686735 85.670213 29.671059 C 85.95631 29.655382 86.418768 29.635786 86.704864 29.627948 C 86.990961 29.616191 87.4495 29.604433 87.735596 29.600514 C 88.021693 29.592676 88.480231 29.588757 88.766328 29.588757 C 89.052425 29.588757 89.514883 29.592676 89.800979 29.600514 C 90.087076 29.604433 90.545615 29.616191 90.831711 29.627948 C 91.117808 29.635786 91.576346 29.655382 91.862443 29.671059 C 92.14854 29.686735 92.607078 29.714169 92.893175 29.733765 C 93.179272 29.75336 93.64173 29.788633 93.923907 29.816067 C 94.210004 29.839581 94.668542 29.882692 94.95072 29.914045 C 95.236817 29.945398 95.695355 29.996347 95.977533 30.031619 C 96.263629 30.066891 96.718249 30.125678 97.004346 30.164869 C 97.286523 30.20798 97.741143 30.274605 98.02332 30.317716 C 98.305498 30.364745 98.760117 30.439209 99.042295 30.486238 C 99.324472 30.537187 99.779092 30.623408 100.05735 30.678276 C 100.339528 30.733144 100.790228 30.823284 101.072405 30.882071 C 101.350664 30.944777 101.797445 31.042755 102.079623 31.105461 C 102.357881 31.172087 102.804662 31.277903 103.082921 31.348448 C 103.361179 31.415073 103.80796 31.532647 104.0823 31.60711 C 104.360558 31.681574 104.80342 31.803067 105.077759 31.88145 C 105.352099 31.963751 105.794961 32.093083 106.0693 32.175385 C 106.343639 32.261605 106.782582 32.398775 107.053002 32.484996 C 107.327342 32.575136 107.762365 32.720144 108.032785 32.814203 C 108.303206 32.908262 108.738229 33.061109 109.00865 33.159087 C 109.27907 33.257065 109.706255 33.41775 109.972756 33.519647 C 110.243176 33.625464 110.670362 33.790067 110.936863 33.899803 C 111.199445 34.00562 111.62663 34.181981 111.889212 34.295635 C 112.151794 34.405371 112.575061 34.58957 112.837642 34.707144 C 113.100224 34.820799 113.515652 35.012837 113.778234 35.13433 C 114.036897 35.255823 114.452325 35.455699 114.707069 35.581111 C 114.965732 35.706523 115.377241 35.910318 115.631984 36.03965 C 115.886728 36.168981 116.294318 36.380614 116.549061 36.517784 C 116.799886 36.651034 117.207476 36.870506 117.4583 37.011595 C 117.709125 37.148764 118.108876 37.372155 118.355782 37.517163 C 118.606606 37.662171 118.998519 37.893399 119.245425 38.042326 C 119.49233 38.191254 119.884243 38.430321 120.12723 38.583167 C 120.370216 38.732094 120.75821 38.982918 120.997277 39.135765 C 121.236344 39.29253 121.620419 39.547274 121.859486 39.707958 C 122.094634 39.868642 122.47479 40.127305 122.709938 40.291909 C 122.945086 40.456512 123.317404 40.723013 123.548633 40.891536 C 123.783781 41.060059 124.152179 41.334398 124.379489 41.50684 C 124.610718 41.679282 124.975197 41.95754 125.198588 42.133901 C 125.425897 42.310262 125.786457 42.596359 126.009848 42.776639 C 126.22932 42.956919 126.585961 43.250854 126.805432 43.435053 C 127.024903 43.619253 127.373706 43.917107 127.593178 44.105225 C 127.80873 44.293343 128.149695 44.599036 128.365247 44.791073 C 128.57688 44.983111 128.917845 45.292722 129.125559 45.488679 C 129.337192 45.684636 129.670318 45.998166 129.874113 46.198042 C 130.081827 46.397918 130.411034 46.719287 130.61091 46.923082 C 130.814705 47.126877 131.136074 47.452165 131.33595 47.659879 C 131.535825 47.867593 131.853275 48.200719 132.045313 48.408433 C 132.241269 48.616147 132.550881 48.957112 132.742918 49.168745 C 132.934956 49.384297 133.240648 49.729181 133.428767 49.944733 C 133.616885 50.160285 133.914739 50.509088 134.098938 50.72856 C 134.283138 50.948031 134.577073 51.304672 134.757353 51.528063 C 134.937633 51.747534 135.223729 52.108094 135.40009 52.335404 C 135.576451 52.558795 135.85471 52.923274 136.027152 53.154503 C 136.199594 53.381813 136.473933 53.75413 136.642456 53.985359 C 136.810978 54.216588 137.077479 54.588906 137.242083 54.824054 C 137.406687 55.059202 137.669268 55.439357 137.826034 55.678425 C 137.986718 55.913572 138.241462 56.297648 138.398227 56.536715 C 138.554992 56.775782 138.801898 57.167695 138.954744 57.410681 C 139.103671 57.653667 139.342738 58.041662 139.491665 58.288567 C 139.640592 58.535472 139.87574 58.931305 140.016829 59.17821 C 140.161837 59.425116 140.385228 59.828786 140.526316 60.079611 C 140.663486 60.330435 140.882957 60.734106 141.016208 60.98493 C 141.153378 61.239674 141.365011 61.647264 141.494342 61.902008 C 141.623674 62.156751 141.827468 62.56826 141.9568 62.826923 C 142.082212 63.085586 142.278169 63.497095 142.399662 63.755757 C 142.521155 64.018339 142.713192 64.437687 142.826847 64.700268 C 142.944421 64.958931 143.128621 65.382198 143.242275 65.644779 C 143.352011 65.907361 143.528372 66.334547 143.634189 66.601048 C 143.743924 66.86363 143.912447 67.294734 144.014345 67.561235 C 144.116242 67.827736 144.280846 68.258841 144.378824 68.525342 C 144.476802 68.795762 144.629648 69.230786 144.719788 69.501206 C 144.813848 69.771626 144.958856 70.210569 145.048996 70.480989 C 145.139136 70.755329 145.276305 71.190353 145.358607 71.464692 C 145.440909 71.739031 145.574159 72.181893 145.652542 72.456232 C 145.730925 72.730572 145.856337 73.173434 145.930801 73.451692 C 146.005264 73.726031 146.118919 74.172813 146.185544 74.451071 C 146.256089 74.72933 146.361905 75.176111 146.42853 75.458288 C 146.491237 75.736547 146.593134 76.183328 146.651921 76.465505 C 146.710708 76.743764 146.800848 77.194464 146.855716 77.476642 C 146.910584 77.758819 146.996805 78.20952 147.047753 78.491697 C 147.098702 78.773875 147.173166 79.228494 147.216276 79.510672 C 147.259387 79.792849 147.329931 80.247469 147.369122 80.533565 C 147.408314 80.815743 147.47102 81.270362 147.502373 81.556459 C 147.537645 81.838637 147.588594 82.297175 147.619947 82.583272 C 147.6513 82.869369 147.69441 83.323988 147.721844 83.610085 C 147.745359 83.896181 147.780631 84.35472 147.800227 84.640817 C 147.819823 84.926913 147.847257 85.385452 147.862933 85.671549 C 147.87861 85.957645 147.898205 86.416184 147.909963 86.70228 C 147.917801 86.988377 147.929558 87.450835 147.937397 87.736932 C 147.941316 88.023028 147.945235 88.767664 147.945235 88.767664 " transform="matrix(0.996713,0,0,-0.996713,6.056713,187.8704)"/>
<g style="fill:rgb(0%,0%,0%);fill-opacity:1;">
  <use xlink:href="#glyph0-1" x="157.600917" y="111.162384"/>
</g>
<g style="fill:rgb(0%,0%,0%);fill-opacity:1;">
  <use xlink:href="#glyph1-1" x="16.359733" y="111.162384"/>
</g>
<g style="fill:rgb(0%,0%,0%);fill-opacity:1;">
  <use xlink:href="#glyph0-1" x="25.627169" y="111.162384"/>
</g>
<g style="fill:rgb(0%,0%,0%);fill-opacity:1;">
  <use xlink:href="#glyph0-1" x="84.609643" y="36.326195"/>
</g>
<g style="fill:rgb(0%,0%,0%);fill-opacity:1;">
  <use xlink:href="#glyph1-1" x="75.341211" y="170.145855"/>
</g>
<g style="fill:rgb(0%,0%,0%);fill-opacity:1;">
  <use xlink:href="#glyph0-1" x="84.609643" y="170.145855"/>
</g>
<path style="fill:none;stroke-width:1.59404;stroke-linecap:round;stroke-linejoin:miter;stroke:rgb(0%,65.098572%,83.921814%);stroke-opacity:1;stroke-miterlimit:10;" d="M 88.766328 88.767664 L 136.740434 116.464176 " transform="matrix(0.996713,0,0,-0.996713,6.056713,187.8704)"/>
<path style=" stroke:none;fill-rule:nonzero;fill:rgb(0%,65.098572%,83.921814%);fill-opacity:1;" d="M 145.613281 69.902344 L 138.875 70.308594 L 142.347656 71.789063 L 141.894531 75.535156 "/>
<path style="fill:none;stroke-width:1.59404;stroke-linecap:round;stroke-linejoin:miter;stroke:rgb(0%,60.78186%,46.665955%);stroke-opacity:1;stroke-miterlimit:10;" d="M 88.766328 88.767664 L 74.43014 142.271666 " transform="matrix(0.996713,0,0,-0.996713,6.056713,187.8704)"/>
<path style=" stroke:none;fill-rule:nonzero;fill:rgb(0%,60.78186%,46.665955%);fill-opacity:1;" d="M 79.265625 42.421875 L 77.914063 49.035156 L 80.242188 46.066406 L 83.746094 47.472656 "/>
<path style="fill:none;stroke-width:0.79701;stroke-linecap:round;stroke-linejoin:miter;stroke:rgb(0%,65.098572%,83.921814%);stroke-opacity:1;stroke-miterlimit:10;" d="M 106.52 88.767664 C 106.52 88.767664 106.52 89.045922 106.516081 89.155658 C 106.512162 89.261474 106.508243 89.433916 106.504324 89.539733 C 106.500405 89.649468 106.488647 89.82191 106.480809 89.927727 C 106.47689 90.037463 106.461213 90.205985 106.453375 90.315721 C 106.445537 90.421538 106.425941 90.593979 106.414184 90.699796 C 106.402426 90.805613 106.382831 90.978054 106.367154 91.083871 C 106.355397 91.189688 106.327963 91.36213 106.312286 91.467946 C 106.29661 91.573763 106.269176 91.746205 106.24958 91.852021 C 106.233903 91.957838 106.198631 92.12636 106.179036 92.232177 C 106.15944 92.334074 106.124168 92.506516 106.100653 92.608414 C 106.077138 92.71423 106.037947 92.882753 106.010513 92.98857 C 105.986998 93.090467 105.943888 93.25899 105.916454 93.360887 C 105.88902 93.466704 105.84199 93.631307 105.810637 93.733205 C 105.779284 93.839021 105.732254 94.003625 105.696982 94.105523 C 105.665629 94.20742 105.610761 94.372024 105.579408 94.473921 C 105.544136 94.575818 105.485349 94.740422 105.450077 94.8384 C 105.414805 94.940298 105.352099 95.100982 105.312907 95.20288 C 105.273716 95.300858 105.21101 95.461543 105.167899 95.559521 C 105.128708 95.661418 105.058164 95.818184 105.015053 95.916162 C 104.971943 96.01414 104.901398 96.174825 104.858288 96.268884 C 104.811258 96.366862 104.736795 96.523628 104.689765 96.617687 C 104.642736 96.715665 104.564353 96.868511 104.513404 96.96257 C 104.462455 97.060549 104.384073 97.213395 104.333124 97.307454 C 104.282175 97.401513 104.141087 97.6445 105.418724 95.390998 " transform="matrix(0.996713,0,0,-0.996713,6.056713,187.8704)"/>
<path style=" stroke:none;fill-rule:nonzero;fill:rgb(0%,65.098572%,83.921814%);fill-opacity:1;" d="M 109.855469 90.546875 L 110.09375 95.160156 L 111.128906 92.792969 L 113.6875 93.125 "/>
<g style="fill:rgb(0%,65.098572%,83.921814%);fill-opacity:1;">
  <use xlink:href="#glyph2-1" x="113.867152" y="96.268504"/>
</g>
<path style="fill:none;stroke-width:0.79701;stroke-linecap:round;stroke-linejoin:miter;stroke:rgb(0%,60.78186%,46.665955%);stroke-opacity:1;stroke-miterlimit:10;" d="M 118.355782 88.767664 C 118.355782 88.767664 118.31659 90.398023 118.269561 91.025084 C 118.222531 91.648226 118.104957 92.647605 118.010898 93.266828 C 117.916839 93.886051 117.724801 94.873673 117.583712 95.485057 C 117.438704 96.096442 117.172203 97.068387 116.984085 97.664095 C 116.795967 98.263723 116.458921 99.208234 116.223773 99.792184 C 115.992544 100.372216 115.581035 101.293212 115.302777 101.853648 C 115.028438 102.414084 114.546384 103.299808 114.228935 103.840649 C 113.907566 104.37757 113.362806 105.228022 113.006165 105.737509 C 112.645605 106.250915 112.03422 107.054338 111.638388 107.536391 C 111.242555 108.022363 110.572384 108.774837 110.141279 109.229456 C 109.706255 109.680157 108.985135 110.381681 108.518758 110.79711 C 108.052381 111.216457 107.276393 111.859195 106.778663 112.23935 C 106.280933 112.623425 105.461834 113.203457 104.93667 113.548341 C 104.411507 113.889305 103.549297 114.406631 102.9967 114.708404 C 102.448021 115.010177 101.55054 115.456959 100.978346 115.715621 C 100.410072 115.974284 99.477318 116.358359 98.889448 116.573911 C 98.297659 116.785545 97.341391 117.091237 96.737844 117.25976 C 96.134298 117.432202 95.154515 117.66343 94.539211 117.788843 C 93.923907 117.910336 92.932366 118.067101 92.309224 118.141565 C 91.686082 118.219947 90.682784 118.29833 90.059642 118.325764 C 89.432581 118.353198 88.425364 118.361036 87.798302 118.34144 C 87.17516 118.317926 86.167943 118.247381 85.54872 118.180756 C 84.925578 118.110212 83.926199 117.961284 83.310895 117.84763 C 82.695591 117.733975 81.108343 117.3499 83.628345 117.957365 " transform="matrix(0.996713,0,0,-0.996713,6.056713,187.8704)"/>
<path style=" stroke:none;fill-rule:nonzero;fill:rgb(0%,60.78186%,46.665955%);fill-opacity:1;" d="M 86.898438 70.90625 L 91.398438 71.945313 L 89.410156 70.300781 L 90.429688 67.929688 "/>
<g style="fill:rgb(0%,60.78186%,46.665955%);fill-opacity:1;">
  <use xlink:href="#glyph2-2" x="113.195367" y="75.457141"/>
</g>
<path style="fill:none;stroke-width:0.79701;stroke-linecap:round;stroke-linejoin:miter;stroke:rgb(64.704895%,0%,20.391846%);stroke-opacity:1;stroke-miterlimit:10;" d="M 124.642071 109.480281 C 124.642071 109.480281 123.799457 110.879411 123.458493 111.404575 C 123.117528 111.929739 122.545335 112.756676 122.173017 113.262244 C 121.804618 113.767812 121.185395 114.559477 120.785644 115.04545 C 120.389811 115.531422 119.731397 116.291734 119.308131 116.754192 C 118.884864 117.216649 118.18334 117.93777 117.736559 118.376713 C 117.289777 118.811736 116.549061 119.497585 116.078765 119.909094 C 115.608469 120.324522 114.832481 120.967259 114.342589 121.355254 C 113.848779 121.739329 113.041437 122.342875 112.528031 122.699516 C 112.014625 123.060076 111.17593 123.612674 110.642928 123.9458 C 110.109926 124.275008 109.239878 124.784495 108.6912 125.086268 C 108.142521 125.384122 107.24504 125.84658 106.680685 126.117 C 106.116329 126.38742 105.199252 126.798929 104.619221 127.037996 C 104.039189 127.277063 103.098597 127.637624 102.510727 127.845338 C 101.918938 128.053052 100.958751 128.358744 100.359123 128.535105 C 99.755577 128.711466 98.783632 128.96621 98.172247 129.107298 C 97.560862 129.252306 96.57716 129.456101 95.961856 129.561918 C 95.342633 129.671654 94.347173 129.820581 93.724031 129.895044 C 93.104808 129.969508 92.10151 130.059648 91.478368 130.102758 C 90.851307 130.141949 89.84409 130.181141 89.220948 130.188979 C 88.593886 130.192898 87.586669 130.177222 86.959608 130.149788 C 86.336466 130.122354 85.333168 130.051809 84.706107 129.989103 C 84.082964 129.930316 83.087505 129.804904 82.464362 129.706926 C 81.845139 129.612867 80.857518 129.432586 80.242214 129.303255 C 79.630829 129.177843 78.0475 128.78201 80.559664 129.409072 " transform="matrix(0.996713,0,0,-0.996713,6.056713,187.8704)"/>
<path style=" stroke:none;fill-rule:nonzero;fill:rgb(64.704895%,0%,20.391846%);fill-opacity:1;" d="M 83.847656 59.511719 L 88.355469 60.515625 L 86.351563 58.886719 L 87.355469 56.507813 "/>
<g style="fill:rgb(64.704895%,0%,20.391846%);fill-opacity:1;">
  <use xlink:href="#glyph2-2" x="96.284141" y="56.782729"/>
</g>
<g style="fill:rgb(64.704895%,0%,20.391846%);fill-opacity:1;">
  <use xlink:href="#glyph1-1" x="104.693407" y="56.782729"/>
</g>
<g style="fill:rgb(64.704895%,0%,20.391846%);fill-opacity:1;">
  <use xlink:href="#glyph2-1" x="116.609109" y="56.782729"/>
</g>
<g style="fill:rgb(0%,65.098572%,83.921814%);fill-opacity:1;">
  <use xlink:href="#glyph3-1" x="149.698978" y="37.597004"/>
</g>
<g style="fill:rgb(0%,65.098572%,83.921814%);fill-opacity:1;">
  <use xlink:href="#glyph0-2" x="158.47005" y="47.099664"/>
  <use xlink:href="#glyph0-3" x="163.65585" y="47.099664"/>
  <use xlink:href="#glyph0-4" x="169.489876" y="47.099664"/>
</g>
<g style="fill:rgb(0%,65.098572%,83.921814%);fill-opacity:1;">
  <use xlink:href="#glyph2-1" x="176.077979" y="47.099664"/>
</g>
<g style="fill:rgb(0%,65.098572%,83.921814%);fill-opacity:1;">
  <use xlink:href="#glyph0-4" x="159.117914" y="61.498178"/>
  <use xlink:href="#glyph0-5" x="163.719835" y="61.498178"/>
  <use xlink:href="#glyph0-6" x="166.96096" y="61.498178"/>
</g>
<g style="fill:rgb(0%,65.098572%,83.921814%);fill-opacity:1;">
  <use xlink:href="#glyph2-1" x="175.429119" y="61.498178"/>
</g>
<g style="fill:rgb(0%,65.098572%,83.921814%);fill-opacity:1;">
  <use xlink:href="#glyph3-2" x="182.983205" y="37.597004"/>
</g>
<g style="fill:rgb(0%,60.78186%,46.665955%);fill-opacity:1;">
  <use xlink:href="#glyph3-1" x="34.265679" y="10.114642"/>
</g>
<g style="fill:rgb(0%,60.78186%,46.665955%);fill-opacity:1;">
  <use xlink:href="#glyph0-2" x="43.036752" y="19.618298"/>
  <use xlink:href="#glyph0-3" x="48.222552" y="19.618298"/>
  <use xlink:href="#glyph0-4" x="54.056577" y="19.618298"/>
</g>
<g style="fill:rgb(0%,60.78186%,46.665955%);fill-opacity:1;">
  <use xlink:href="#glyph2-2" x="60.64468" y="19.618298"/>
</g>
<g style="fill:rgb(0%,60.78186%,46.665955%);fill-opacity:1;">
  <use xlink:href="#glyph0-4" x="43.685612" y="34.016812"/>
  <use xlink:href="#glyph0-5" x="48.287533" y="34.016812"/>
  <use xlink:href="#glyph0-6" x="51.528658" y="34.016812"/>
</g>
<g style="fill:rgb(0%,60.78186%,46.665955%);fill-opacity:1;">
  <use xlink:href="#glyph2-2" x="59.996817" y="34.016812"/>
</g>
<g style="fill:rgb(0%,60.78186%,46.665955%);fill-opacity:1;">
  <use xlink:href="#glyph3-2" x="66.405681" y="10.114642"/>
</g>
</g>
</svg>
