<?xml version="1.0" encoding="UTF-8"?>
<svg xmlns="http://www.w3.org/2000/svg" xmlns:xlink="http://www.w3.org/1999/xlink" width="354.422pt" height="173.125pt" viewBox="0 0 354.422 173.125" version="1.1">
<defs>
<g>
<symbol overflow="visible" id="glyph0-0">
<path style="stroke:none;" d=""/>
</symbol>
<symbol overflow="visible" id="glyph0-1">
<path style="stroke:none;" d="M 5.921875 -4.515625 C 6 -4.703125 6.046875 -4.796875 6.796875 -4.796875 L 6.796875 -5.3125 C 6.375 -5.28125 6.34375 -5.28125 5.859375 -5.28125 C 5.53125 -5.28125 5.515625 -5.28125 4.828125 -5.3125 L 4.828125 -4.796875 C 5.15625 -4.796875 5.421875 -4.734375 5.421875 -4.65625 C 5.421875 -4.640625 5.421875 -4.625 5.359375 -4.5 L 3.953125 -1.4375 L 2.421875 -4.796875 L 3.078125 -4.796875 L 3.078125 -5.3125 C 2.796875 -5.28125 1.953125 -5.28125 1.640625 -5.28125 C 1.296875 -5.28125 0.59375 -5.28125 0.28125 -5.3125 L 0.28125 -4.796875 L 1.046875 -4.796875 L 3.140625 -0.234375 C 3.25 0 3.28125 0.0625 3.546875 0.0625 C 3.734375 0.0625 3.84375 0.03125 3.9375 -0.203125 Z M 5.921875 -4.515625 "/>
</symbol>
<symbol overflow="visible" id="glyph0-2">
<path style="stroke:none;" d="M 4.21875 -5.28125 L 4.21875 -4.765625 C 4.953125 -4.765625 5.046875 -4.765625 5.046875 -4.296875 L 5.046875 -1.953125 C 5.046875 -1.046875 4.5 -0.328125 3.578125 -0.328125 C 2.671875 -0.328125 2.625 -0.625 2.625 -1.28125 L 2.625 -5.375 L 0.5 -5.28125 L 0.5 -4.765625 C 1.25 -4.765625 1.328125 -4.765625 1.328125 -4.296875 L 1.328125 -1.46875 C 1.328125 -0.28125 2.125 0.078125 3.40625 0.078125 C 3.6875 0.078125 4.578125 0.078125 5.09375 -0.890625 L 5.109375 -0.890625 L 5.109375 0.078125 L 7.171875 0 L 7.171875 -0.515625 C 6.4375 -0.515625 6.34375 -0.515625 6.34375 -0.984375 L 6.34375 -5.375 Z M 4.21875 -5.28125 "/>
</symbol>
<symbol overflow="visible" id="glyph1-0">
<path style="stroke:none;" d=""/>
</symbol>
<symbol overflow="visible" id="glyph1-1">
<path style="stroke:none;" d="M 2.5 -5.078125 C 2.5 -5.296875 2.484375 -5.296875 2.265625 -5.296875 C 1.9375 -4.984375 1.515625 -4.796875 0.765625 -4.796875 L 0.765625 -4.53125 C 0.984375 -4.53125 1.40625 -4.53125 1.875 -4.734375 L 1.875 -0.65625 C 1.875 -0.359375 1.84375 -0.265625 1.09375 -0.265625 L 0.8125 -0.265625 L 0.8125 0 C 1.140625 -0.03125 1.828125 -0.03125 2.1875 -0.03125 C 2.546875 -0.03125 3.234375 -0.03125 3.5625 0 L 3.5625 -0.265625 L 3.28125 -0.265625 C 2.53125 -0.265625 2.5 -0.359375 2.5 -0.65625 Z M 2.5 -5.078125 "/>
</symbol>
<symbol overflow="visible" id="glyph1-2">
<path style="stroke:none;" d="M 2.25 -1.625 C 2.375 -1.75 2.703125 -2.015625 2.84375 -2.125 C 3.328125 -2.578125 3.796875 -3.015625 3.796875 -3.734375 C 3.796875 -4.6875 3 -5.296875 2.015625 -5.296875 C 1.046875 -5.296875 0.421875 -4.578125 0.421875 -3.859375 C 0.421875 -3.46875 0.734375 -3.421875 0.84375 -3.421875 C 1.015625 -3.421875 1.265625 -3.53125 1.265625 -3.84375 C 1.265625 -4.25 0.859375 -4.25 0.765625 -4.25 C 1 -4.84375 1.53125 -5.03125 1.921875 -5.03125 C 2.65625 -5.03125 3.046875 -4.40625 3.046875 -3.734375 C 3.046875 -2.90625 2.46875 -2.296875 1.515625 -1.34375 L 0.515625 -0.296875 C 0.421875 -0.21875 0.421875 -0.203125 0.421875 0 L 3.5625 0 L 3.796875 -1.421875 L 3.546875 -1.421875 C 3.53125 -1.265625 3.46875 -0.875 3.375 -0.71875 C 3.328125 -0.65625 2.71875 -0.65625 2.59375 -0.65625 L 1.171875 -0.65625 Z M 2.25 -1.625 "/>
</symbol>
</g>
<clipPath id="clip1">
  <path d="M 0 0 L 185 0 L 185 173.125 L 0 173.125 Z M 0 0 "/>
</clipPath>
<clipPath id="clip2">
  <path d="M 170 0 L 354.421875 0 L 354.421875 173.125 L 170 173.125 Z M 170 0 "/>
</clipPath>
</defs>
<g id="surface1">
<path style="fill:none;stroke-width:0.3985;stroke-linecap:butt;stroke-linejoin:miter;stroke:rgb(0%,0%,0%);stroke-opacity:1;stroke-miterlimit:10;" d="M -0.0018125 80.6935 L 159.396625 80.6935 " transform="matrix(1,0,0,-1,5.869,167.256)"/>
<path style=" stroke:none;fill-rule:nonzero;fill:rgb(0%,0%,0%);fill-opacity:1;" d="M 167.257812 86.5625 L 164.070312 84.96875 L 165.265625 86.5625 L 164.070312 88.15625 "/>
<path style="fill:none;stroke-width:0.3985;stroke-linecap:butt;stroke-linejoin:miter;stroke:rgb(0%,0%,0%);stroke-opacity:1;stroke-miterlimit:10;" d="M 80.6935 -0.0018125 L 80.6935 159.396625 " transform="matrix(1,0,0,-1,5.869,167.256)"/>
<path style=" stroke:none;fill-rule:nonzero;fill:rgb(0%,0%,0%);fill-opacity:1;" d="M 86.5625 5.867188 L 84.96875 9.054688 L 86.5625 7.859375 L 88.15625 9.054688 "/>
<g clip-path="url(#clip1)" clip-rule="nonzero">
<path style="fill:none;stroke-width:1.59404;stroke-linecap:round;stroke-linejoin:miter;stroke:rgb(0%,65.098572%,83.921814%);stroke-opacity:1;stroke-miterlimit:10;" d="M 5.381 5.381 L 156.009906 156.009906 " transform="matrix(1,0,0,-1,5.869,167.256)"/>
</g>
<path style="fill:none;stroke-width:1.59404;stroke-linecap:round;stroke-linejoin:miter;stroke:rgb(0%,0%,0%);stroke-opacity:1;stroke-miterlimit:10;" d="M 5.381 23.310688 L 138.080219 156.009906 " transform="matrix(1,0,0,-1,5.869,167.256)"/>
<g style="fill:rgb(76.470947%,19.216919%,18.429565%);fill-opacity:1;">
  <use xlink:href="#glyph0-1" x="87.965" y="44.206"/>
</g>
<g style="fill:rgb(76.470947%,19.216919%,18.429565%);fill-opacity:1;">
  <use xlink:href="#glyph1-1" x="95.064" y="46"/>
</g>
<g style="fill:rgb(76.470947%,19.216919%,18.429565%);fill-opacity:1;">
  <use xlink:href="#glyph0-1" x="16.237" y="115.935"/>
</g>
<g style="fill:rgb(76.470947%,19.216919%,18.429565%);fill-opacity:1;">
  <use xlink:href="#glyph1-2" x="23.336" y="117.728"/>
</g>
<path style="fill-rule:nonzero;fill:rgb(76.470947%,19.216919%,18.429565%);fill-opacity:1;stroke-width:1.59404;stroke-linecap:butt;stroke-linejoin:miter;stroke:rgb(76.470947%,19.216919%,18.429565%);stroke-opacity:1;stroke-miterlimit:10;" d="M 100.619281 116.560688 C 100.619281 117.658344 99.728656 118.552875 98.627094 118.552875 C 97.525531 118.552875 96.634906 117.658344 96.634906 116.560688 C 96.634906 115.459125 97.525531 114.5685 98.627094 114.5685 C 99.728656 114.5685 100.619281 115.459125 100.619281 116.560688 Z M 100.619281 116.560688 " transform="matrix(1,0,0,-1,5.869,167.256)"/>
<path style="fill-rule:nonzero;fill:rgb(76.470947%,19.216919%,18.429565%);fill-opacity:1;stroke-width:1.59404;stroke-linecap:butt;stroke-linejoin:miter;stroke:rgb(76.470947%,19.216919%,18.429565%);stroke-opacity:1;stroke-miterlimit:10;" d="M 28.892719 44.830219 C 28.892719 45.931781 27.998188 46.822406 26.896625 46.822406 C 25.798969 46.822406 24.904438 45.931781 24.904438 44.830219 C 24.904438 43.728656 25.798969 42.838031 26.896625 42.838031 C 27.998188 42.838031 28.892719 43.728656 28.892719 44.830219 Z M 28.892719 44.830219 " transform="matrix(1,0,0,-1,5.869,167.256)"/>
<path style="fill-rule:nonzero;fill:rgb(92.156982%,44.706726%,27.450562%);fill-opacity:1;stroke-width:1.59404;stroke-linecap:butt;stroke-linejoin:miter;stroke:rgb(92.156982%,44.706726%,27.450562%);stroke-opacity:1;stroke-miterlimit:10;" d="M 64.756 62.763813 C 64.756 63.861469 63.861469 64.756 62.763813 64.756 C 61.66225 64.756 60.771625 63.861469 60.771625 62.763813 C 60.771625 61.66225 61.66225 60.771625 62.763813 60.771625 C 63.861469 60.771625 64.756 61.66225 64.756 62.763813 Z M 64.756 62.763813 " transform="matrix(1,0,0,-1,5.869,167.256)"/>
<path style="fill-rule:nonzero;fill:rgb(92.156982%,44.706726%,27.450562%);fill-opacity:1;stroke-width:1.59404;stroke-linecap:butt;stroke-linejoin:miter;stroke:rgb(92.156982%,44.706726%,27.450562%);stroke-opacity:1;stroke-miterlimit:10;" d="M 82.689594 80.6935 C 82.689594 81.795063 81.795063 82.689594 80.6935 82.689594 C 79.595844 82.689594 78.701313 81.795063 78.701313 80.6935 C 78.701313 79.595844 79.595844 78.701313 80.6935 78.701313 C 81.795063 78.701313 82.689594 79.595844 82.689594 80.6935 Z M 82.689594 80.6935 " transform="matrix(1,0,0,-1,5.869,167.256)"/>
<path style="fill-rule:nonzero;fill:rgb(92.156982%,44.706726%,27.450562%);fill-opacity:1;stroke-width:1.59404;stroke-linecap:butt;stroke-linejoin:miter;stroke:rgb(92.156982%,44.706726%,27.450562%);stroke-opacity:1;stroke-miterlimit:10;" d="M 100.619281 98.627094 C 100.619281 99.728656 99.728656 100.619281 98.627094 100.619281 C 97.525531 100.619281 96.634906 99.728656 96.634906 98.627094 C 96.634906 97.525531 97.525531 96.634906 98.627094 96.634906 C 99.728656 96.634906 100.619281 97.525531 100.619281 98.627094 Z M 100.619281 98.627094 " transform="matrix(1,0,0,-1,5.869,167.256)"/>
<path style="fill-rule:nonzero;fill:rgb(92.156982%,44.706726%,27.450562%);fill-opacity:1;stroke-width:1.59404;stroke-linecap:butt;stroke-linejoin:miter;stroke:rgb(92.156982%,44.706726%,27.450562%);stroke-opacity:1;stroke-miterlimit:10;" d="M 118.552875 116.560688 C 118.552875 117.658344 117.658344 118.552875 116.560688 118.552875 C 115.459125 118.552875 114.5685 117.658344 114.5685 116.560688 C 114.5685 115.459125 115.459125 114.5685 116.560688 114.5685 C 117.658344 114.5685 118.552875 115.459125 118.552875 116.560688 Z M 118.552875 116.560688 " transform="matrix(1,0,0,-1,5.869,167.256)"/>
<path style="fill:none;stroke-width:0.3985;stroke-linecap:butt;stroke-linejoin:miter;stroke:rgb(0%,0%,0%);stroke-opacity:1;stroke-miterlimit:10;" d="M -0.0009375 80.6935 L 159.3975 80.6935 " transform="matrix(1,0,0,-1,187.165,167.256)"/>
<path style=" stroke:none;fill-rule:nonzero;fill:rgb(0%,0%,0%);fill-opacity:1;" d="M 348.554688 86.5625 L 345.367188 84.96875 L 346.5625 86.5625 L 345.367188 88.15625 "/>
<path style="fill:none;stroke-width:0.3985;stroke-linecap:butt;stroke-linejoin:miter;stroke:rgb(0%,0%,0%);stroke-opacity:1;stroke-miterlimit:10;" d="M 80.694375 -0.0018125 L 80.694375 159.396625 " transform="matrix(1,0,0,-1,187.165,167.256)"/>
<path style=" stroke:none;fill-rule:nonzero;fill:rgb(0%,0%,0%);fill-opacity:1;" d="M 267.859375 5.867188 L 266.265625 9.054688 L 267.859375 7.859375 L 269.453125 9.054688 "/>
<g clip-path="url(#clip2)" clip-rule="nonzero">
<path style="fill:none;stroke-width:1.59404;stroke-linecap:round;stroke-linejoin:miter;stroke:rgb(0%,63.920593%,56.469727%);stroke-opacity:1;stroke-miterlimit:10;" d="M 5.377969 156.009906 L 156.010781 5.381 " transform="matrix(1,0,0,-1,187.165,167.256)"/>
</g>
<g style="fill:rgb(76.470947%,19.216919%,18.429565%);fill-opacity:1;">
  <use xlink:href="#glyph0-2" x="254.626" y="63.932"/>
</g>
<path style="fill-rule:nonzero;fill:rgb(76.470947%,19.216919%,18.429565%);fill-opacity:1;stroke-width:1.59404;stroke-linecap:butt;stroke-linejoin:miter;stroke:rgb(76.470947%,19.216919%,18.429565%);stroke-opacity:1;stroke-miterlimit:10;" d="M 64.756875 98.627094 C 64.756875 99.728656 63.862344 100.619281 62.764688 100.619281 C 61.663125 100.619281 60.768594 99.728656 60.768594 98.627094 C 60.768594 97.525531 61.663125 96.634906 62.764688 96.634906 C 63.862344 96.634906 64.756875 97.525531 64.756875 98.627094 Z M 64.756875 98.627094 " transform="matrix(1,0,0,-1,187.165,167.256)"/>
<path style="fill-rule:nonzero;fill:rgb(92.156982%,44.706726%,27.450562%);fill-opacity:1;stroke-width:1.59404;stroke-linecap:butt;stroke-linejoin:miter;stroke:rgb(92.156982%,44.706726%,27.450562%);stroke-opacity:1;stroke-miterlimit:10;" d="M 82.686563 80.6935 C 82.686563 81.795063 81.795938 82.689594 80.694375 82.689594 C 79.592813 82.689594 78.702188 81.795063 78.702188 80.6935 C 78.702188 79.595844 79.592813 78.701313 80.694375 78.701313 C 81.795938 78.701313 82.686563 79.595844 82.686563 80.6935 Z M 82.686563 80.6935 " transform="matrix(1,0,0,-1,187.165,167.256)"/>
</g>
</svg>
