<?xml version="1.0" encoding="UTF-8"?>
<svg xmlns="http://www.w3.org/2000/svg" xmlns:xlink="http://www.w3.org/1999/xlink" width="1039.107pt" height="173.13pt" viewBox="0 0 1039.107 173.13" version="1.2">
<defs>
<g>
<symbol overflow="visible" id="glyph0-0">
<path style="stroke:none;" d=""/>
</symbol>
<symbol overflow="visible" id="glyph0-1">
<path style="stroke:none;" d="M 4.953125 -7.25 C 5.03125 -7.53125 5.046875 -7.640625 5.234375 -7.6875 C 5.328125 -7.71875 5.71875 -7.71875 5.96875 -7.71875 C 7.15625 -7.71875 7.71875 -7.671875 7.71875 -6.734375 C 7.71875 -6.5625 7.671875 -6.109375 7.59375 -5.671875 L 7.59375 -5.53125 C 7.59375 -5.484375 7.640625 -5.40625 7.703125 -5.40625 C 7.828125 -5.40625 7.828125 -5.46875 7.859375 -5.65625 L 8.203125 -7.765625 C 8.234375 -7.875 8.234375 -7.890625 8.234375 -7.9375 C 8.234375 -8.0625 8.15625 -8.0625 7.921875 -8.0625 L 1.421875 -8.0625 C 1.140625 -8.0625 1.125 -8.046875 1.0625 -7.84375 L 0.328125 -5.703125 C 0.328125 -5.671875 0.28125 -5.546875 0.28125 -5.53125 C 0.28125 -5.46875 0.328125 -5.40625 0.40625 -5.40625 C 0.5 -5.40625 0.515625 -5.453125 0.578125 -5.609375 C 1.0625 -7.046875 1.3125 -7.71875 2.90625 -7.71875 L 3.703125 -7.71875 C 3.984375 -7.71875 4.109375 -7.71875 4.109375 -7.59375 C 4.109375 -7.546875 4.109375 -7.53125 4.046875 -7.3125 L 2.453125 -0.921875 C 2.328125 -0.46875 2.3125 -0.34375 1.046875 -0.34375 C 0.75 -0.34375 0.671875 -0.34375 0.671875 -0.125 C 0.671875 0 0.796875 0 0.859375 0 C 1.15625 0 1.46875 -0.03125 1.765625 -0.03125 L 3.609375 -0.03125 C 3.90625 -0.03125 4.234375 0 4.53125 0 C 4.65625 0 4.78125 0 4.78125 -0.21875 C 4.78125 -0.34375 4.703125 -0.34375 4.390625 -0.34375 C 3.3125 -0.34375 3.3125 -0.453125 3.3125 -0.625 C 3.3125 -0.640625 3.3125 -0.71875 3.359375 -0.921875 Z M 4.953125 -7.25 "/>
</symbol>
<symbol overflow="visible" id="glyph1-0">
<path style="stroke:none;" d=""/>
</symbol>
<symbol overflow="visible" id="glyph1-1">
<path style="stroke:none;" d="M 2.5 -5.0625 C 2.5 -5.265625 2.46875 -5.28125 2.265625 -5.28125 C 1.9375 -4.953125 1.515625 -4.765625 0.765625 -4.765625 L 0.765625 -4.515625 C 0.96875 -4.515625 1.40625 -4.515625 1.859375 -4.71875 L 1.859375 -0.65625 C 1.859375 -0.359375 1.84375 -0.265625 1.09375 -0.265625 L 0.8125 -0.265625 L 0.8125 0 C 1.140625 -0.03125 1.8125 -0.03125 2.171875 -0.03125 C 2.53125 -0.03125 3.21875 -0.03125 3.546875 0 L 3.546875 -0.265625 L 3.265625 -0.265625 C 2.515625 -0.265625 2.5 -0.359375 2.5 -0.65625 Z M 2.5 -5.0625 "/>
</symbol>
<symbol overflow="visible" id="glyph1-2">
<path style="stroke:none;" d="M 2.234375 -1.625 C 2.359375 -1.734375 2.703125 -2 2.828125 -2.109375 C 3.3125 -2.5625 3.78125 -3 3.78125 -3.71875 C 3.78125 -4.671875 3 -5.28125 2 -5.28125 C 1.046875 -5.28125 0.421875 -4.5625 0.421875 -3.84375 C 0.421875 -3.453125 0.734375 -3.40625 0.84375 -3.40625 C 1.015625 -3.40625 1.25 -3.53125 1.25 -3.828125 C 1.25 -4.234375 0.859375 -4.234375 0.765625 -4.234375 C 0.984375 -4.8125 1.53125 -5.015625 1.90625 -5.015625 C 2.65625 -5.015625 3.03125 -4.390625 3.03125 -3.71875 C 3.03125 -2.890625 2.453125 -2.296875 1.515625 -1.328125 L 0.515625 -0.296875 C 0.421875 -0.21875 0.421875 -0.203125 0.421875 0 L 3.5625 0 L 3.78125 -1.421875 L 3.546875 -1.421875 C 3.515625 -1.265625 3.453125 -0.859375 3.359375 -0.71875 C 3.3125 -0.65625 2.703125 -0.65625 2.578125 -0.65625 L 1.171875 -0.65625 Z M 2.234375 -1.625 "/>
</symbol>
<symbol overflow="visible" id="glyph2-0">
<path style="stroke:none;" d=""/>
</symbol>
<symbol overflow="visible" id="glyph2-1">
<path style="stroke:none;" d="M 3.859375 2.890625 C 3.859375 2.859375 3.859375 2.828125 3.65625 2.625 C 2.46875 1.421875 1.8125 -0.53125 1.8125 -2.953125 C 1.8125 -5.265625 2.359375 -7.25 3.75 -8.65625 C 3.859375 -8.765625 3.859375 -8.78125 3.859375 -8.828125 C 3.859375 -8.890625 3.8125 -8.921875 3.75 -8.921875 C 3.609375 -8.921875 2.625 -8.0625 2.046875 -6.890625 C 1.4375 -5.703125 1.171875 -4.421875 1.171875 -2.953125 C 1.171875 -1.90625 1.328125 -0.484375 1.953125 0.78125 C 2.65625 2.21875 3.625 2.984375 3.75 2.984375 C 3.8125 2.984375 3.859375 2.953125 3.859375 2.890625 Z M 3.859375 2.890625 "/>
</symbol>
<symbol overflow="visible" id="glyph2-2">
<path style="stroke:none;" d="M 3.359375 -2.953125 C 3.359375 -3.859375 3.234375 -5.34375 2.5625 -6.71875 C 1.859375 -8.140625 0.890625 -8.921875 0.765625 -8.921875 C 0.71875 -8.921875 0.65625 -8.890625 0.65625 -8.828125 C 0.65625 -8.78125 0.65625 -8.765625 0.859375 -8.5625 C 2.046875 -7.359375 2.71875 -5.390625 2.71875 -2.96875 C 2.71875 -0.671875 2.15625 1.3125 0.765625 2.71875 C 0.65625 2.828125 0.65625 2.859375 0.65625 2.890625 C 0.65625 2.953125 0.71875 2.984375 0.765625 2.984375 C 0.921875 2.984375 1.890625 2.125 2.46875 0.96875 C 3.078125 -0.25 3.359375 -1.53125 3.359375 -2.953125 Z M 3.359375 -2.953125 "/>
</symbol>
<symbol overflow="visible" id="glyph2-3">
<path style="stroke:none;" d="M 8.03125 -3.859375 C 8.1875 -3.859375 8.40625 -3.859375 8.40625 -4.0625 C 8.40625 -4.296875 8.203125 -4.296875 8.03125 -4.296875 L 1.015625 -4.296875 C 0.859375 -4.296875 0.640625 -4.296875 0.640625 -4.078125 C 0.640625 -3.859375 0.84375 -3.859375 1.015625 -3.859375 Z M 8.03125 -1.640625 C 8.1875 -1.640625 8.40625 -1.640625 8.40625 -1.859375 C 8.40625 -2.078125 8.203125 -2.078125 8.03125 -2.078125 L 1.015625 -2.078125 C 0.859375 -2.078125 0.640625 -2.078125 0.640625 -1.859375 C 0.640625 -1.640625 0.84375 -1.640625 1.015625 -1.640625 Z M 8.03125 -1.640625 "/>
</symbol>
<symbol overflow="visible" id="glyph2-4">
<path style="stroke:none;" d="M 5.328125 -3.8125 C 5.328125 -4.796875 5.265625 -5.75 4.84375 -6.65625 C 4.359375 -7.640625 3.5 -7.90625 2.90625 -7.90625 C 2.21875 -7.90625 1.375 -7.5625 0.9375 -6.578125 C 0.609375 -5.828125 0.484375 -5.09375 0.484375 -3.8125 C 0.484375 -2.65625 0.578125 -1.78125 1 -0.9375 C 1.46875 -0.03125 2.28125 0.25 2.90625 0.25 C 3.9375 0.25 4.53125 -0.375 4.875 -1.0625 C 5.296875 -1.953125 5.328125 -3.109375 5.328125 -3.8125 Z M 2.90625 0.015625 C 2.515625 0.015625 1.75 -0.203125 1.515625 -1.5 C 1.390625 -2.21875 1.390625 -3.109375 1.390625 -3.953125 C 1.390625 -4.921875 1.390625 -5.796875 1.578125 -6.5 C 1.78125 -7.296875 2.390625 -7.671875 2.90625 -7.671875 C 3.359375 -7.671875 4.046875 -7.390625 4.265625 -6.375 C 4.421875 -5.703125 4.421875 -4.75 4.421875 -3.953125 C 4.421875 -3.15625 4.421875 -2.25 4.296875 -1.515625 C 4.0625 -0.21875 3.3125 0.015625 2.90625 0.015625 Z M 2.90625 0.015625 "/>
</symbol>
<symbol overflow="visible" id="glyph2-5">
<path style="stroke:none;" d="M 3.421875 -7.625 C 3.421875 -7.890625 3.421875 -7.90625 3.1875 -7.90625 C 2.90625 -7.59375 2.3125 -7.140625 1.078125 -7.140625 L 1.078125 -6.796875 C 1.359375 -6.796875 1.953125 -6.796875 2.609375 -7.109375 L 2.609375 -0.921875 C 2.609375 -0.484375 2.5625 -0.34375 1.515625 -0.34375 L 1.15625 -0.34375 L 1.15625 0 C 1.46875 -0.03125 2.625 -0.03125 3.015625 -0.03125 C 3.40625 -0.03125 4.546875 -0.03125 4.875 0 L 4.875 -0.34375 L 4.5 -0.34375 C 3.453125 -0.34375 3.421875 -0.484375 3.421875 -0.921875 Z M 3.421875 -7.625 "/>
</symbol>
<symbol overflow="visible" id="glyph3-0">
<path style="stroke:none;" d=""/>
</symbol>
<symbol overflow="visible" id="glyph3-1">
<path style="stroke:none;" d="M 4 -2.9375 L 5.390625 -4.515625 C 5.515625 -4.671875 5.625 -4.765625 6.609375 -4.765625 L 6.609375 -5.28125 C 5.953125 -5.25 5.921875 -5.25 5.515625 -5.25 C 5.171875 -5.25 4.65625 -5.25 4.328125 -5.28125 L 4.328125 -4.765625 C 4.546875 -4.765625 4.796875 -4.703125 4.796875 -4.625 C 4.796875 -4.609375 4.75 -4.515625 4.71875 -4.5 L 3.6875 -3.328125 L 2.515625 -4.765625 L 3.015625 -4.765625 L 3.015625 -5.28125 C 2.734375 -5.25 1.921875 -5.25 1.609375 -5.25 C 1.25 -5.25 0.609375 -5.25 0.28125 -5.28125 L 0.28125 -4.765625 L 1.125 -4.765625 L 2.96875 -2.515625 L 1.421875 -0.765625 C 1.28125 -0.59375 1.203125 -0.515625 0.21875 -0.515625 L 0.21875 0 C 0.921875 -0.03125 0.953125 -0.03125 1.3125 -0.03125 C 1.671875 -0.03125 2.171875 -0.03125 2.5 0 L 2.5 -0.515625 C 2.265625 -0.515625 2.015625 -0.578125 2.015625 -0.65625 C 2.015625 -0.671875 2.015625 -0.671875 2.109375 -0.765625 L 3.296875 -2.109375 L 4.609375 -0.515625 L 4.109375 -0.515625 L 4.109375 0 C 4.40625 -0.03125 5.203125 -0.03125 5.53125 -0.03125 C 5.890625 -0.03125 6.515625 -0.03125 6.84375 0 L 6.84375 -0.515625 L 6.015625 -0.515625 Z M 4 -2.9375 "/>
</symbol>
<symbol overflow="visible" id="glyph4-0">
<path style="stroke:none;" d=""/>
</symbol>
<symbol overflow="visible" id="glyph4-1">
<path style="stroke:none;" d="M 8.328125 27.9375 C 8.328125 27.890625 8.296875 27.859375 8.28125 27.828125 C 7.84375 27.390625 7.046875 26.59375 6.25 25.296875 C 4.328125 22.234375 3.453125 18.375 3.453125 13.796875 C 3.453125 10.59375 3.890625 6.46875 5.84375 2.921875 C 6.796875 1.234375 7.765625 0.265625 8.28125 -0.265625 C 8.328125 -0.296875 8.328125 -0.328125 8.328125 -0.359375 C 8.328125 -0.46875 8.234375 -0.46875 8.078125 -0.46875 C 7.90625 -0.46875 7.890625 -0.46875 7.703125 -0.296875 C 3.71875 3.328125 2.46875 8.78125 2.46875 13.78125 C 2.46875 18.453125 3.546875 23.15625 6.5625 26.71875 C 6.796875 26.984375 7.25 27.484375 7.734375 27.90625 C 7.890625 28.046875 7.90625 28.046875 8.078125 28.046875 C 8.234375 28.046875 8.328125 28.046875 8.328125 27.9375 Z M 8.328125 27.9375 "/>
</symbol>
<symbol overflow="visible" id="glyph4-2">
<path style="stroke:none;" d="M 6.265625 13.796875 C 6.265625 9.125 5.203125 4.40625 2.171875 0.859375 C 1.9375 0.578125 1.484375 0.09375 1 -0.328125 C 0.859375 -0.46875 0.828125 -0.46875 0.671875 -0.46875 C 0.515625 -0.46875 0.421875 -0.46875 0.421875 -0.359375 C 0.421875 -0.3125 0.46875 -0.265625 0.484375 -0.234375 C 0.90625 0.1875 1.703125 0.984375 2.5 2.265625 C 4.40625 5.34375 5.28125 9.203125 5.28125 13.78125 C 5.28125 16.984375 4.84375 21.109375 2.890625 24.65625 C 1.953125 26.34375 0.96875 27.328125 0.46875 27.828125 C 0.4375 27.859375 0.421875 27.890625 0.421875 27.9375 C 0.421875 28.046875 0.515625 28.046875 0.671875 28.046875 C 0.828125 28.046875 0.859375 28.046875 1.03125 27.875 C 5.015625 24.25 6.265625 18.796875 6.265625 13.796875 Z M 6.265625 13.796875 "/>
</symbol>
<symbol overflow="visible" id="glyph5-0">
<path style="stroke:none;" d=""/>
</symbol>
<symbol overflow="visible" id="glyph5-1">
<path style="stroke:none;" d="M 7.84375 -2.734375 C 8.03125 -2.734375 8.25 -2.734375 8.25 -2.96875 C 8.25 -3.203125 8.03125 -3.203125 7.84375 -3.203125 L 1.40625 -3.203125 C 1.203125 -3.203125 0.984375 -3.203125 0.984375 -2.96875 C 0.984375 -2.734375 1.203125 -2.734375 1.40625 -2.734375 Z M 7.84375 -2.734375 "/>
</symbol>
</g>
</defs>
<g id="surface1">
<path style="fill:none;stroke-width:0.3985;stroke-linecap:butt;stroke-linejoin:miter;stroke:rgb(0%,0%,0%);stroke-opacity:1;stroke-miterlimit:10;" d="M -0.000972362 26.899034 L 159.401509 26.899034 " transform="matrix(0.995,0,0,-0.995,7.993155,166.424695)"/>
<path style=" stroke:none;fill-rule:nonzero;fill:rgb(0%,0%,0%);fill-opacity:1;" d="M 168.582031 139.660156 L 165.410156 138.074219 L 166.597656 139.660156 L 165.410156 141.246094 "/>
<path style="fill:none;stroke-width:0.3985;stroke-linecap:butt;stroke-linejoin:miter;stroke:rgb(0%,0%,0%);stroke-opacity:1;stroke-miterlimit:10;" d="M 26.899153 -0.00109171 L 26.899153 159.401389 " transform="matrix(0.995,0,0,-0.995,7.993155,166.424695)"/>
<path style=" stroke:none;fill-rule:nonzero;fill:rgb(0%,0%,0%);fill-opacity:1;" d="M 34.757813 5.835938 L 33.171875 9.007813 L 34.757813 7.820313 L 36.34375 9.007813 "/>
<path style="fill-rule:nonzero;fill:rgb(100%,72.155762%,10.978699%);fill-opacity:0.5;stroke-width:1.19553;stroke-linecap:round;stroke-linejoin:miter;stroke:rgb(100%,72.155762%,10.978699%);stroke-opacity:1;stroke-miterlimit:10;" d="M 26.899153 26.899034 L 26.899153 80.699285 L 80.695479 134.495611 L 134.49573 80.699285 L 134.49573 26.899034 L 26.899153 26.899034 " transform="matrix(0.995,0,0,-0.995,7.993155,166.424695)"/>
<path style="fill-rule:nonzero;fill:rgb(92.939758%,40.783691%,25.881958%);fill-opacity:0.5;stroke-width:1.19553;stroke-linecap:round;stroke-linejoin:miter;stroke:rgb(92.939758%,40.783691%,25.881958%);stroke-opacity:1;stroke-miterlimit:10;" d="M 86.077859 26.899034 L 86.077859 69.93845 L 107.595604 69.93845 L 107.595604 26.899034 L 86.077859 26.899034 " transform="matrix(0.995,0,0,-0.995,7.993155,166.424695)"/>
<path style="fill-rule:nonzero;fill:rgb(0%,65.098572%,83.921814%);fill-opacity:0.5;stroke-width:1.19553;stroke-linecap:round;stroke-linejoin:miter;stroke:rgb(92.939758%,40.783691%,25.881958%);stroke-opacity:1;stroke-miterlimit:10;" d="M 67.249342 59.177614 L 67.24149 59.64872 L 67.214009 60.115899 L 67.17475 60.583079 L 67.115862 61.050259 L 67.045196 61.513513 L 66.954901 61.97284 L 66.848902 62.432168 L 66.7272 62.883644 L 66.589794 63.335121 L 66.436685 63.778745 L 66.267872 64.214518 L 66.083356 64.65029 L 65.887062 65.074285 L 65.675064 65.490428 L 65.447363 65.902646 L 65.203959 66.307011 L 64.948776 66.699599 L 64.677891 67.084335 L 64.395227 67.457294 L 64.100786 67.822401 L 63.794568 68.17573 L 63.472646 68.521207 L 63.142872 68.854907 L 62.797394 69.172903 L 62.444065 69.479122 L 62.078959 69.777489 L 61.702074 70.060152 L 61.317338 70.327112 L 60.92475 70.582294 L 60.52431 70.825698 L 60.112093 71.053399 L 59.69595 71.265397 L 59.268029 71.465617 L 58.836182 71.650133 L 58.396484 71.81502 L 57.952859 71.968129 L 57.505309 72.105535 L 57.049907 72.227237 L 56.594505 72.333236 L 56.135177 72.423531 L 55.671923 72.498123 L 55.204744 72.553085 L 54.737564 72.59627 L 54.266459 72.619825 L 53.799279 72.627677 L 53.328173 72.619825 L 52.860994 72.59627 L 52.393814 72.553085 L 51.926634 72.498123 L 51.463381 72.423531 L 51.000127 72.333236 L 50.544725 72.227237 L 50.089323 72.105535 L 49.641773 71.968129 L 49.198148 71.81502 L 48.75845 71.650133 L 48.326603 71.465617 L 47.902608 71.265397 L 47.482539 71.053399 L 47.074247 70.825698 L 46.669882 70.582294 L 46.277294 70.327112 L 45.892558 70.060152 L 45.519599 69.777489 L 45.154492 69.479122 L 44.797237 69.172903 L 44.455686 68.854907 L 44.121986 68.521207 L 43.80399 68.17573 L 43.493845 67.822401 L 43.199405 67.457294 L 42.916741 67.084335 L 42.649781 66.699599 L 42.390673 66.307011 L 42.151195 65.902646 L 41.923494 65.490428 L 41.711496 65.074285 L 41.511276 64.65029 L 41.32676 64.214518 L 41.157947 63.778745 L 41.004838 63.335121 L 40.871358 62.883644 L 40.749656 62.432168 L 40.643657 61.97284 L 40.553362 61.513513 L 40.47877 61.050259 L 40.423808 60.583079 L 40.380623 60.115899 L 40.357068 59.64872 L 40.349216 59.177614 L 40.357068 58.710435 L 40.380623 58.239329 L 40.423808 57.772149 L 40.47877 57.30497 L 40.553362 56.841716 L 40.643657 56.382388 L 40.749656 55.92306 L 40.871358 55.471584 L 41.004838 55.020108 L 41.157947 54.576484 L 41.32676 54.140711 L 41.511276 53.708864 L 41.711496 53.280943 L 41.923494 52.8648 L 42.151195 52.452583 L 42.390673 52.052143 L 42.649781 51.655629 L 42.916741 51.270893 L 43.199405 50.897935 L 43.493845 50.532828 L 43.80399 50.179499 L 44.121986 49.834021 L 44.455686 49.504247 L 44.797237 49.182325 L 45.154492 48.876107 L 45.519599 48.581666 L 45.892558 48.299003 L 46.277294 48.028117 L 46.669882 47.772935 L 47.074247 47.52953 L 47.482539 47.301829 L 47.902608 47.089832 L 48.326603 46.889612 L 48.75845 46.709021 L 49.198148 46.540209 L 49.641773 46.387099 L 50.093249 46.249693 L 50.544725 46.127991 L 51.004053 46.021992 L 51.463381 45.931697 L 51.926634 45.861031 L 52.393814 45.802143 L 52.860994 45.762884 L 53.328173 45.735403 L 53.799279 45.727552 L 54.266459 45.735403 L 54.737564 45.762884 L 55.204744 45.802143 L 55.667997 45.861031 L 56.135177 45.931697 L 56.594505 46.021992 L 57.049907 46.127991 L 57.505309 46.249693 L 57.952859 46.387099 L 58.396484 46.540209 L 58.836182 46.709021 L 59.268029 46.889612 L 59.692024 47.089832 L 60.112093 47.301829 L 60.52431 47.52953 L 60.92475 47.772935 L 61.317338 48.028117 L 61.702074 48.299003 L 62.078959 48.581666 L 62.444065 48.876107 L 62.797394 49.182325 L 63.138946 49.504247 L 63.472646 49.834021 L 63.794568 50.179499 L 64.100786 50.532828 L 64.395227 50.897935 L 64.677891 51.270893 L 64.948776 51.655629 L 65.203959 52.052143 L 65.447363 52.452583 L 65.675064 52.8648 L 65.887062 53.280943 L 66.083356 53.708864 L 66.267872 54.140711 L 66.436685 54.576484 L 66.589794 55.024034 L 66.7272 55.471584 L 66.848902 55.92306 L 66.954901 56.382388 L 67.045196 56.841716 L 67.115862 57.30497 L 67.17475 57.772149 L 67.214009 58.239329 L 67.237564 58.710435 L 67.249342 59.177614 " transform="matrix(0.995,0,0,-0.995,7.993155,166.424695)"/>
<path style="fill:none;stroke-width:0.79701;stroke-linecap:round;stroke-linejoin:miter;stroke:rgb(92.939758%,40.783691%,25.881958%);stroke-opacity:1;stroke-miterlimit:10;" d="M 40.349216 59.177614 L 67.249342 59.177614 " transform="matrix(0.995,0,0,-0.995,7.993155,166.424695)"/>
<path style="fill:none;stroke-width:0.79701;stroke-linecap:round;stroke-linejoin:miter;stroke:rgb(92.939758%,40.783691%,25.881958%);stroke-opacity:1;stroke-miterlimit:10;" d="M 53.799279 45.727552 L 53.799279 72.627677 " transform="matrix(0.995,0,0,-0.995,7.993155,166.424695)"/>
<path style="fill:none;stroke-width:0.79701;stroke-linecap:round;stroke-linejoin:miter;stroke:rgb(100%,72.155762%,10.978699%);stroke-opacity:1;stroke-miterlimit:10;" d="M 26.899153 80.699285 L 134.49573 80.699285 " transform="matrix(0.995,0,0,-0.995,7.993155,166.424695)"/>
<path style="fill-rule:nonzero;fill:rgb(64.704895%,0%,20.391846%);fill-opacity:0.5;stroke-width:1.19553;stroke-linecap:round;stroke-linejoin:miter;stroke:rgb(64.704895%,0%,20.391846%);stroke-opacity:1;stroke-miterlimit:10;" d="M 94.145541 121.045548 L 94.145541 134.495611 L 107.595604 134.495611 L 107.595604 107.595485 " transform="matrix(0.995,0,0,-0.995,7.993155,166.424695)"/>
<path style="fill:none;stroke-width:1.59404;stroke-linecap:round;stroke-linejoin:miter;stroke:rgb(92.939758%,40.783691%,25.881958%);stroke-opacity:1;stroke-miterlimit:10;" d="M 80.697869 80.697092 L 144.15971 80.697092 " transform="matrix(0.995,0,0,-0.995,118.221245,184.38345)"/>
<path style=" stroke:none;fill-rule:nonzero;fill:rgb(92.939758%,40.783691%,25.881958%);fill-opacity:1;" d="M 265.425781 104.089844 L 259.398438 101.078125 L 261.660156 104.089844 L 259.398438 107.101563 "/>
<g style="fill:rgb(0%,0%,0%);fill-opacity:1;">
  <use xlink:href="#glyph0-1" x="186.247405" y="88.61072"/>
</g>
<g style="fill:rgb(0%,0%,0%);fill-opacity:1;">
  <use xlink:href="#glyph1-1" x="193.0741" y="90.394755"/>
</g>
<g style="fill:rgb(0%,0%,0%);fill-opacity:1;">
  <use xlink:href="#glyph2-1" x="197.78244" y="88.61072"/>
</g>
<g style="fill:rgb(0%,0%,0%);fill-opacity:1;">
  <use xlink:href="#glyph3-1" x="202.312675" y="88.61072"/>
</g>
<g style="fill:rgb(0%,0%,0%);fill-opacity:1;">
  <use xlink:href="#glyph2-2" x="209.375185" y="88.61072"/>
</g>
<g style="fill:rgb(0%,0%,0%);fill-opacity:1;">
  <use xlink:href="#glyph2-3" x="217.21189" y="88.61072"/>
</g>
<g style="fill:rgb(0%,0%,0%);fill-opacity:1;">
  <use xlink:href="#glyph4-1" x="229.57269" y="71.838005"/>
</g>
<g style="fill:rgb(0%,0%,0%);fill-opacity:1;">
  <use xlink:href="#glyph2-4" x="238.32869" y="81.324335"/>
</g>
<g style="fill:rgb(0%,0%,0%);fill-opacity:1;">
  <use xlink:href="#glyph2-4" x="254.061578" y="81.324335"/>
</g>
<g style="fill:rgb(0%,0%,0%);fill-opacity:1;">
  <use xlink:href="#glyph2-4" x="238.32869" y="95.698105"/>
</g>
<g style="fill:rgb(0%,0%,0%);fill-opacity:1;">
  <use xlink:href="#glyph2-5" x="254.061578" y="95.698105"/>
</g>
<g style="fill:rgb(0%,0%,0%);fill-opacity:1;">
  <use xlink:href="#glyph4-2" x="259.889345" y="71.838005"/>
</g>
<g style="fill:rgb(0%,0%,0%);fill-opacity:1;">
  <use xlink:href="#glyph3-1" x="270.62838" y="88.61072"/>
</g>
<path style="fill:none;stroke-width:0.3985;stroke-linecap:butt;stroke-linejoin:miter;stroke:rgb(0%,0%,0%);stroke-opacity:1;stroke-miterlimit:10;" d="M -0.000728643 26.899034 L 159.401753 26.899034 " transform="matrix(0.995,0,0,-0.995,295.3601,166.424695)"/>
<path style=" stroke:none;fill-rule:nonzero;fill:rgb(0%,0%,0%);fill-opacity:1;" d="M 455.949219 139.660156 L 452.777344 138.074219 L 453.964844 139.660156 L 452.777344 141.246094 "/>
<path style="fill:none;stroke-width:0.3985;stroke-linecap:butt;stroke-linejoin:miter;stroke:rgb(0%,0%,0%);stroke-opacity:1;stroke-miterlimit:10;" d="M 26.899397 -0.00109171 L 26.899397 159.401389 " transform="matrix(0.995,0,0,-0.995,295.3601,166.424695)"/>
<path style=" stroke:none;fill-rule:nonzero;fill:rgb(0%,0%,0%);fill-opacity:1;" d="M 322.125 5.835938 L 320.539063 9.007813 L 322.125 7.820313 L 323.710938 9.007813 "/>
<path style="fill:none;stroke-width:1.19553;stroke-linecap:round;stroke-linejoin:miter;stroke:rgb(92.939758%,40.783691%,25.881958%);stroke-opacity:1;stroke-miterlimit:10;" d="M 26.899397 26.899034 L 26.899397 69.93845 L 26.899397 26.899034 " transform="matrix(0.995,0,0,-0.995,295.3601,166.424695)"/>
<path style="fill:none;stroke-width:1.19553;stroke-linecap:round;stroke-linejoin:miter;stroke:rgb(92.939758%,40.783691%,25.881958%);stroke-opacity:1;stroke-miterlimit:10;" d="M 26.899397 59.177614 L 26.899397 72.627677 L 26.899397 45.727552 L 26.899397 59.177614 " transform="matrix(0.995,0,0,-0.995,295.3601,166.424695)"/>
<path style="fill:none;stroke-width:0.79701;stroke-linecap:round;stroke-linejoin:miter;stroke:rgb(92.939758%,40.783691%,25.881958%);stroke-opacity:1;stroke-miterlimit:10;" d="M 26.899397 59.177614 L 26.899397 59.177614 " transform="matrix(0.995,0,0,-0.995,295.3601,166.424695)"/>
<path style="fill:none;stroke-width:0.79701;stroke-linecap:round;stroke-linejoin:miter;stroke:rgb(92.939758%,40.783691%,25.881958%);stroke-opacity:1;stroke-miterlimit:10;" d="M 26.899397 45.727552 L 26.899397 72.627677 " transform="matrix(0.995,0,0,-0.995,295.3601,166.424695)"/>
<path style="fill:none;stroke-width:1.19553;stroke-linecap:round;stroke-linejoin:miter;stroke:rgb(100%,72.155762%,10.978699%);stroke-opacity:1;stroke-miterlimit:10;" d="M 26.899397 26.899034 L 26.899397 134.495611 L 26.899397 26.899034 " transform="matrix(0.995,0,0,-0.995,295.3601,166.424695)"/>
<path style="fill:none;stroke-width:0.79701;stroke-linecap:round;stroke-linejoin:miter;stroke:rgb(100%,72.155762%,10.978699%);stroke-opacity:1;stroke-miterlimit:10;" d="M 26.899397 80.699285 L 26.899397 80.699285 " transform="matrix(0.995,0,0,-0.995,295.3601,166.424695)"/>
<path style="fill:none;stroke-width:1.19553;stroke-linecap:round;stroke-linejoin:miter;stroke:rgb(64.704895%,0%,20.391846%);stroke-opacity:1;stroke-miterlimit:10;" d="M 26.899397 121.045548 L 26.899397 134.495611 L 26.899397 107.595485 " transform="matrix(0.995,0,0,-0.995,295.3601,166.424695)"/>
<path style="fill:none;stroke-width:1.59404;stroke-linecap:round;stroke-linejoin:miter;stroke:rgb(92.939758%,40.783691%,25.881958%);stroke-opacity:1;stroke-miterlimit:10;" d="M 80.696354 80.696092 L 144.158195 80.696092 " transform="matrix(0.995,0,0,-0.995,410.21494,184.382455)"/>
<path style=" stroke:none;fill-rule:nonzero;fill:rgb(92.939758%,40.783691%,25.881958%);fill-opacity:1;" d="M 557.417969 104.089844 L 551.394531 101.074219 L 553.652344 104.089844 L 551.394531 107.101563 "/>
<g style="fill:rgb(0%,0%,0%);fill-opacity:1;">
  <use xlink:href="#glyph0-1" x="473.61435" y="88.609725"/>
</g>
<g style="fill:rgb(0%,0%,0%);fill-opacity:1;">
  <use xlink:href="#glyph1-2" x="480.441045" y="90.39376"/>
</g>
<g style="fill:rgb(0%,0%,0%);fill-opacity:1;">
  <use xlink:href="#glyph2-1" x="485.15038" y="88.609725"/>
</g>
<g style="fill:rgb(0%,0%,0%);fill-opacity:1;">
  <use xlink:href="#glyph3-1" x="489.67962" y="88.609725"/>
</g>
<g style="fill:rgb(0%,0%,0%);fill-opacity:1;">
  <use xlink:href="#glyph2-2" x="496.74213" y="88.609725"/>
</g>
<g style="fill:rgb(0%,0%,0%);fill-opacity:1;">
  <use xlink:href="#glyph2-3" x="504.578835" y="88.609725"/>
</g>
<g style="fill:rgb(0%,0%,0%);fill-opacity:1;">
  <use xlink:href="#glyph4-1" x="516.939635" y="71.83701"/>
</g>
<g style="fill:rgb(0%,0%,0%);fill-opacity:1;">
  <use xlink:href="#glyph2-4" x="534.94814" y="81.32334"/>
</g>
<g style="fill:rgb(0%,0%,0%);fill-opacity:1;">
  <use xlink:href="#glyph2-5" x="550.681028" y="81.32334"/>
</g>
<g style="fill:rgb(0%,0%,0%);fill-opacity:1;">
  <use xlink:href="#glyph5-1" x="525.695635" y="95.69711"/>
</g>
<g style="fill:rgb(0%,0%,0%);fill-opacity:1;">
  <use xlink:href="#glyph2-5" x="534.94814" y="95.69711"/>
</g>
<g style="fill:rgb(0%,0%,0%);fill-opacity:1;">
  <use xlink:href="#glyph2-4" x="550.681028" y="95.69711"/>
</g>
<g style="fill:rgb(0%,0%,0%);fill-opacity:1;">
  <use xlink:href="#glyph4-2" x="556.508795" y="71.83701"/>
</g>
<g style="fill:rgb(0%,0%,0%);fill-opacity:1;">
  <use xlink:href="#glyph3-1" x="567.246835" y="88.609725"/>
</g>
<path style="fill:none;stroke-width:0.3985;stroke-linecap:butt;stroke-linejoin:miter;stroke:rgb(0%,0%,0%);stroke-opacity:1;stroke-miterlimit:10;" d="M 0.000923367 26.899034 L 159.403405 26.899034 " transform="matrix(0.995,0,0,-0.995,591.97955,166.424695)"/>
<path style=" stroke:none;fill-rule:nonzero;fill:rgb(0%,0%,0%);fill-opacity:1;" d="M 752.566406 139.660156 L 749.394531 138.074219 L 750.585938 139.660156 L 749.394531 141.246094 "/>
<path style="fill:none;stroke-width:0.3985;stroke-linecap:butt;stroke-linejoin:miter;stroke:rgb(0%,0%,0%);stroke-opacity:1;stroke-miterlimit:10;" d="M 26.901049 -0.00109171 L 26.901049 159.401389 " transform="matrix(0.995,0,0,-0.995,591.97955,166.424695)"/>
<path style=" stroke:none;fill-rule:nonzero;fill:rgb(0%,0%,0%);fill-opacity:1;" d="M 618.746094 5.835938 L 617.15625 9.007813 L 618.746094 7.820313 L 620.332031 9.007813 "/>
<path style="fill:none;stroke-width:1.19553;stroke-linecap:round;stroke-linejoin:miter;stroke:rgb(92.939758%,40.783691%,25.881958%);stroke-opacity:1;stroke-miterlimit:10;" d="M 26.901049 26.899034 L 69.936539 26.899034 L 26.901049 26.899034 " transform="matrix(0.995,0,0,-0.995,591.97955,166.424695)"/>
<path style="fill:none;stroke-width:1.19553;stroke-linecap:round;stroke-linejoin:miter;stroke:rgb(92.939758%,40.783691%,25.881958%);stroke-opacity:1;stroke-miterlimit:10;" d="M 59.179629 26.899034 L 72.625766 26.899034 L 45.729567 26.899034 L 59.179629 26.899034 " transform="matrix(0.995,0,0,-0.995,591.97955,166.424695)"/>
<path style="fill:none;stroke-width:0.79701;stroke-linecap:round;stroke-linejoin:miter;stroke:rgb(92.939758%,40.783691%,25.881958%);stroke-opacity:1;stroke-miterlimit:10;" d="M 59.179629 26.899034 L 59.179629 26.899034 " transform="matrix(0.995,0,0,-0.995,591.97955,166.424695)"/>
<path style="fill:none;stroke-width:0.79701;stroke-linecap:round;stroke-linejoin:miter;stroke:rgb(92.939758%,40.783691%,25.881958%);stroke-opacity:1;stroke-miterlimit:10;" d="M 45.729567 26.899034 L 72.625766 26.899034 " transform="matrix(0.995,0,0,-0.995,591.97955,166.424695)"/>
<path style="fill:none;stroke-width:1.19553;stroke-linecap:round;stroke-linejoin:miter;stroke:rgb(100%,72.155762%,10.978699%);stroke-opacity:1;stroke-miterlimit:10;" d="M 26.901049 26.899034 L 134.497626 26.899034 L 26.901049 26.899034 " transform="matrix(0.995,0,0,-0.995,591.97955,166.424695)"/>
<path style="fill:none;stroke-width:0.79701;stroke-linecap:round;stroke-linejoin:miter;stroke:rgb(100%,72.155762%,10.978699%);stroke-opacity:1;stroke-miterlimit:10;" d="M 80.697374 26.899034 L 80.697374 26.899034 " transform="matrix(0.995,0,0,-0.995,591.97955,166.424695)"/>
<path style="fill:none;stroke-width:1.19553;stroke-linecap:round;stroke-linejoin:miter;stroke:rgb(64.704895%,0%,20.391846%);stroke-opacity:1;stroke-miterlimit:10;" d="M 121.047563 26.899034 L 134.497626 26.899034 L 107.5975 26.899034 " transform="matrix(0.995,0,0,-0.995,591.97955,166.424695)"/>
<path style="fill:none;stroke-width:1.59404;stroke-linecap:round;stroke-linejoin:miter;stroke:rgb(92.939758%,40.783691%,25.881958%);stroke-opacity:1;stroke-miterlimit:10;" d="M 80.695839 80.696092 L 144.15768 80.696092 " transform="matrix(0.995,0,0,-0.995,702.20764,184.382455)"/>
<path style=" stroke:none;fill-rule:nonzero;fill:rgb(92.939758%,40.783691%,25.881958%);fill-opacity:1;" d="M 849.414063 104.089844 L 843.386719 101.074219 L 845.644531 104.089844 L 843.386719 107.101563 "/>
<g style="fill:rgb(0%,0%,0%);fill-opacity:1;">
  <use xlink:href="#glyph0-1" x="770.2338" y="88.609725"/>
</g>
<g style="fill:rgb(0%,0%,0%);fill-opacity:1;">
  <use xlink:href="#glyph1-1" x="777.060495" y="90.39376"/>
</g>
<g style="fill:rgb(0%,0%,0%);fill-opacity:1;">
  <use xlink:href="#glyph2-1" x="781.768835" y="88.609725"/>
</g>
<g style="fill:rgb(0%,0%,0%);fill-opacity:1;">
  <use xlink:href="#glyph3-1" x="786.29907" y="88.609725"/>
</g>
<g style="fill:rgb(0%,0%,0%);fill-opacity:1;">
  <use xlink:href="#glyph2-2" x="793.36158" y="88.609725"/>
</g>
<g style="fill:rgb(0%,0%,0%);fill-opacity:1;">
  <use xlink:href="#glyph2-3" x="801.198285" y="88.609725"/>
</g>
<g style="fill:rgb(0%,0%,0%);fill-opacity:1;">
  <use xlink:href="#glyph4-1" x="813.559085" y="71.83701"/>
</g>
<g style="fill:rgb(0%,0%,0%);fill-opacity:1;">
  <use xlink:href="#glyph2-4" x="822.315085" y="81.32334"/>
</g>
<g style="fill:rgb(0%,0%,0%);fill-opacity:1;">
  <use xlink:href="#glyph2-4" x="838.047973" y="81.32334"/>
</g>
<g style="fill:rgb(0%,0%,0%);fill-opacity:1;">
  <use xlink:href="#glyph2-4" x="822.315085" y="95.69711"/>
</g>
<g style="fill:rgb(0%,0%,0%);fill-opacity:1;">
  <use xlink:href="#glyph2-5" x="838.047973" y="95.69711"/>
</g>
<g style="fill:rgb(0%,0%,0%);fill-opacity:1;">
  <use xlink:href="#glyph4-2" x="843.87574" y="71.83701"/>
</g>
<g style="fill:rgb(0%,0%,0%);fill-opacity:1;">
  <use xlink:href="#glyph3-1" x="854.614775" y="88.609725"/>
</g>
<path style="fill:none;stroke-width:0.3985;stroke-linecap:butt;stroke-linejoin:miter;stroke:rgb(0%,0%,0%);stroke-opacity:1;stroke-miterlimit:10;" d="M 0.000356784 26.899034 L 159.402838 26.899034 " transform="matrix(0.995,0,0,-0.995,869.64027,166.424695)"/>
<path style=" stroke:none;fill-rule:nonzero;fill:rgb(0%,0%,0%);fill-opacity:1;" d="M 1030.226563 139.660156 L 1027.054688 138.074219 L 1028.246094 139.660156 L 1027.054688 141.246094 "/>
<path style="fill:none;stroke-width:0.3985;stroke-linecap:butt;stroke-linejoin:miter;stroke:rgb(0%,0%,0%);stroke-opacity:1;stroke-miterlimit:10;" d="M 26.900482 -0.00109171 L 26.900482 159.401389 " transform="matrix(0.995,0,0,-0.995,869.64027,166.424695)"/>
<path style=" stroke:none;fill-rule:nonzero;fill:rgb(0%,0%,0%);fill-opacity:1;" d="M 896.40625 5.835938 L 894.820313 9.007813 L 896.40625 7.820313 L 897.992188 9.007813 "/>
<path style="fill:none;stroke-width:1.19553;stroke-linecap:round;stroke-linejoin:miter;stroke:rgb(92.939758%,40.783691%,25.881958%);stroke-opacity:1;stroke-miterlimit:10;" d="M 26.900482 26.899034 L 26.900482 26.899034 " transform="matrix(0.995,0,0,-0.995,869.64027,166.424695)"/>
<path style="fill:none;stroke-width:1.19553;stroke-linecap:round;stroke-linejoin:miter;stroke:rgb(92.939758%,40.783691%,25.881958%);stroke-opacity:1;stroke-miterlimit:10;" d="M 26.900482 26.899034 L 26.900482 26.899034 " transform="matrix(0.995,0,0,-0.995,869.64027,166.424695)"/>
<path style="fill:none;stroke-width:0.79701;stroke-linecap:round;stroke-linejoin:miter;stroke:rgb(92.939758%,40.783691%,25.881958%);stroke-opacity:1;stroke-miterlimit:10;" d="M 26.900482 26.899034 L 26.900482 26.899034 " transform="matrix(0.995,0,0,-0.995,869.64027,166.424695)"/>
<path style="fill:none;stroke-width:0.79701;stroke-linecap:round;stroke-linejoin:miter;stroke:rgb(92.939758%,40.783691%,25.881958%);stroke-opacity:1;stroke-miterlimit:10;" d="M 26.900482 26.899034 L 26.900482 26.899034 " transform="matrix(0.995,0,0,-0.995,869.64027,166.424695)"/>
<path style="fill:none;stroke-width:1.19553;stroke-linecap:round;stroke-linejoin:miter;stroke:rgb(100%,72.155762%,10.978699%);stroke-opacity:1;stroke-miterlimit:10;" d="M 26.900482 26.899034 L 26.900482 26.899034 " transform="matrix(0.995,0,0,-0.995,869.64027,166.424695)"/>
<path style="fill:none;stroke-width:0.79701;stroke-linecap:round;stroke-linejoin:miter;stroke:rgb(100%,72.155762%,10.978699%);stroke-opacity:1;stroke-miterlimit:10;" d="M 26.900482 26.899034 L 26.900482 26.899034 " transform="matrix(0.995,0,0,-0.995,869.64027,166.424695)"/>
<path style="fill:none;stroke-width:1.19553;stroke-linecap:round;stroke-linejoin:miter;stroke:rgb(64.704895%,0%,20.391846%);stroke-opacity:1;stroke-miterlimit:10;" d="M 26.900482 26.899034 L 26.900482 26.899034 " transform="matrix(0.995,0,0,-0.995,869.64027,166.424695)"/>
<path style="fill-rule:nonzero;fill:rgb(64.704895%,0%,20.391846%);fill-opacity:0.5;stroke-width:1.19553;stroke-linecap:round;stroke-linejoin:miter;stroke:rgb(64.704895%,0%,20.391846%);stroke-opacity:1;stroke-miterlimit:10;" d="M 28.890903 26.899034 C 28.890903 27.99828 27.999729 28.893381 26.900482 28.893381 C 25.79731 28.893381 24.906136 27.99828 24.906136 26.899034 C 24.906136 25.799788 25.79731 24.904687 26.900482 24.904687 C 27.999729 24.904687 28.890903 25.799788 28.890903 26.899034 Z M 28.890903 26.899034 " transform="matrix(0.995,0,0,-0.995,869.64027,166.424695)"/>
<path style="fill-rule:nonzero;fill:rgb(64.704895%,0%,20.391846%);fill-opacity:0.5;stroke-width:1.19553;stroke-linecap:round;stroke-linejoin:miter;stroke:rgb(64.704895%,0%,20.391846%);stroke-opacity:1;stroke-miterlimit:10;" d="M 28.890903 26.899034 C 28.890903 27.99828 27.999729 28.893381 26.900482 28.893381 C 25.79731 28.893381 24.906136 27.99828 24.906136 26.899034 C 24.906136 25.799788 25.79731 24.904687 26.900482 24.904687 C 27.999729 24.904687 28.890903 25.799788 28.890903 26.899034 Z M 28.890903 26.899034 " transform="matrix(0.995,0,0,-0.995,869.64027,166.424695)"/>
<path style="fill-rule:nonzero;fill:rgb(64.704895%,0%,20.391846%);fill-opacity:0.5;stroke-width:1.19553;stroke-linecap:round;stroke-linejoin:miter;stroke:rgb(64.704895%,0%,20.391846%);stroke-opacity:1;stroke-miterlimit:10;" d="M 28.890903 26.899034 C 28.890903 27.99828 27.999729 28.893381 26.900482 28.893381 C 25.79731 28.893381 24.906136 27.99828 24.906136 26.899034 C 24.906136 25.799788 25.79731 24.904687 26.900482 24.904687 C 27.999729 24.904687 28.890903 25.799788 28.890903 26.899034 Z M 28.890903 26.899034 " transform="matrix(0.995,0,0,-0.995,869.64027,166.424695)"/>
<path style="fill-rule:nonzero;fill:rgb(64.704895%,0%,20.391846%);fill-opacity:0.5;stroke-width:1.19553;stroke-linecap:round;stroke-linejoin:miter;stroke:rgb(64.704895%,0%,20.391846%);stroke-opacity:1;stroke-miterlimit:10;" d="M 28.890903 26.899034 C 28.890903 27.99828 27.999729 28.893381 26.900482 28.893381 C 25.79731 28.893381 24.906136 27.99828 24.906136 26.899034 C 24.906136 25.799788 25.79731 24.904687 26.900482 24.904687 C 27.999729 24.904687 28.890903 25.799788 28.890903 26.899034 Z M 28.890903 26.899034 " transform="matrix(0.995,0,0,-0.995,869.64027,166.424695)"/>
</g>
</svg>
