<?xml version="1.0" encoding="UTF-8"?>
<svg xmlns="http://www.w3.org/2000/svg" xmlns:xlink="http://www.w3.org/1999/xlink" width="354.416pt" height="173.122pt" viewBox="0 0 354.416 173.122" version="1.1">
<g id="surface1">
<path style="fill:none;stroke-width:0.3985;stroke-linecap:butt;stroke-linejoin:miter;stroke:rgb(0%,0%,0%);stroke-opacity:1;stroke-miterlimit:10;" d="M -0.0018125 80.694406 L 159.396625 80.694406 " transform="matrix(1,0,0,-1,5.869,167.253)"/>
<path style=" stroke:none;fill-rule:nonzero;fill:rgb(0%,0%,0%);fill-opacity:1;" d="M 167.257812 86.558594 L 164.066406 84.964844 L 165.265625 86.558594 L 164.066406 88.152344 "/>
<path style="fill:none;stroke-width:0.3985;stroke-linecap:butt;stroke-linejoin:miter;stroke:rgb(0%,0%,0%);stroke-opacity:1;stroke-miterlimit:10;" d="M 80.6935 -0.00090625 L 80.6935 159.393625 " transform="matrix(1,0,0,-1,5.869,167.253)"/>
<path style=" stroke:none;fill-rule:nonzero;fill:rgb(0%,0%,0%);fill-opacity:1;" d="M 86.5625 5.867188 L 84.96875 9.054688 L 86.5625 7.859375 L 88.15625 9.054688 "/>
<path style="fill-rule:nonzero;fill:rgb(76.470947%,19.216919%,18.429565%);fill-opacity:1;stroke-width:1.59404;stroke-linecap:butt;stroke-linejoin:miter;stroke:rgb(76.470947%,19.216919%,18.429565%);stroke-opacity:1;stroke-miterlimit:10;" d="M 59.631 103.749094 C 59.631 104.850656 58.740375 105.741281 57.638813 105.741281 C 56.53725 105.741281 55.646625 104.850656 55.646625 103.749094 C 55.646625 102.647531 56.53725 101.756906 57.638813 101.756906 C 58.740375 101.756906 59.631 102.647531 59.631 103.749094 Z M 59.631 103.749094 " transform="matrix(1,0,0,-1,5.869,167.253)"/>
<path style="fill-rule:nonzero;fill:rgb(92.156982%,44.706726%,27.450562%);fill-opacity:1;stroke-width:1.59404;stroke-linecap:butt;stroke-linejoin:miter;stroke:rgb(92.156982%,44.706726%,27.450562%);stroke-opacity:1;stroke-miterlimit:10;" d="M 82.685688 80.694406 C 82.685688 81.795969 81.795063 82.686594 80.6935 82.686594 C 79.591938 82.686594 78.701313 81.795969 78.701313 80.694406 C 78.701313 79.592844 79.591938 78.702219 80.6935 78.702219 C 81.795063 78.702219 82.685688 79.592844 82.685688 80.694406 Z M 82.685688 80.694406 " transform="matrix(1,0,0,-1,5.869,167.253)"/>
<path style="fill-rule:nonzero;fill:rgb(0%,63.920593%,56.469727%);fill-opacity:1;stroke-width:1.59404;stroke-linecap:butt;stroke-linejoin:miter;stroke:rgb(0%,63.920593%,56.469727%);stroke-opacity:1;stroke-miterlimit:10;" d="M 105.740375 126.803781 C 105.740375 127.905344 104.84975 128.795969 103.748188 128.795969 C 102.646625 128.795969 101.756 127.905344 101.756 126.803781 C 101.756 125.702219 102.646625 124.811594 103.748188 124.811594 C 104.84975 124.811594 105.740375 125.702219 105.740375 126.803781 Z M 105.740375 126.803781 " transform="matrix(1,0,0,-1,5.869,167.253)"/>
<path style="fill-rule:nonzero;fill:rgb(0%,65.098572%,83.921814%);fill-opacity:1;stroke-width:1.59404;stroke-linecap:butt;stroke-linejoin:miter;stroke:rgb(0%,65.098572%,83.921814%);stroke-opacity:1;stroke-miterlimit:10;" d="M 105.740375 57.639719 C 105.740375 58.737375 104.84975 59.631906 103.748188 59.631906 C 102.646625 59.631906 101.756 58.737375 101.756 57.639719 C 101.756 56.538156 102.646625 55.647531 103.748188 55.647531 C 104.84975 55.647531 105.740375 56.538156 105.740375 57.639719 Z M 105.740375 57.639719 " transform="matrix(1,0,0,-1,5.869,167.253)"/>
<path style="fill:none;stroke-width:0.3985;stroke-linecap:butt;stroke-linejoin:miter;stroke:rgb(0%,0%,0%);stroke-opacity:1;stroke-miterlimit:10;" d="M -0.00184375 80.694406 L 159.396594 80.694406 " transform="matrix(1,0,0,-1,187.162,167.253)"/>
<path style=" stroke:none;fill-rule:nonzero;fill:rgb(0%,0%,0%);fill-opacity:1;" d="M 348.550781 86.558594 L 345.359375 84.964844 L 346.558594 86.558594 L 345.359375 88.152344 "/>
<path style="fill:none;stroke-width:0.3985;stroke-linecap:butt;stroke-linejoin:miter;stroke:rgb(0%,0%,0%);stroke-opacity:1;stroke-miterlimit:10;" d="M 80.693469 -0.00090625 L 80.693469 159.393625 " transform="matrix(1,0,0,-1,187.162,167.253)"/>
<path style=" stroke:none;fill-rule:nonzero;fill:rgb(0%,0%,0%);fill-opacity:1;" d="M 267.855469 5.867188 L 266.261719 9.054688 L 267.855469 7.859375 L 269.449219 9.054688 "/>
<path style="fill-rule:nonzero;fill:rgb(76.470947%,19.216919%,18.429565%);fill-opacity:1;stroke-width:1.59404;stroke-linecap:butt;stroke-linejoin:miter;stroke:rgb(76.470947%,19.216919%,18.429565%);stroke-opacity:1;stroke-miterlimit:10;" d="M 36.576281 80.694406 C 36.576281 81.795969 35.68175 82.686594 34.584094 82.686594 C 33.482531 82.686594 32.591906 81.795969 32.591906 80.694406 C 32.591906 79.592844 33.482531 78.702219 34.584094 78.702219 C 35.68175 78.702219 36.576281 79.592844 36.576281 80.694406 Z M 36.576281 80.694406 " transform="matrix(1,0,0,-1,187.162,167.253)"/>
<path style="fill-rule:nonzero;fill:rgb(92.156982%,44.706726%,27.450562%);fill-opacity:1;stroke-width:1.59404;stroke-linecap:butt;stroke-linejoin:miter;stroke:rgb(92.156982%,44.706726%,27.450562%);stroke-opacity:1;stroke-miterlimit:10;" d="M 82.685656 80.694406 C 82.685656 81.795969 81.795031 82.686594 80.693469 82.686594 C 79.591906 82.686594 78.701281 81.795969 78.701281 80.694406 C 78.701281 79.592844 79.591906 78.702219 80.693469 78.702219 C 81.795031 78.702219 82.685656 79.592844 82.685656 80.694406 Z M 82.685656 80.694406 " transform="matrix(1,0,0,-1,187.162,167.253)"/>
<path style="fill-rule:nonzero;fill:rgb(0%,63.920593%,56.469727%);fill-opacity:1;stroke-width:1.59404;stroke-linecap:butt;stroke-linejoin:miter;stroke:rgb(0%,63.920593%,56.469727%);stroke-opacity:1;stroke-miterlimit:10;" d="M 59.630969 149.858469 C 59.630969 150.960031 58.740344 151.850656 57.638781 151.850656 C 56.537219 151.850656 55.646594 150.960031 55.646594 149.858469 C 55.646594 148.760813 56.537219 147.866281 57.638781 147.866281 C 58.740344 147.866281 59.630969 148.760813 59.630969 149.858469 Z M 59.630969 149.858469 " transform="matrix(1,0,0,-1,187.162,167.253)"/>
<path style="fill-rule:nonzero;fill:rgb(0%,65.098572%,83.921814%);fill-opacity:1;stroke-width:1.59404;stroke-linecap:butt;stroke-linejoin:miter;stroke:rgb(0%,65.098572%,83.921814%);stroke-opacity:1;stroke-miterlimit:10;" d="M 128.795031 80.694406 C 128.795031 81.795969 127.904406 82.686594 126.802844 82.686594 C 125.705188 82.686594 124.810656 81.795969 124.810656 80.694406 C 124.810656 79.592844 125.705188 78.702219 126.802844 78.702219 C 127.904406 78.702219 128.795031 79.592844 128.795031 80.694406 Z M 128.795031 80.694406 " transform="matrix(1,0,0,-1,187.162,167.253)"/>
</g>
</svg>
