<?xml version="1.0" encoding="UTF-8"?>
<svg xmlns="http://www.w3.org/2000/svg" xmlns:xlink="http://www.w3.org/1999/xlink" width="354.416pt" height="173.122pt" viewBox="0 0 354.416 173.122" version="1.2">
<g id="surface1">
<path style="fill:none;stroke-width:0.3985;stroke-linecap:butt;stroke-linejoin:miter;stroke:rgb(0%,0%,0%);stroke-opacity:1;stroke-miterlimit:10;" d="M -0.00164815 80.695137 L 159.396421 80.695137 " transform="matrix(0.994954,0,0,-0.994954,6.443046,166.409045)"/>
<path style=" stroke:none;fill-rule:nonzero;fill:rgb(0%,0%,0%);fill-opacity:1;" d="M 167.015625 86.121094 L 163.84375 84.535156 L 165.035156 86.121094 L 163.84375 87.707031 "/>
<path style="fill:none;stroke-width:0.3985;stroke-linecap:butt;stroke-linejoin:miter;stroke:rgb(0%,0%,0%);stroke-opacity:1;stroke-miterlimit:10;" d="M 80.694606 -0.00111668 L 80.694606 159.393026 " transform="matrix(0.994954,0,0,-0.994954,6.443046,166.409045)"/>
<path style=" stroke:none;fill-rule:nonzero;fill:rgb(0%,0%,0%);fill-opacity:1;" d="M 86.730469 5.835938 L 85.144531 9.007813 L 86.730469 7.820313 L 88.316406 9.007813 "/>
<path style="fill-rule:nonzero;fill:rgb(64.704895%,0%,20.391846%);fill-opacity:1;stroke-width:1.59404;stroke-linecap:butt;stroke-linejoin:miter;stroke:rgb(64.704895%,0%,20.391846%);stroke-opacity:1;stroke-miterlimit:10;" d="M 59.63129 103.748966 C 59.63129 104.848263 58.740074 105.743405 57.636851 105.743405 C 56.537554 105.743405 55.646338 104.848263 55.646338 103.748966 C 55.646338 102.649669 56.537554 101.754527 57.636851 101.754527 C 58.740074 101.754527 59.63129 102.649669 59.63129 103.748966 Z M 59.63129 103.748966 " transform="matrix(0.994954,0,0,-0.994954,6.443046,166.409045)"/>
<path style="fill-rule:nonzero;fill:rgb(92.939758%,40.783691%,25.881958%);fill-opacity:1;stroke-width:1.59404;stroke-linecap:butt;stroke-linejoin:miter;stroke:rgb(92.939758%,40.783691%,25.881958%);stroke-opacity:1;stroke-miterlimit:10;" d="M 82.685119 80.695137 C 82.685119 81.794434 81.793903 82.68565 80.694606 82.68565 C 79.591383 82.68565 78.700167 81.794434 78.700167 80.695137 C 78.700167 79.591914 79.591383 78.700698 80.694606 78.700698 C 81.793903 78.700698 82.685119 79.591914 82.685119 80.695137 Z M 82.685119 80.695137 " transform="matrix(0.994954,0,0,-0.994954,6.443046,166.409045)"/>
<path style="fill-rule:nonzero;fill:rgb(0%,60.78186%,46.665955%);fill-opacity:1;stroke-width:1.59404;stroke-linecap:butt;stroke-linejoin:miter;stroke:rgb(0%,60.78186%,46.665955%);stroke-opacity:1;stroke-miterlimit:10;" d="M 105.742874 126.802795 C 105.742874 127.906019 104.847732 128.797234 103.748435 128.797234 C 102.649138 128.797234 101.757922 127.906019 101.757922 126.802795 C 101.757922 125.703498 102.649138 124.812283 103.748435 124.812283 C 104.847732 124.812283 105.742874 125.703498 105.742874 126.802795 Z M 105.742874 126.802795 " transform="matrix(0.994954,0,0,-0.994954,6.443046,166.409045)"/>
<path style="fill-rule:nonzero;fill:rgb(0%,65.098572%,83.921814%);fill-opacity:1;stroke-width:1.59404;stroke-linecap:butt;stroke-linejoin:miter;stroke:rgb(0%,65.098572%,83.921814%);stroke-opacity:1;stroke-miterlimit:10;" d="M 105.742874 57.637382 C 105.742874 58.740605 104.847732 59.631821 103.748435 59.631821 C 102.649138 59.631821 101.757922 58.740605 101.757922 57.637382 C 101.757922 56.538085 102.649138 55.646869 103.748435 55.646869 C 104.847732 55.646869 105.742874 56.538085 105.742874 57.637382 Z M 105.742874 57.637382 " transform="matrix(0.994954,0,0,-0.994954,6.443046,166.409045)"/>
<path style="fill:none;stroke-width:0.3985;stroke-linecap:butt;stroke-linejoin:miter;stroke:rgb(0%,0%,0%);stroke-opacity:1;stroke-miterlimit:10;" d="M -0.000938003 80.695137 L 159.393205 80.695137 " transform="matrix(0.994954,0,0,-0.994954,186.821246,166.409045)"/>
<path style=" stroke:none;fill-rule:nonzero;fill:rgb(0%,0%,0%);fill-opacity:1;" d="M 347.394531 86.121094 L 344.222656 84.535156 L 345.410156 86.121094 L 344.222656 87.707031 "/>
<path style="fill:none;stroke-width:0.3985;stroke-linecap:butt;stroke-linejoin:miter;stroke:rgb(0%,0%,0%);stroke-opacity:1;stroke-miterlimit:10;" d="M 80.695316 -0.00111668 L 80.695316 159.393026 " transform="matrix(0.994954,0,0,-0.994954,186.821246,166.409045)"/>
<path style=" stroke:none;fill-rule:nonzero;fill:rgb(0%,0%,0%);fill-opacity:1;" d="M 267.109375 5.835938 L 265.523438 9.007813 L 267.109375 7.820313 L 268.695313 9.007813 "/>
<path style="fill-rule:nonzero;fill:rgb(64.704895%,0%,20.391846%);fill-opacity:1;stroke-width:1.59404;stroke-linecap:butt;stroke-linejoin:miter;stroke:rgb(64.704895%,0%,20.391846%);stroke-opacity:1;stroke-miterlimit:10;" d="M 36.574245 80.695137 C 36.574245 81.794434 35.683029 82.68565 34.583732 82.68565 C 33.484435 82.68565 32.589293 81.794434 32.589293 80.695137 C 32.589293 79.591914 33.484435 78.700698 34.583732 78.700698 C 35.683029 78.700698 36.574245 79.591914 36.574245 80.695137 Z M 36.574245 80.695137 " transform="matrix(0.994954,0,0,-0.994954,186.821246,166.409045)"/>
<path style="fill-rule:nonzero;fill:rgb(92.939758%,40.783691%,25.881958%);fill-opacity:1;stroke-width:1.59404;stroke-linecap:butt;stroke-linejoin:miter;stroke:rgb(92.939758%,40.783691%,25.881958%);stroke-opacity:1;stroke-miterlimit:10;" d="M 82.685829 80.695137 C 82.685829 81.794434 81.794613 82.68565 80.695316 82.68565 C 79.592093 82.68565 78.700877 81.794434 78.700877 80.695137 C 78.700877 79.591914 79.592093 78.700698 80.695316 78.700698 C 81.794613 78.700698 82.685829 79.591914 82.685829 80.695137 Z M 82.685829 80.695137 " transform="matrix(0.994954,0,0,-0.994954,186.821246,166.409045)"/>
<path style="fill-rule:nonzero;fill:rgb(0%,60.78186%,46.665955%);fill-opacity:1;stroke-width:1.59404;stroke-linecap:butt;stroke-linejoin:miter;stroke:rgb(0%,60.78186%,46.665955%);stroke-opacity:1;stroke-miterlimit:10;" d="M 59.632 149.860551 C 59.632 150.959848 58.736858 151.851063 57.637561 151.851063 C 56.538264 151.851063 55.647048 150.959848 55.647048 149.860551 C 55.647048 148.757328 56.538264 147.866112 57.637561 147.866112 C 58.736858 147.866112 59.632 148.757328 59.632 149.860551 Z M 59.632 149.860551 " transform="matrix(0.994954,0,0,-0.994954,186.821246,166.409045)"/>
<path style="fill-rule:nonzero;fill:rgb(0%,65.098572%,83.921814%);fill-opacity:1;stroke-width:1.59404;stroke-linecap:butt;stroke-linejoin:miter;stroke:rgb(0%,65.098572%,83.921814%);stroke-opacity:1;stroke-miterlimit:10;" d="M 128.797413 80.695137 C 128.797413 81.794434 127.906197 82.68565 126.802974 82.68565 C 125.703677 82.68565 124.812461 81.794434 124.812461 80.695137 C 124.812461 79.591914 125.703677 78.700698 126.802974 78.700698 C 127.906197 78.700698 128.797413 79.591914 128.797413 80.695137 Z M 128.797413 80.695137 " transform="matrix(0.994954,0,0,-0.994954,186.821246,166.409045)"/>
</g>
</svg>
