<svg xmlns="http://www.w3.org/2000/svg" xmlns:xlink="http://www.w3.org/1999/xlink" width="284.637" height="292.48" viewBox="0 0 213.478 219.36"><path stroke-width=".399" stroke-miterlimit="10" fill="none" stroke="#000" d="M5.869 184.67H205.62"/><path d="m207.613 184.67-3.188-1.594 1.195 1.594-1.195 1.595"/><path stroke-width=".399" stroke-miterlimit="10" fill="none" stroke="#000" d="M34.69 213.491V13.74"/><path d="m34.69 11.747-1.594 3.188 1.594-1.195 1.594 1.195"/><path stroke-width="1.594" stroke-linecap="round" stroke-miterlimit="10" fill="none" stroke="#009b77" d="m63.51 184.67-.029-1.256-.08-1.255-.139-1.25-.19-1.243-.246-1.233-.298-1.222-.353-1.207-.403-1.191-.457-1.17-.505-1.153-.558-1.127-.603-1.103-.654-1.074-.697-1.046-.745-1.013-.786-.982-.83-.945-.868-.908-.91-.87-.944-.83-.982-.785-1.013-.745-1.046-.697 2.16 1.313"/><path d="m49.1 159.711 3.6 5.735-.366-3.768 3.514-1.407" fill="#009b77"/><symbol id="a"><path d="M.403.513c0 .102-.032.201-.114.201C.149.714 0 .421 0 .201 0 .155.01 0 .115 0c.136 0 .288.286.288.513M.1.372c.015.059.036.143.076.214.033.06.068.108.112.108C.321.694.343.666.343.57A.744.744 0 0 0 .311.372H.1m.204-.03A.845.845 0 0 0 .222.118C.193.067.158.02.116.02.085.02.06.044.06.143c0 .065.016.133.032.199h.212z"/></symbol><use xlink:href="#a" transform="matrix(11.9552 0 0 -11.9552 64.227 174.532)" fill="#009b77"/><path stroke-width="1.594" stroke-linecap="round" stroke-miterlimit="10" fill="none" stroke="#00a6d6" d="m34.69 184.67 3.902-6.76 3.903-6.759 3.903-6.76 3.902-6.76 3.903-6.76 3.903-6.76 3.903-6.759 3.902-6.76 3.903-6.76 3.903-6.76 3.903-6.759 3.902-6.76 3.903-6.76 3.903-6.76 3.902-6.759 3.903-6.76 3.903-6.76 3.903-6.76 3.902-6.759 3.903-6.76 3.903-6.76 3.903-6.76 3.902-6.759 3.903-6.76"/><symbol id="b"><path d="M.149.115a.602.602 0 0 1 .084.201c.035.138.073.258.135.327.012.013.02.022.052.022.069 0 .071-.069.071-.083C.491.564.486.55.486.545c0-.007.006-.007.007-.007.016 0 .043.011.068.029.018.014.027.024.027.065C.588.686.56.727.504.727.472.727.384.719.286.62.206.538.159.358.14.283.122.214.114.183.084.123A.445.445 0 0 0 .037.054C.01.029 0 .011 0 .006 0 .004.002 0 .009 0 .013 0 .034.004.06.021c.017.01.019.012.042.036A.529.529 0 0 0 .25.029C.301.015.352 0 .403 0c.081 0 .163.061.195.105.02.027.026.052.026.055 0 .007-.006.007-.007.007A.119.119 0 0 1 .56.144C.533.127.531.121.525.104.52.088.514.08.51.074.502.062.501.062.486.062.438.062.388.077.322.095.294.103.239.119.189.119a.181.181 0 0 1-.04-.004z"/></symbol><use xlink:href="#b" transform="matrix(11.9552 0 0 -11.9552 133.423 18.004)" fill="#00a6d6"/><path stroke-width=".797" stroke-linecap="round" stroke-miterlimit="10" fill="none" stroke="#000" d="m91.684 85.952-.39-.225-.39-.225-.39-.225-.39-.225-.39-.226-.39-.225-.39-.225-.39-.225-.39-.225-.39-.225-.39-.226-.39-.225-.39-.225-.39-.225-.39-.225-.39-.225-.39-.226-.39-.225-.39-.225-.39-.225-.39-.225-.39-.225-.39-.225-.39-.226"/><path stroke-width=".797" stroke-linecap="round" stroke-miterlimit="10" fill="none" stroke="#000" d="m87.728 71.189-.225.39-.225.39-.225.39-.225.39-.225.39-.226.39-.225.39-.225.39-.225.39-.225.39-.225.39-.226.39-.225.39-.225.39-.225.39-.225.39-.225.39-.226.39-.225.39-.225.39-.225.39-.225.39-.225.39-.226.39"/><path stroke-width="1.594" stroke-linecap="round" stroke-dasharray="2.98883,2.98883" stroke-miterlimit="10" fill="none" stroke="#ed6842" d="m37.968 42.46 59.12 34.132"/><path d="m34.69 40.568 3.73 5.651-.452-3.758 3.481-1.487" fill="#ed6842"/><path stroke-width="1.594" stroke-linecap="round" stroke-miterlimit="10" fill="none" stroke="#a50034" d="M34.69 184.67V44.356"/><path d="m34.69 40.57-3.03 6.058 3.03-2.272 3.028 2.272" fill="#a50034"/><symbol id="c"><path d="M.421.227c.023 0 .029 0 .029.025 0 .03-.007.105-.053.152a.211.211 0 0 1-.156.055C.085.459 0 .357 0 .231 0 .091.103 0 .254 0 .405 0 .45.106.45.123.45.138.435.138.429.138.413.138.412.135.406.122.38.057.314.036.266.036.121.036.12.171.12.227h.301M.12.256c.002.041.003.08.024.116a.111.111 0 0 0 .097.054c.107 0 .116-.12.117-.17H.12z"/></symbol><use xlink:href="#c" transform="matrix(11.9552 0 0 -11.9552 19.492 42.405)" fill="#a50034"/><symbol id="d"><path d="M.229.204c.016.015.058.048.074.062.062.057.121.112.121.203 0 .119-.1.196-.225.196C.079.665 0 .574 0 .485 0 .436.039.429.053.429c.021 0 .052.015.052.053 0 .052-.05.052-.062.052a.155.155 0 0 0 .145.098C.281.632.329.553.329.469.329.365.256.289.138.168L.012.038C0 .027 0 .025 0 0h.395l.029.179H.393A.316.316 0 0 0 .37.09C.364.082.288.082.272.082H.094l.135.122z"/></symbol><use xlink:href="#d" transform="matrix(7.9701 0 0 -7.9701 25.68 44.126)" fill="#a50034"/><path stroke-width="2.989" stroke-linecap="round" stroke-miterlimit="10" fill="none" stroke="#0076c2" d="m34.69 184.67 3.002-5.2 3.002-5.2 3.002-5.199 3.002-5.2 3.002-5.2 3.002-5.2 3.002-5.2 3.002-5.199 3.002-5.2 3.002-5.2 3.002-5.2 3.003-5.2 3.002-5.199 3.002-5.2 3.002-5.2 3.002-5.2 3.002-5.2 3.002-5.199 3.002-5.2 3.002-5.2 3.002-5.2 3.002-5.2 3.003-5.199.063-.11"/><path d="m106.74 59.875-8.775 5.794 5.836-.703 2.309 5.405" fill="#0076c2"/><symbol id="e"><path d="M.471.383c.007.015.011.023.074.023v.043C.509.447.507.447.466.447L.38.449V.406C.407.406.429.401.429.394L.424.382.307.125.178.406h.055v.043C.21.447.14.447.113.447c-.029 0-.087 0-.113.002V.406h.063L.239.024C.248.005.25 0 .273 0c.016 0 .024.002.033.022l.165.361z"/></symbol><use xlink:href="#e" transform="matrix(11.9552 0 0 -11.9552 94.344 54.542)" fill="#0076c2"/><path stroke-width="1.594" stroke-linecap="round" stroke-miterlimit="10" fill="none" stroke="#ed6842" d="m34.69 184.67 2.6-4.503 2.6-4.503 2.6-4.503 2.6-4.503 2.6-4.504 2.6-4.503 2.599-4.503 2.6-4.503 2.6-4.504 2.6-4.503 2.6-4.503 2.6-4.503 2.6-4.503 2.6-4.504 2.6-4.503 2.6-4.503 2.6-4.503 2.6-4.504 2.6-4.503 2.6-4.503 2.599-4.503 2.6-4.504 2.6-4.503.707-1.224"/><path d="m97.088 76.593-5.652 3.731 3.759-.452 1.487 3.48" fill="#ed6842"/><symbol id="f"><path d="M.393.61c.006.024.008.033.023.037.008.002.041.002.062.002.1 0 .147-.004.147-.082a.747.747 0 0 0-.01-.09L.614.465c0-.004.004-.01.01-.01.01 0 .01.005.013.021l.029.177.002.014c0 .011-.006.011-.026.011H.095C.072.678.071.677.065.659L.004.479A.103.103 0 0 1 0 .465a.01.01 0 0 1 .01-.01c.008 0 .01.004.014.017.042.121.063.177.196.177h.067c.024 0 .034 0 .034-.011 0-.003 0-.005-.005-.023L.182.078C.172.039.17.029.064.029.039.029.032.029.032.01.032 0 .043 0 .048 0l.076.002H.28L.357 0c.011 0 .021 0 .021.019 0 .01-.007.01-.033.01-.09 0-.09.009-.09.024 0 .001 0 .008.004.024L.393.61z"/></symbol><use xlink:href="#f" transform="matrix(11.9552 0 0 -11.9552 104.064 87.271)" fill="#ed6842"/><symbol id="g"><path d="M.153.115a.55.55 0 0 1 .086.194c.018.068.065.253.142.33.014.014.023.023.059.023C.492.662.516.62.516.577.516.561.512.547.512.543c0-.007.007-.007.01-.007.017 0 .045.015.063.027.023.017.03.028.03.065C.615.667.597.725.52.725A.335.335 0 0 1 .292.609C.241.55.192.466.143.274.131.228.102.115.035.05.017.033 0 .017 0 .007 0 .001.005 0 .01 0c.009 0 .053.011.093.056A.566.566 0 0 0 .257.031C.325.014.377 0 .434 0c.063 0 .12.033.156.061.06.046.071.094.071.1 0 .007-.006.007-.01.007A.125.125 0 0 1 .596.145C.568.127.565.119.56.105.547.063.532.063.514.063.464.063.401.08.358.091a.648.648 0 0 1-.165.028c-.001 0-.026 0-.04-.004z"/></symbol><use xlink:href="#g" transform="matrix(7.9701 0 0 -7.9701 110.909 89.232)" fill="#ed6842"/><symbol id="h"><path d="M.227.008c0 .003 0 .005-.017.022C.11.131.054.296.054.5c0 .194.047.361.163.479.01.009.01.011.01.014 0 .006-.005.008-.009.008a.42.42 0 0 1-.144-.17A.713.713 0 0 1 0 .5C0 .411.014.292.066.185A.426.426 0 0 1 .218 0c.004 0 .009.002.009.008z"/></symbol><use xlink:href="#h" transform="matrix(11.9552 0 0 -11.9552 118.132 90.272)" fill="#ed6842"/><symbol id="i"><path d="M.134.242c.027 0 .095.002.143.02C.353.291.36.349.36.367.36.411.322.451.256.451A.27.27 0 0 1 0 .178C0 .073.06 0 .151 0c.136 0 .222.106.222.119C.373.125.367.13.363.13.36.13.359.129.35.12a.256.256 0 0 0-.197-.1C.096.02.066.065.066.139c0 .014 0 .039.015.103h.053m-.048.02c.043.154.138.169.17.169C.3.431.33.405.33.367.33.262.17.262.128.262H.086z"/></symbol><use xlink:href="#i" transform="matrix(11.9552 0 0 -11.9552 122.05 87.39)" fill="#ed6842"/><use xlink:href="#d" transform="matrix(7.9701 0 0 -7.9701 127.36 89.065)" fill="#ed6842"/><symbol id="j"><path d="M.227.5c0 .076-.01.2-.066.316a.426.426 0 0 1-.152.185C.005 1.001 0 .999 0 .993 0 .99 0 .988.017.971.117.87.173.705.173.501.173.307.126.14.01.022 0 .013 0 .011 0 .008 0 .002.005 0 .009 0a.42.42 0 0 1 .144.17.72.72 0 0 1 .074.33z"/></symbol><use xlink:href="#j" transform="matrix(11.9552 0 0 -11.9552 132.328 90.272)" fill="#ed6842"/><symbol id="k"><path d="M.678.459C.678.624.57.725.43.725.216.725 0 .495 0 .264 0 .107.104 0 .249 0c.21 0 .429.219.429.459M.255.023c-.082 0-.169.06-.169.216 0 .091.033.24.115.34.073.088.157.124.224.124.088 0 .173-.064.173-.208A.631.631 0 0 0 .493.172C.42.07.329.023.255.023z"/></symbol><use xlink:href="#k" transform="matrix(11.9552 0 0 -11.9552 21.89 197.192)"/><symbol id="l"><path d="M.446.418C.414.412.402.388.402.369c0-.024.019-.032.033-.032.03 0 .051.026.051.053 0 .042-.048.061-.09.061C.335.451.301.391.292.372a.104.104 0 0 1-.103.079C.087.451.033.32.033.298c0-.004.004-.009.011-.009.008 0 .01.006.012.01.034.111.101.132.13.132C.231.431.24.389.24.365.24.343.234.32.222.272L.188.135C.173.075.144.02.091.02.086.02.061.02.04.033a.052.052 0 0 1 .044.049c0 .02-.015.032-.034.032A.052.052 0 0 1 0 .061C0 .019.047 0 .09 0c.048 0 .082.038.103.079A.105.105 0 0 1 .296 0c.102 0 .156.131.156.153 0 .005-.004.009-.01.009C.433.162.432.157.429.149.402.061.344.02.299.02.264.02.245.046.245.087c0 .022.004.038.02.104L.3.327c.015.06.049.104.095.104.002 0 .03 0 .051-.013z"/></symbol><use xlink:href="#l" transform="matrix(11.9552 0 0 -11.9552 192.504 178.89)"/><symbol id="m"><path d="M.218.637c0 .027-.002.028-.029.028C.148.625.095.601 0 .601V.568c.027 0 .081 0 .139.027V.082C.139.045.136.033.041.033H.006V0c.041.003.127.003.172.003C.223.003.31.003.351 0v.033H.316C.221.033.218.045.218.082v.555z"/></symbol><use xlink:href="#m" transform="matrix(7.9701 0 0 -7.9701 199.586 180.564)"/><use xlink:href="#l" transform="matrix(11.9552 0 0 -11.9552 39.13 21.08)"/><use xlink:href="#d" transform="matrix(7.9701 0 0 -7.9701 45.87 22.753)"/></svg>